<svg width="196" height="33" viewBox="0 0 196 33" fill="none" xmlns="http://www.w3.org/2000/svg">
<g clip-path="url(#clip0_1467_9166)">
<path d="M16.302 20.4679L23.022 25.3585L20.4499 17.4612L27.1699 12.6793H18.9284L16.302 4.52832L13.6756 12.6793H5.43408L12.1541 17.4612L9.58201 25.3585L16.302 20.4679Z" fill="#E1AB3B"/>
</g>
<g clip-path="url(#clip1_1467_9166)">
<path d="M57.0567 20.4679L63.7767 25.3585L61.2047 17.4612L67.9247 12.6793H59.6832L57.0567 4.52832L54.4303 12.6793H46.1888L52.9088 17.4612L50.3367 25.3585L57.0567 20.4679Z" fill="#E1AB3B"/>
</g>
<g clip-path="url(#clip2_1467_9166)">
<path d="M97.8114 20.4679L104.531 25.3585L101.959 17.4612L108.679 12.6793H100.438L97.8114 4.52832L95.185 12.6793H86.9435L93.6635 17.4612L91.0914 25.3585L97.8114 20.4679Z" fill="#E1AB3B"/>
</g>
<g clip-path="url(#clip3_1467_9166)">
<path d="M138.566 20.4679L145.286 25.3585L142.714 17.4612L149.434 12.6793H141.193L138.566 4.52832L135.94 12.6793H127.698L134.418 17.4612L131.846 25.3585L138.566 20.4679Z" fill="#E1AB3B"/>
</g>
<g clip-path="url(#clip4_1467_9166)">
<path d="M179.321 20.4679L186.041 25.3585L183.469 17.4612L190.189 12.6793H181.947L179.321 4.52832L176.694 12.6793H168.453L175.173 17.4612L172.601 25.3585L179.321 20.4679Z" fill="#E1AB3B"/>
</g>
<defs>
<clipPath id="clip0_1467_9166">
<rect width="32.6038" height="32.6038" fill="white"/>
</clipPath>
<clipPath id="clip1_1467_9166">
<rect width="32.6038" height="32.6038" fill="white" transform="translate(40.7547)"/>
</clipPath>
<clipPath id="clip2_1467_9166">
<rect width="32.6038" height="32.6038" fill="white" transform="translate(81.5094)"/>
</clipPath>
<clipPath id="clip3_1467_9166">
<rect width="32.6038" height="32.6038" fill="white" transform="translate(122.264)"/>
</clipPath>
<clipPath id="clip4_1467_9166">
<rect width="32.6038" height="32.6038" fill="white" transform="translate(163.019)"/>
</clipPath>
</defs>
</svg>
