<svg width="615" height="400" viewBox="0 0 615 400" fill="none" xmlns="http://www.w3.org/2000/svg">
<rect width="615.011" height="399.093" fill="#06225C"/>
<g clip-path="url(#clip0_1594_8769)">
<path d="M61.6512 398.835C61.6512 398.835 -44.331 255.69 38.8802 167.948C162.736 37.3526 247.03 222.95 294.74 146.14C373.661 19.0852 631.852 51.6921 552.858 209.689C511.414 292.58 650.075 280.193 593.547 399L61.6512 398.835Z" fill="#EBF3FA"/>
<path d="M416.333 220.77L420.158 211.04L420.249 210.808C420.708 209.62 420.279 208.252 419.252 207.626L412.157 203.296C412.038 203.225 411.93 203.145 411.829 203.058C411.136 202.431 410.815 201.41 411.077 200.456C412.55 194.805 412.977 188.906 412.317 183.081C412.294 182.84 412.302 182.599 412.334 182.372C412.467 181.505 413.027 180.75 413.803 180.424L420.161 177.829C420.995 177.481 421.56 176.639 421.648 175.714C421.667 175.432 421.657 175.129 421.587 174.831L419.1 164.371C418.797 163.086 417.618 162.251 416.401 162.48L407.492 164.121C406.613 164.279 405.734 163.88 405.224 163.081C404.476 161.946 403.694 160.842 402.844 159.768C401.251 157.754 399.528 155.944 397.7 154.329L397.692 154.319C396.929 153.645 396.629 152.553 396.935 151.541L399.803 142.079L399.943 141.602C400.321 140.391 399.769 139.039 398.668 138.532L389.506 134.283C388.388 133.774 387.086 134.244 386.492 135.396L382.052 143.965C381.559 144.92 380.56 145.424 379.585 145.211C375.445 144.383 371.209 144.24 367.031 144.821C365.966 144.956 364.958 144.295 364.575 143.199L361.724 135.026C361.286 133.783 360.073 133.115 358.904 133.446L349.227 136.151C348.083 136.474 347.36 137.695 347.559 138.945L349.322 150.316C349.476 151.279 349.106 152.252 348.377 152.83C347.477 153.537 346.597 154.292 345.741 155.093C344.122 156.602 342.645 158.213 341.307 159.906C340.705 160.682 339.735 160.994 338.849 160.663L328.377 156.91C327.219 156.504 325.982 157.114 325.507 158.316L321.573 168.294C321.163 169.352 321.472 170.586 322.29 171.274C322.374 171.343 322.467 171.421 322.571 171.474L331.327 176.827C332.143 177.32 332.616 178.281 332.515 179.286C332.509 179.373 332.502 179.463 332.481 179.55C332.43 179.812 332.38 180.057 332.352 180.33C331.811 183.411 331.583 186.564 331.659 189.714C331.701 190.765 331.093 191.728 330.169 192.095L322.218 195.369C321.089 195.828 320.466 197.152 320.77 198.421L321.32 200.747L323.258 208.862C323.554 210.138 324.708 210.943 325.908 210.732L334.684 209.117C335.62 208.936 336.543 209.429 337.021 210.322C338.266 212.662 339.743 214.931 341.436 217.069C342.692 218.655 344.046 220.134 345.458 221.474L344.854 223.459L342.389 231.604C342.074 232.609 342.398 233.71 343.148 234.329C343.302 234.467 343.476 234.57 343.666 234.655L352.881 238.955C353.976 239.453 355.235 238.971 355.821 237.863L358.845 232.001C359.357 231.012 360.447 230.507 361.455 230.803C365.64 232.035 369.964 232.54 374.261 232.297C375.28 232.237 376.199 232.882 376.531 233.894L380.133 244.225C380.543 245.377 381.678 246.021 382.785 245.712L392.564 242.961C393.725 242.637 394.456 241.41 394.249 240.15L392.412 228.321C392.245 227.304 392.676 226.29 393.492 225.744C395.234 224.581 396.905 223.236 398.516 221.734C399.383 220.926 400.209 220.086 400.997 219.219C401.617 218.542 402.534 218.297 403.373 218.588L413.414 222.181C414.585 222.599 415.838 221.991 416.333 220.77ZM390.229 175.124C394.752 182.324 395.306 190.471 392.818 196.721C384.064 218.613 356.909 216.654 350.755 194.089C349.246 188.291 349.886 181.828 353.739 175.533C362.762 160.955 381.574 161.37 390.229 175.124Z" fill="#DFEDFB"/>
<path d="M291.709 353.806L300.495 337.452L300.702 337.062C301.761 335.064 301.279 332.533 299.582 331.173L287.873 321.775C287.679 321.619 287.501 321.452 287.343 321.27C286.242 319.993 285.878 318.102 286.542 316.471C290.315 306.791 292.278 296.423 292.301 285.92C292.308 285.484 292.371 285.061 292.477 284.664C292.893 283.155 294.041 281.953 295.484 281.558L307.303 278.481C308.856 278.064 310.032 276.705 310.38 275.083C310.473 274.586 310.513 274.046 310.452 273.498L308.176 254.324C307.901 251.968 305.982 250.204 303.771 250.316L287.618 251.08C286.026 251.151 284.545 250.227 283.805 248.689C282.71 246.492 281.548 244.344 280.258 242.236C277.841 238.276 275.152 234.646 272.24 231.338L272.229 231.319C271.012 229.936 270.703 227.928 271.456 226.203L278.483 210.094L278.828 209.28C279.749 207.22 279.043 204.689 277.192 203.521L261.795 193.766C259.914 192.593 257.509 193.114 256.215 195.011L246.575 209.156C245.506 210.732 243.627 211.386 241.94 210.771C234.761 208.303 227.268 207.027 219.73 207.052C217.813 207.034 216.153 205.62 215.701 203.578L212.311 188.381C211.789 186.068 209.773 184.588 207.63 184.893L189.893 187.362C187.796 187.66 186.264 189.652 186.361 191.921L187.162 212.533C187.238 214.279 186.383 215.917 184.971 216.773C183.227 217.812 181.513 218.939 179.826 220.153C176.643 222.445 173.689 224.948 170.971 227.63C169.743 228.864 167.955 229.181 166.452 228.382L148.627 219.194C146.655 218.193 144.334 218.978 143.241 220.999L134.215 237.769C133.272 239.549 133.564 241.813 134.878 243.234C135.016 243.376 135.164 243.539 135.335 243.658L149.787 255.274C151.135 256.346 151.778 258.17 151.391 259.927C151.362 260.083 151.334 260.237 151.275 260.386C151.131 260.84 150.992 261.262 150.888 261.74C149.297 267.081 148.246 272.622 147.737 278.231C147.595 280.108 146.321 281.67 144.603 282.102L129.816 285.995C127.72 286.537 126.342 288.739 126.621 291.063L127.12 295.329L128.901 310.205C129.165 312.543 131.051 314.25 133.226 314.163L149.138 313.41C150.84 313.316 152.376 314.413 153.042 316.113C154.773 320.568 156.933 324.955 159.499 329.156C161.403 332.274 163.504 335.227 165.736 337.948L164.256 341.325L158.214 355.194C157.448 356.901 157.799 358.934 159.004 360.219C159.249 360.499 159.535 360.724 159.856 360.923L175.337 370.777C177.178 371.927 179.516 371.374 180.78 369.55L187.35 359.872C188.46 358.241 190.5 357.606 192.233 358.374C199.41 361.57 206.987 363.511 214.663 364.115C216.483 364.257 217.986 365.622 218.366 367.499L222.646 386.709C223.139 388.854 225.02 390.27 227.053 389.99L244.978 387.464C247.102 387.173 248.653 385.167 248.543 382.88L247.704 361.435C247.617 359.588 248.587 357.895 250.147 357.122C253.478 355.477 256.722 353.492 259.888 351.211C261.592 349.986 263.232 348.697 264.809 347.345C266.047 346.292 267.725 346.079 269.156 346.797L286.248 355.6C288.233 356.631 290.583 355.855 291.709 353.806ZM254.704 266.468C256.904 271.123 258.449 276.41 259.18 282.311C259.349 283.561 259.398 284.977 259.388 286.463C259.265 292.871 257.49 300.628 254.879 305.437C234.856 342.195 187.044 332.166 180.737 290.621C180.642 289.937 180.545 289.253 180.467 288.556C179.697 282.065 181.591 272.071 184.599 266.411C186.18 263.444 187.944 260.776 189.832 258.394C208.836 234.685 242.152 239.957 254.704 266.468Z" fill="#D6E8FC"/>
<path d="M85.7138 397.603C85.7138 397.603 85.2467 393.654 84.1646 391.307C83.0824 388.96 76.2008 390.454 76.2008 390.454C76.2008 390.454 74.8249 391.734 74.5291 397.711L85.7138 397.603Z" fill="#233862"/>
<path d="M109.161 397.55C107.544 396.479 108.464 388.485 108.464 388.485C108.464 388.485 115.998 381.942 117.034 386.953C118.069 391.963 124.192 394.212 127.678 394.824C130.083 395.249 130.829 396.694 131.059 397.55H109.161Z" fill="#233862"/>
<path d="M93.5549 339.417C93.8613 341.252 94.0558 342.755 94.1086 343.835C94.8082 358.666 105.61 392.578 107.542 393.37C110.531 394.595 115.237 391.991 117.702 391.14C118.723 390.786 119.412 389.669 119.183 388.536C113.834 361.844 111.868 323.407 111.154 300.652C110.793 289.189 108.981 281.271 108.981 281.271C108.981 281.271 82.6385 273.643 82.4821 283.293C82.3405 291.832 91.2046 325.327 93.5549 339.417Z" fill="#213F7A"/>
<path d="M93.5548 339.417L111.152 300.652C110.791 289.189 108.979 281.271 108.979 281.271C108.979 281.271 82.6364 273.643 82.48 283.293C82.3405 291.832 91.2046 325.327 93.5548 339.417Z" fill="#233862"/>
<path d="M99.4157 283.327L85.4897 392.888C85.4897 392.888 79.3753 394.489 74.6178 393.209C74.6178 393.209 70.5408 334.94 70.8811 320.851C71.2214 306.764 67.956 283.155 71.6272 280.553C75.2962 277.949 99.4157 283.327 99.4157 283.327Z" fill="#213F7A"/>
<path d="M68.9113 281.501C68.8437 282.492 69.427 283.391 70.3062 283.669C72.2486 284.281 74.4889 284.706 78.8068 285.679C82.8626 286.594 88.3218 287.404 95.028 287.448C105.695 287.521 109.734 283.531 109.734 283.531C110.192 283.54 109.491 281.118 108.859 269.593C108.645 265.691 108.438 260.742 108.288 254.49C108.153 248.864 108.062 242.178 108.054 234.249C108.043 224.709 94.4405 214.447 94.189 214.447L94.1868 214.451C94.1868 215.826 92.1917 218.359 89.1208 218.579C85.4749 218.838 81.0027 216.867 81.0027 214.589C81.0027 214.566 74.4128 226.033 72.0731 238.253C71.7751 239.801 71.5448 241.435 71.363 243.156C70.8072 248.334 71.344 244.638 68.9113 281.501Z" fill="#F99746"/>
<path d="M94.191 214.447C94.191 214.447 106.838 214.33 109.884 218.964C112.927 223.599 119.602 248.529 116.119 256.825C112.636 265.122 106.12 253.393 102.501 248.313C98.8851 243.229 94.191 214.447 94.191 214.447Z" fill="#F99746"/>
<path d="M94.32 212.35L94.3136 213.77C94.3136 213.77 94.6687 218.209 89.6343 218.856C84.5999 219.506 80.8505 218.04 80.9879 214.614C81.4423 211.962 81.8735 209.225 81.9073 207.031C81.92 206.217 81.8692 205.35 81.7276 204.375L91.4836 204.164L94.358 204.673L94.32 212.35Z" fill="#FFB27D"/>
<path d="M94.3579 204.673L94.3199 212.35C93.2842 212.873 92.1134 213.192 90.803 213.192C86.3181 213.192 83.4205 209.622 81.9051 207.032C81.9178 206.217 81.8671 205.35 81.7255 204.375L91.4814 204.164L94.3579 204.673Z" fill="#E2915A"/>
<path d="M80.9795 202.67C82.1123 209.285 89.9725 209.067 93.3689 208.651C94.3242 208.537 94.9266 208.404 94.9266 208.404C96.0045 208.092 96.6068 206.247 96.8858 203.833C97.4396 199.054 96.74 192.041 95.996 190.249C94.8759 187.548 92.7687 184.63 84.8536 186.736C76.9363 188.842 79.5275 194.197 80.9795 202.67Z" fill="#FFB27D"/>
<path d="M107.126 233.024C107.126 233.024 112.016 244.75 111.875 248.267C111.875 248.267 109.453 248.178 107.126 248.93C103.3 250.167 107.126 233.024 107.126 233.024Z" fill="#ED7D2B"/>
<path d="M98.4266 183.951C98.4266 183.951 94.9414 183.659 90.8327 181.721C87.4976 180.147 83.2875 181.881 81.9221 182.661C81.9581 182.423 82.0468 182.097 82.2561 181.769C82.2561 181.769 81.6431 182.241 81.5523 182.9C81.4889 182.95 81.4614 182.985 81.4762 182.996C81.4762 182.996 80.7808 182.859 80.3349 183.077C80.3349 183.077 80.6477 183.028 80.7597 183.246C80.7724 183.269 80.7893 183.29 80.8104 183.306C75.607 186.036 75.1272 194.963 76.8011 197.028C78.8153 199.513 81.7995 205.042 81.7995 205.042C81.7995 205.042 82.1123 203.787 81.7467 201.601C81.3811 199.414 83.1205 199.414 85.3185 198.419C87.5166 197.425 85.6842 194.642 87.6075 192.951C89.5308 191.26 96.5815 192.256 96.4906 190.962C99.105 189.932 98.4266 184.242 98.4266 183.951Z" fill="#233862"/>
<path d="M79.3859 254.992C81.4508 263.995 103.784 268.646 108.861 269.591C108.648 265.688 108.44 260.739 108.29 254.487L79.3859 254.992Z" fill="#ED7D2B"/>
<path d="M84.2871 257.92C84.0736 257.92 79.3225 257.149 78.4707 256.688C77.619 256.226 73.728 250.22 76.2769 248.68C78.8258 247.141 85.6693 253.299 85.6693 253.299L84.2871 257.92Z" fill="#FFB27D"/>
<path d="M113.189 259.702C113.189 259.702 94.8103 260.785 82.478 257.917C82.478 257.917 82.1673 254.049 86.0435 252.331C86.0435 252.331 105.266 247.907 109.884 249.139C114.502 250.374 113.189 259.702 113.189 259.702Z" fill="#F99746"/>
<path d="M70.9846 244.046C74.7995 249.039 79.7853 253.113 85.2804 254.07L85.2826 254.068C85.3269 253.992 86.9459 251.326 86.6437 247.405C86.5042 245.59 85.9504 243.507 84.6422 241.288C84.2385 240.607 83.8813 239.808 83.5622 238.923C80.561 230.608 81.0069 214.587 81.0069 214.587C81.0069 214.587 68.2603 216.037 64.289 222.195C61.8543 225.967 64.9569 236.154 70.9846 244.046Z" fill="#F99746"/>
<path d="M93.3689 208.651C94.3242 208.537 94.9265 208.404 94.9265 208.404C96.0044 208.092 96.6068 206.247 96.8858 203.833C94.8653 204.375 93.9374 206.07 93.5527 206.791C93.3794 207.116 93.3435 207.844 93.3689 208.651Z" fill="#E2915A"/>
<path d="M98.5047 212.391C98.5047 212.391 102.907 204.506 99.4832 204.161C96.0593 203.817 94.6834 206.334 94.191 207.257C93.6964 208.181 94.3199 212.348 94.3199 212.348L98.5047 212.391Z" fill="#FFB27D"/>
<path d="M81.7276 247.141C81.8628 248.141 82.1376 249.059 82.4779 249.878C83.5537 252.468 85.2804 254.07 85.2804 254.07L85.2825 254.068C96.7145 248.465 99.0288 229.229 99.4156 218.659C99.572 214.41 99.4156 211.563 99.4156 211.563C94.2586 209.709 92.8087 212.93 92.8087 212.93C92.8087 212.93 86.7197 228.651 83.56 238.925C82.3511 242.855 81.5733 245.989 81.7276 247.141Z" fill="#F99746"/>
<path d="M70.9846 244.046C74.7995 249.038 79.7853 253.113 85.2804 254.07L85.2825 254.068C96.7145 248.465 99.0288 229.229 99.4156 218.659C99.4156 218.659 94.005 239.96 86.6415 247.405C85.31 248.752 83.9151 249.646 82.4779 249.878C82.4779 249.878 73.1932 247.029 71.2446 244.346C71.1051 244.154 71.0205 244.06 70.9846 244.046Z" fill="#ED7D2B"/>
<path d="M547.517 359.407C547.517 359.407 541.924 352.324 547.172 347.827C547.172 347.827 551.004 345.308 554.13 345.512C554.13 345.512 549.702 353.572 551.135 354.375C552.568 355.176 555.472 345.007 555.472 345.007C555.472 345.007 564.192 344.09 566.999 345.553C566.999 345.553 559.543 352.177 561.113 352.572C562.683 352.966 570.736 346.464 570.736 346.464C570.736 346.464 578.854 347.965 578.421 353.338C577.987 358.714 575.191 360.373 573.961 360.23C572.731 360.088 565.541 357.108 565.384 358.202C565.228 359.297 569.556 362.869 572.587 363.036C572.587 363.036 566.864 369.887 563.062 367.909C559.257 365.932 558.934 362.798 556.563 361.623C554.191 360.448 552.169 360.451 553.147 361.648C554.126 362.848 558.416 364.011 559.773 366.615C561.128 369.22 562.345 370.975 558.41 370.332C554.474 369.69 548.079 366.563 547.798 362.984C547.517 359.407 547.517 359.407 547.517 359.407Z" fill="#C8DBF4"/>
<path d="M574.432 353.483C574.432 353.483 552.386 352.56 547.517 359.404C547.517 359.404 546.441 362.906 543.127 366.093L542.611 367.621C542.611 367.621 546.432 363.248 547.798 362.984C547.798 362.986 545.661 354.506 574.432 353.483Z" fill="#C8DBF4"/>
<path d="M543.127 366.095C543.127 366.095 538.395 369.894 538.065 376.681L538.923 376.763C538.923 376.763 540.434 369.745 543.167 367.001C545.9 364.257 543.127 366.095 543.127 366.095Z" fill="#C8DBF4"/>
<path d="M527.967 350.5C527.967 350.5 536.86 345.092 532.712 337.755C532.712 337.755 529.391 333.249 525.832 332.091C525.832 332.091 527.73 343.034 525.832 343.291C523.934 343.548 524.528 330.932 524.528 330.932C524.528 330.932 515.159 326.04 511.483 326.426C511.483 326.426 517.296 337.111 515.398 336.854C513.5 336.597 506.977 325.781 506.977 325.781C506.977 325.781 497.371 323.849 495.829 330.03C494.288 336.209 496.777 339.299 498.2 339.687C499.622 340.073 508.755 339.944 508.518 341.231C508.281 342.518 502.114 344.579 498.675 343.42C498.675 343.42 502.471 353.591 507.451 353.077C512.432 352.56 513.973 349.215 517.057 348.956C520.14 348.699 522.393 349.601 520.853 350.5C519.31 351.402 514.094 350.796 511.602 353.093C509.112 355.392 507.096 356.807 511.72 357.837C516.344 358.868 524.646 358.223 526.308 354.362C527.967 350.5 527.967 350.5 527.967 350.5Z" fill="#C8DBF4"/>
<path d="M500.216 331.962C500.216 331.962 525.122 340.717 527.969 350.5C527.969 350.5 527.85 354.878 530.34 359.898V361.83C530.34 361.83 527.73 355.263 526.308 354.362C526.308 354.362 531.881 345.866 500.216 331.962Z" fill="#C8DBF4"/>
<path d="M530.34 359.898C530.34 359.898 534.18 366.23 531.991 373.937L531.002 373.65C531.002 373.65 531.961 365.161 529.951 360.891C527.941 356.622 530.34 359.898 530.34 359.898Z" fill="#C8DBF4"/>
<path d="M542.119 343.044C542.119 343.044 530.393 335.915 535.865 326.242C535.865 326.242 540.242 320.302 544.932 318.774C544.932 318.774 542.432 333.199 544.932 333.538C547.434 333.878 546.652 317.246 546.652 317.246C546.652 317.246 559.004 310.797 563.848 311.306C563.848 311.306 556.189 325.391 558.689 325.052C561.191 324.712 569.789 310.457 569.789 310.457C569.789 310.457 582.453 307.913 584.484 316.058C586.515 324.203 583.233 328.277 581.358 328.787C579.482 329.296 567.445 329.126 567.758 330.824C568.071 332.522 576.199 335.236 580.733 333.71C580.733 333.71 575.73 347.116 569.163 346.439C562.597 345.76 560.566 341.348 556.501 341.009C552.437 340.669 549.465 341.858 551.499 343.046C553.532 344.234 560.409 343.436 563.694 346.465C566.976 349.495 569.635 351.361 563.537 352.719C557.44 354.077 546.498 353.228 544.308 348.137C542.119 343.044 542.119 343.044 542.119 343.044Z" fill="#D4E4F8"/>
<path d="M578.7 318.604C578.7 318.604 545.87 330.145 542.119 343.041C542.119 343.041 542.275 348.811 538.993 355.431V357.977C538.993 357.977 542.432 349.323 544.309 348.135C544.306 348.135 536.96 336.934 578.7 318.604Z" fill="#D4E4F8"/>
<path d="M538.991 355.43C538.991 355.43 533.927 363.777 536.814 373.937L538.116 373.556C538.116 373.556 536.852 362.366 539.5 356.738C542.151 351.11 538.991 355.43 538.991 355.43Z" fill="#D4E4F8"/>
<path d="M541.724 395.969C554.409 395.969 564.691 384.807 564.691 371.037H518.756C518.756 384.805 529.038 395.969 541.724 395.969Z" fill="#D4E4F8"/>
<path d="M565.008 397.238H518.439C518.439 395.54 519.707 394.161 521.273 394.161H562.176C563.738 394.161 565.008 395.538 565.008 397.238Z" fill="#D4E4F8"/>
<path d="M565.211 371.037H517.999V371.801H565.211V371.037Z" fill="#9FC1F4"/>
<path d="M461.845 204.776C458.464 202.872 455.756 204.069 455.756 204.069C445.413 202.75 442.395 215.846 442.534 220.352C442.674 224.858 443.147 229.697 438.529 235.552C425.184 252.461 453.131 253.207 453.131 253.207C453.368 239.698 468.287 244.626 467.632 245.996C486.755 250.977 469.532 209.106 461.845 204.776Z" fill="#163560"/>
<path d="M421.942 261.097C421.942 261.097 420.123 258.092 418.658 258.032C417.191 257.972 414.477 257.149 414.695 257.738C414.913 258.328 416.595 258.388 416.758 258.741C416.921 259.094 414.26 259.624 413.499 259.684C412.738 259.744 410.946 259.684 411.001 260.097C411.055 260.51 414.23 262.219 416.47 261.983C418.711 261.747 421.479 262.689 421.479 262.689L421.942 261.097Z" fill="#FFB27D"/>
<path d="M448.251 262.07C448.251 262.07 447.262 264.195 445.47 266.638C443.308 269.577 439.975 272.973 435.79 273.643C433.791 273.961 431.836 273.496 430.039 272.628C430.035 272.626 430.033 272.626 430.033 272.626C424.95 270.178 421.129 264.546 421.129 264.546C420.232 261.893 421.699 260.095 421.699 260.095C421.699 260.095 431.962 262.6 432.939 262.07C433.915 261.54 439.618 243.708 440.975 241.469C442.334 239.228 446.96 238.064 446.96 238.064L448.251 262.07Z" fill="#F9DDBF"/>
<path d="M445.468 266.638C443.306 269.577 439.973 272.973 435.788 273.643C433.789 273.962 431.834 273.496 430.037 272.629C430.236 272.656 435.312 273.337 437.335 269.407C439.398 265.399 441.63 259.032 444.696 261.155C446.022 262.072 445.962 264.348 445.468 266.638Z" fill="#F2CCAA"/>
<path d="M486.54 382.327C486.54 382.327 489.672 385.429 489.061 387.634C488.451 389.839 485.625 391.307 485.242 394.003C484.86 396.696 483.334 398.167 481.958 398.167C480.584 398.167 475.404 398.167 475.404 398.167C475.404 398.167 474.391 396.272 476.837 395.701C479.28 395.129 480.201 391.963 480.049 389.024C479.897 386.085 480.278 382.166 480.278 382.166L485.47 380.861L486.54 382.327Z" fill="#233862"/>
<path d="M460.034 383.646C460.034 383.646 461.161 396.788 459.787 397.525L442.192 397.486C442.192 397.486 442.192 395.281 445.018 394.792C447.843 394.303 452.808 392.507 453.649 388.506C454.488 384.502 460.034 383.646 460.034 383.646Z" fill="#233862"/>
<path d="M472.572 289.359C468.951 280.544 466.736 278.013 467.159 275.278C467.474 273.241 466.199 237.314 466.199 237.314C465.77 237.17 464.908 237.041 464.439 236.927C462.953 236.569 461.725 235.435 461.214 233.882C460.596 232.008 460.108 229.243 460.119 225.776L459.656 225.875L451.857 227.552C451.857 227.552 452.035 230.216 452.039 232.726C452.039 232.746 452.039 232.767 452.039 232.788C452.047 234.967 450.731 236.892 448.801 237.496C447.816 237.805 446.958 238.069 446.958 238.069C446.958 238.069 444.094 246.944 443.547 256.061C442.999 265.179 448.754 269.139 443.502 287.358C438.145 305.963 474.573 294.227 472.572 289.359Z" fill="#FFB27D"/>
<path d="M451.857 227.549C451.857 227.549 452.035 230.213 452.039 232.723C456.403 232.59 458.709 228.268 459.654 225.872L451.857 227.549Z" fill="#E8945B"/>
<path d="M450.399 229.924C450.399 229.924 460.723 230.11 460.732 223.128C460.738 216.147 462.076 211.469 455.484 211.056C448.892 210.643 447.609 213.304 447.085 215.635C446.558 217.964 447.712 229.697 450.399 229.924Z" fill="#FFB27D"/>
<path d="M450.781 210.884C450.781 210.884 453.609 219.074 457.946 220.286C462.285 221.497 464.166 220.235 464.166 220.235C464.166 220.235 460.837 217.365 460.148 212.356C460.148 212.356 452.914 206.985 450.781 210.884Z" fill="#163560"/>
<path d="M451.481 211.549C451.481 211.549 449.384 212.4 448.522 214.059C447.679 215.681 446.96 217.831 447.127 220.469C447.127 220.469 444.997 214.901 447.391 211.753C449.93 208.413 451.481 211.549 451.481 211.549Z" fill="#163560"/>
<path d="M452.645 225.595C452.645 225.595 451.933 226.613 450.509 226.54C449.361 226.48 448.917 225.4 448.917 225.4C448.917 225.4 451.026 224.847 452.645 225.595Z" fill="#EBF3FA"/>
<path d="M473.569 253.207C473.569 253.207 473.831 257.22 473.569 262.036C473.394 265.227 470.42 269.504 469.999 270.561C468.94 273.214 467.746 273.645 467.746 273.645L458.508 276.102L455.26 276.965L445.018 273.645C445.018 273.645 440.351 259.51 442.226 251.551C444.098 243.594 446.962 238.067 446.962 238.067C446.962 238.067 455.321 246.95 466.203 237.314L473.569 253.207Z" fill="#F9DDBF"/>
<path d="M470.864 263.336C470.691 266.528 470.42 269.501 469.997 270.559C468.938 273.211 467.744 273.643 467.744 273.643L458.506 276.1L454.495 274.82C454.495 274.82 467.888 272.617 466.404 260.106L470.864 263.336Z" fill="#F2CCAA"/>
<path d="M445.667 275.788C445.667 275.788 440.594 292.929 440.269 298.763C439.943 304.598 449.965 381.662 450.369 384.351C450.75 386.886 453.649 388.501 453.649 388.501C453.649 388.501 454.983 389.355 456.885 388.772C459.525 387.962 460.36 386.994 460.36 386.994C460.36 386.994 464.308 332.033 461.864 312.398C459.421 292.766 459.392 275.788 459.392 275.788H445.667Z" fill="#ED7D2B"/>
<path d="M467.159 275.278C467.159 275.278 474.896 286.548 475.617 294.168C476.338 301.787 476.748 328.548 478.284 335.975C479.821 343.401 485.468 357.695 485.468 380.861C485.468 380.861 484.881 382.189 483.069 382.896C482.49 383.123 481.712 383.341 480.96 383.529C479.466 383.901 477.931 383.109 477.251 381.618C473.434 373.274 461.273 346.363 460.649 340.779C460.207 336.826 456.369 310.664 447.994 295.31C445.984 291.625 449.228 276.967 449.228 276.967L467.159 275.278Z" fill="#F99746"/>
<path d="M452.415 225.781C452.415 225.781 452.237 226.604 450.35 226.476C450.35 226.476 448.767 226.37 448.816 225.466C448.818 225.466 450.352 224.824 452.415 225.781Z" fill="white"/>
<path d="M444.857 273.142C444.857 273.142 446.894 274.891 450.94 274.98C455.771 275.086 467.746 273.642 467.746 273.642C467.746 273.642 468.279 275.255 468.256 276.96C468.256 276.96 453.632 280.964 445.159 277.545C445.157 277.545 444.064 275.313 444.857 273.142Z" fill="#233862"/>
<path d="M449.779 279.5C448.564 279.5 447.575 278.284 447.575 276.79C447.575 275.297 448.564 274.081 449.779 274.081C450.995 274.081 451.984 275.297 451.984 276.79C451.984 278.284 450.995 279.5 449.779 279.5ZM449.779 274.875C448.966 274.875 448.306 275.735 448.306 276.79C448.306 277.846 448.968 278.706 449.779 278.706C450.591 278.706 451.253 277.846 451.253 276.79C451.253 275.735 450.593 274.875 449.779 274.875Z" fill="white"/>
<path d="M465.65 253.978L450.666 268.141L468.524 290.406L483.508 276.243L465.65 253.978Z" fill="#B5453C"/>
<path d="M464.365 276.295C464.365 276.295 458.876 276.992 458.893 278.406C458.91 279.821 460.26 282.726 460.939 282.854C461.617 282.983 465.407 278.924 465.407 278.924L464.365 276.295Z" fill="#FFB27D"/>
<path d="M466.201 237.312C466.201 237.312 473.531 237.87 476.34 245.285C479.149 252.698 484.479 265.147 484.479 267.241C484.479 269.336 481.501 275.79 465.51 279.502C465.51 279.502 463.855 277.614 463.957 276.12C463.957 276.12 473.939 266.812 473.912 265.725C473.861 263.667 472.276 260.95 463.511 251.434C461.129 248.843 466.201 237.312 466.201 237.312Z" fill="#F9DDBF"/>
<path d="M524.701 192.924L529.072 209.507C529.135 209.75 529.159 209.998 529.144 210.239C529.091 211.111 528.541 211.893 527.723 212.148L501.193 220.389C500.37 220.644 499.521 220.29 499.054 219.574C498.927 219.382 498.828 219.164 498.764 218.923L494.396 202.346C494.095 201.213 494.7 200.031 495.742 199.708L522.273 191.467C523.313 191.143 524.399 191.792 524.701 192.924Z" fill="#CDE0FB"/>
<path d="M529.144 210.239C529.091 211.111 528.542 211.893 527.724 212.148L501.193 220.389C500.37 220.644 499.521 220.29 499.054 219.574L512.566 206.21L529.144 210.239Z" fill="#BED7FB"/>
<path d="M524.701 192.924L512.823 208.933L494.617 203.193L494.393 202.344C494.093 201.211 494.698 200.029 495.74 199.706L522.271 191.464C523.313 191.143 524.399 191.793 524.701 192.924Z" fill="#DFEBFD"/>
<path d="M314.324 397.71H314.248C313.802 397.71 313.445 397.311 313.453 396.829L314.658 340.196L318.205 339.747L315.182 396.832C315.155 397.325 314.779 397.71 314.324 397.71Z" fill="#B0D4FF"/>
<path d="M293.662 397.71H293.586C293.14 397.71 292.783 397.311 292.792 396.829L293.996 340.196L297.543 339.747L294.518 396.832C294.493 397.325 294.117 397.71 293.662 397.71Z" fill="#95C0F4"/>
<path d="M350.677 397.71H350.753C351.199 397.71 351.556 397.311 351.547 396.829L350.343 340.196L346.796 339.747L349.819 396.832C349.846 397.325 350.222 397.71 350.677 397.71Z" fill="#B0D4FF"/>
<path d="M291.314 336.684V297.878C291.314 291.05 296.414 285.513 302.704 285.513H328.459C334.749 285.513 339.849 291.05 339.849 297.878V338.168L291.314 336.684Z" fill="#B0D4FF"/>
<path d="M344.463 342.812H294.734C292.844 342.812 291.314 341.151 291.314 339.1V336.686H344.463V342.812Z" fill="#95C0F4"/>
<path d="M350.423 342.812H312.8C311.403 342.812 310.273 341.582 310.273 340.068V339.432C310.273 337.916 311.405 336.688 312.8 336.688H350.423C351.82 336.688 352.951 337.918 352.951 339.432V340.068C352.951 341.582 351.82 342.812 350.423 342.812Z" fill="#B0D4FF"/>
<path d="M348.963 327.015C345.272 333.986 340.631 336.677 340.631 336.677H321.324C321.324 336.677 351.776 321.697 348.963 327.015Z" fill="#233862"/>
<path d="M334.134 380.953C333.631 381.579 333.568 382.279 333.815 383.025C333.815 383.027 333.817 383.031 333.819 383.034C334.28 384.415 335.802 385.957 337.568 387.499C337.795 387.696 337.995 387.877 338.171 388.042C338.217 388.086 338.264 388.129 338.306 388.173C338.342 388.207 338.376 388.242 338.41 388.274C340.058 389.924 339.437 390.3 342.398 393.647C345.773 397.46 348.098 397.529 348.76 397.181C349.32 396.885 348.183 394.863 346.923 392.59C346.862 392.479 346.802 392.369 346.739 392.259C346.572 391.956 346.405 391.651 346.238 391.346C344.763 388.611 345.141 387.326 345.492 383.256C345.775 379.948 350.233 364.776 350.233 364.776L343.763 363.566C343.763 363.566 341.815 375.648 339.669 377.509C338.522 378.5 337.237 378.514 336.133 379.248C336.055 379.299 335.979 379.351 335.903 379.406C335.277 379.858 334.637 380.324 334.134 380.953Z" fill="#FFB27D"/>
<path d="M334.134 380.953C333.631 381.579 333.568 382.279 333.815 383.025C333.815 383.027 333.817 383.031 333.819 383.034C334.383 384.413 335.865 385.947 337.575 387.485C337.799 387.687 337.995 387.87 338.171 388.042C338.217 388.086 338.264 388.129 338.306 388.173C338.342 388.207 338.376 388.242 338.41 388.274C340.058 389.924 339.437 390.3 342.398 393.647C345.773 397.46 348.098 397.529 348.759 397.18C349.32 396.884 348.182 394.863 346.923 392.59C346.266 392.328 343.214 390.981 340.906 387.776C338.873 384.961 337.518 381.343 336.133 379.248C336.055 379.299 335.979 379.351 335.903 379.406C335.277 379.858 334.637 380.324 334.134 380.953Z" fill="#233862"/>
<path d="M386.296 376.566C386.695 378.734 389.542 378.372 392.721 377.53C395.902 376.685 395.145 377.688 399.67 377.144C404.195 376.601 405.567 374.77 405.704 374.038C405.827 373.388 403.59 373.161 401.192 372.861C400.889 372.824 400.587 372.783 400.285 372.744C397.578 372.374 395.593 370.477 393.133 368.919C390.804 367.444 387.325 361.43 387.325 361.43L381.117 361.965C381.117 361.965 384.374 367.336 385.634 369.669C386.376 371.044 386.336 372.859 386.243 374.26C386.2 375.024 386.154 375.802 386.296 376.566Z" fill="#FFB27D"/>
<path d="M392.723 377.53C395.904 376.685 395.147 377.688 399.672 377.144C404.197 376.601 405.569 374.77 405.706 374.038C405.829 373.389 403.593 373.161 401.194 372.861L401.171 372.911C401.171 372.911 398.457 375.001 394.688 375.098C391.617 375.178 388.365 374.224 386.245 374.26C386.196 375.022 386.152 375.802 386.294 376.566C386.695 378.734 389.542 378.372 392.723 377.53Z" fill="#233862"/>
<path d="M362.51 333.483L356.709 350.431L349.134 372.562C349.134 372.562 347.077 372.778 345.11 372.163C343.296 371.594 341.216 370.107 341.216 370.107C341.216 370.107 343.319 346.345 347.244 332.705C348.25 329.204 349.377 326.373 350.619 324.778C356.702 316.973 362.51 333.483 362.51 333.483Z" fill="#233862"/>
<path d="M356.611 306.566C352.809 305.235 341.969 306.945 331.078 309.257L328.797 305.173L305.274 303.18C305.274 303.18 297.511 321.867 301.761 333.774C302.387 335.525 303.628 336.647 305.743 336.684C305.743 336.684 306.086 336.684 306.088 336.684C306.088 336.684 320.09 336.675 324.636 336.675C336.334 336.675 349.394 327.945 351.084 327.578C353.849 326.976 354.956 332.981 357.721 339.285C360.485 345.59 383.715 367.203 383.715 367.203C383.715 367.203 387.285 367.242 388.76 366.641C390.345 365.996 390.926 365.156 390.926 365.156C390.926 365.156 365.184 309.567 356.611 306.566Z" fill="#2B478B"/>
<path d="M327.872 230.817C324.858 229.098 320.274 228.867 319.528 228.759C310.613 227.458 305.249 241.52 304.934 245.78C304.353 253.634 300.525 254.831 295.138 259.748C284.338 269.609 287.504 281.069 293.411 285.328C296.955 287.881 303.201 285.328 303.201 285.328C303.29 285.394 320.282 275.015 328.66 270.008C341.217 268.07 335.55 235.194 327.872 230.817Z" fill="#233862"/>
<path d="M321.637 265.745C321.673 265.771 317.515 267.312 314.734 265.975C312.118 264.72 310.137 260.049 310.175 260.046C311.365 259.987 312.671 258.858 313.677 251.447L314.185 251.645L322.704 254.971C322.704 254.971 322.087 257.938 321.688 260.764C321.352 263.137 321.172 265.41 321.637 265.745Z" fill="#FFB27D"/>
<path d="M322.704 254.974C322.704 254.974 322.087 257.94 321.688 260.767C316.795 259.81 314.873 254.517 314.184 251.647L322.704 254.974Z" fill="#ED975D"/>
<path d="M323.974 257.917C323.974 257.917 312.318 256.219 313.405 248.354C314.491 240.492 313.717 234.976 321.206 235.726C328.694 236.479 329.723 239.714 329.947 242.435C330.171 245.156 327.035 258.158 323.974 257.917Z" fill="#FFB27D"/>
<path d="M329.522 238.127C329.522 238.127 322.062 245.106 316.985 245.67C311.91 246.232 309.987 244.463 309.987 244.463C309.987 244.463 312.98 241.768 314.778 237.415C315.309 236.133 316.429 235.252 317.72 235.132C321.345 234.793 328.216 234.637 329.522 238.127Z" fill="#233862"/>
<path d="M324.858 237.5C324.858 237.5 327.354 240.12 328.14 242.064C328.899 243.938 329.127 248.423 328.523 250.206C328.523 250.206 332.412 241.997 330.209 238.007C327.874 233.779 324.858 237.5 324.858 237.5Z" fill="#233862"/>
<path d="M331.452 284.387C331.099 310.001 331.355 304.648 328.774 307.08C328.153 307.665 326.403 308.014 324.103 308.179C316.869 308.7 304.15 307.406 303.666 305.956C301.996 300.934 303.175 299.374 301.783 291.685C301.637 290.869 301.457 289.983 301.248 289.019C300.087 283.738 298.957 281.941 303.076 273.457C306.811 265.771 310.691 259.535 311.04 259.76C320.893 266.11 321.688 260.772 321.688 260.772C321.688 260.772 331.625 271.892 331.452 284.387Z" fill="white"/>
<path d="M356.709 350.431L349.134 372.562C349.134 372.562 347.077 372.778 345.11 372.163C343.296 371.594 341.216 370.107 341.216 370.107C341.216 370.107 343.319 346.345 347.244 332.705L356.709 350.431Z" fill="#2B478B"/>
<path d="M321.688 260.767C321.688 260.767 331.828 262.632 333.018 267.372C334.208 272.112 341.216 299.972 341.216 299.972C341.216 299.972 336.062 300.977 333.68 298.391C331.298 295.806 325.395 274.409 325.395 274.409L321.688 260.767Z" fill="white"/>
<path d="M324.103 308.177C316.869 308.697 304.15 307.403 303.666 305.953C301.996 300.931 303.175 299.371 301.782 291.683L305.272 281.017C305.272 281.017 304.695 292.894 307.922 296.019C311.145 299.144 321.134 302.051 322.704 304.662C323.461 305.912 323.957 307.167 324.103 308.177Z" fill="#EBF3FF"/>
<path d="M315.814 303.182C315.814 303.182 322.952 301.457 324.103 302.145C325.255 302.833 328.07 305.336 328.423 306.208C328.776 307.08 325.86 305.548 324.911 305.27C324.296 305.091 322.679 305.701 321.878 305.99C318.509 307.209 316.444 306.582 316.444 306.582L315.814 303.182Z" fill="#FFB27D"/>
<path d="M311.033 259.748C311.033 259.748 301.449 260.388 298.13 265.413C293.459 272.484 284.194 302.622 289.505 306.64C295.484 311.166 316.721 307.823 316.721 307.823C316.721 307.823 317.427 304.237 316.444 302.503C315.461 300.768 299.483 297.967 298.745 297.166C298.008 296.366 307.965 281.556 307.965 279.153C307.962 276.754 311.033 259.748 311.033 259.748Z" fill="white"/>
<path d="M324.448 304.299C324.448 304.299 325.944 306.394 326.434 306.644C326.925 306.894 327.242 306.832 327.242 306.832L326.234 304.864L324.448 304.299Z" fill="#FFB27D"/>
<path d="M324.103 302.143L328.451 304.435C328.451 304.435 328.265 304.763 327.73 304.738C327.195 304.71 325.845 304.175 325.845 304.175L324.103 302.143Z" fill="#FFB27D"/>
<path d="M326.435 309.852H360.832L371.178 281.921H336.835L326.435 309.852Z" fill="#F99746"/>
<path d="M361.234 308.764H315.814V309.852H360.832L361.234 308.764Z" fill="#ED7D2B"/>
<path d="M352.148 295.886C352.407 294.904 351.883 294.108 350.979 294.108C350.074 294.108 349.132 294.904 348.872 295.886C348.612 296.868 349.136 297.664 350.04 297.664C350.945 297.664 351.89 296.868 352.148 295.886Z" fill="white"/>
<path d="M167.357 341.483H167.247C165.968 341.483 164.932 340.359 164.932 338.971V285.926C164.932 284.538 165.968 283.414 167.247 283.414H167.357C168.635 283.414 169.671 284.538 169.671 285.926V338.971C169.671 340.357 168.635 341.483 167.357 341.483Z" fill="#B0D4FF"/>
<path d="M167.281 397.711H167.204C166.759 397.711 166.401 397.311 166.41 396.83L167.615 340.197L171.161 339.747L168.137 396.832C168.111 397.325 167.737 397.711 167.281 397.711Z" fill="#95C0F4"/>
<path d="M224.295 397.711H224.371C224.817 397.711 225.174 397.311 225.165 396.83L223.961 340.197L220.414 339.747L223.439 396.832C223.464 397.325 223.84 397.711 224.295 397.711Z" fill="#B0D4FF"/>
<path d="M224.041 336.684H218.081H186.418H164.932V339.097C164.932 341.149 166.463 342.81 168.352 342.81H186.418H218.081H224.041C225.438 342.81 226.569 341.58 226.569 340.066V339.43C226.569 337.914 225.438 336.684 224.041 336.684Z" fill="#B0D4FF"/>
<path d="M253.632 385.603C253.632 385.603 252.762 397.346 254.698 397.502C254.955 397.522 264.521 397.522 264.521 397.522L276.733 397.447C276.733 397.447 276.653 394.253 273.083 393.576C269.513 392.902 262.448 389.639 260.286 384.518C258.014 379.131 253.632 385.603 253.632 385.603Z" fill="#163560"/>
<path d="M180.167 321.275C180.167 321.275 180.572 332.816 182.447 336.684H225.637C225.637 336.684 236.014 337.849 236.961 338.609C238.155 339.568 232.804 349.075 252.861 386.237L262.685 385.966C262.685 385.966 252.411 325.701 250.587 324.175C247.856 321.895 215.904 313.952 210.434 313.78C204.964 313.605 180.167 321.275 180.167 321.275Z" fill="#1C468A"/>
<path d="M204.379 252.897C207.712 255.139 207.9 259.601 207.9 259.601C199.772 261.884 187.942 252.088 187.942 252.088C187.942 252.088 193.175 248.272 195.113 239.884C195.211 239.462 195.301 239.026 195.38 238.583C195.633 237.17 195.792 235.642 195.819 233.992L199.554 237.624L205.763 243.663C205.763 243.663 205.622 246.168 204.846 250.479C204.713 251.232 204.557 252.039 204.379 252.897Z" fill="#FFB27D"/>
<path d="M208.972 299.224C208.695 301.193 209.257 302.778 209.525 304.242C209.631 304.802 209.692 305.343 209.648 305.882C209.204 311.329 210.992 312.02 210.432 313.777C210.432 313.777 208.522 314.991 205.022 316.429C203.5 317.054 201.676 317.723 199.577 318.352C199.467 318.384 199.357 318.416 199.245 318.451C191.119 320.835 182.576 321.344 180.162 321.275C175.553 321.142 174.621 308.454 176.333 292.477C178.998 267.586 182.599 255.518 192.093 246.797C192.691 246.248 192.288 248.116 195.479 249.786C198.427 251.326 201.984 251.688 204.745 251.023L206.915 253.439C211.227 260.833 211.679 269.609 211.314 276.926C210.851 286.177 209.775 293.557 208.972 299.224Z" fill="#B0D4FF"/>
<path d="M205.765 243.663C205.765 243.663 206.095 243.284 205.319 247.595C198.442 245.436 196.202 241.632 195.282 239.109C195.02 238.395 197.84 238.016 199.556 237.622L205.765 243.663Z" fill="#ED975D"/>
<path d="M208.961 243.683C208.961 243.683 195.69 245.746 194.634 236.755C193.577 227.763 191.153 221.974 199.581 220.277C208.01 218.579 210.062 221.782 211.087 224.691C212.112 227.6 212.387 242.915 208.961 243.683Z" fill="#FFB27D"/>
<path d="M258.9 310.332L259.915 310.677L268.227 281.827L267.212 281.483L258.9 310.332Z" fill="#1C468A"/>
<path d="M230.717 310.344L259.935 310.674L259.953 308.777L230.735 308.447L230.717 310.344Z" fill="#1C468A"/>
<path d="M190.402 220.46C190.297 220.325 190.049 220.215 189.498 220.178C189.498 220.178 189.942 219.882 190.531 219.873C190.652 219.042 191.072 217.572 192.393 217.225C192.393 217.225 191.681 217.629 191.582 218.515C193.122 216.824 196.407 215.61 205.472 216.466C217.417 217.592 213.419 225.866 211.863 226.843C210.307 227.82 206.433 225.072 203.548 225.294C200.663 225.519 200.082 230.037 199.099 230.649C198.117 231.262 198.51 230.168 197.191 229.507C195.872 228.846 195.728 231.225 196.1 232.776C196.472 234.327 194.638 236.353 194.638 236.353C194.638 236.353 194.638 236.353 192.816 234.189C190.994 232.026 189.329 222.911 190.178 220.979C190.252 220.807 190.326 220.632 190.402 220.46Z" fill="#2C3A64"/>
<path d="M210.434 313.777C210.434 313.777 208.524 314.991 205.024 316.43C189.882 304.437 189.965 276.05 189.882 275.565L208.9 293.743L209.528 304.24C209.633 304.8 209.695 305.341 209.65 305.88C209.204 311.329 210.994 312.02 210.434 313.777Z" fill="#91B8EF"/>
<path d="M237.847 300.424C237.847 300.424 239.064 300.64 240.349 299.984C241.634 299.33 246.066 297.263 246.899 297.545C247.731 297.827 250.449 299.493 251.09 299.809C251.73 300.126 252.861 301.75 252.861 301.75C252.392 302.264 250.741 301.085 250.004 301.108C249.266 301.131 243.819 304.361 242.2 304.43C240.581 304.501 238.058 304.141 238.058 304.141L237.847 300.424Z" fill="#FFB27D"/>
<path d="M247.719 300.681C247.734 300.778 249.71 303.168 251.217 302.411L249.566 300.64L247.719 300.681Z" fill="#FFB27D"/>
<path d="M240.349 299.984C240.349 299.984 242.122 298.201 242.71 297.345C242.71 297.345 243.063 297.522 243.077 297.845C243.101 298.387 242.612 299.383 242.612 299.383L240.349 299.984Z" fill="#FFB27D"/>
<path d="M205.467 257.628C195.72 251.186 184.216 262.442 189.054 273.663C194.663 286.674 203.999 302.542 211.417 303.48C216.705 304.148 231.817 306.252 238.216 304.956C238.216 304.956 241.317 305.121 239.635 299.702C239.635 299.702 218.954 293.445 215.519 288.592C213.678 285.993 210.542 280.727 205.691 257.782C205.675 257.686 205.544 257.679 205.467 257.628Z" fill="#B0D4FF"/>
<path d="M467.531 397.711H467.636C468.251 397.711 468.746 397.16 468.733 396.493L467.07 318.258L462.173 317.639L466.349 396.499C466.383 397.179 466.903 397.711 467.531 397.711Z" fill="#739AF0"/>
<path d="M226.715 397.711H226.611C225.996 397.711 225.501 397.16 225.514 396.493L227.178 318.258L232.075 317.639L227.898 396.499C227.862 397.179 227.342 397.711 226.715 397.711Z" fill="#739AF0"/>
<path d="M471.798 319.697H221.824C220.004 319.697 218.529 318.095 218.529 316.122V313.832C218.529 311.857 220.004 310.256 221.824 310.256H471.798C473.618 310.256 475.091 311.857 475.091 313.832V316.122C475.093 318.095 473.618 319.697 471.798 319.697Z" fill="#739AF0"/>
<path d="M430.616 119.671C430.616 126.223 432.755 132.232 436.314 136.924C439.393 140.98 441.103 146.058 441.103 151.312V158.89C441.103 163.708 444.734 167.65 449.173 167.65H462.086C466.525 167.65 470.156 163.708 470.156 158.89V151.3C470.156 146.035 471.891 140.962 474.968 136.892C478.542 132.165 480.677 126.108 480.641 119.508C480.559 104.533 469.425 92.5195 455.63 92.5195C454.097 92.5195 452.597 92.671 451.138 92.9577C450.815 93.022 450.496 93.0908 450.177 93.1688C438.986 95.867 430.616 106.708 430.616 119.671Z" fill="#F9DDBF"/>
<path d="M462.04 167.65L462.012 167.884L461.657 170.836L461.564 171.614V171.621L461.469 172.403L461.116 175.354L461.023 176.132L461.021 176.139L460.928 176.923L460.875 177.355C460.696 178.853 459.119 179.995 457.232 179.995H452.981C452.531 179.995 452.102 179.931 451.703 179.812H451.701C451.341 179.704 451.009 179.552 450.711 179.364L450.688 179.351C450.447 179.197 450.23 179.018 450.046 178.818C449.665 178.41 449.414 177.921 449.342 177.382L449.192 176.237L449.097 175.517V175.514L449.095 175.498V175.496L449.002 174.792L448.64 172.055L448.545 171.336L448.543 171.32L448.45 170.611L448.059 167.647H462.04V167.65Z" fill="#95C0F4"/>
<path d="M460.353 167.649H460.324H457.95C454.074 168.865 450.23 170.068 448.45 170.614L448.543 171.323L448.545 171.339L448.64 172.057C450.084 171.623 453.546 170.547 462.01 167.883L462.038 167.649H460.353Z" fill="#739AF0"/>
<path d="M449.095 175.498L449.097 175.514V175.517L449.192 176.237C450.859 175.728 454.302 174.656 461.469 172.401L461.564 171.619V171.612L461.657 170.834C457.128 172.256 451.646 173.977 449.002 174.792L449.095 175.498Z" fill="#739AF0"/>
<path d="M450.69 179.35L450.713 179.364C451.011 179.552 451.343 179.704 451.703 179.811H451.705C453.67 179.199 456.589 178.286 460.928 176.921L461.021 176.136L461.023 176.129L461.116 175.351C457.24 176.57 452.793 177.965 450.048 178.816C450.232 179.018 450.449 179.197 450.69 179.35Z" fill="#739AF0"/>
<path d="M446.301 132.826L445.186 133.031L450.606 167.769L451.721 167.564L446.301 132.826Z" fill="white"/>
<path d="M464.832 133.338L459.069 167.529L460.181 167.75L465.945 133.559L464.832 133.338Z" fill="white"/>
<path d="M458.614 139.214C458.468 139.214 458.307 139.193 458.126 139.149C457.823 139.074 457.631 138.847 457.572 138.491C457.443 137.725 457.997 136.316 458.777 135.123C458.371 134.352 457.828 133.714 457.259 133.528C456.42 133.251 455.131 134.093 454.233 135.169C454.397 135.421 454.545 135.685 454.674 135.949C455.133 136.892 455.465 138.096 455.012 138.654C454.845 138.86 454.503 139.048 453.825 138.771C452.977 138.424 452.673 137.644 452.988 136.632C453.142 136.137 453.427 135.621 453.791 135.141C453.095 134.157 452.168 133.409 451.252 133.535C450.764 133.602 450.344 133.788 449.995 134.049C450.58 135.231 450.716 136.731 450.31 137.536C450.033 138.085 449.549 138.259 448.949 138.027C448.518 137.86 448.291 137.215 448.374 136.385C448.458 135.534 448.849 134.602 449.547 133.955C449.365 133.648 449.147 133.375 448.896 133.163C447.319 131.835 446.015 133.26 445.96 133.322L445.715 133.063C445.73 133.044 447.292 131.34 449.107 132.87C449.382 133.102 449.621 133.398 449.82 133.73C450.206 133.443 450.669 133.242 451.21 133.168C452.235 133.028 453.26 133.815 454.019 134.859C454.996 133.707 456.386 132.856 457.356 133.175C457.969 133.377 458.548 134.019 458.99 134.811C459.402 134.23 459.861 133.726 460.307 133.407C461.021 132.893 461.486 133.01 461.75 133.2C462.023 133.393 462.253 133.654 462.444 133.953C462.659 133.767 462.883 133.609 463.107 133.489C463.936 133.042 464.694 133.074 465.248 133.581L465.026 133.866C464.43 133.317 463.663 133.604 463.259 133.822C463.037 133.941 462.822 134.095 462.623 134.269C463.175 135.348 463.28 136.754 462.966 137.436C462.767 137.865 462.412 138.014 461.998 137.848C461.249 137.55 461.068 136.993 461.047 136.575C461.006 135.779 461.516 134.87 462.179 134.203C462.008 133.925 461.801 133.684 461.562 133.515C461.239 133.283 460.803 133.498 460.495 133.721C460.049 134.04 459.584 134.568 459.172 135.164C459.685 136.224 459.952 137.461 459.757 138.257C459.662 138.635 459.392 139.214 458.614 139.214ZM458.954 135.485C458.276 136.559 457.8 137.773 457.908 138.422C457.942 138.629 458.037 138.743 458.202 138.785C458.872 138.95 459.284 138.736 459.428 138.154C459.59 137.479 459.375 136.424 458.954 135.485ZM454.002 135.46C453.689 135.885 453.442 136.332 453.311 136.752C453.051 137.582 453.265 138.144 453.943 138.422C454.216 138.534 454.579 138.622 454.752 138.408C455.021 138.078 454.864 137.137 454.368 136.123C454.26 135.898 454.137 135.676 454.002 135.46ZM449.722 134.283C449.124 134.861 448.788 135.678 448.714 136.426C448.651 137.059 448.794 137.575 449.063 137.679C449.498 137.846 449.817 137.741 450.008 137.36C450.356 136.669 450.23 135.343 449.722 134.283ZM462.357 134.519C461.763 135.139 461.357 135.935 461.389 136.548C461.412 136.993 461.655 137.309 462.116 137.493C462.37 137.594 462.541 137.52 462.661 137.263C462.925 136.692 462.813 135.469 462.357 134.519Z" fill="white"/>
<path d="M162.646 189.569H158.471V206.24H162.646V189.569Z" fill="#D6E8FC"/>
<path d="M162.124 187.92H159.184C158.896 187.92 158.662 187.665 158.662 187.353C158.662 187.041 158.896 186.786 159.184 186.786H162.124C162.411 186.786 162.646 187.041 162.646 187.353C162.646 187.665 162.411 187.92 162.124 187.92Z" fill="#D6E8FC"/>
<path d="M155.449 176.478H151.275V206.24H155.449V176.478Z" fill="#D6E8FC"/>
<path d="M154.832 175.243H151.892C151.605 175.243 151.37 174.989 151.37 174.677C151.37 174.365 151.605 174.11 151.892 174.11H154.832C155.119 174.11 155.354 174.365 155.354 174.677C155.354 174.989 155.119 175.243 154.832 175.243Z" fill="#D6E8FC"/>
<path d="M148.553 155.753H144.379V206.24H148.553V155.753Z" fill="#D6E8FC"/>
<path d="M147.935 154.377H144.996C144.708 154.377 144.474 154.122 144.474 153.81C144.474 153.498 144.708 153.243 144.996 153.243H147.935C148.223 153.243 148.457 153.498 148.457 153.81C148.457 154.122 148.223 154.377 147.935 154.377Z" fill="#D6E8FC"/>
<path d="M141.474 164.915H137.3V206.242H141.474V164.915Z" fill="#D6E8FC"/>
<path d="M140.857 163.809H137.917C137.63 163.809 137.395 163.554 137.395 163.242C137.395 162.93 137.63 162.675 137.917 162.675H140.857C141.145 162.675 141.379 162.93 141.379 163.242C141.379 163.554 141.145 163.809 140.857 163.809Z" fill="#D6E8FC"/>
<path d="M134.578 141.98H130.404V206.242H134.578V141.98Z" fill="#D6E8FC"/>
<path d="M133.961 140.748H131.021C130.734 140.748 130.499 140.494 130.499 140.182C130.499 139.87 130.734 139.615 131.021 139.615H133.961C134.248 139.615 134.483 139.87 134.483 140.182C134.483 140.494 134.248 140.748 133.961 140.748Z" fill="#D6E8FC"/>
<path d="M127.861 152.016H123.687V206.242H127.861V152.016Z" fill="#D6E8FC"/>
<path d="M127.246 150.864H124.306C124.019 150.864 123.784 150.609 123.784 150.297C123.784 149.985 124.019 149.731 124.306 149.731H127.246C127.534 149.731 127.768 149.985 127.768 150.297C127.768 150.607 127.534 150.864 127.246 150.864Z" fill="#D6E8FC"/>
<path d="M434.67 310.256H400.274L389.927 282.324H424.269L434.67 310.256Z" fill="#2B478B"/>
<path d="M399.871 309.168H445.292V310.255H400.274L399.871 309.168Z" fill="#2B478B"/>
<path d="M408.957 296.29C408.697 295.308 409.221 294.512 410.126 294.512C411.03 294.512 411.973 295.308 412.233 296.29C412.493 297.272 411.969 298.068 411.064 298.068C410.159 298.068 409.217 297.272 408.957 296.29Z" fill="white"/>
<path d="M619 397.729V398C619 398.431 618.696 398.787 618.326 398.787H25.4193C25.0495 398.787 24.7451 398.431 24.7451 398V397.729C24.7451 397.298 25.0495 396.942 25.4193 396.942H618.328C618.696 396.942 619 397.295 619 397.729Z" fill="#2E3552"/>
</g>
<defs>
<clipPath id="clip0_1594_8769">
<rect width="612" height="331" fill="white" transform="translate(7 68)"/>
</clipPath>
</defs>
</svg>
