<svg width="616" height="401" viewBox="0 0 616 401" fill="none" xmlns="http://www.w3.org/2000/svg">
<rect width="615.011" height="399.093" fill="#06225C"/>
<path d="M488.181 379.842L487.553 379.457C523.242 321.443 541.841 269.025 542.831 223.662C543.856 176.747 525.655 148.063 510.209 132.259C495.372 117.082 475.951 106.525 455.52 102.532C436.365 98.7894 417.619 101.166 404.087 109.055L403.716 108.419C417.4 100.441 436.335 98.0297 455.659 101.808C476.234 105.83 495.796 116.46 510.736 131.743C526.283 147.648 544.599 176.506 543.568 223.677C542.578 269.175 523.941 321.714 488.181 379.842Z" fill="#EBF3FA"/>
<path d="M516.79 174.262C500.124 138.172 467.746 109.962 427.473 105.059C395.343 101.145 363.027 100.624 330.758 98.6539C296.698 96.5779 263.354 90.2586 229.698 84.7255C208.094 81.1713 189.165 86.4217 168.219 94.016C139.606 104.39 111.954 137.889 99.477 164.689C69.412 229.254 86.0163 310.471 112.505 373.391C113.804 376.474 122.748 401 125.432 401C125.435 401 475.804 401 475.804 401C496.942 370.016 514.265 335.937 523.881 300.751C535.312 258.939 535.192 214.106 516.79 174.262Z" fill="#EBF3FA"/>
<path d="M90.5297 303.937C76.7714 261.059 70.7142 223.774 72.526 193.117C74.0315 167.619 80.9784 146.44 93.1665 130.174C121.099 92.9 167.753 93.6362 168.224 93.648L168.207 94.3841C167.753 94.3694 121.452 93.6509 93.7527 130.621C81.6531 146.773 74.7592 167.816 73.2626 193.167C71.4595 223.73 77.505 260.924 91.2338 303.71L90.5297 303.937Z" fill="#EBF3FA"/>
<path d="M427.237 308.949H175.816C170.805 308.949 166.742 304.888 166.742 299.879V55.4378C166.742 50.4289 170.805 46.3682 175.816 46.3682H427.234C432.246 46.3682 436.308 50.4289 436.308 55.4378V299.876C436.311 304.888 432.249 308.949 427.237 308.949Z" fill="#D6E8FC"/>
<path d="M427.234 309.317H175.817C170.611 309.317 166.374 305.083 166.374 299.876V55.4377C166.374 50.2345 170.611 46 175.817 46H427.234C432.443 46 436.68 50.2345 436.68 55.4377V299.876C436.68 305.083 432.443 309.317 427.234 309.317ZM175.817 46.7362C171.014 46.7362 167.111 50.6408 167.111 55.4377V299.876C167.111 304.676 171.017 308.581 175.817 308.581H427.234C432.037 308.581 435.943 304.676 435.943 299.876V55.4377C435.943 50.6379 432.037 46.7362 427.234 46.7362H175.817Z" fill="#B0D4FF"/>
<path d="M405.377 76.9604H347.928V81.1507H405.377V76.9604Z" fill="#739AF0"/>
<path d="M421.416 94.9966H329.883V99.1869H421.416V94.9966Z" fill="#739AF0"/>
<path d="M412.324 107.388H329.883V111.578H412.324V107.388Z" fill="#739AF0"/>
<path d="M402.858 119.782H329.883V123.973H402.858V119.782Z" fill="#739AF0"/>
<path d="M421.416 132.173H329.883V136.364H421.416V132.173Z" fill="#739AF0"/>
<path d="M397.449 144.565H329.883V148.755H397.449V144.565Z" fill="#739AF0"/>
<path d="M274.025 212.54H186.175V216.73H274.025V212.54Z" fill="#739AF0"/>
<path d="M413.573 223.951H186.426V228.141H413.573V223.951Z" fill="#739AF0"/>
<path d="M292.105 76.9604H186.313V188.868H292.105V76.9604Z" fill="white"/>
<path d="M203.236 150.884H195.879V176.621H203.236V150.884Z" fill="#739AF0"/>
<path d="M216.452 154.512H209.096V176.62H216.452V154.512Z" fill="#B0D4FF"/>
<path d="M229.668 140.489H222.312V176.618H229.668V140.489Z" fill="#739AF0"/>
<path d="M242.887 143.078H235.531V176.621H242.887V143.078Z" fill="#B0D4FF"/>
<path d="M256.104 131.499H248.747V176.62H256.104V131.499Z" fill="#739AF0"/>
<path d="M269.32 125.245H261.964V176.621H269.32V125.245Z" fill="#B0D4FF"/>
<path d="M282.539 119.667H275.183V176.62H282.539V119.667Z" fill="#739AF0"/>
<path d="M211.488 136.773L197.6 131.219L197.865 130.557L211.361 135.951L225.111 124.576L237.941 124.876L276.609 101.01L276.983 101.616L238.135 125.595L225.361 125.298L211.488 136.773Z" fill="#739AF0"/>
<path d="M209.629 99.1311H194.539V105.4H209.629V99.1311Z" fill="#739AF0"/>
<path d="M228.734 102.727H214.617V103.463H228.734V102.727Z" fill="#739AF0"/>
<path d="M395.537 196.518C404.636 196.518 412.012 189.145 412.012 180.051C412.012 170.957 404.636 163.584 395.537 163.584C386.439 163.584 379.063 170.957 379.063 180.051C379.063 189.145 386.439 196.518 395.537 196.518Z" fill="white"/>
<path d="M348.591 196.518C339.493 196.518 332.116 189.144 332.116 180.051C332.116 171.827 338.15 165.004 346.04 163.773C346.868 163.646 347.719 163.579 348.588 163.579C353.464 163.579 357.842 165.699 360.85 169.062C363.472 171.977 365.06 175.831 365.06 180.051C365.066 189.147 357.689 196.518 348.591 196.518Z" fill="white"/>
<path d="M348.591 180.054L346.043 163.776C346.871 163.649 347.722 163.582 348.591 163.582C353.467 163.582 357.845 165.702 360.853 169.065L348.591 180.054Z" fill="#739AF0"/>
<path d="M414.186 243.821H188.108V287.255H414.186V243.821Z" fill="white"/>
<path d="M414.843 287.903H188.217V243.918H414.843V287.903ZM188.771 287.353H414.292V244.469H188.771V287.353Z" fill="#B0D4FF"/>
<path d="M414.566 278.666H188.494V279.22H414.566V278.666Z" fill="#B0D4FF"/>
<path d="M414.566 269.979H188.494V270.533H414.566V269.979Z" fill="#B0D4FF"/>
<path d="M414.566 261.292H188.494V261.846H414.566V261.292Z" fill="#B0D4FF"/>
<path d="M414.566 252.605H188.494V253.159H414.566V252.605Z" fill="#B0D4FF"/>
<path d="M377.165 244.195H376.612V287.629H377.165V244.195Z" fill="#B0D4FF"/>
<path d="M339.488 244.195H338.934V287.629H339.488V244.195Z" fill="#B0D4FF"/>
<path d="M301.807 244.195H301.253V287.629H301.807V244.195Z" fill="#B0D4FF"/>
<path d="M264.129 244.195H263.575V287.629H264.129V244.195Z" fill="#B0D4FF"/>
<path d="M226.448 244.195H225.895V287.629H226.448V244.195Z" fill="#B0D4FF"/>
<path d="M194.701 280.75C197.989 276.174 198.699 270.282 201.633 265.462C203.065 263.112 204.962 260.78 207.584 259.728C212.107 257.914 213.261 263.751 213.356 266.99C213.497 271.754 212.708 276.925 216.644 280.503C217.958 281.699 219.699 282.405 221.472 281.934C223.599 281.369 224.925 279.422 225.977 277.632C228.991 272.508 230.906 266.637 233 261.095C234.058 258.294 235.404 254.711 238.174 253.141C242.124 250.906 242.555 255.853 242.546 258.459C242.534 261.315 242.566 264.172 242.59 267.028C242.602 268.4 242.319 271.266 243.933 272.031C244.885 272.482 245.636 271.622 246.169 270.93C246.632 270.329 246.956 269.628 247.419 269.031C247.855 268.468 248.241 268.127 249.027 268.062C249.749 268.003 250.094 267.994 250.583 268.657C250.857 269.028 250.983 269.549 251.098 269.982C251.667 272.125 251.084 274.552 252.297 276.534C252.972 277.635 254.427 278.733 255.794 278.518C258.555 278.083 259.256 273.589 259.586 271.428C260.028 268.536 260.443 265.662 261.239 262.841C262.04 259.999 263.083 256.604 265.243 254.481C266.065 253.671 267.199 252.864 268.416 253.003C270.195 253.203 270.752 255.208 271.185 256.645C272.166 259.89 272.752 263.288 272.752 266.684C272.749 269.031 272.069 271.963 273.633 273.995C274.473 275.085 275.896 275.709 277.26 275.37C279.251 274.876 279.732 272.944 280.135 271.192C280.215 270.844 280.277 270.482 280.406 270.15C280.795 269.163 280.948 269.048 282.015 269.004C283.187 268.957 283.234 269.231 283.423 270.203C283.615 271.183 283.514 272.173 283.809 273.138C284.183 274.363 285.043 275.491 286.46 275.067C287.769 274.678 288.47 273.277 288.903 272.096C290.146 268.698 290.031 264.934 290.217 261.377C290.34 259.022 290.529 256.489 291.619 254.351C292.326 252.958 294.421 250.706 296.035 252.175C298.139 254.086 297.936 258.742 297.983 261.313C298.086 266.828 297.161 272.364 297.933 277.862C298.221 279.917 298.805 282.985 301.088 283.763C304.249 284.841 306.576 281.401 307.416 278.883C308.085 276.884 308.238 274.79 308.712 272.747C308.963 271.672 309.346 269.711 310.81 270.326C312.074 270.853 312.595 272.641 313.706 273.451C317.297 276.06 319.495 270.968 319.916 268.215C320.532 264.187 319.899 259.749 321.407 255.897C321.79 254.923 322.388 253.889 323.284 253.3C325.479 251.857 327.638 253.854 328.298 255.894C328.799 257.443 328.705 259.181 328.734 260.788C328.767 262.532 328.814 264.278 328.846 266.021C328.899 268.904 328.64 271.846 328.825 274.717C328.955 276.713 329.709 278.53 331.436 279.658C335.767 282.488 340.831 278.074 343.594 274.979C346.735 271.46 348.847 267.278 350.473 262.891C351.295 260.674 352.117 258.406 353.402 256.404C354.106 255.305 356.068 252.673 357.677 253.4C358.726 253.874 359.073 255.768 359.297 256.745C359.677 258.391 359.86 260.085 359.995 261.766C360.255 264.97 360.275 268.18 360.334 271.389C360.384 274.107 360.614 278.206 363.637 279.308C368.356 281.027 370.607 274.269 371.915 271.148C372.996 268.562 374.316 265.058 376.835 263.521C378.974 262.214 380.465 264.231 381.257 266.024C382.017 267.744 382.406 269.652 382.433 271.528C382.451 272.838 382.347 274.478 383.782 275.111C386.914 276.492 389.769 271.313 390.985 269.272C392.096 267.411 392.939 265.462 393.867 263.509C395.036 261.056 398.863 256.368 400.454 261.068C401.055 262.844 400.846 264.758 400.725 266.589C400.59 268.668 400.442 270.753 400.507 272.838C400.584 275.247 401.02 280.497 404.655 279.941C406.856 279.602 409.125 277.179 410.777 275.803C413.196 273.789 415.476 271.625 417.639 269.34C417.966 268.995 417.444 268.474 417.117 268.819C414.952 271.101 412.672 273.268 410.256 275.282C408.96 276.363 407.643 277.455 406.243 278.398C404.423 279.623 402.643 279.066 401.918 277.19C400.492 273.506 401.362 268.951 401.553 265.12C401.668 262.841 401.382 257.626 397.888 258.259C395.796 258.639 394.35 260.894 393.478 262.632C392.485 264.605 391.675 266.637 390.558 268.548C389.45 270.444 388.178 272.703 386.333 273.978C384.943 274.938 383.314 274.484 383.158 272.617C383.087 271.766 383.178 270.918 383.078 270.061C382.789 267.591 381.847 263.506 379.172 262.508C375.456 261.118 372.749 267.367 371.694 269.814C370.613 272.317 369.773 275.524 367.773 277.479C366.362 278.857 364.073 279.334 362.629 277.741C361.574 276.575 361.309 274.74 361.162 273.241C360.587 267.423 361.457 261.41 359.795 255.706C359.315 254.06 358.404 252.028 356.366 252.749C352.951 253.957 351.396 258.391 350.232 261.448C348.373 266.333 346.311 271.006 342.687 274.89C340.595 277.131 337.564 279.899 334.293 279.835C329.998 279.749 329.462 275.465 329.586 272.181C329.706 268.972 329.58 265.75 329.509 262.54C329.453 259.952 329.801 256.869 328.522 254.504C327.709 252.997 325.98 251.795 324.2 252.11C322.689 252.378 321.563 253.804 320.953 255.111C319.31 258.633 319.746 262.885 319.374 266.654C319.162 268.807 318.779 272.502 316.257 273.25C313.084 274.193 312.984 269.428 310.315 269.337C307.487 269.24 307.463 276.033 306.974 277.818C306.37 280.023 305.224 282.653 302.711 283.13C301.156 283.424 300.122 282.45 299.518 281.113C298.145 278.077 298.316 274.251 298.398 270.998C298.463 268.568 298.678 266.145 298.722 263.715C298.769 261.095 299.291 249.843 294.291 251.05C290.832 251.887 289.946 256.351 289.639 259.307C289.23 263.247 289.577 267.287 288.452 271.136C288.16 272.137 287.771 273.292 286.932 273.972C286.06 274.681 285.017 274.075 284.587 273.162C284.295 272.544 284.31 271.763 284.251 271.104C284.154 269.982 284.012 268.315 282.763 267.847C281.319 267.302 280.135 268.777 279.702 269.964C279.163 271.433 279.34 273.362 277.849 274.337C276.352 275.312 274.594 274.393 273.872 272.947C273.12 271.442 273.392 269.608 273.465 267.988C273.539 266.342 273.468 264.699 273.28 263.065C272.958 260.294 272.44 257.252 271.3 254.687C269.727 251.147 266.224 252.087 264.138 254.631C260.597 258.948 259.707 265.512 258.941 270.839C258.693 272.547 258.369 274.319 257.606 275.883C257.214 276.684 256.652 277.632 255.697 277.794C254.103 278.065 252.783 276.224 252.433 274.92C251.864 272.797 252.4 265.261 247.975 267.573C246.603 268.291 246.47 270.005 245.297 270.868C243.465 272.217 243.353 269.237 243.341 268.082C243.321 266.354 243.312 264.622 243.297 262.894C243.276 260.57 243.453 258.159 243.17 255.847C242.991 254.372 242.54 252.652 241.017 252.046C236.892 250.399 233.816 257.052 232.709 259.843C230.361 265.759 228.481 272.081 225.181 277.553C223.37 280.556 220.276 282.809 217.171 279.997C214.953 277.985 214.136 275.035 214.078 272.143C214.001 268.383 215.129 260.785 210.619 258.83C206.692 257.128 202.526 262.543 200.864 265.329C198.024 270.088 197.291 275.901 194.065 280.391C193.791 280.765 194.427 281.133 194.701 280.75Z" fill="#739AF0"/>
<path d="M414.328 401H358.676C356.54 401 354.81 399.268 354.81 397.136V360.51C354.81 358.376 356.543 356.647 358.676 356.647H414.328C416.464 356.647 418.193 358.378 418.193 360.51V397.136C418.196 399.268 416.464 401 414.328 401Z" fill="#D6E8FC"/>
<path d="M416.796 375.864H356.207V376.565H416.796V375.864Z" fill="#B0D4FF"/>
<path d="M386.501 382.292C383.697 382.292 381.414 380.01 381.414 377.207V375.861H391.589V377.207C391.589 380.013 389.309 382.292 386.501 382.292ZM382.115 376.565V377.207C382.115 379.624 384.083 381.591 386.501 381.591C388.92 381.591 390.888 379.624 390.888 377.207V376.565H382.115Z" fill="#B0D4FF"/>
<path d="M398.492 358.911H397.791V349.812C397.791 348.587 396.792 347.592 395.567 347.592H377.439C376.214 347.592 375.218 348.587 375.218 349.812V358.911H374.517V349.812C374.517 348.202 375.828 346.888 377.442 346.888H395.57C397.181 346.888 398.495 348.199 398.495 349.812V358.911H398.492Z" fill="#B0D4FF"/>
<path d="M376.594 356.644H373.173V360.328H376.594V356.644Z" fill="#B0D4FF"/>
<path d="M399.839 356.644H396.418V360.328H399.839V356.644Z" fill="#B0D4FF"/>
<path d="M237.944 363.358H192.765V400.997H237.944V363.358Z" fill="#D6E8FC"/>
<path d="M241.27 360.693H189.436V368.6H241.27V360.693Z" fill="#B0D4FF"/>
<path d="M237.941 401H192.765V368.482C192.765 368.482 211.058 395.971 237.941 401Z" fill="#B0D4FF"/>
<path d="M488.799 79.3193C473.329 79.3193 460.788 91.8549 460.788 107.317C460.788 116.958 465.663 125.46 473.085 130.495L472.009 143.393L482.524 134.6C484.542 135.062 486.643 135.316 488.799 135.316C504.269 135.316 516.811 122.78 516.811 107.317C516.811 91.8549 504.269 79.3193 488.799 79.3193Z" fill="white"/>
<path d="M471.568 144.244L472.699 130.681C465.007 125.374 460.419 116.658 460.419 107.32C460.419 91.6781 473.15 78.9541 488.799 78.9541C504.449 78.9541 517.179 91.6781 517.179 107.32C517.179 122.962 504.449 135.686 488.799 135.686C486.737 135.686 484.66 135.457 482.618 135.003L471.568 144.244ZM488.799 79.6873C473.556 79.6873 461.156 92.0815 461.156 107.317C461.156 116.484 465.693 125.036 473.291 130.192L473.468 130.312L472.448 142.548L482.427 134.202L482.607 134.244C484.651 134.712 486.734 134.947 488.802 134.947C504.045 134.947 516.446 122.553 516.446 107.317C516.446 92.0815 504.042 79.6873 488.799 79.6873Z" fill="#1C468A"/>
<path d="M493.566 113.21H485.237V121.849H493.566V113.21Z" fill="white"/>
<path d="M493.934 122.217H484.869V112.842H493.934V122.217ZM485.606 121.481H493.198V113.578H485.606V121.481Z" fill="#1C468A"/>
<path d="M496.159 107.241C496.159 103.404 492.959 100.315 489.082 100.495C485.553 100.656 482.686 103.625 482.642 107.158C482.627 108.416 482.954 109.591 483.541 110.604C484.589 112.423 485.235 114.446 485.235 116.546V118.083H493.563V116.487C493.563 114.414 494.203 112.418 495.246 110.627C495.829 109.629 496.159 108.472 496.159 107.241Z" fill="white"/>
<path d="M493.934 118.445H484.869V116.543C484.869 114.614 484.315 112.677 483.222 110.783C482.586 109.682 482.259 108.427 482.274 107.149C482.321 103.445 485.367 100.294 489.064 100.123C491.05 100.035 492.9 100.73 494.32 102.088C495.743 103.445 496.524 105.274 496.524 107.238C496.524 108.492 496.191 109.726 495.563 110.804C494.482 112.665 493.931 114.573 493.931 116.478V118.445H493.934ZM485.606 117.709H493.198V116.481C493.198 114.443 493.781 112.412 494.93 110.436C495.493 109.47 495.79 108.363 495.79 107.238C495.79 105.477 495.089 103.837 493.814 102.618C492.541 101.401 490.879 100.774 489.1 100.857C485.785 101.01 483.054 103.834 483.013 107.155C482.998 108.301 483.293 109.426 483.862 110.412C485.019 112.418 485.606 114.479 485.606 116.54V117.709Z" fill="#1C468A"/>
<path d="M487.859 106.446C487.335 107.191 486.457 107.479 485.897 107.085C485.338 106.693 485.308 105.768 485.832 105.023C486.357 104.278 487.235 103.99 487.795 104.384C488.354 104.779 488.384 105.701 487.859 106.446Z" fill="white"/>
<path d="M486.478 107.632C486.189 107.632 485.921 107.55 485.688 107.388C485.32 107.129 485.108 106.708 485.093 106.201C485.078 105.733 485.234 105.241 485.532 104.814C485.83 104.39 486.239 104.075 486.687 103.928C487.164 103.772 487.644 103.831 488.007 104.084C488.369 104.337 488.587 104.77 488.602 105.271C488.617 105.739 488.46 106.231 488.163 106.658C487.865 107.085 487.456 107.397 487.008 107.544C486.828 107.603 486.649 107.632 486.478 107.632ZM487.214 104.579C487.12 104.579 487.02 104.596 486.914 104.629C486.622 104.723 486.339 104.944 486.133 105.235C485.927 105.527 485.818 105.869 485.827 106.175C485.835 106.446 485.936 106.661 486.109 106.784C486.283 106.905 486.519 106.929 486.778 106.843C487.073 106.746 487.35 106.531 487.559 106.234C487.765 105.942 487.874 105.601 487.865 105.294C487.856 105.023 487.756 104.808 487.583 104.685C487.479 104.614 487.353 104.579 487.214 104.579Z" fill="#1C468A"/>
<path d="M476.425 95.3883L475.967 95.9648L480.162 99.2936L480.62 98.717L476.425 95.3883Z" fill="#1C468A"/>
<path d="M489.146 88.3803L488.41 88.4038L488.64 95.5882L489.376 95.5646L489.146 88.3803Z" fill="#1C468A"/>
<path d="M501.517 93.942L497.171 98.1677L497.684 98.6954L502.03 94.4697L501.517 93.942Z" fill="#1C468A"/>
<path d="M137.314 114.685C137.314 101.089 126.287 90.0674 112.684 90.0674C99.0822 90.0674 88.0549 101.089 88.0549 114.685C88.0549 128.281 99.0822 139.303 112.684 139.303C114.92 139.303 117.083 138.999 119.142 138.443L127.692 145.592L126.796 134.856C133.154 130.404 137.314 123.033 137.314 114.685Z" fill="white"/>
<path d="M128.131 146.44L119.051 138.846C116.968 139.394 114.829 139.671 112.684 139.671C98.9026 139.671 87.6868 128.463 87.6868 114.685C87.6868 100.907 98.8997 89.6992 112.684 89.6992C126.466 89.6992 137.682 100.907 137.682 114.685C137.682 122.753 133.761 130.345 127.179 135.036L128.131 146.44ZM119.231 138.036L127.25 144.744L126.41 134.676L126.584 134.556C133.072 130.012 136.946 122.586 136.946 114.688C136.946 101.316 126.063 90.4383 112.684 90.4383C99.3062 90.4383 88.4233 101.316 88.4233 114.688C88.4233 128.06 99.3062 138.937 112.684 138.937C114.829 138.937 116.968 138.652 119.045 138.089L119.231 138.036Z" fill="#1C468A"/>
<path d="M112.36 122.365L105.378 115.386L105.9 114.864L112.119 121.084L119.331 104.667L120.006 104.961L112.36 122.365Z" fill="#1C468A"/>
<path d="M246.638 146.95L240.033 150.816L169.809 191.945C167.65 193.211 165.119 192.914 164.118 191.27L164.115 191.265C163.113 189.624 164.003 187.239 166.115 185.896L234.662 142.333L241.258 138.142L246.638 146.95Z" fill="#213F7A"/>
<path opacity="0.6" d="M246.638 146.95L240.033 150.816C238.742 149.582 237.611 148.181 236.657 146.617C235.823 145.251 235.16 143.814 234.662 142.336L241.258 138.145L246.638 146.95Z" fill="#1B1B43"/>
<path d="M237.358 149.155C236.318 149.791 234.957 149.462 234.32 148.422C233.684 147.383 234.014 146.022 235.054 145.386C236.094 144.75 237.455 145.08 238.091 146.119C238.728 147.162 238.401 148.519 237.358 149.155Z" fill="white"/>
<path d="M270.64 161.196C289.947 161.196 305.598 145.552 305.598 126.255C305.598 106.957 289.947 91.313 270.64 91.313C251.333 91.313 235.681 106.957 235.681 126.255C235.681 145.552 251.333 161.196 270.64 161.196Z" fill="#213F7A"/>
<path d="M270.64 154.597C286.301 154.597 298.996 141.908 298.996 126.255C298.996 110.602 286.301 97.9121 270.64 97.9121C254.979 97.9121 242.284 110.602 242.284 126.255C242.284 141.908 254.979 154.597 270.64 154.597Z" fill="white"/>
<path d="M259.112 135.837H250.223V190.363H259.112V135.837Z" fill="#739AF0"/>
<path d="M275.086 128.646H266.197V190.732H275.086V128.646Z" fill="#B0D4FF"/>
<path d="M291.056 120.922H282.168V189.748H291.056V120.922Z" fill="#739AF0"/>
<path d="M281.14 110.506L240.411 123.528L240.748 124.58L281.476 111.557L281.14 110.506Z" fill="#739AF0"/>
<path d="M278.592 115.777L277.693 115.136L280.374 111.372L276.491 110.044L276.85 108.999L281.14 110.468C281.367 110.53 281.564 110.724 281.644 110.981C281.72 111.234 281.664 111.508 281.493 111.711L278.592 115.777ZM280.775 111.508C280.786 111.514 280.798 111.516 280.81 111.519L280.775 111.508ZM280.618 111.028C280.613 111.034 280.607 111.042 280.604 111.051L280.618 111.028Z" fill="#739AF0"/>
<path d="M200.691 386.356C196.242 386.424 189.864 386.524 185.739 386.586C185.783 384.589 185.857 382.601 185.945 380.785C186.146 376.25 186.402 372.746 186.402 372.746L199.15 372.657C199.15 372.657 199.091 373.923 199.15 375.823C199.229 378.635 199.562 382.831 200.691 386.356Z" fill="#FFBC96"/>
<path d="M205.628 392.587C203.183 391.83 201.651 389.333 200.693 386.353C196.242 386.421 189.864 386.521 185.736 386.583C185.624 391.277 185.665 396.003 186.116 398.656C186.311 399.807 187.298 400.649 188.467 400.649H210.377C212.163 400.649 213.704 399.157 213.518 397.381C213.297 395.261 210.79 394.186 205.628 392.587Z" fill="#1B1B43"/>
<path d="M199.15 375.823L185.945 380.785C186.146 376.25 186.402 372.746 186.402 372.746L199.15 372.657C199.15 372.657 199.091 373.923 199.15 375.823Z" fill="#D28572"/>
<path d="M192.53 400.461C192.061 398.243 191.133 396.7 189.766 395.876C187.978 394.798 186.013 395.334 185.992 395.34L185.789 394.633C185.88 394.607 188.066 393.994 190.138 395.24C191.69 396.173 192.736 397.878 193.249 400.311L192.53 400.461Z" fill="#656590"/>
<path d="M135.213 370.272C135.213 370.272 133.799 373.555 132.783 377.598C132.297 379.527 131.905 381.633 131.802 383.626C127.612 382.119 121.617 379.954 117.728 378.547C119.534 374.115 121.464 369.771 122.501 367.489L122.53 367.43C122.981 366.429 123.252 365.84 123.252 365.84L135.213 370.272Z" fill="#FFBC96"/>
<path d="M134.209 391.2C132.188 389.628 131.643 386.751 131.802 383.624C127.612 382.113 121.614 379.949 117.731 378.547C115.966 382.899 114.331 387.331 113.813 389.972C113.589 391.118 114.213 392.254 115.304 392.67L135.797 400.42C137.467 401.053 139.435 400.199 139.892 398.474C140.437 396.412 138.472 394.522 134.209 391.2Z" fill="#1B1B43"/>
<path d="M135.213 370.272C135.213 370.272 133.799 373.555 132.783 377.598L122.094 368.611L122.501 367.492L122.53 367.433C122.981 366.432 123.252 365.843 123.252 365.843L135.213 370.272Z" fill="#D28572"/>
<path d="M118.58 393.809L117.926 393.467C120.671 388.211 115.834 385.605 115.628 385.499L115.969 384.845C116.028 384.875 121.661 387.905 118.58 393.809Z" fill="#656590"/>
<path d="M205.41 375.234L181.965 377.074L177.054 293.392L169.792 265.883L160.291 229.905L159.796 228.026L157.507 219.354L157.168 218.058L161.655 217.652L185.892 215.479L187.356 222.104V222.113L201.875 287.729C202.346 289.864 202.626 292.043 202.7 294.228L205.41 375.234Z" fill="#213F7A"/>
<path d="M171.654 247.264L169.792 265.88L166.772 296.022C166.427 299.491 165.652 302.912 164.465 306.187L139.491 375.234L118.5 367.136L138.018 296.463C143.05 267.37 142.216 245.04 143.512 230.876C143.592 229.993 143.68 229.148 143.778 228.329C144.302 223.995 145.112 220.555 146.488 218.058L157.506 219.354L165.269 220.267L166.955 227.402L167.293 228.845L171.654 247.264Z" fill="#213F7A"/>
<path opacity="0.6" d="M187.356 222.11L187.61 224.931C187.61 224.931 154.711 233.765 143.512 230.876C143.592 229.993 143.68 229.148 143.778 228.329C144.302 223.995 145.112 220.555 146.488 218.058L157.506 219.354L157.168 218.058L161.655 217.652L185.892 215.479L187.356 222.11Z" fill="#1B1B43"/>
<path d="M176.697 293.793L165.7 250.373L156.688 247.49L156.911 246.79L166.312 249.796L166.363 249.993L177.41 293.61L176.697 293.793Z" fill="#1B1B43"/>
<path d="M193.57 295.704L193.311 295.015C199.091 292.847 202.231 290.836 202.264 290.815L202.664 291.434C202.535 291.516 199.433 293.507 193.57 295.704Z" fill="#1B1B43"/>
<path d="M165.417 303.086C165.361 303.08 159.799 302.515 154.31 301.051L154.499 300.338C159.931 301.787 165.435 302.347 165.488 302.353L165.417 303.086Z" fill="#1B1B43"/>
<path d="M120.461 360.774L120.206 361.465L141.565 369.318L141.82 368.627L120.461 360.774Z" fill="#1B1B43"/>
<path d="M205.019 368.97L181.635 370.617L181.687 371.351L205.07 369.704L205.019 368.97Z" fill="#1B1B43"/>
<path d="M155.512 164.809L145.548 168.817C142.652 169.983 140.343 172.253 139.129 175.125L130.768 195.128C129.091 199.136 130.208 203.768 133.525 206.577C136.265 208.894 140.039 209.563 143.41 208.326L150.48 205.729L155.512 164.809Z" fill="#F99746"/>
<path d="M224.413 146.638C222.551 147.557 220.403 151.473 221.219 152.88C221.888 154.035 223.441 152.474 223.956 151.938C224.899 150.955 227.329 148.325 225.989 146.832C225.559 146.355 224.999 146.346 224.413 146.638Z" fill="#FFBC96"/>
<path d="M219.905 148.051C218.359 149.438 217.345 153.787 218.509 154.924C219.463 155.855 220.539 153.932 220.889 153.278C221.531 152.077 223.167 148.89 221.47 147.813C220.933 147.471 220.394 147.615 219.905 148.051Z" fill="#FFBC96"/>
<path d="M216.915 150.236C215.353 151.576 214.254 155.69 215.383 156.735C216.308 157.592 217.416 155.757 217.778 155.136C218.441 153.991 220.129 150.958 218.473 149.98C217.943 149.668 217.407 149.815 216.915 150.236Z" fill="#FFBC96"/>
<path d="M214.063 151.252C212.502 152.592 211.403 156.706 212.531 157.751C213.456 158.608 214.564 156.773 214.926 156.152C215.589 155.007 217.277 151.974 215.621 150.996C215.094 150.687 214.555 150.831 214.063 151.252Z" fill="#FFBC96"/>
<path d="M155.512 164.927L145.139 182.751C145.139 182.751 147.84 212.198 145.875 215.814C143.91 219.43 139.491 222.272 142.193 224.339C144.894 226.406 166.254 230.022 189.331 224.598C195.715 222.79 191.296 219.433 189.823 217.882C188.349 216.33 186.384 177.327 186.384 177.327L173.112 165.239L163.308 162.604L155.512 164.927Z" fill="#F99746"/>
<path opacity="0.2" d="M172.912 165.239C171.07 168.461 149.399 171.771 155.512 164.809L161.772 163.49L172.912 165.239Z" fill="#1B1B43"/>
<path d="M200.991 186.22L192.438 173.543C190.456 170.322 187.221 168.069 183.512 167.324L173.127 165.239L179.263 188.246C179.263 188.246 188.838 201.68 197.494 204.81C205.26 207.619 215.562 203.005 221.243 172.663L208.365 170.908L200.991 186.22Z" fill="#F99746"/>
<path d="M228.304 154.627C227.002 154.462 222.536 161.19 222.536 161.19L215.315 163.649C212.669 164.55 210.498 166.473 209.287 168.991L208.365 170.908L221.242 172.663C221.455 171.529 221.661 170.372 221.861 169.167C226.277 165.177 231.189 154.995 228.304 154.627Z" fill="#FFBC96"/>
<path d="M174.895 136.8L177.505 140.41C177.95 141.025 177.673 141.856 176.93 142.141L174.143 143.216L172.175 138.852L174.895 136.8Z" fill="#D28572"/>
<path d="M158.008 156.635C158.665 149.995 158.396 143.34 158.396 143.34L170.299 144.199C170.196 145.525 170.181 146.894 170.231 148.272C170.311 150.442 170.555 152.645 170.894 154.771C171.076 155.943 171.292 157.091 171.518 158.196L158.008 156.635Z" fill="#FFBC96"/>
<path d="M170.897 154.771C165.859 152.68 163.92 148.181 163.92 148.181L170.234 148.269C170.313 150.442 170.558 152.645 170.897 154.771Z" fill="#D28572"/>
<path d="M158.005 156.632L155.509 164.812C161.251 166.193 167.132 166.252 173.124 165.242L171.524 158.193L158.005 156.632Z" fill="#FFF5E8"/>
<path d="M174.6 130.701L175.831 147.162C175.94 147.866 175.51 148.511 174.903 149.079C173.86 150.054 172.429 150.498 171.003 150.436L162.568 150.086L156.552 143.337L161.216 128.981L169.686 128.858L174.6 130.701Z" fill="#FFBC96"/>
<path d="M160.759 140.486C160.759 140.486 162.969 147.389 158.273 150.884C153.208 149.229 143.819 133.861 155.509 128.981C155.509 128.981 158.732 120.792 167.476 123.828C175.195 126.508 177.234 131.19 177.234 131.19C177.234 131.19 171.801 135.239 165.449 131.467C165.452 131.467 166.097 139.659 160.759 140.486Z" fill="#1B1B43"/>
<path d="M163.873 137.668C165.249 139.37 165.111 141.758 163.57 143.004C162.026 144.25 159.663 143.879 158.287 142.177C156.912 140.475 157.05 138.086 158.591 136.841C160.135 135.595 162.5 135.966 163.873 137.668Z" fill="#FFBC96"/>
<path d="M162.179 141.626C162.15 141.505 161.413 138.699 159.436 139.129L159.319 138.59C161.319 138.157 162.415 140.301 162.713 141.493L162.179 141.626Z" fill="#1B1B43"/>
<path d="M144.868 225.859C142.632 225.326 141.368 224.498 141.003 223.323C140.407 221.412 142.381 219.221 144.125 217.289C144.396 216.989 144.662 216.698 144.9 216.418C145.383 215.861 145.713 215.202 145.861 214.51C147.475 206.856 144.8 183.028 144.771 182.787L145.501 182.704C145.613 183.688 148.22 206.892 146.579 214.66C146.409 215.476 146.02 216.247 145.457 216.898C145.212 217.178 144.947 217.475 144.673 217.778C143.141 219.477 141.238 221.589 141.707 223.099C141.984 223.992 143.106 224.678 145.039 225.137L144.868 225.859Z" fill="#1B1B43"/>
<path d="M187.627 225.299L187.595 224.563C190.111 224.451 191.649 223.85 192.047 222.825C192.444 221.792 191.72 220.255 190.055 218.606C189.628 218.182 189.333 217.637 189.198 217.03C187.875 211.082 186.464 191.414 186.449 191.217L187.183 191.164C187.197 191.361 188.603 210.973 189.917 216.871C190.02 217.342 190.249 217.761 190.574 218.084C192.483 219.978 193.252 221.756 192.736 223.093C192.215 224.427 190.497 225.169 187.627 225.299Z" fill="#1B1B43"/>
<path d="M199.665 189.512L199.002 189.188L208.15 170.507L221.29 172.298L221.193 173.028L208.577 171.308L199.665 189.512Z" fill="#F99746"/>
<path d="M421.213 143.584C416.855 140.946 415.874 133.401 419.922 131.131C423.973 128.861 426.551 130.886 426.551 130.886C426.551 130.886 440.138 125.933 445.271 138.554C449.136 148.063 446.069 153.033 449.445 157.819C453.293 163.272 459.45 168.187 451.41 177.757L432.629 173.155L427.718 150.027L421.213 143.584Z" fill="#1B1B43"/>
<path d="M486.213 355.572L472.401 361.644C472.401 361.644 474.384 366.768 476.084 372.731L490.284 368.196L486.213 355.572Z" fill="#FFBC96"/>
<path d="M490.284 368.199L476.084 372.734C478.028 379.563 479.599 387.49 477.38 390.075C474.493 393.438 471.977 396.218 471.373 398.556C471.02 399.931 472.431 401.088 473.698 400.449L492.046 391.2C495.086 389.669 496.397 386.026 495.03 382.908L490.284 368.199Z" fill="#1B1B43"/>
<path d="M491.816 372.942L477.327 377.473L477.547 378.175L492.036 373.644L491.816 372.942Z" fill="#656590"/>
<path d="M474.687 393.753L474.534 393.032C478.052 392.287 480.096 390.994 480.618 389.195C481.472 386.235 477.949 382.769 477.913 382.734L478.426 382.207C478.585 382.36 482.3 386.017 481.325 389.398C480.724 391.48 478.491 392.946 474.687 393.753Z" fill="#656590"/>
<path d="M432.874 368.977L416.914 370.449C416.914 370.449 417.33 376.112 416.838 381.795L432.187 381.568L432.874 368.977Z" fill="#FFBC96"/>
<path d="M416.841 381.792C416.408 386.821 415.265 391.871 412.498 393.023C406.606 395.476 401.942 397.195 402.431 400.629H425.084C428.49 400.629 431.3 397.967 431.486 394.569L432.193 381.565L416.841 381.792Z" fill="#1B1B43"/>
<path d="M416.919 385.263L416.907 386L431.639 386.244L431.651 385.508L416.919 385.263Z" fill="#656590"/>
<path d="M412.121 395.812C411.14 395.812 410 395.667 408.704 395.379L408.866 394.66C412.095 395.382 414.289 395.158 415.209 394.018C416.431 392.502 415.185 389.772 415.173 389.746L415.842 389.437C415.904 389.566 417.291 392.614 415.783 394.484C415.067 395.367 413.842 395.812 412.121 395.812Z" fill="#656590"/>
<path d="M432.664 372.752C432.473 372.816 432.296 372.861 432.134 372.899C428.946 373.635 418.39 372.899 418.39 372.899C417.913 372.796 417.456 372.663 417.02 372.51C407.151 368.918 407.823 351.668 409.302 336.585C410.663 322.751 404.882 252.167 408.874 228.185L433.857 222.723L434.005 226.928L434.308 235.511L434.839 250.697C434.839 250.697 435.781 265.391 437.072 283.804C439.001 311.411 441.712 347.386 443.185 354.748C445.533 366.459 436.656 371.588 432.664 372.752Z" fill="#1C468A"/>
<path d="M489.185 357.463C488.631 358.105 488.022 358.67 487.368 359.165C484.009 361.75 479.478 362.699 475.501 363.773C474.8 363.965 474.072 364.103 473.326 364.194C469.62 364.651 465.578 363.803 463.846 360.661C454.978 344.509 444.985 312.447 437.066 283.804C431.277 262.891 426.598 243.786 424.271 234.045C423.249 229.74 422.68 227.266 422.68 227.266L434.002 226.928L453.246 226.348C453.77 228.939 454.365 231.672 455.034 234.504C461.604 262.532 474.546 301.063 479.613 315.801C482.654 324.627 487.259 332.504 489.283 341.75C490.364 346.641 492.868 353.214 489.185 357.463Z" fill="#1C468A"/>
<path opacity="0.6" d="M455.04 234.498C447.183 235.788 440.251 235.956 434.308 235.508C430.567 235.229 427.217 234.699 424.277 234.042C414.195 231.819 408.877 228.182 408.877 228.182L433.86 222.72L434.008 226.925L453.252 226.345C453.776 228.933 454.371 231.666 455.04 234.498Z" fill="#1B1B43"/>
<path d="M436.715 283.901L429.011 256.622L421.086 253.742L421.339 253.05L429.618 256.059L429.668 256.242L437.425 283.701L436.715 283.901Z" fill="#1B1B43"/>
<path d="M484.015 360.817L483.375 360.449C487.093 353.997 479.64 334.117 470.206 308.946C461.047 284.505 449.646 254.09 445.521 226.951L446.249 226.839C450.361 253.901 461.745 284.278 470.896 308.687C480.4 334.041 487.904 354.065 484.015 360.817Z" fill="#1B1B43"/>
<path d="M414.23 205.001C413.338 211.221 412.006 219.348 412.006 219.348H397.458L401.002 199.889L401.877 195.054C401.877 195.054 414.398 197.999 414.952 197.999C415.164 197.999 414.784 201.135 414.23 205.001Z" fill="#FFBC96"/>
<path d="M414.23 205.001L413.567 206.465L401.002 199.889L401.877 195.054C401.877 195.054 414.398 197.999 414.952 197.999C415.164 197.999 414.784 201.135 414.23 205.001Z" fill="#D28572"/>
<path d="M411.087 200.575C411.087 200.575 413.479 214.563 408.877 228.182C408.877 228.182 431.71 235.176 453.252 226.342L448.279 194.872L449.934 178.858L416.973 179.226L405.743 182.907L411.087 200.575Z" fill="#B0D4FF"/>
<path d="M459.25 177.068C457.794 172.913 454.442 169.703 450.226 168.431L444.036 166.562C441.544 170.189 437.098 174.813 430.605 174.813C422.971 174.813 418.184 170.434 415.547 166.856L411.269 167.898C406.679 169.017 403.112 172.628 402.051 177.227L397.275 197.937L411.087 200.576L411.455 184.748L447.362 183.093L448.281 194.872C448.281 194.872 458.655 190.331 465.528 194.995L459.25 177.068Z" fill="#B0D4FF"/>
<path d="M474.979 175.731C472.99 179.618 470.318 196.468 469.087 209.595C468.68 213.909 467.452 217.31 465.749 219.79C463.245 223.456 459.695 225.12 456.248 224.751C454.922 224.619 453.617 224.186 452.388 223.456C446.461 219.946 447.218 204.943 447.881 198.19C448.087 196.159 448.278 194.872 448.278 194.872C451.778 192.943 457.299 192.663 457.299 192.663C457.373 191.903 457.461 191.138 457.55 190.352C458.301 183.57 459.441 175.878 460.428 170.764C461.533 165.057 463.743 167.177 463.743 167.177C464.847 165.145 466.506 166.897 466.506 166.897C467.979 163.673 469.82 166.715 469.82 166.715C472.118 163.402 473.376 168.37 473.376 168.37C473.376 168.37 480.515 162.495 481.729 164.194C482.344 165.057 477.798 170.21 474.979 175.731Z" fill="#FFBC96"/>
<path d="M418.452 215.635H387.518V219.348H418.452V215.635Z" fill="white"/>
<path d="M400.764 219.38H368.857C367.322 219.38 365.929 218.488 365.287 217.095L352.86 190.131C352.447 189.236 353.102 188.211 354.088 188.211H384.018C385.47 188.211 386.793 189.056 387.4 190.375L400.764 219.38Z" fill="#2B478B"/>
<path d="M411.269 219.348C410.878 220.797 410.356 222.131 409.649 223.317C407.94 226.203 405.2 228.182 400.982 228.712C399.538 228.903 397.924 228.912 396.112 228.736C381.493 227.284 377.263 219.289 377.263 219.289C377.263 219.289 375.636 215.897 379.089 216.674C379.089 216.674 379.737 214.519 382.403 216.771C382.403 216.771 382.085 214.098 384.707 216.545C384.707 216.545 384.339 213.827 387.191 216.177C390.049 218.518 392.258 219.21 395.711 219.348C399.161 219.489 411.269 219.348 411.269 219.348Z" fill="#FFBC96"/>
<path d="M410.521 184.741L409.786 184.784L410.706 200.611L411.441 200.568L410.521 184.741Z" fill="#5254CF"/>
<path d="M429.014 180.516C427.27 180.516 425.738 180.307 424.447 180.016C420.055 179.026 417.524 176.959 417.421 176.874L417.889 176.305C417.989 176.388 427.941 184.371 442.262 175.784L442.64 176.414C437.387 179.562 432.729 180.516 429.014 180.516Z" fill="#5254CF"/>
<path d="M448.087 187.623L447.353 187.679L447.905 194.919L448.639 194.863L448.087 187.623Z" fill="#5254CF"/>
<path d="M436.803 198.491C434.438 198.491 432.464 196.733 432.199 194.377L431.606 189.129L441.735 188.464L441.435 194.106C441.305 196.526 439.305 198.455 436.877 198.493C436.853 198.491 436.827 198.491 436.803 198.491ZM432.425 189.813L432.929 194.291C433.156 196.297 434.856 197.778 436.865 197.751C438.907 197.719 440.589 196.099 440.698 194.062L440.954 189.25L432.425 189.813Z" fill="#5254CF"/>
<path d="M456.894 192.659L454.247 211.155L454.976 211.259L457.623 192.764L456.894 192.659Z" fill="#D28572"/>
<path d="M470.111 166.661L469.566 166.76L470.118 169.796L470.663 169.697L470.111 166.661Z" fill="#D28572"/>
<path d="M466.796 166.752L466.251 166.851L466.804 169.888L467.349 169.789L466.796 166.752Z" fill="#D28572"/>
<path d="M464.033 166.935L463.488 167.034L464.04 170.071L464.585 169.971L464.033 166.935Z" fill="#D28572"/>
<path d="M472.893 166.317L472.374 166.51L474.092 171.112L474.611 170.918L472.893 166.317Z" fill="#D28572"/>
<path d="M457.293 192.657L447.836 198.164C448.043 196.132 448.234 194.845 448.234 194.845C451.731 192.916 457.293 192.657 457.293 192.657Z" fill="#D28572"/>
<path d="M388.352 220.387C386.896 220.102 385.076 217.852 384.463 216.671L384.955 216.418C385.582 217.634 387.3 219.619 388.458 219.846L388.352 220.387Z" fill="#D28572"/>
<path d="M384.893 220.767C383.659 219.498 382.521 217.917 382.062 216.833L382.571 216.618C383.005 217.646 384.097 219.156 385.291 220.381L384.893 220.767Z" fill="#D28572"/>
<path d="M381.487 220.676C380.253 219.407 379.116 217.825 378.656 216.742L379.166 216.527C379.599 217.555 380.692 219.065 381.885 220.29L381.487 220.676Z" fill="#D28572"/>
<path d="M444.036 166.558C441.538 170.189 437.092 174.812 430.602 174.812C422.972 174.812 418.184 170.431 415.547 166.853L423.419 164.93C423.611 163.516 423.773 162.138 423.905 160.837C424.009 159.815 424.097 158.834 424.179 157.907C424.312 156.384 424.4 155.006 424.474 153.828C424.571 152.215 424.615 150.993 424.636 150.315C424.651 149.927 424.651 149.721 424.651 149.721L435.699 145.303C435.699 145.303 435.33 159.659 438.645 164.93L444.036 166.558Z" fill="#FFBC96"/>
<path d="M433.427 155.056C433.427 155.056 430.472 158.51 423.908 160.837C424.012 159.815 424.1 158.834 424.182 157.907C424.315 156.384 424.403 155.006 424.477 153.828L433.427 155.056Z" fill="#D28572"/>
<path d="M421.705 136.346C421.705 136.346 416.057 151.682 420.108 154.506C423.711 157.015 428.454 157.327 433.121 156.102L436.191 145.672L434.349 135.489L421.705 136.346Z" fill="#FFBC96"/>
<path d="M434.594 145.792C434.594 145.792 430.605 147.321 428.946 141.743C427.597 137.203 421.705 136.346 421.705 136.346L424.097 134.137L435.451 133.831L439.626 138.922L438.215 145.548L434.594 145.792Z" fill="#1B1B43"/>
<path d="M439.742 148.992C441.03 146.763 440.646 144.132 438.885 143.115C437.124 142.099 434.652 143.082 433.364 145.312C432.076 147.541 432.46 150.172 434.221 151.189C435.983 152.205 438.455 151.222 439.742 148.992Z" fill="#FFBC96"/>
<path d="M549 400.264H57V401H549V400.264Z" fill="#1B1B43"/>
</svg>
