<svg width="615" height="400" viewBox="0 0 615 400" fill="none" xmlns="http://www.w3.org/2000/svg">
<rect width="615.011" height="399.093" fill="#06225C"/>
<g clip-path="url(#clip0_1594_8499)">
<path d="M141.453 57.3647C141.453 57.3647 208.415 -17.9763 326.396 37.2025C444.376 92.3828 416.742 176.212 490.08 197.435C563.42 218.658 562.004 312.294 530.47 352.363C495.394 396.932 409.301 392.686 352.967 358.73C296.634 324.773 230.734 349.18 172.276 334.324C113.819 319.47 85.5081 276.154 84.0575 208.048C82.6183 140.48 108.268 88.1514 141.453 57.3647Z" fill="#EBF3FA"/>
<path d="M267.061 264.608H253.494V299.032H267.061V264.608Z" fill="#254DA1"/>
<path d="M134.362 302.923H180.573L155.348 252.979L137.754 283.876L134.362 302.923Z" fill="#A1CAFF"/>
<path d="M209.931 189.491C209.931 189.491 209.931 187.586 210.461 185.999C210.992 184.411 212.475 181.555 212.475 181.555C213.111 180.708 213.641 182.719 213.535 183.777C213.429 184.835 212.9 185.892 213.111 186.105C213.322 186.317 213.322 186.317 213.322 186.317C213.322 186.317 212.05 186.105 215.23 184.413C218.41 182.719 218.939 182.931 219.576 181.767C220.318 180.603 221.166 179.969 221.166 181.238C221.166 182.508 222.226 184.624 219.789 187.057C217.351 189.491 215.125 189.172 214.596 189.808C214.065 190.442 213.748 191.183 213.748 191.183L209.931 189.491Z" fill="#FF9677"/>
<path d="M172.66 196.405C172.66 196.405 174.638 195.841 178.878 200.355C183.118 204.869 188.769 210.23 194.422 209.949C200.075 209.666 209.118 188.505 209.118 188.505C209.118 188.505 211.662 188.787 214.488 191.044C214.488 191.044 209.967 217.85 201.77 222.646C193.574 227.443 181.986 225.468 174.92 219.542C167.855 213.616 160.789 196.969 172.66 196.405Z" fill="white"/>
<path d="M181.141 336.303C181.141 336.303 183.707 339.468 184.16 339.77C184.613 340.071 191.706 343.537 191.253 343.839C190.801 344.14 176.763 342.633 176.763 342.633L177.367 338.564L177.216 336.454L181.141 336.303Z" fill="#0D1B4A"/>
<path d="M129.217 336.605C129.217 336.605 131.783 339.77 132.236 340.071C132.689 340.373 139.783 343.839 139.33 344.14C138.877 344.442 124.839 342.935 124.839 342.935L125.443 338.865L125.292 336.755L129.217 336.605Z" fill="#0D1B4A"/>
<path d="M173.19 241.869C173.19 241.869 177.216 271.605 178.826 285.67C180.436 299.735 182.852 336.303 182.852 336.303C182.852 336.303 180.839 338.313 176.01 337.107C176.01 337.107 165.545 293.306 163.934 287.278C162.324 281.251 146.626 244.281 146.626 244.281L173.19 241.869Z" fill="#2B478B"/>
<path d="M132.941 250.308C132.941 250.308 133.343 276.428 134.551 287.68C134.551 287.68 125.293 333.49 124.891 337.509C124.891 337.509 128.514 339.92 132.135 338.313C132.135 338.313 146.626 297.324 149.444 287.68C152.262 278.035 159.104 243.879 159.104 243.879C159.104 243.879 145.016 237.448 135.356 242.271C135.356 242.271 132.538 243.879 132.941 250.308Z" fill="#2B478B"/>
<path d="M159.708 179.583L161.316 192.442H149.04L151.254 176.771L159.708 179.583Z" fill="#FF9677"/>
<path d="M159.88 180.963L151.004 178.542L150.585 181.5C150.956 183.056 152.088 185.735 155.56 187.586C157.768 188.546 159.577 188.68 160.833 188.579L159.88 180.963Z" fill="#FF6746"/>
<path d="M147.812 173.372C148.295 178.499 154.943 187.421 160.08 186.939C165.215 186.456 166.893 176.754 166.412 171.627C165.928 166.5 161.374 162.733 156.238 163.215C151.102 163.698 147.329 168.245 147.812 173.372Z" fill="#FF9677"/>
<path d="M147.431 168.653C147.431 168.653 146.856 164.124 150.051 162.594C153.245 161.064 161.677 163.105 164.744 159.277C167.81 155.45 171.771 161.446 169.855 164.507C167.938 167.569 167.067 171.037 157.46 169.482C152.733 168.717 151.711 171.906 151.966 173.437C152.221 174.967 153.882 177.519 153.882 178.156C153.882 178.795 152.86 178.795 152.476 178.284C152.092 177.774 151.582 174.967 149.793 175.35C148.005 175.733 150.177 179.56 151.71 180.069C151.71 180.069 152.22 180.834 151.838 181.473C151.454 182.11 145.448 177.519 145.322 173.181C145.195 168.843 147.431 168.653 147.431 168.653Z" fill="#163560"/>
<path d="M161.316 189.729L157.391 191.538L149.543 189.126L147.279 191.839C147.279 191.839 132.033 197.565 131.731 199.072C131.429 200.579 139.278 243.978 139.278 243.978V247.293H173.994L174.565 198.449L162.824 192.44L161.316 189.729Z" fill="#B0D4FF"/>
<path d="M152.953 176.366C152.953 176.366 153.96 177.471 154.664 179.682C155.369 181.892 156.979 178.777 160.199 177.974C163.42 177.17 165.835 178.677 165.734 180.485C165.634 182.294 163.285 187.064 159.779 187.342C156.276 187.619 153.559 184.705 153.156 182.595C152.753 180.485 152.653 178.476 151.848 177.17C151.746 175.964 152.953 176.366 152.953 176.366Z" fill="#163560"/>
<path d="M157.896 195.959L160.511 227.804L157.997 231.522L155.179 227.804L156.487 195.758L157.896 195.959Z" fill="#254DA1"/>
<path d="M145.809 192.242C145.809 192.242 153.441 213.193 148.565 243.879C143.69 274.565 141.358 305.886 141.358 305.886C141.358 305.886 125.249 306.097 121.22 305.039C121.22 305.039 126.308 275.623 130.335 253.826C134.362 232.029 133.938 233.933 133.938 233.297C133.938 232.662 131.395 208.538 131.395 208.538L129.921 198.47C129.921 198.47 140.723 193.513 145.809 192.242Z" fill="white"/>
<path d="M165.029 193.583C165.029 193.583 174.355 280.773 174.355 307.014H189.052C189.052 307.014 187.074 271.46 182.834 253.966C178.595 236.472 175.486 197.533 175.486 197.533C175.486 197.533 172.095 195.275 165.029 193.583Z" fill="white"/>
<path d="M148.459 192.455L153.228 197.746L157.15 195.522L160.224 198.063L162.98 193.195" stroke="#218498" stroke-width="0.25" stroke-miterlimit="10"/>
<path d="M120.691 268.321C120.691 268.321 120.374 273.506 121.54 275.834C122.281 276.785 126.204 279.326 126.415 278.373C126.626 277.421 125.142 273.188 125.249 272.659C125.249 272.659 126.308 274.67 127.05 274.351C127.792 274.034 126.944 271.917 126.308 270.754C125.673 269.59 124.613 268.215 124.613 268.215L120.691 268.321Z" fill="#FF9677"/>
<path d="M129.921 198.47C129.921 198.47 119.242 210.513 119.242 238.166C119.242 265.537 119.666 268.923 119.666 268.923H126.025C126.025 268.923 128.852 243.527 130.83 232.241C132.808 220.955 142.983 213.9 142.135 205.435C141.288 196.969 133.818 196.02 129.921 198.47Z" fill="white"/>
<path d="M131.395 257.635H141.147L138.815 271.602L129.063 271.39L131.395 257.635Z" stroke="#A6D0F4" stroke-width="0.25" stroke-miterlimit="10"/>
<path d="M172.837 256.259L181.739 256.152C181.739 256.152 183.329 267.685 183.329 268.745L174.108 268.956L172.837 256.259Z" stroke="#A6D0F4" stroke-width="0.25" stroke-miterlimit="10"/>
<path d="M311.958 192.789H304.121H282.037L295.871 259.663H304.121H311.958H320.208L334.041 192.789H311.958Z" fill="url(#paint0_linear_1594_8499)"/>
<path d="M318.366 180.151H298.854V187.944H318.366V180.151Z" fill="white"/>
<path d="M315.858 87.573H302.106V134.326H315.858V87.573Z" fill="white"/>
<path d="M317.531 86.6946H300.434V95.3655H317.531V86.6946Z" fill="#254DA1"/>
<path d="M321.431 108.353H296.531V182.192H321.431V108.353Z" fill="#739AF0"/>
<path d="M320.875 186.645H296.16V190.355H320.875V186.645Z" fill="#254DA1"/>
<path d="M300.294 304.64C261.499 304.64 230.05 273.242 230.05 234.51C230.05 195.779 261.499 164.381 300.294 164.381V132.1C243.642 132.1 197.716 177.951 197.716 234.512C197.716 291.071 243.642 336.922 300.294 336.922V304.64Z" fill="#739AF0"/>
<path d="M315.811 148.797C315.811 158.787 307.7 166.887 297.694 166.887C287.687 166.887 279.574 158.789 279.574 148.797C279.574 138.807 287.686 130.709 297.694 130.709C307.698 130.709 315.811 138.807 315.811 148.797Z" fill="white"/>
<path d="M308.1 148.797C308.1 154.536 303.44 159.186 297.694 159.186C291.946 159.186 287.286 154.534 287.286 148.797C287.286 143.059 291.946 138.408 297.694 138.408C303.44 138.408 308.1 143.059 308.1 148.797Z" fill="#2B478B"/>
<path d="M238.778 229.311C240.869 216.388 232.071 204.22 219.127 202.132C206.184 200.044 193.995 208.827 191.904 221.75C189.813 234.673 198.61 246.841 211.554 248.929C224.498 251.017 236.686 242.233 238.778 229.311Z" fill="#2B478B"/>
<path d="M228.973 225.521C228.973 233.039 222.869 239.134 215.336 239.134C207.806 239.134 201.701 233.039 201.701 225.521C201.701 218.003 207.806 211.907 215.336 211.907C222.867 211.908 228.973 218.003 228.973 225.521Z" fill="white"/>
<path d="M327.645 258.977H290.107V263.43H327.645V258.977Z" fill="#254DA1"/>
<path d="M328.388 269.737H290.107V280.868H328.388V269.737Z" fill="#F99746"/>
<path d="M333.593 264.542H286.019V271.963H333.593V264.542Z" fill="#254DA1"/>
<path d="M345.856 262.316H223.196V266.397H345.856V262.316Z" fill="#F99746"/>
<path d="M232.859 264.914C232.859 270.858 228.034 275.675 222.081 275.675C216.129 275.675 211.302 270.858 211.302 264.914C211.302 258.972 216.129 254.153 222.081 254.153C228.034 254.153 232.859 258.972 232.859 264.914Z" fill="#F99746"/>
<path d="M228.271 264.914C228.271 268.327 225.5 271.094 222.081 271.094C218.662 271.094 215.89 268.327 215.89 264.914C215.89 261.501 218.662 258.733 222.081 258.733C225.501 258.733 228.271 261.501 228.271 264.914Z" fill="white"/>
<path d="M337.998 338.952H282.603V294.958C282.603 294.01 283.374 293.242 284.323 293.242H336.278C337.229 293.242 337.998 294.011 337.998 294.958V338.952Z" fill="#739AF0"/>
<path d="M378.939 332.84H233.247V344.179H378.939V332.84Z" fill="#739AF0"/>
<path d="M318.779 311.582C318.779 316.725 314.602 320.893 309.452 320.893C304.303 320.893 300.126 316.725 300.126 311.582C300.126 306.439 304.301 302.271 309.452 302.271C314.604 302.271 318.779 306.439 318.779 311.582Z" fill="#D2DDF9"/>
<path d="M309.452 302.27C304.301 302.27 300.126 306.438 300.126 311.581C300.126 311.653 300.135 311.722 300.136 311.792H318.769C318.77 311.72 318.779 311.651 318.779 311.581C318.779 306.44 314.604 302.27 309.452 302.27Z" fill="#254DA1"/>
<path d="M314.54 311.582C314.54 314.387 312.263 316.662 309.452 316.662C306.643 316.662 304.364 314.388 304.364 311.582C304.364 308.778 306.642 306.503 309.452 306.503C312.262 306.503 314.54 308.776 314.54 311.582Z" fill="white"/>
<path d="M470.421 211.393V200.48H467.447V211.393C464.932 212.05 463.075 214.328 463.075 217.045C463.075 220.276 465.699 222.895 468.935 222.895C472.171 222.895 474.795 220.276 474.795 217.045C474.793 214.328 472.936 212.05 470.421 211.393Z" fill="#9ACCFF"/>
<path d="M470.421 200.48H467.447V201.417H470.421V200.48Z" fill="#A6D0F4"/>
<path d="M470.735 201.106H467.133C466.787 201.106 466.506 200.826 466.506 200.48C466.506 200.134 466.787 199.854 467.133 199.854H470.735C471.081 199.854 471.362 200.134 471.362 200.48C471.36 200.824 471.08 201.106 470.735 201.106Z" fill="white"/>
<path d="M464.038 217.685C464.351 220.104 466.417 221.974 468.925 221.974C471.432 221.974 473.494 220.104 473.807 217.685H464.038Z" fill="#254DA1"/>
<path d="M461.651 209.022C461.651 209.022 463.63 205.918 464.619 205.212C465.608 204.507 470.413 203.378 470.696 204.084C470.979 204.789 467.588 205.918 467.588 205.918C467.588 205.918 468.293 209.445 466.739 209.868C465.185 210.292 464.902 210.997 464.902 210.997C464.619 211.42 461.651 209.022 461.651 209.022Z" fill="#FF9677"/>
<path d="M392.245 197.533C392.245 197.533 383.221 222.565 380.112 225.104C376.438 227.079 369.09 209.021 369.09 209.021C369.09 209.021 364.85 209.021 364.285 212.69C364.285 212.69 367.676 232.442 378.981 240.061C388.874 245.422 399.613 218.617 399.613 218.617C399.613 218.617 400.986 202.129 392.245 197.533Z" fill="white"/>
<path d="M435.372 198.562C436.349 197.633 437.971 198.032 438.438 199.296C440.762 205.565 447.192 222.476 449.717 224.539C453.392 226.514 460.74 208.456 460.74 208.456C460.74 208.456 464.98 208.456 465.545 212.125C465.545 212.125 462.153 231.876 450.848 239.495C440.956 244.856 430.216 218.051 430.216 218.051C430.216 218.051 429.09 204.527 435.372 198.562Z" fill="white"/>
<path d="M433.367 302.923H387.158L412.383 252.979L429.976 283.876L433.367 302.923Z" fill="#A1CAFF"/>
<path d="M386.591 336.303C386.591 336.303 384.024 339.468 383.571 339.77C383.119 340.071 376.025 343.537 376.478 343.839C376.931 344.14 390.968 342.633 390.968 342.633L390.365 338.564L390.516 336.454L386.591 336.303Z" fill="#0D1B4A"/>
<path d="M438.514 336.605C438.514 336.605 435.948 339.77 435.495 340.071C435.042 340.373 427.949 343.839 428.402 344.14C428.855 344.442 442.892 342.935 442.892 342.935L442.288 338.865L442.439 336.755L438.514 336.605Z" fill="#0D1B4A"/>
<path d="M394.54 241.869C394.54 241.869 390.514 271.605 388.904 285.67C387.294 299.735 384.878 336.303 384.878 336.303C384.878 336.303 386.891 338.313 391.72 337.107C391.72 337.107 402.185 293.306 403.796 287.278C405.406 281.251 421.104 244.281 421.104 244.281L394.54 241.869Z" fill="#2B478B"/>
<path d="M434.791 250.308C434.791 250.308 434.388 276.428 433.181 287.68C433.181 287.68 442.438 333.49 442.84 337.509C442.84 337.509 439.217 339.92 435.596 338.313C435.596 338.313 421.105 297.324 418.287 287.68C415.47 278.035 408.628 243.879 408.628 243.879C408.628 243.879 422.716 237.448 432.375 242.271C432.375 242.271 435.193 243.879 434.791 250.308Z" fill="#2B478B"/>
<path d="M408.024 179.583L406.414 192.442H418.69L416.476 176.771L408.024 179.583Z" fill="#FF9677"/>
<path d="M407.851 180.963L416.728 178.542L417.146 181.5C416.775 183.056 415.644 185.735 412.172 187.586C409.963 188.546 408.153 188.68 406.898 188.579L407.851 180.963Z" fill="#FF6746"/>
<path d="M419.919 173.372C419.436 178.499 412.788 187.421 407.651 186.939C402.516 186.456 400.838 176.754 401.32 171.627C401.803 166.5 406.358 162.733 411.493 163.215C416.63 163.698 420.402 168.245 419.919 173.372Z" fill="#FF9677"/>
<path d="M406.414 189.729L410.338 191.538L418.187 189.126L420.451 191.839C420.451 191.839 435.697 197.565 435.998 199.072C436.3 200.579 428.452 243.978 428.452 243.978V247.293H393.736L393.165 198.449L404.905 192.44L406.414 189.729Z" fill="#B0D4FF"/>
<path d="M409.835 195.959L407.219 227.804L409.735 231.522L412.552 227.804L411.244 195.758L409.835 195.959Z" fill="#254DA1"/>
<path d="M421.922 192.242C421.922 192.242 414.291 213.193 419.166 243.879C424.041 274.565 426.373 305.886 426.373 305.886C426.373 305.886 442.483 306.097 446.511 305.039C446.511 305.039 441.423 275.623 437.396 253.826C433.369 232.029 433.792 233.933 433.792 233.297C433.792 232.662 436.335 208.538 436.335 208.538L437.809 198.47C437.81 198.47 427.009 193.513 421.922 192.242Z" fill="white"/>
<path d="M402.703 193.583C402.703 193.583 393.377 280.773 393.377 307.014H378.68C378.68 307.014 380.659 271.46 384.898 253.966C389.138 236.472 392.247 197.533 392.247 197.533C392.247 197.533 395.637 195.275 402.703 193.583Z" fill="white"/>
<path d="M419.272 192.455L414.502 197.746L410.581 195.522L407.508 198.063L404.752 193.195" stroke="#218498" stroke-width="0.25" stroke-miterlimit="10"/>
<path d="M436.335 257.635H426.584L428.916 271.602L438.667 271.39L436.335 257.635Z" stroke="#A6D0F4" stroke-width="0.25" stroke-miterlimit="10"/>
<path d="M394.895 256.259L385.992 256.152C385.992 256.152 384.402 267.685 384.402 268.745L393.624 268.956L394.895 256.259Z" stroke="#A6D0F4" stroke-width="0.25" stroke-miterlimit="10"/>
<path d="M368.617 208.634C368.617 208.634 368.839 207.302 366.617 205.305C364.394 203.309 357.949 201.09 357.505 201.977C357.06 202.864 362.394 205.305 362.394 205.305C362.394 205.305 359.949 207.302 360.616 209.3C361.283 211.297 365.284 212.406 365.284 212.406C365.284 212.406 366.395 213.516 367.728 212.629C369.061 211.74 369.282 210.408 368.617 208.634Z" fill="#F99746"/>
<path d="M470.2 204.648C470.2 204.648 471.613 204.931 471.967 205.495C472.321 206.059 470.624 209.657 470.27 209.728C469.917 209.798 469.211 209.445 469.07 209.093C468.929 208.74 469.353 208.106 469.353 208.106C469.353 208.106 468.434 206.06 468.647 205.637C468.859 205.212 470.2 204.648 470.2 204.648Z" fill="#FF9677"/>
<path d="M418.267 165.991C418.267 165.991 418.832 163.876 414.452 162.323C410.071 160.771 406.396 162.182 402.864 164.862C399.331 167.542 398.766 170.506 400.886 171.774C403.005 173.045 404.842 174.032 408.234 172.621C411.625 171.21 413.746 173.185 414.311 174.173C414.876 175.16 414.452 178.829 414.17 179.534C414.311 180.239 415.159 180.098 415.442 179.251C415.726 178.404 416.148 175.442 417.28 175.442C418.41 175.442 418.128 178.264 417.421 179.392C416.715 180.52 416.431 182.214 417.137 182.214C417.843 182.214 419.116 179.532 419.116 179.532C419.116 179.532 423.072 175.3 422.366 171.209C421.659 167.12 418.267 165.991 418.267 165.991Z" fill="#163560"/>
<path d="M376.511 222.636H341.122C339.575 222.636 338.225 221.591 337.838 220.095L332.805 200.626C332.251 198.483 333.872 196.393 336.089 196.393H371.478C373.025 196.393 374.375 197.438 374.761 198.934L379.795 218.403C380.35 220.547 378.729 222.636 376.511 222.636Z" stroke="white" stroke-width="0.5" stroke-miterlimit="10"/>
<path opacity="0.39" d="M371.633 207.328H340.261L338.001 200.556H369.373L371.633 207.328Z" fill="white"/>
<path opacity="0.39" d="M349.022 216.64H343.511L341.25 209.868H346.762L349.022 216.64Z" fill="white"/>
<path opacity="0.39" d="M357.218 216.64H351.708L349.446 209.868H354.958L357.218 216.64Z" fill="white"/>
<path d="M177.915 119.01V158.05C177.915 159.492 179.086 160.662 180.531 160.662H258.226C259.671 160.662 260.842 159.492 260.842 158.05V119.01H177.915Z" fill="white"/>
<path d="M258.226 110.827H180.531C179.086 110.827 177.915 111.997 177.915 113.439V121.545H260.842V113.439C260.842 111.997 259.671 110.827 258.226 110.827Z" fill="#F99746"/>
<path d="M233.467 148.203H229.71V153.696H233.467V148.203Z" fill="#3BC9FF"/>
<path d="M240.713 143.581H236.956V153.696H240.713V143.581Z" fill="#03B8C2"/>
<path d="M247.959 137.653H244.203V153.696H247.959V137.653Z" fill="#3BC9FF"/>
<path d="M255.205 130.118H251.448V153.696H255.205V130.118Z" fill="#FE7A65"/>
<path d="M214.446 124.793H211.83V127.405H214.446V124.793Z" fill="white"/>
<path d="M228.033 124.793H225.416V127.405H228.033V124.793Z" fill="white"/>
<path d="M241.62 124.793H239.004V127.405H241.62V124.793Z" fill="white"/>
<path d="M255.207 124.793H252.59V127.405H255.207V124.793Z" fill="white"/>
<path d="M253.898 125.697H213.138V126.501H253.898V125.697Z" fill="white"/>
<path d="M237.092 116.654C237.092 117.431 236.46 118.061 235.683 118.061C234.905 118.061 234.274 117.431 234.274 116.654C234.274 115.878 234.905 115.248 235.683 115.248C236.46 115.248 237.092 115.878 237.092 116.654Z" fill="white"/>
<path d="M246.552 116.654C246.552 117.431 245.92 118.061 245.143 118.061C244.365 118.061 243.734 117.431 243.734 116.654C243.734 115.878 244.365 115.248 245.143 115.248C245.92 115.248 246.552 115.878 246.552 116.654Z" fill="white"/>
<path d="M256.012 116.654C256.012 117.431 255.381 118.061 254.603 118.061C253.825 118.061 253.194 117.431 253.194 116.654C253.194 115.878 253.825 115.248 254.603 115.248C255.381 115.248 256.012 115.878 256.012 116.654Z" fill="#D2DDF9"/>
<path d="M206.739 134.803C206.447 134.803 206.195 135.067 206.057 135.456H204.92C204.784 133.873 204.158 132.432 203.191 131.282L203.994 130.48C204.367 130.657 204.732 130.666 204.939 130.461C205.248 130.152 205.084 129.489 204.572 128.98C204.062 128.47 203.396 128.306 203.089 128.614C202.882 128.819 202.892 129.185 203.07 129.557L202.266 130.359C201.115 129.393 199.671 128.769 198.085 128.632V127.497C198.475 127.361 198.74 127.108 198.74 126.817C198.74 126.38 198.154 126.027 197.431 126.027C196.708 126.027 196.123 126.38 196.123 126.817C196.123 127.108 196.388 127.359 196.777 127.497V128.632C195.191 128.769 193.748 129.393 192.596 130.359L191.793 129.557C191.971 129.185 191.98 128.82 191.774 128.614C191.465 128.305 190.801 128.469 190.29 128.98C189.78 129.489 189.616 130.154 189.924 130.461C190.131 130.666 190.496 130.657 190.868 130.48L191.672 131.282C190.704 132.432 190.079 133.873 189.942 135.456H188.805C188.669 135.067 188.415 134.803 188.125 134.803C187.688 134.803 187.334 135.387 187.334 136.109C187.334 136.831 187.688 137.415 188.125 137.415C188.417 137.415 188.669 137.151 188.805 136.762H189.942C190.079 138.345 190.706 139.786 191.672 140.936L190.868 141.738C190.496 141.56 190.131 141.552 189.924 141.757C189.615 142.066 189.778 142.729 190.29 143.238C190.801 143.748 191.466 143.911 191.774 143.604C191.981 143.398 191.971 143.033 191.793 142.661L192.596 141.859C193.748 142.825 195.191 143.449 196.777 143.586V144.721C196.388 144.857 196.123 145.11 196.123 145.401C196.123 145.838 196.708 146.191 197.431 146.191C198.154 146.191 198.74 145.838 198.74 145.401C198.74 145.11 198.475 144.859 198.085 144.721V143.586C199.671 143.449 201.115 142.825 202.266 141.859L203.07 142.661C202.892 143.033 202.883 143.398 203.089 143.604C203.398 143.913 204.062 143.749 204.572 143.238C205.084 142.729 205.247 142.064 204.939 141.757C204.733 141.55 204.367 141.56 203.994 141.738L203.191 140.936C204.158 139.786 204.784 138.345 204.92 136.762H206.057C206.194 137.151 206.447 137.415 206.739 137.415C207.176 137.415 207.53 136.831 207.53 136.109C207.53 135.387 207.176 134.803 206.739 134.803Z" fill="#3BC9FF"/>
<path d="M212.52 149.532C212.418 149.532 212.33 149.624 212.283 149.76H211.886C211.838 149.208 211.62 148.706 211.282 148.305L211.562 148.025C211.692 148.087 211.82 148.09 211.892 148.018C211.999 147.91 211.942 147.679 211.764 147.501C211.585 147.323 211.354 147.266 211.246 147.374C211.174 147.445 211.177 147.573 211.239 147.702L210.959 147.982C210.557 147.645 210.053 147.428 209.501 147.379V146.983C209.636 146.936 209.729 146.848 209.729 146.746C209.729 146.594 209.525 146.471 209.274 146.471C209.022 146.471 208.818 146.594 208.818 146.746C208.818 146.848 208.91 146.936 209.046 146.983V147.379C208.493 147.427 207.99 147.645 207.589 147.982L207.308 147.702C207.37 147.573 207.373 147.445 207.301 147.374C207.193 147.266 206.962 147.323 206.783 147.501C206.605 147.679 206.548 147.91 206.656 148.018C206.727 148.09 206.855 148.087 206.985 148.025L207.265 148.305C206.927 148.706 206.71 149.209 206.661 149.76H206.264C206.217 149.626 206.129 149.532 206.027 149.532C205.875 149.532 205.751 149.736 205.751 149.987C205.751 150.238 205.875 150.442 206.027 150.442C206.129 150.442 206.217 150.35 206.264 150.214H206.661C206.709 150.767 206.927 151.269 207.265 151.669L206.985 151.949C206.855 151.888 206.727 151.885 206.656 151.957C206.548 152.064 206.605 152.295 206.783 152.473C206.962 152.651 207.193 152.709 207.301 152.601C207.373 152.529 207.37 152.402 207.308 152.272L207.589 151.992C207.99 152.33 208.494 152.548 209.046 152.595V152.991C208.91 153.039 208.818 153.126 208.818 153.228C208.818 153.38 209.022 153.504 209.274 153.504C209.525 153.504 209.729 153.38 209.729 153.228C209.729 153.126 209.637 153.039 209.501 152.991V152.595C210.054 152.548 210.557 152.33 210.959 151.992L211.239 152.272C211.177 152.402 211.173 152.529 211.246 152.601C211.354 152.709 211.585 152.651 211.764 152.473C211.942 152.295 211.999 152.064 211.892 151.957C211.82 151.885 211.692 151.888 211.562 151.949L211.282 151.669C211.62 151.269 211.837 150.765 211.886 150.214H212.283C212.33 150.35 212.418 150.442 212.52 150.442C212.672 150.442 212.796 150.238 212.796 149.987C212.794 149.736 212.671 149.532 212.52 149.532Z" fill="#FE7A65"/>
<path d="M228.056 128.886H210.463V130.58H228.056V128.886Z" fill="#CAE5FF"/>
<path d="M221.91 132.694H210.463V134.388H221.91V132.694Z" fill="#CAE5FF"/>
<path d="M218.729 136.222H210.463V137.916H218.729V136.222Z" fill="#CAE5FF"/>
<path d="M216.468 139.749H210.463V141.441H216.468V139.749Z" fill="#CAE5FF"/>
<path d="M350.42 136.066C358.5 136.217 365.004 142.798 365.004 150.9C365.004 153.316 364.421 155.597 363.395 157.612L366.97 159.713C368.356 157.079 369.143 154.081 369.143 150.9C369.143 140.516 360.785 132.08 350.42 131.929V136.066Z" fill="white"/>
<path d="M336.708 157.269C335.788 155.338 335.272 153.18 335.272 150.9C335.272 142.798 341.776 136.217 349.855 136.066V131.929C339.489 132.08 331.131 140.516 331.131 150.9C331.131 153.909 331.833 156.752 333.081 159.278L336.708 157.269Z" fill="#829DE0"/>
<path d="M363.13 158.111C360.591 162.661 355.726 165.742 350.138 165.742C344.413 165.742 339.447 162.509 336.963 157.773L333.34 159.781C336.531 165.785 342.856 169.874 350.138 169.874C357.246 169.874 363.441 165.979 366.701 160.208L363.13 158.111Z" fill="#5E8CE0"/>
<path d="M359.837 150.042C359.545 150.042 359.293 150.306 359.155 150.695H358.018C357.881 149.112 357.256 147.671 356.288 146.521L357.092 145.719C357.464 145.897 357.83 145.905 358.037 145.7C358.346 145.392 358.182 144.728 357.67 144.219C357.16 143.709 356.494 143.546 356.186 143.853C355.979 144.06 355.989 144.424 356.168 144.796L355.364 145.597C354.212 144.631 352.769 144.006 351.183 143.87V142.736C351.573 142.6 351.837 142.347 351.837 142.056C351.837 141.619 351.252 141.266 350.529 141.266C349.806 141.266 349.221 141.619 349.221 142.056C349.221 142.347 349.485 142.598 349.875 142.736V143.871C348.289 144.008 346.846 144.632 345.694 145.598L344.89 144.797C345.069 144.426 345.077 144.061 344.872 143.854C344.562 143.546 343.898 143.709 343.388 144.22C342.877 144.73 342.714 145.394 343.021 145.702C343.228 145.907 343.593 145.898 343.966 145.72L344.77 146.523C343.802 147.672 343.177 149.113 343.04 150.697H341.903C341.766 150.308 341.513 150.043 341.221 150.043C340.784 150.043 340.431 150.629 340.431 151.35C340.431 152.072 340.784 152.656 341.221 152.656C341.513 152.656 341.765 152.392 341.903 152.003H343.04C343.177 153.586 343.803 155.028 344.77 156.177L343.966 156.979C343.593 156.801 343.228 156.792 343.021 156.998C342.712 157.306 342.876 157.969 343.388 158.479C343.898 158.989 344.564 159.152 344.872 158.845C345.079 158.638 345.069 158.274 344.89 157.902L345.694 157.1C346.844 158.066 348.289 158.69 349.875 158.826V159.962C349.485 160.098 349.221 160.351 349.221 160.642C349.221 161.077 349.806 161.431 350.529 161.431C351.252 161.431 351.837 161.078 351.837 160.642C351.837 160.351 351.573 160.099 351.183 159.962V158.826C352.769 158.69 354.212 158.066 355.364 157.1L356.168 157.902C355.989 158.274 355.979 158.638 356.186 158.845C356.495 159.154 357.16 158.99 357.67 158.479C358.18 157.969 358.344 157.305 358.037 156.998C357.831 156.791 357.464 156.801 357.092 156.979L356.288 156.177C357.256 155.027 357.881 153.586 358.018 152.003H359.155C359.292 152.392 359.545 152.656 359.837 152.656C360.274 152.656 360.627 152.072 360.627 151.35C360.627 150.628 360.274 150.042 359.837 150.042Z" fill="#829DE0"/>
<path d="M401.293 147.441H383.487V149.557H401.293V147.441Z" fill="#829DE0"/>
<path d="M394.369 151.25H383.487V153.366H394.369V151.25Z" fill="#829DE0"/>
<path d="M389.21 154.919H383.487V157.035H389.21V154.919Z" fill="#829DE0"/>
<path d="M381.79 148.076H377.975L371.087 154.954H368.648" stroke="white" stroke-width="0.25" stroke-miterlimit="10"/>
<path d="M355.138 191.357H351.317C351.279 191.357 351.25 191.327 351.25 191.291V187.414C351.25 187.377 351.281 187.348 351.317 187.348H355.138C355.175 187.348 355.204 187.378 355.204 187.414V191.291C355.204 191.327 355.174 191.357 355.138 191.357Z" fill="#829DE0"/>
<path d="M360.378 191.357H356.557C356.52 191.357 356.491 191.327 356.491 191.291V184.006C356.491 183.969 356.521 183.94 356.557 183.94H360.378C360.416 183.94 360.445 183.971 360.445 184.006V191.291C360.445 191.327 360.416 191.357 360.378 191.357Z" fill="#829DE0"/>
<path d="M365.619 191.357H361.797C361.76 191.357 361.731 191.327 361.731 191.291V181.2C361.731 181.163 361.762 181.134 361.797 181.134H365.619C365.656 181.134 365.685 181.164 365.685 181.2V191.291C365.686 191.327 365.656 191.357 365.619 191.357Z" fill="#829DE0"/>
<path d="M370.861 191.357H367.039C367.002 191.357 366.973 191.327 366.973 191.291V177.994C366.973 177.956 367.003 177.928 367.039 177.928H370.861C370.898 177.928 370.927 177.958 370.927 177.994V191.291C370.927 191.327 370.897 191.357 370.861 191.357Z" fill="#829DE0"/>
<path d="M541.692 337.165L508.839 295.695V202.756H483.451V295.695L450.598 337.165C448.576 339.717 450.397 343.473 453.656 343.473H538.631C541.894 343.474 543.715 339.718 541.692 337.165Z" fill="#9ACCFF"/>
<path d="M508.841 202.756H483.453V210.817H508.841V202.756Z" fill="#5CA9FF"/>
<path d="M511.516 198.776H480.777V207.322H511.516V198.776Z" fill="white"/>
<path d="M541.692 337.165L508.839 295.695V202.756H483.451V295.695L450.598 337.165C448.576 339.717 450.397 343.473 453.656 343.473H538.631C541.894 343.474 543.715 339.718 541.692 337.165Z" fill="#9ACCFF"/>
<path d="M508.841 202.756H483.453V210.817H508.841V202.756Z" fill="#5CA9FF"/>
<path d="M511.516 198.776H480.777V207.322H511.516V198.776Z" fill="white"/>
<path d="M483.453 253.322V295.695L450.6 337.165C448.577 339.717 450.398 343.473 453.658 343.473H538.633C541.892 343.473 543.714 339.717 541.691 337.165L508.839 295.695V253.322H483.453Z" fill="#2B478B"/>
<path d="M514.645 314.904C514.645 318.761 511.514 321.888 507.65 321.888C503.787 321.888 500.655 318.762 500.655 314.904C500.655 311.047 503.786 307.921 507.65 307.921C511.512 307.921 514.645 311.047 514.645 314.904Z" fill="#5C83F2"/>
<path d="M521.428 327.813C521.428 329.45 520.099 330.776 518.461 330.776C516.822 330.776 515.493 329.45 515.493 327.813C515.493 326.177 516.822 324.851 518.461 324.851C520.098 324.851 521.428 326.177 521.428 327.813Z" fill="#5C83F2"/>
<path d="M501.926 283.796C500.521 283.796 499.382 282.659 499.382 281.257V264.891C499.382 263.489 500.521 262.352 501.926 262.352C503.33 262.352 504.469 263.489 504.469 264.891V281.257C504.469 282.659 503.33 283.796 501.926 283.796Z" fill="#5C83F2"/>
</g>
<defs>
<linearGradient id="paint0_linear_1594_8499" x1="308.039" y1="203.512" x2="308.039" y2="274.063" gradientUnits="userSpaceOnUse">
<stop stop-color="white" stop-opacity="0"/>
<stop offset="1" stop-color="white"/>
</linearGradient>
<clipPath id="clip0_1594_8499">
<rect width="467" height="368" fill="white" transform="translate(84 17)"/>
</clipPath>
</defs>
</svg>
