<svg width="616" height="400" viewBox="0 0 616 400" fill="none" xmlns="http://www.w3.org/2000/svg">
<rect width="615.011" height="399.093" fill="#06225C"/>
<g clip-path="url(#clip0_1594_8634)">
<path d="M436.919 322.217C429.976 329.534 423.406 334.252 418.216 337.98C357.206 381.801 285.015 369.028 269.672 365.908C247.016 361.302 203.222 352.397 171.559 315.123C123.657 258.732 131.115 169.888 168.272 111.242C175.069 100.515 210.97 40.9753 283.939 31.4273C328.098 25.6486 379.575 37.3035 416.852 68.5671C495.101 134.194 489.531 266.77 436.919 322.217Z" fill="#EBF3FA"/>
<path d="M144.009 145.402C143.675 145.248 143.443 144.915 143.442 144.53C143.437 143.263 143.459 141.975 143.506 140.701C143.526 140.177 143.972 139.776 144.503 139.806C145.79 139.868 145.352 141.127 145.364 144.555C145.366 145.079 144.937 145.498 144.405 145.491C144.265 145.489 144.13 145.458 144.009 145.402Z" fill="#C8DBF4"/>
<path d="M144.729 128.846C145.135 126.446 145.644 124.033 146.24 121.675C146.368 121.169 146.89 120.868 147.405 121.003C148.808 121.379 147.824 122.116 146.627 129.19C146.539 129.705 146.044 130.046 145.52 129.951C144.988 129.853 144.643 129.354 144.729 128.846ZM149.886 110.355C150.783 108.082 151.786 105.802 152.836 103.657C153.398 102.504 155.113 103.401 154.571 104.505C153.526 106.643 152.558 108.843 151.681 111.069C151.49 111.555 150.932 111.788 150.437 111.59C149.936 111.392 149.696 110.836 149.886 110.355ZM158.734 93.3395C160.075 91.313 161.514 89.3145 163.015 87.4C163.789 86.4136 165.315 87.5937 164.546 88.5765C163.076 90.4532 161.665 92.4115 160.351 94.3966C159.66 95.4391 158.046 94.3796 158.734 93.3395ZM170.967 79.8627C170.589 79.4888 170.585 78.8872 170.958 78.5218C172.697 76.8156 174.528 75.1569 176.401 73.592C177.365 72.787 178.623 74.2435 177.661 75.0485C175.825 76.583 174.03 78.2076 172.327 79.8785C171.954 80.2439 171.344 80.2378 170.967 79.8627ZM185.773 67.8449C185.478 67.404 185.599 66.817 186.042 66.5345C188.104 65.2192 190.245 63.9685 192.404 62.8176C193.516 62.2281 194.453 63.8978 193.341 64.4909C191.224 65.6186 189.127 66.8438 187.106 68.1323C186.664 68.4161 186.067 68.287 185.773 67.8449ZM203.289 59.6073C203.07 59.5062 202.889 59.326 202.791 59.0885C202.593 58.5989 202.831 58.0509 203.324 57.8633C205.622 56.9913 207.981 56.1985 210.339 55.508C210.846 55.3594 211.385 55.6456 211.546 56.1486C211.705 56.6516 211.424 57.1789 210.917 57.3275C208.608 58.0046 206.295 58.7816 204.043 59.6365C203.79 59.7303 203.519 59.7133 203.289 59.6073ZM221.862 54.6482C221.583 54.5191 221.368 54.2621 221.31 53.9418C221.216 53.4242 221.564 52.9371 222.086 52.8531C224.519 52.4621 227.001 52.1625 229.462 51.9604C229.99 51.9165 230.462 52.305 230.515 52.8275C230.568 53.3487 230.183 53.8079 229.653 53.8505C227.242 54.0478 224.811 54.3425 222.427 54.7249C222.229 54.759 222.033 54.7274 221.862 54.6482ZM240.57 52.6412C240.584 52.1175 241.027 51.7132 241.557 51.7363C244.027 51.8459 246.528 52.0542 248.991 52.355C250.258 52.5133 250.048 54.3912 248.786 54.2378C246.374 53.9431 243.924 53.7385 241.504 53.6313C240.975 53.6081 240.555 53.1661 240.57 52.6412ZM300.651 77.5329C295.21 72.7273 293.91 72.7066 294.784 71.5703C295.101 71.1562 295.704 71.082 296.129 71.401C298.111 72.8953 300.059 74.4859 301.919 76.1288C302.875 76.9715 301.61 78.3781 300.651 77.5329ZM259.761 55.2632C259.884 54.7554 260.402 54.4497 260.919 54.58C263.323 55.1853 265.737 55.8916 268.093 56.6796C269.305 57.0851 268.714 58.8802 267.505 58.4747C265.194 57.7026 262.829 57.0108 260.474 56.4165C259.951 56.2862 259.639 55.7662 259.761 55.2632ZM285.045 66.3408C278.757 62.7287 277.467 62.9637 278.085 61.6667C278.477 60.8446 279.479 61.2331 279.364 61.2295C281.612 62.3012 283.842 63.4716 285.992 64.7053C286.454 64.9708 286.617 65.5529 286.355 66.0035C286.106 66.4346 285.538 66.6149 285.045 66.3408Z" fill="#C8DBF4"/>
<path d="M311.541 88.8906C309.502 86.3757 308.189 85.4794 309.171 84.6452C309.569 84.3066 310.177 84.3517 310.529 84.7535C312.742 87.2696 313.869 88.2902 312.895 89.0526C312.602 89.2815 311.875 89.301 311.541 88.8906Z" fill="#C8DBF4"/>
<path d="M332.361 159.597C331.988 159.424 331.75 159.028 331.802 158.607C331.956 157.37 332.087 156.116 332.189 154.879C332.233 154.358 332.696 153.977 333.226 154.029C333.754 154.083 334.15 154.545 334.107 155.067C334.003 156.328 333.869 157.608 333.712 158.871C333.647 159.39 333.167 159.752 332.64 159.679C332.54 159.664 332.447 159.636 332.361 159.597Z" fill="#C8DBF4"/>
<path d="M197.215 229.789C194.816 228.602 192.437 227.301 190.146 225.923C189.689 225.647 189.538 225.063 189.809 224.617C190.573 223.362 191.031 224.622 198.052 228.095C198.53 228.332 198.729 228.903 198.498 229.37C198.094 230.189 197.099 229.786 197.215 229.789ZM208.683 233.599C209.148 232.207 209.911 233.349 217.46 235.244C217.978 235.372 218.297 235.891 218.174 236.397C218.051 236.905 217.533 237.211 217.017 237.082C214.434 236.434 211.837 235.668 209.299 234.805C208.789 234.632 208.519 234.091 208.683 233.599ZM179.419 218.443C177.337 216.77 175.298 214.99 173.36 213.151C172.974 212.784 172.957 212.184 173.322 211.809C174.352 210.753 174.515 212.079 180.618 216.979C181.033 217.312 181.102 217.91 180.771 218.315C180.439 218.718 179.835 218.775 179.419 218.443ZM229.565 239.322C229.2 239.153 228.962 238.771 229.003 238.356C229.054 237.836 229.523 237.461 230.051 237.52C232.654 237.811 235.293 237.995 237.898 238.068C238.431 238.083 238.856 238.519 238.85 239.043C238.843 239.566 238.409 239.979 237.877 239.965C235.218 239.89 232.523 239.703 229.868 239.406C229.76 239.393 229.658 239.364 229.565 239.322ZM250.358 239.363C250.064 239.227 249.843 238.948 249.799 238.607C249.732 238.087 250.105 237.618 250.632 237.561C253.219 237.282 255.824 236.889 258.379 236.395C258.899 236.294 259.41 236.63 259.52 237.144C259.631 237.658 259.3 238.156 258.781 238.257C256.174 238.761 253.514 239.162 250.874 239.447C250.692 239.466 250.515 239.435 250.358 239.363ZM270.581 234.902C270.353 234.796 270.164 234.604 270.072 234.35C269.892 233.855 270.151 233.315 270.65 233.146C273.103 232.314 275.551 231.369 277.925 230.336C278.408 230.127 278.978 230.345 279.2 230.825C279.421 231.304 279.209 231.865 278.726 232.074C276.304 233.128 273.807 234.092 271.303 234.941C271.058 235.025 270.8 235.004 270.581 234.902ZM289.262 226.183C289.097 226.107 288.951 225.984 288.846 225.82C288.561 225.373 288.694 224.789 289.143 224.516C291.346 223.175 293.518 221.722 295.597 220.201C296.02 219.892 296.622 219.982 296.945 220.406C297.266 220.828 297.184 221.421 296.761 221.731C294.639 223.284 292.424 224.766 290.174 226.135C289.889 226.308 289.547 226.315 289.262 226.183ZM305.214 213.423C304.157 212.364 305.496 212.262 310.524 206.456C311.343 205.51 312.816 206.757 311.996 207.704C310.281 209.684 308.457 211.615 306.574 213.445C306.2 213.806 305.592 213.8 305.214 213.423ZM318.359 197.726C317.094 196.919 318.366 196.536 321.96 189.754C322.543 188.654 324.254 189.549 323.668 190.655C322.442 192.97 321.102 195.256 319.685 197.452C319.398 197.896 318.797 198.009 318.359 197.726ZM327.556 179.483C327.104 179.275 326.876 178.758 327.046 178.292C327.927 175.871 328.711 173.393 329.377 170.928C329.514 170.424 330.04 170.131 330.554 170.275C331.068 170.421 331.373 170.943 331.236 171.447C330.556 173.963 329.756 176.491 328.858 178.961C328.68 179.452 328.129 179.699 327.629 179.515C327.604 179.504 327.579 179.494 327.556 179.483Z" fill="#C8DBF4"/>
<path d="M164.487 203.501C162.39 200.885 161.313 199.818 162.324 199.102C163.375 198.355 163.841 199.661 165.989 202.342C166.321 202.756 166.254 203.352 165.84 203.673C165.425 203.992 164.82 203.915 164.487 203.501Z" fill="#C8DBF4"/>
<path d="M176.679 180.353L190.449 179.628C194.262 184.82 198.931 189.465 204.358 193.321C203.959 206.535 202.996 207.433 204.369 208.002L219.73 214.363C220.178 214.548 220.693 214.435 221.009 214.08L230.052 203.96C236.61 205.067 243.183 205.078 249.534 204.095L258.79 214.356C259.115 214.715 259.631 214.835 260.076 214.656L275.31 208.518C275.755 208.339 276.031 207.899 275.997 207.422L275.023 193.826C280.221 190.156 284.849 185.63 288.666 180.345L302.443 181.269C302.926 181.302 303.372 181.028 303.553 180.589L309.737 165.548C309.918 165.108 309.794 164.599 309.428 164.28L299.008 155.185C300.016 148.735 299.914 142.251 298.806 135.969C308.624 127.017 309.908 127.1 309.332 125.755C302.706 111.023 303.227 109.845 301.718 109.924L287.948 110.649C284.135 105.457 279.466 100.812 274.039 96.9566C274.438 83.7502 275.402 82.8441 274.028 82.2754C258.658 76.2177 258.358 75.1083 257.386 76.197L248.343 86.3174C241.786 85.2104 235.213 85.1982 228.861 86.1823C219.725 76.4625 219.694 75.0681 218.321 75.621C203.353 81.9612 202.295 81.3863 202.399 82.8551L203.374 96.4512C198.176 100.122 193.548 104.647 189.731 109.934C176.561 109.322 175.407 108.316 174.843 109.689C168.994 124.68 167.841 125.015 168.968 125.999L179.388 135.095C178.379 141.544 178.483 148.027 179.59 154.31C169.806 163.232 168.485 163.174 169.064 164.525C175.691 179.255 175.171 180.432 176.679 180.353Z" fill="#91B3FA"/>
<path d="M223.2 142.714C224.402 134.035 232.557 128.062 241.378 129.399C250.199 130.739 256.398 138.884 255.198 147.562C253.996 156.241 245.841 162.214 237.019 160.877C228.196 159.541 221.998 151.39 223.2 142.714ZM237.214 159.47L237.223 159.474L237.214 159.47ZM240.989 132.212C233.83 131.127 227.062 135.913 226.061 143.147C225.073 150.276 230.164 156.969 237.41 158.065C244.655 159.162 251.352 154.257 252.34 147.13C253.326 139.991 248.22 133.306 240.989 132.212Z" fill="#BDD0FB"/>
<path d="M222.494 181.906C220.318 180.902 218.229 179.72 216.268 178.377C215.678 177.973 215.478 177.222 215.76 176.607C215.794 176.534 215.834 176.462 215.881 176.394C216.328 175.751 217.227 175.597 217.885 176.047C220.141 177.591 222.579 178.909 225.129 179.966C244.338 187.921 266.189 179.507 274.619 161.197C274.834 160.73 275.04 160.256 275.238 159.775C283.216 140.366 273.558 118.145 253.892 109.995C234.252 101.862 211.75 110.832 203.784 130.186C199.049 141.708 201.898 149.868 201.354 151.05C200.767 152.328 198.837 152.037 198.613 150.644C197.392 143.031 198.352 134.982 201.773 127.549C216.536 95.4819 263.516 96.7936 277.598 129.634C281.932 139.741 282.045 150.838 277.916 160.885C277.703 161.405 277.479 161.918 277.246 162.426C272.966 171.726 265.384 178.931 255.738 182.818C245.565 186.916 234.313 186.835 224.054 182.587C223.528 182.371 223.008 182.143 222.494 181.906Z" fill="#BDD0FB"/>
<path d="M342.4 121.64C344.727 124.386 347.509 126.782 350.68 128.694L350.834 136.399C350.851 137.254 351.581 136.924 360.068 139.829C360.854 140.082 360.766 139.348 365.392 133.444C369.081 133.747 372.736 133.43 376.229 132.562L381.785 137.905C382.403 138.498 382.684 137.746 390.736 133.794C390.977 133.671 391.112 133.408 391.075 133.141L389.99 125.507C392.733 123.177 395.126 120.392 397.036 117.217C404.389 116.915 405.065 117.424 405.323 116.622C407.979 107.855 408.602 107.616 407.938 107.117L401.781 102.489C402.083 98.7955 401.767 95.1358 400.9 91.6406L406.237 86.0786C406.829 85.4624 406.079 85.1786 402.131 77.1176C401.757 76.3857 401.33 76.9593 393.851 77.8654C391.524 75.1191 388.743 72.7236 385.57 70.8115L385.415 63.1062C385.398 62.25 384.668 62.5813 376.181 59.6767C375.4 59.4246 375.506 60.1273 370.859 66.0631C367.169 65.7599 363.513 66.0765 360.022 66.9448L354.466 61.6021C354.271 61.4146 353.979 61.3719 353.738 61.4949L345.514 65.7124C345.274 65.8354 345.138 66.0984 345.176 66.3652L346.261 73.9999C343.518 76.3297 341.125 79.1137 339.215 82.2898C331.862 82.5919 331.185 82.0828 330.927 82.8842C328.273 91.6479 327.647 91.889 328.313 92.3895L334.47 97.0174C334.167 100.711 334.483 104.371 335.351 107.866C330.364 113.284 329.522 113.404 329.907 114.155L334.12 122.388C334.497 123.125 334.959 122.542 342.4 121.64Z" fill="#91B3FA"/>
<path d="M358.502 99.1292C358.848 93.8059 363.429 89.776 368.748 90.1207C374.064 90.4653 378.091 95.053 377.747 100.376C377.403 105.687 372.806 109.728 367.501 109.385C362.196 109.041 358.159 104.441 358.502 99.1292ZM367.593 107.95L367.602 107.954L367.593 107.95ZM361.371 99.3143C361.13 103.043 363.964 106.273 367.687 106.514C373.668 106.902 377.18 99.8051 373.21 95.2819C369.259 90.7795 361.76 93.2895 361.371 99.3143Z" fill="#BDD0FB"/>
<path d="M319.727 114.193C319.356 112.951 319.03 111.677 318.758 110.407C318.647 109.889 318.975 109.379 319.492 109.268C320.794 108.988 320.609 110.443 321.563 113.645C321.715 114.153 321.425 114.686 320.919 114.838C320.414 114.99 319.879 114.703 319.727 114.193Z" fill="#C8DBF4"/>
<path d="M317.679 97.6325C317.786 95.0884 318.09 92.4396 318.618 89.7895C318.866 88.5424 320.744 88.9249 320.496 90.1658C319.125 97.0321 320.196 98.7006 318.593 98.6324C318.062 98.608 317.657 98.1587 317.679 97.6325ZM323.148 78.9202C322.673 78.6888 322.474 78.1139 322.705 77.6378C323.854 75.2763 325.199 72.9843 326.706 70.8263C327.432 69.7874 329.002 70.8847 328.276 71.9248C326.827 74 325.533 76.2043 324.428 78.4769C324.022 79.3135 323.032 78.9177 323.148 78.9202ZM335.527 62.9346C335.405 62.8785 335.293 62.7957 335.201 62.6873C334.857 62.2842 334.904 61.6802 335.306 61.3343C337.302 59.6244 339.447 58.0583 341.682 56.6809C342.132 56.4032 342.723 56.5445 342.999 56.9939C343.277 57.4445 343.137 58.0363 342.686 58.3128C340.537 59.639 338.472 61.1455 336.551 62.7909C336.257 63.043 335.855 63.0856 335.527 62.9346ZM353.223 53.1868C352.984 53.076 352.791 52.8678 352.707 52.5962C352.552 52.0895 352.836 51.5537 353.342 51.399C355.853 50.6293 358.445 50.0521 361.047 49.6867C361.571 49.6136 362.056 49.979 362.13 50.5039C362.203 51.0276 361.838 51.5135 361.313 51.5866C358.811 51.9385 356.318 52.4927 353.903 53.2331C353.67 53.305 353.429 53.2818 353.223 53.1868ZM372.788 50.3663C372.848 49.8402 373.322 49.4614 373.848 49.5211C376.466 49.8182 379.073 50.3212 381.597 51.0178C382.816 51.3479 382.314 53.2039 381.088 52.8665C378.659 52.1967 376.151 51.712 373.631 51.427C373.094 51.3637 372.73 50.8814 372.788 50.3663Z" fill="#C8DBF4"/>
<path d="M395.661 59.6684C392.767 57.6723 391.492 57.4665 392.142 56.3461C392.407 55.8881 392.983 55.7237 393.451 55.9978C394.567 56.6457 395.677 57.3496 396.749 58.0888C397.184 58.3896 397.294 58.9864 396.993 59.4224C396.698 59.8523 396.108 59.9728 395.661 59.6684Z" fill="#C8DBF4"/>
<path d="M416.325 93.5431C415.877 90.0405 415.181 88.9627 416.448 88.6996C416.966 88.5912 417.473 88.9249 417.58 89.4437C417.843 90.7091 418.06 92.0061 418.225 93.2995C418.292 93.8244 417.921 94.3054 417.397 94.3724C416.873 94.4406 416.392 94.0692 416.325 93.5431Z" fill="#C8DBF4"/>
<path d="M351.61 146.521C352.11 145.008 353.243 146.566 360.069 147.707C361.316 147.913 361.007 149.808 359.754 149.6C357.202 149.173 354.666 148.545 352.218 147.734C351.725 147.571 351.442 147.03 351.61 146.521ZM371.3 149.249C371.258 148.722 371.65 148.258 372.178 148.215C379.134 147.643 380.327 146.182 380.703 147.736C380.827 148.252 380.511 148.769 379.997 148.893C377.488 149.5 374.91 149.915 372.333 150.126C371.805 150.17 371.344 149.777 371.3 149.249ZM390.472 144.026C389.725 142.614 391.616 142.884 397.177 138.729C398.193 137.972 399.34 139.507 398.323 140.266C396.251 141.814 394.046 143.213 391.768 144.423C391.301 144.671 390.721 144.494 390.472 144.026ZM406.053 131.674C404.811 130.666 406.664 130.175 410.152 124.172C410.788 123.076 412.446 124.038 411.809 125.137C410.511 127.37 409.029 129.521 407.401 131.533C407.067 131.944 406.463 132.007 406.053 131.674ZM414.881 113.008C416.776 106.289 415.828 104.649 417.417 104.843C417.943 104.907 418.316 105.385 418.253 105.911C417.939 108.486 417.426 111.05 416.725 113.53C416.581 114.039 416.052 114.337 415.542 114.193C415.034 114.047 414.737 113.518 414.881 113.008Z" fill="#C8DBF4"/>
<path d="M340.816 142.272C339.725 141.568 338.649 140.814 337.618 140.03C337.197 139.71 337.115 139.108 337.435 138.685C338.241 137.623 339.042 138.845 341.853 140.658C342.297 140.946 342.426 141.539 342.139 141.984C341.848 142.436 341.251 142.554 340.816 142.272Z" fill="#C8DBF4"/>
<path d="M356.437 120.24C355.648 119.788 355.488 118.895 355.863 118.246C356.261 117.558 357.147 117.325 357.827 117.721C359.102 118.459 360.468 119.067 361.888 119.526C362.198 119.564 369.5 122.481 377.802 118.238C394.265 109.793 392.32 85.4638 374.693 79.7764C364.553 76.5028 353.699 81.4436 349.348 90.9003C344.965 100.424 349.92 105.378 346.887 106.081C346.115 106.261 345.342 105.779 345.162 105.006C344.194 100.831 344.38 96.4586 345.701 92.3593C349.708 79.9115 363.101 73.0124 375.575 77.0386C388.999 81.3705 395.848 96.5621 389.829 109.639C384.974 120.187 372.765 126.061 361.004 122.264C359.414 121.749 357.877 121.068 356.437 120.24Z" fill="#BDD0FB"/>
<path d="M352.508 154.634C352.471 154.185 352.013 153.796 351.237 153.483C352.081 153.017 352.547 152.519 352.508 152.028C352.389 150.546 347.701 149.715 342.038 150.173C336.375 150.63 331.881 152.202 332 153.683C332.037 154.133 332.495 154.521 333.271 154.834C332.427 155.3 331.961 155.799 332 156.289C332.037 156.739 332.495 157.127 333.271 157.44C332.427 157.907 331.961 158.405 332 158.894C332.037 159.344 332.495 159.732 333.271 160.045C332.427 160.512 331.961 161.01 332 161.501C332.052 162.156 333 162.683 334.529 163.029C334.51 163.514 334.521 164.043 334.568 164.63C334.79 167.361 337.858 169.502 341.915 169.502C345.972 169.502 349.485 166.583 349.525 163.844C349.535 163.173 349.507 162.582 349.446 162.057C351.387 161.408 352.57 160.615 352.508 159.847C352.471 159.397 352.013 159.009 351.237 158.697C352.081 158.232 352.547 157.733 352.508 157.242C352.471 156.792 352.013 156.404 351.237 156.092C352.081 155.623 352.547 155.124 352.508 154.634Z" fill="url(#paint0_linear_1594_8634)"/>
<path d="M339.418 163.617C337.736 163.617 336.197 163.493 334.926 163.249C334.852 163.235 334.804 163.164 334.818 163.09C334.832 163.016 334.903 162.968 334.977 162.981C336.966 163.363 339.624 163.447 342.459 163.218C344.779 163.03 346.949 162.656 348.734 162.134C348.806 162.113 348.881 162.154 348.903 162.226C348.924 162.298 348.883 162.374 348.811 162.396C347.008 162.922 344.819 163.3 342.481 163.489C341.429 163.576 340.399 163.617 339.418 163.617Z" fill="url(#paint1_linear_1594_8634)"/>
<path d="M339.447 161.01C337.262 161.01 335.309 160.804 333.932 160.412C333.86 160.391 333.818 160.315 333.838 160.244C333.859 160.172 333.934 160.129 334.006 160.15C335.968 160.709 339.129 160.883 342.46 160.614C345.755 160.348 348.828 159.679 350.681 158.824C350.749 158.792 350.83 158.822 350.861 158.891C350.892 158.959 350.862 159.039 350.794 159.071C348.914 159.939 345.807 160.617 342.482 160.885C341.444 160.969 340.421 161.01 339.447 161.01Z" fill="url(#paint2_linear_1594_8634)"/>
<path d="M339.419 158.407C337.06 158.407 334.995 158.166 333.605 157.707C333.533 157.684 333.494 157.606 333.518 157.535C333.542 157.463 333.618 157.424 333.69 157.449C335.624 158.087 338.902 158.296 342.459 158.01C345.754 157.745 348.827 157.075 350.679 156.22C350.748 156.188 350.829 156.219 350.86 156.287C350.891 156.355 350.861 156.435 350.793 156.467C348.913 157.335 345.806 158.014 342.481 158.282C341.427 158.366 340.398 158.407 339.419 158.407Z" fill="url(#paint3_linear_1594_8634)"/>
<path d="M339.437 155.801C337.566 155.801 335.864 155.65 334.54 155.355C334.467 155.339 334.421 155.266 334.437 155.193C334.453 155.12 334.526 155.074 334.599 155.09C336.589 155.532 339.454 155.648 342.46 155.404C345.726 155.141 348.783 154.478 350.638 153.633C350.706 153.601 350.786 153.632 350.818 153.7C350.85 153.768 350.819 153.849 350.751 153.88C348.869 154.738 345.778 155.409 342.482 155.676C341.441 155.76 340.415 155.801 339.437 155.801Z" fill="url(#paint4_linear_1594_8634)"/>
<path d="M328.201 141.484C327.513 139.046 326.344 136.766 324.771 134.781C321.4 130.528 315.9 121.878 315.224 110.073C314.239 92.9011 329.451 84.3043 343.334 85.4722C357.216 86.6389 370.913 96.9871 369.415 112.962C368.493 122.791 362.996 130.247 358.905 134.527C356.306 137.247 354.453 140.577 353.45 144.202C352.222 148.64 349.3 154.172 342.353 154.509C333.364 154.946 329.631 146.559 328.201 141.484Z" fill="#F9DDBF"/>
<path d="M344.649 151.086L349.507 119.46C349.606 118.807 349.929 118.368 350.224 118.48C350.52 118.592 350.678 119.213 350.579 119.866C350.576 119.883 350.572 119.905 350.569 119.922L345.036 151.254C344.994 151.489 344.875 151.638 344.769 151.586C344.666 151.535 344.614 151.313 344.649 151.086Z" fill="white"/>
<path d="M339.606 151.336L334.748 119.711C334.647 119.058 334.326 118.619 334.031 118.731C333.735 118.843 333.576 119.464 333.677 120.116C333.679 120.134 333.683 120.155 333.686 120.173L339.219 151.504C339.261 151.739 339.38 151.889 339.486 151.837C339.589 151.787 339.641 151.564 339.606 151.336Z" fill="white"/>
<path d="M349.471 116.744C349.348 116.546 349.063 116.471 348.834 116.579L346.129 117.844L345.19 115.166C345.14 115.026 345.026 114.903 344.862 114.835C344.55 114.707 344.178 114.821 344.031 115.092L344.026 115.1L341.802 119.161L339.737 113.382L339.734 113.372C339.683 113.231 339.577 113.104 339.421 113.019C339.076 112.83 338.618 112.92 338.4 113.22L335.291 117.505C335.164 117.681 335.208 117.916 335.4 118.046C335.606 118.185 335.902 118.152 336.062 117.974L338.801 114.918L341.265 120.415L341.268 120.419C341.308 120.506 341.382 120.583 341.486 120.632C341.717 120.74 342.005 120.666 342.13 120.465L344.509 116.643L345.404 118.576L345.412 118.593C345.418 118.606 345.425 118.621 345.433 118.634C345.556 118.833 345.842 118.907 346.071 118.8L349.281 117.298C349.509 117.19 349.594 116.943 349.471 116.744Z" fill="white"/>
<path d="M359.009 130.451C358.882 130.451 358.753 130.412 358.642 130.33C358.368 130.126 358.311 129.74 358.514 129.466C359.342 128.351 360.099 127.199 360.767 126.04C360.938 125.746 361.315 125.645 361.609 125.815C361.904 125.986 362.006 126.363 361.834 126.658C361.143 127.856 360.359 129.05 359.503 130.203C359.384 130.365 359.198 130.451 359.009 130.451Z" fill="white"/>
<path d="M363.006 123.586C362.924 123.586 362.84 123.569 362.76 123.535C362.447 123.399 362.304 123.036 362.44 122.723C367.573 110.89 363.146 100.958 363.101 100.859C362.958 100.549 363.094 100.183 363.403 100.04C363.714 99.8988 364.08 100.034 364.221 100.343C364.416 100.767 368.921 110.88 363.57 123.213C363.47 123.447 363.244 123.586 363.006 123.586Z" fill="white"/>
<path d="M260.319 348.566C260.319 348.566 259.518 352.867 259.105 357.129C258.943 358.793 260.214 360.254 261.883 360.339C267.554 360.63 279.685 361.206 284.041 361.053C284.696 361.029 285.13 360.363 284.894 359.751C284.696 359.238 284.309 358.821 283.811 358.586L263.853 349.172L260.319 348.566Z" fill="#233862"/>
<path d="M259.721 346.029L260.283 351.188C260.283 351.188 263.779 352.858 266.194 351.038L264.795 345.281L259.721 346.029Z" fill="url(#paint5_linear_1594_8634)"/>
<path d="M261.104 249.15C260.828 250.493 259.048 316.293 265.794 345.853C265.904 346.335 265.655 346.828 265.197 347.011C264.115 347.441 261.996 348.059 259.463 348.12C258.678 348.14 257.98 347.622 257.766 346.867C255.822 340.006 246.523 305.63 245.581 272.868C244.526 236.259 245.593 271.622 245.593 271.622L246.632 249.009L261.104 249.15Z" fill="#2B478B"/>
<path d="M237.239 350.594C237.239 350.594 236.007 352.756 234.781 358.525C234.56 359.567 235.279 360.573 236.336 360.687C238.207 360.889 241.089 361.154 243.399 361.161C244.464 361.163 245.304 360.244 245.186 359.184C244.95 357.073 244.186 353.604 241.75 350.882L237.239 350.594Z" fill="#233862"/>
<path d="M236.24 343.955L237.593 351.762C237.593 351.762 238.994 352.826 241.792 352.09L241.191 343.699L236.24 343.955Z" fill="url(#paint6_linear_1594_8634)"/>
<path d="M233.27 250.903C227.192 285.571 233.698 336.734 235.962 346.757C236.101 347.371 236.59 347.845 237.209 347.953C238.261 348.138 239.993 348.297 241.707 347.817C242.297 347.651 242.717 347.124 242.746 346.51C243.139 338.427 243.043 288.786 248.586 269.22C248.867 268.229 249.481 267.368 250.327 266.778L260.791 259.481L261.703 247.531L233.27 250.903Z" fill="#2B478B"/>
<path d="M270.519 185.461C253.299 185.011 234.248 189.642 234.248 189.642C228.828 219.581 232.735 254.211 232.735 254.211C246.036 257.839 261.131 252.342 261.131 252.342C263.467 239.828 274.143 204.65 274.143 204.65C282.568 203.686 289.525 201.321 295.264 198.162C290.958 193.067 288.966 186.618 288.111 182.808C282.002 184.646 275.831 185.599 270.519 185.461Z" fill="#B0D4FF"/>
<path d="M321.637 160.551C319.964 158.489 317.814 159.436 317.814 159.436C315.177 170.13 301.803 178.693 288.11 182.811C288.965 186.62 290.956 193.07 295.263 198.164C318.046 185.626 321.637 160.551 321.637 160.551Z" fill="url(#paint7_linear_1594_8634)"/>
<path d="M321.222 161.067C321.394 161.632 319.335 162.47 318.151 160.155C318.119 159.05 317.494 154.313 318.161 153.419C321.718 148.661 328.583 142.719 328.583 142.719C329.723 143.866 328.764 144.973 328.764 144.973L325.429 148.385C326.108 149.641 326.94 150.704 327.321 152.219C327.609 153.366 327.415 154.588 326.827 155.624C326.237 156.664 325.434 158.015 324.676 159.072C323.239 161.071 321.222 161.067 321.222 161.067Z" fill="url(#paint8_linear_1594_8634)"/>
<path d="M323.962 150.605L320.928 153.13L319.958 155.663L322.613 158.669C322.613 158.669 323.563 153.633 324.244 152.547C324.926 151.463 324.584 150.931 323.962 150.605Z" fill="url(#paint9_linear_1594_8634)"/>
<path d="M240.695 206.401L234.248 189.643C234.248 189.643 218.056 200.432 215.278 214.28C218.316 214.533 223.839 215.377 229.229 218.166C230.48 211.626 240.695 206.401 240.695 206.401Z" fill="#B0D4FF"/>
<path d="M254.605 222.245C254.605 222.245 236.445 232.291 230.433 223.508C229.185 221.683 228.9 219.88 229.227 218.166C223.839 215.377 218.315 214.533 215.277 214.28C214.44 218.455 214.818 222.907 217.231 227.427C227.72 247.078 256.952 226.725 256.952 226.725L254.605 222.245Z" fill="url(#paint10_linear_1594_8634)"/>
<path d="M253.207 171.297L247.576 187.11C247.482 187.371 247.588 187.664 247.83 187.8C249.316 188.642 254.676 191.082 261.2 187.028C261.88 186.605 262.346 185.91 262.457 185.117L264.362 171.403L253.207 171.297Z" fill="url(#paint11_linear_1594_8634)"/>
<path d="M265.271 156.718C265.271 156.718 271.181 168.116 270.366 172.689C269.551 177.262 262.096 176.863 255.618 173.08L251.184 160.792L265.271 156.718Z" fill="url(#paint12_linear_1594_8634)"/>
<path d="M255.964 167.07C256.229 166.955 256.33 166.631 256.175 166.388C255.699 165.646 254.81 164.134 254.535 162.813C254.535 162.813 253.459 162.109 257.304 161.227C261.148 160.344 266.88 158.972 268.114 155.716C269.316 152.541 266.313 144.498 261.339 150.836C261.149 151.077 260.783 151.079 260.599 150.833C259.804 149.776 257.707 147.578 254.755 148.87C251.992 150.079 251.662 152.095 251.69 153.112C251.699 153.412 251.429 153.642 251.136 153.582C249.747 153.303 246.412 153.044 244.82 156.456C243.51 159.267 244.329 160.873 245.081 161.662C245.324 161.918 245.212 162.335 244.874 162.435C243.957 162.706 242.769 163.471 242.866 165.616C243.001 168.581 246.314 168.352 247.258 168.226C247.413 168.205 247.569 168.26 247.672 168.377C248.471 169.279 252.077 173.115 256.013 173.612C256.353 173.655 256.621 173.32 256.513 172.993L254.855 168.014C254.778 167.782 254.89 167.53 255.114 167.434L255.964 167.07Z" fill="#163560"/>
<path d="M256.643 167.781C256.643 167.781 252.386 164.797 252.049 167.272C251.712 169.747 255.873 170.899 257.948 169.994L256.643 167.781Z" fill="url(#paint13_linear_1594_8634)"/>
<path d="M250.893 238.122L260.785 203.539C260.897 203.146 261.232 202.86 261.637 202.813C263.429 202.603 268.623 202.015 274.619 201.508C281.842 200.897 290.23 200.401 295.242 200.823C295.955 200.882 296.386 201.638 296.068 202.279C293.218 208.052 281.494 231.535 275.623 239.227C275.428 239.481 275.128 239.631 274.806 239.627L251.854 239.413C251.188 239.406 250.71 238.765 250.893 238.122Z" fill="#F99746"/>
<path d="M253.284 229.766C253.284 229.766 251.906 224.094 252.461 222.082C253.017 220.069 254.094 217.482 257.684 218.057C261.274 218.632 265.509 220.145 265.509 220.145C265.509 220.145 265.295 222.766 262.566 221.921L264.259 223.231C264.259 223.231 264.017 225.33 261.712 224.209L263.285 225.947C263.285 225.947 262.295 227.671 260.6 226.566C258.904 225.46 258.092 230.45 253.284 229.766Z" fill="url(#paint14_linear_1594_8634)"/>
<path d="M273.961 211.831C273.961 213.436 275.261 214.738 276.865 214.738C278.468 214.738 279.769 213.436 279.769 211.831C279.769 210.226 278.468 208.924 276.865 208.924C275.261 208.924 273.961 210.226 273.961 211.831Z" fill="white"/>
<path d="M261.906 213.748L261.165 213.529L263.178 206.689C263.507 205.575 264.405 204.738 265.522 204.506C271.906 203.171 288.72 202.899 289.432 202.888L289.444 203.662C289.27 203.664 271.991 203.944 265.68 205.262C264.842 205.437 264.166 206.067 263.918 206.907L261.906 213.748Z" fill="white"/>
<path d="M144.829 310.531C143.774 312.094 139.583 347.46 138.927 360.523C138.883 361.406 139.589 362.143 140.472 362.143C141.234 362.143 141.882 361.587 142 360.833L149.666 311.656L144.829 310.531Z" fill="#B0D4FF"/>
<path d="M178.526 310.531C179.58 312.094 183.771 347.46 184.427 360.523C184.472 361.406 183.765 362.143 182.882 362.143C182.121 362.143 181.472 361.587 181.354 360.833L173.688 311.656L178.526 310.531Z" fill="#B0D4FF"/>
<path d="M138.488 307.771L138.484 308.157C138.459 310.932 140.847 313.208 143.837 313.259L179.27 313.862C182.217 313.912 184.673 311.78 184.816 309.049L184.835 308.696C184.984 305.847 182.567 303.447 179.494 303.392L144.045 302.756C141.012 302.701 138.514 304.956 138.488 307.771Z" fill="#B0D4FF"/>
<path d="M213.13 359.238C206.832 359.238 204.044 358.697 202.797 358.204C203.039 359.239 203.96 360.056 205.125 360.056H227.407C228.158 360.056 228.631 359.338 228.452 358.686C225.913 358.891 220.519 359.238 213.13 359.238Z" fill="#91B3FA"/>
<path d="M228.454 358.686C228.417 358.555 228.365 358.426 228.271 358.306C226.574 356.137 223.164 352.73 218.525 352.795C211.731 352.892 209.361 353.628 204.081 352.837L202.835 356.97C202.709 357.392 202.706 357.813 202.797 358.203C204.043 358.696 206.83 359.237 213.13 359.237C220.519 359.238 225.914 358.891 228.454 358.686Z" fill="#2E3552"/>
<path d="M205.612 348.383L204.082 353.589C204.082 353.589 207.469 355.134 210.449 353.894L211.034 349.384L205.612 348.383Z" fill="url(#paint15_linear_1594_8634)"/>
<path d="M251.795 355.959C246.885 359.909 244.375 361.236 243.096 361.635C243.93 362.286 245.157 362.342 246.065 361.613L263.435 347.641C264.02 347.171 263.941 346.316 263.396 345.923C261.545 347.676 257.555 351.327 251.795 355.959Z" fill="#91B3FA"/>
<path d="M263.398 345.924C263.288 345.845 263.165 345.778 263.019 345.744C260.345 345.125 255.565 344.62 251.991 347.579C246.754 351.914 245.367 353.972 240.757 356.668L242.359 360.657C242.522 361.063 242.783 361.391 243.098 361.637C244.376 361.239 246.886 359.911 251.796 355.962C257.556 351.327 261.545 347.676 263.398 345.924Z" fill="#2E3552"/>
<path d="M172.901 289.071C172.901 289.071 210.613 292.153 218.348 295.798C226.083 299.444 212.035 350.54 212.035 350.54C212.035 350.54 209.929 351.554 205.243 350.097C205.243 350.097 210.048 312.391 206.473 304.214L165.642 297.528L172.901 289.071Z" fill="#233862"/>
<path d="M237.009 349.49C237.359 349.809 240.756 356.667 240.756 356.667C240.756 356.667 244.537 355.849 245.308 353.452L241.906 347.263L237.009 349.49Z" fill="url(#paint16_linear_1594_8634)"/>
<path d="M150.188 288.756C150.188 288.756 148.959 291.716 149.009 295.65C149.078 301.09 153.447 305.505 158.875 305.776L203.456 307.811C204.397 307.854 205.194 308.507 205.429 309.42C206.476 313.477 211.597 325.933 236.628 350.79C237.293 351.451 238.331 351.563 239.124 351.062L242.688 348.809C243.061 348.573 243.182 348.082 242.958 347.7L217.001 303.327C215.637 301.075 213.446 299.448 210.897 298.796L172.901 289.072L150.188 288.756Z" fill="#2B478B"/>
<path d="M194.122 219.442C194.122 219.442 189.347 227.896 184.477 231.99L194.542 237.612C194.542 237.612 196.809 228.663 201.991 226.043L194.122 219.442Z" fill="url(#paint17_linear_1594_8634)"/>
<path d="M149.379 289.071C149.379 289.071 161.414 292.007 172.901 289.071C172.901 289.071 188.976 267.439 195.194 261.552C195.194 261.552 205.114 277.221 227.192 279.443L228.423 276.688C228.423 276.688 210.846 268.577 205.435 256.113C200.024 243.65 197.851 238.335 192.927 235.082C189.862 233.057 188.026 231.673 187.077 230.918C186.557 230.504 185.841 230.458 185.274 230.804C180.05 233.991 155.467 250.846 149.379 289.071Z" fill="#B0D4FF"/>
<path d="M194.542 261.248C194.309 261.248 194.081 261.143 193.929 260.946C190.096 255.943 187.961 250.428 187.872 250.197C187.72 249.799 187.919 249.352 188.317 249.198C188.716 249.045 189.161 249.244 189.314 249.643C189.335 249.698 191.463 255.185 195.154 260.006C195.413 260.344 195.35 260.829 195.011 261.089C194.871 261.195 194.706 261.248 194.542 261.248Z" fill="#91B8EF"/>
<path d="M225.866 275.25L228.352 274.587L235.897 272.838C236.806 272.628 237.759 272.788 238.549 273.286L245.037 277.372L227.12 277.342L225.866 275.25Z" fill="url(#paint18_linear_1594_8634)"/>
<path d="M201.705 206.768C201.705 206.768 206.346 214.492 207.152 218.761C207.957 223.029 209.25 225.697 204.396 227.219C199.543 228.74 195.032 226.814 192.202 222.829C192.202 222.829 187.781 216.697 188.223 213.889C188.663 211.081 201.705 206.768 201.705 206.768Z" fill="url(#paint19_linear_1594_8634)"/>
<path d="M193.494 219.525L194.122 219.442C194.122 219.442 190.836 214.471 192.986 213.239C195.136 212.006 203.9 208.98 205.422 205.525C206.889 202.194 204.694 198.432 202.048 197.646C201.88 197.597 201.704 197.696 201.643 197.86L201.487 198.279C201.381 198.566 200.979 198.577 200.857 198.297C200.74 198.03 200.36 198.019 200.24 198.283C199.772 199.319 198.366 201.086 194.151 202.453C188.172 204.393 184.447 207.411 184.905 211.664C184.935 211.933 184.667 212.119 184.42 212.01C183.931 211.793 183.19 211.759 182.33 212.702C180.834 214.34 182.005 217.924 186.093 220.459C186.287 220.58 186.321 220.854 186.148 221.002C185.536 221.526 184.675 222.695 187.441 223.737C190.269 224.802 191.813 224.442 192.384 224.213C192.537 224.151 192.625 223.992 192.593 223.829L191.867 220.102C191.829 219.91 191.962 219.725 192.156 219.699L193.494 219.525Z" fill="#163560"/>
<path d="M193.752 220.291C193.752 220.291 191.705 215.237 189.554 217.014C187.403 218.791 191.542 222.717 193.452 222.665L193.752 220.291Z" fill="url(#paint20_linear_1594_8634)"/>
<path d="M218.944 280.889C218.973 280.891 219.002 280.892 219.031 280.892L257.308 280.854C258.255 280.853 259.021 280.086 259.02 279.141C259.019 278.194 258.249 277.414 257.305 277.431L219.028 277.468C218.081 277.47 217.316 278.237 217.316 279.182C217.317 280.098 218.039 280.844 218.944 280.889Z" fill="#2B478B"/>
<path d="M272.131 243.365C272.118 243.39 272.104 243.417 272.092 243.444L255.987 278.204C255.589 279.063 255.961 280.082 256.818 280.48C257.676 280.879 258.708 280.508 259.091 279.645L275.196 244.885C275.594 244.025 275.223 243.007 274.365 242.609C273.535 242.224 272.553 242.562 272.131 243.365Z" fill="#2B478B"/>
<path d="M372.362 315.823H368.322V359.557H372.362V315.823Z" fill="#B0D4FF"/>
<path d="M388.034 360.401H352.651C352.651 358.947 353.829 357.768 355.282 357.768H385.405C386.857 357.769 388.034 358.947 388.034 360.401Z" fill="#B0D4FF"/>
<path d="M393.285 314.305C393.285 316.697 391.33 318.654 388.941 318.654H353.142C350.752 318.654 348.797 316.697 348.797 314.305V310.373C348.797 307.981 350.752 306.024 353.142 306.024H388.941C391.33 306.024 393.285 307.981 393.285 310.373V314.305Z" fill="#B0D4FF"/>
<path d="M340.518 286.662C340.518 286.662 334.516 287.594 327.766 292.111C326.704 292.822 326.122 294.061 326.281 295.33C327.089 301.738 330.412 322.48 341.37 342.74C341.948 343.808 342.113 345.051 341.859 346.238L339.955 355.107L336.425 358.421H345.519L351.573 342.019L348.985 341.199C346.977 340.563 345.6 338.716 345.564 336.608L345.259 319.013C345.519 311.174 340.458 305.765 340.458 305.765L354.98 305.058L340.518 286.662Z" fill="url(#paint21_linear_1594_8634)"/>
<path d="M332.874 360.021C332.045 361.106 341.788 362.538 346.709 360.165C346.709 360.165 353.531 348.282 353.531 342.165C353.531 342.165 352.99 340.918 348.984 341.2C348.984 341.2 346.693 355.27 344.274 356.846C341.856 358.422 337.506 357.006 337.506 357.006C337.506 357.006 334.095 358.42 332.874 360.021Z" fill="#233862"/>
<path d="M353.142 306.024C353.064 305.89 337.506 304.151 337.506 304.151C337.506 304.151 338.016 308.886 336.425 315.405C334.833 321.924 311.99 350.167 311.99 350.167L314.385 357.768C306.98 360.35 299.695 360.763 292.527 359.085L307.371 350.167C307.371 350.167 321.263 302.776 329.771 294.321L345.367 288.92L353.142 306.024Z" fill="url(#paint22_linear_1594_8634)"/>
<path d="M388.034 278.448C388.034 278.448 396.998 291.794 397.734 297.882C398.47 303.97 395.279 306.444 385.874 306.852C376.468 307.26 351.359 307.254 351.359 307.254L329.929 288.92C329.929 288.92 345.547 283.341 349.608 281.764C353.666 280.187 388.034 278.448 388.034 278.448Z" fill="#2B478B"/>
<path d="M313.48 355.209C313.48 355.209 316.059 357.709 314.317 360.491C314.317 360.491 293.89 364.115 288.343 362.471C288.343 362.471 289.495 359.839 295.74 356.845L295.279 357.199C294.696 357.647 295.038 358.58 295.772 358.539C299.887 358.304 308.403 357.549 313.48 355.209Z" fill="#233862"/>
<path d="M349.205 193.805C367.529 190.687 376.156 205.648 375.524 208.791C375.44 209.208 375.833 209.561 376.243 209.45C378.347 208.884 382.994 208.169 385.875 211.782C388.419 214.973 386.517 217.984 384.967 219.636C384.593 220.036 384.908 220.684 385.45 220.615C389.318 220.127 397.722 220.01 399.097 227.891C400.379 235.241 395.269 237.312 392.239 237.897C391.725 237.995 391.606 238.67 392.047 238.95C393.559 239.91 395.311 241.895 394.603 245.81C393.493 251.947 381.473 251.445 380.069 251.365C379.981 251.36 379.897 251.335 379.819 251.29L360.566 240.298C360.417 240.213 360.312 240.065 360.283 239.894L356.396 217.423C356.364 217.242 356.422 217.056 356.549 216.923L343.999 199.192C339.444 198.52 348.99 193.842 349.205 193.805Z" fill="#163560"/>
<path d="M363.792 276.682C363.792 276.682 353.353 266.732 348.215 260.141C345.437 256.579 344.565 251.889 345.85 247.557C348.195 239.646 352.364 231.451 352.745 230.176C353.328 228.221 365.032 228.302 365.032 228.302C365.032 228.302 388.065 243.266 397.114 268.614L386.95 271.781C386.95 271.781 380.937 261.682 374.995 255.261C374.995 255.261 385.276 268.857 385.639 274.424L363.792 276.682Z" fill="#B0D4FF"/>
<path d="M351.33 219.25C351.452 219.657 354.507 229.794 354.746 230.005C354.985 230.216 361.446 230.563 364.486 228.483L356.943 213.713L351.33 219.25Z" fill="url(#paint23_linear_1594_8634)"/>
<path d="M339.083 206.223C339.083 206.223 337.606 212.031 341.691 219.842C345.775 227.653 350.4 227.645 352.928 225.145C355.456 222.644 358.573 218.401 357.832 210.849C357.092 203.297 341.216 198.835 339.083 206.223Z" fill="url(#paint24_linear_1594_8634)"/>
<path d="M352.182 211.26C352.182 211.26 345.405 200.888 339.05 209.051L338.936 212.02C338.936 212.02 331.493 211.136 332.796 204.303C334.099 197.471 340.531 193.201 348.814 196.161C357.098 199.12 361.845 202.155 362.379 208.098C362.913 214.041 358.19 212.738 358.19 212.738C358.19 212.738 356.65 208.554 354.459 208.119C352.269 207.684 352.839 210.947 352.839 210.947L352.182 211.26Z" fill="#163560"/>
<path d="M353.917 211.121C353.917 211.121 350.402 205.81 354.003 205.018C357.604 204.226 357.046 210.193 356.656 212.4L353.917 211.121Z" fill="url(#paint25_linear_1594_8634)"/>
<path d="M342.526 277.42L350.195 270.02L360.805 274.507C360.805 274.507 371.366 276.145 377.41 274.507C383.454 272.869 383.454 272.869 383.454 272.869L397.112 268.612L399.257 274.681C399.802 276.221 399.255 277.933 397.924 278.879C396.743 279.719 395.357 280.643 394.474 281.03C392.674 281.818 350.133 280.485 350.133 280.485L342.526 277.42Z" fill="url(#paint26_linear_1594_8634)"/>
<path d="M371.55 280.909C371.516 280.91 371.482 280.911 371.447 280.911L326.959 280.863C325.859 280.861 324.968 279.969 324.969 278.868C324.971 277.767 325.866 276.857 326.963 276.877L371.452 276.925C372.552 276.926 373.443 277.819 373.441 278.92C373.44 279.986 372.602 280.857 371.55 280.909Z" fill="#2B478B"/>
<path d="M286.965 240.474H324.016C326.749 240.474 329.237 242.053 330.403 244.528L347.531 280.886H301.487C299.726 280.886 298.143 279.808 297.496 278.169L284.213 244.524C283.447 242.581 284.877 240.474 286.965 240.474Z" fill="#2B478B"/>
<path d="M313.068 259.115C313.871 261.612 313.277 264.038 311.743 264.533C310.209 265.027 308.313 263.404 307.51 260.907C306.708 258.41 307.301 255.984 308.835 255.49C310.371 254.994 312.265 256.618 313.068 259.115Z" fill="#7D97F4"/>
<path d="M422.27 354.889C422.27 354.889 422.737 357.484 422.921 360.565C423 361.878 422.028 363.019 420.72 363.146C416.166 363.588 405.801 364.404 399.183 363.448C398.256 363.314 397.888 362.174 398.574 361.535C401.302 358.989 407.894 354.039 418.741 352.956L422.27 354.889Z" fill="#233862"/>
<path d="M424.534 349.038L422.232 354.688C421.917 355.463 421.133 355.944 420.302 355.856C419.738 355.797 419.07 355.689 418.421 355.492C417.122 355.097 416.389 353.719 416.777 352.416L418.515 346.597L424.534 349.038Z" fill="url(#paint27_linear_1594_8634)"/>
<path d="M463.896 359.388C463.896 359.388 459.286 363.25 457.49 368.203C456.996 369.565 458.04 371 459.488 371H468.974C470.362 371 471.427 369.749 471.186 368.38C470.581 364.961 468.839 359.402 463.896 359.388Z" fill="#233862"/>
<path d="M469.607 354.363C469.607 354.363 468.676 358.489 467.96 361.216C467.83 361.71 467.303 361.982 466.821 361.81C465.385 361.296 464.217 361.07 463.367 361.183C462.974 361.235 462.632 360.909 462.626 360.512L462.537 353.659L469.607 354.363Z" fill="url(#paint28_linear_1594_8634)"/>
<path d="M445.088 261.516L417.046 347.156C417.046 347.156 422.424 350.681 424.986 350.535L458.294 281.709C458.294 281.709 464.123 324.117 461.298 354.563L470.838 355.291C470.838 355.291 486.351 277.487 474.601 250.838L445.088 261.516Z" fill="#2B478B"/>
<path d="M458.114 280.97C458.125 280.97 458.137 280.969 458.148 280.967C458.296 280.949 458.402 280.813 458.384 280.664L457.296 272.017C457.278 271.869 457.143 271.765 456.993 271.781C456.845 271.799 456.739 271.936 456.757 272.084L457.846 280.731C457.862 280.869 457.979 280.97 458.114 280.97Z" fill="url(#paint29_linear_1594_8634)"/>
<path d="M439.83 186.157C439.83 186.157 462.55 188.176 459.335 204.382C459.335 204.382 471.894 228.042 477.765 255.912C477.956 256.82 477.349 257.704 476.437 257.86L438.601 264.345C437.557 264.524 436.551 263.872 436.286 262.846L427.246 227.87L423.723 244.131L412.529 241.212L421.951 193.428C421.954 193.428 423.268 186.457 439.83 186.157Z" fill="#B0D4FF"/>
<path d="M427.054 226.305C427.073 226.305 427.094 226.303 427.113 226.299C427.265 226.266 427.361 226.115 427.328 225.963L424.175 211.466C424.142 211.313 423.994 211.217 423.839 211.25C423.687 211.283 423.591 211.434 423.624 211.586L426.777 226.084C426.808 226.215 426.925 226.305 427.054 226.305Z" fill="#91B3FA"/>
<path d="M429.338 269.444C430.531 268.788 431.926 268.606 433.245 268.935L435.878 269.592C436.437 269.732 436.992 269.346 437.056 268.772L439.78 244.499C443.187 246.119 448.1 245.925 449.721 245.806L443.451 274.42H421.51L429.338 269.444Z" fill="url(#paint30_linear_1594_8634)"/>
<path d="M371.041 216.794L371.704 214.587C372.086 213.317 373.023 212.29 374.253 211.796L386.247 206.967C386.247 206.967 386.428 205.427 383.713 204.38C380.998 203.334 381.633 200.289 381.633 200.289C381.633 200.289 385.342 201.983 390.773 204.67C393.879 206.207 395.621 208.919 396.546 210.961L423.724 244.13L420.533 246.324C416.337 249.211 410.565 247.793 408.181 243.289L393.458 215.027C386.066 217.252 378.585 217.677 371.041 216.794Z" fill="url(#paint31_linear_1594_8634)"/>
<path d="M432.47 170.684L439.458 190.263C439.458 190.263 433.27 195.105 428.754 193.468L425.234 182.244C425.234 182.244 427.922 168.529 432.47 170.684Z" fill="url(#paint32_linear_1594_8634)"/>
<path d="M411.614 163.653C411.614 163.955 418.346 182.728 418.346 182.728L428.972 178.653L425.234 159.91C425.234 159.91 411.614 158.602 411.614 163.653Z" fill="url(#paint33_linear_1594_8634)"/>
<path d="M423.37 164.477L426.11 174.189C426.145 174.314 426.163 174.439 426.163 174.569C426.164 175.361 425.968 178.088 423.195 177.716C420.678 177.38 418.376 177.11 416.912 177.8C416.255 178.11 415.94 178.867 416.186 179.552C416.798 181.257 418.248 185.075 420.013 188.2C420.371 188.834 421.157 189.08 421.82 188.778C423.816 187.87 427.971 185.835 430.932 183.414C431.334 183.086 431.526 182.57 431.431 182.06C430.965 179.576 429.578 172.019 429.517 169.854C429.46 167.821 431.739 166.27 432.741 165.686C433.07 165.495 433.304 165.18 433.393 164.81C433.708 163.502 433.975 160.541 430.202 159.888C429.413 159.752 428.898 158.995 429.059 158.209C429.377 156.644 429.275 154.342 426.308 153.493C423.291 152.631 421.393 154.449 420.427 155.842C420.036 156.406 419.307 156.589 418.681 156.309C418.325 156.149 417.895 156.142 417.433 156.533C416.81 157.059 415.861 156.898 415.404 156.224C414.524 154.928 412.926 153.633 410.22 154.51C405.419 156.065 405.648 161.607 407.408 164.618C409.169 167.63 414.277 165.649 416.697 163.653C418.536 162.135 421.336 163.042 422.573 163.565C422.962 163.731 423.254 164.067 423.37 164.477Z" fill="#233862"/>
<path d="M430.478 173.399C430.478 173.399 427.637 168.019 429.516 166.33C431.395 164.64 434.578 164.917 434.493 169.125C434.386 174.356 430.478 173.399 430.478 173.399Z" fill="url(#paint34_linear_1594_8634)"/>
<path d="M447.516 246.17C449.068 246.17 450.173 246.051 450.294 246.038L450.496 246.015L458.768 207.403C458.801 207.25 458.704 207.101 458.552 207.068C458.399 207.034 458.25 207.132 458.217 207.285L450.03 245.496C448.799 245.604 442.224 246.042 438.753 243.58L445.92 210.034L444.424 207.213C444.351 207.075 444.181 207.023 444.043 207.096C443.906 207.169 443.853 207.339 443.926 207.477L445.327 210.117L438.127 243.818L438.27 243.926C440.778 245.813 444.818 246.17 447.516 246.17Z" fill="#91B3FA"/>
<path d="M199.503 363.893C199.313 363.893 199.12 363.851 198.933 363.764C198.202 363.42 197.864 362.493 198.179 361.694L228.41 284.908C228.724 284.11 229.572 283.741 230.304 284.084C231.035 284.427 231.373 285.354 231.058 286.153L200.828 362.938C200.594 363.536 200.062 363.893 199.503 363.893Z" fill="#739AF0"/>
<path d="M233.56 363.893C233.001 363.893 232.47 363.536 232.235 362.939L202.004 286.154C201.689 285.355 202.027 284.429 202.758 284.085C203.49 283.742 204.338 284.111 204.653 284.91L234.883 361.696C235.198 362.495 234.86 363.421 234.129 363.765C233.943 363.851 233.749 363.893 233.56 363.893Z" fill="#739AF0"/>
<path d="M404.67 363.893C404.48 363.893 404.287 363.851 404.1 363.764C403.369 363.42 403.031 362.493 403.346 361.694L433.577 284.908C433.892 284.11 434.739 283.741 435.471 284.084C436.202 284.427 436.541 285.354 436.225 286.153L405.995 362.938C405.76 363.536 405.228 363.893 404.67 363.893Z" fill="#739AF0"/>
<path d="M438.725 363.893C438.167 363.893 437.635 363.536 437.401 362.939L407.17 286.154C406.855 285.355 407.193 284.429 407.924 284.085C408.655 283.742 409.503 284.111 409.818 284.91L440.049 361.696C440.364 362.495 440.026 363.421 439.295 363.765C439.109 363.851 438.915 363.893 438.725 363.893Z" fill="#739AF0"/>
<path d="M400.283 279.487H444.067V274.963H400.283C401.221 274.963 401.221 279.487 400.283 279.487Z" fill="#91B3FA"/>
<path d="M443.656 279.487C443.882 279.487 444.067 279.301 444.067 279.075V275.375C444.067 275.149 443.882 274.963 443.656 274.963H399.358C399.132 274.963 398.947 274.778 398.947 274.552V274.352C398.947 274.126 399.132 273.94 399.358 273.94H446.573C447.617 273.94 448.464 274.788 448.464 275.833V278.724C448.464 279.709 447.666 280.508 446.68 280.508H399.357C399.131 280.508 398.946 280.323 398.946 280.097V279.897C398.946 279.67 399.131 279.485 399.357 279.485H443.656V279.487Z" fill="url(#paint35_linear_1594_8634)"/>
<path d="M450.414 282.536C450.562 282.031 450.361 281.509 449.868 281.112C449.375 280.715 448.642 280.486 447.867 280.486H185.515C184.497 280.486 183.548 280.831 182.999 281.401C182.45 281.971 182.376 282.687 182.804 283.301L185.647 287.387C186.298 288.322 187.709 288.921 189.262 288.921H446.068C447.512 288.921 448.753 288.242 449.026 287.3L450.414 282.536Z" fill="#739AF0"/>
</g>
<defs>
<linearGradient id="paint0_linear_1594_8634" x1="342.896" y1="152.526" x2="338.722" y2="180.048" gradientUnits="userSpaceOnUse">
<stop stop-color="#09005D"/>
<stop offset="1" stop-color="#1A0F91"/>
</linearGradient>
<linearGradient id="paint1_linear_1594_8634" x1="343.817" y1="141.114" x2="336.607" y2="220.538" gradientUnits="userSpaceOnUse">
<stop stop-color="#53D8FF"/>
<stop offset="1" stop-color="#3840F7"/>
</linearGradient>
<linearGradient id="paint2_linear_1594_8634" x1="344.026" y1="141.134" x2="336.817" y2="220.555" gradientUnits="userSpaceOnUse">
<stop stop-color="#53D8FF"/>
<stop offset="1" stop-color="#3840F7"/>
</linearGradient>
<linearGradient id="paint3_linear_1594_8634" x1="343.629" y1="141.097" x2="336.42" y2="220.519" gradientUnits="userSpaceOnUse">
<stop stop-color="#53D8FF"/>
<stop offset="1" stop-color="#3840F7"/>
</linearGradient>
<linearGradient id="paint4_linear_1594_8634" x1="343.843" y1="141.117" x2="336.633" y2="220.54" gradientUnits="userSpaceOnUse">
<stop stop-color="#53D8FF"/>
<stop offset="1" stop-color="#3840F7"/>
</linearGradient>
<linearGradient id="paint5_linear_1594_8634" x1="259.697" y1="348.543" x2="266.218" y2="348.605" gradientUnits="userSpaceOnUse">
<stop stop-color="#FEBBBA"/>
<stop offset="1" stop-color="#FF928E"/>
</linearGradient>
<linearGradient id="paint6_linear_1594_8634" x1="236.201" y1="347.984" x2="241.831" y2="348.037" gradientUnits="userSpaceOnUse">
<stop stop-color="#FEBBBA"/>
<stop offset="1" stop-color="#FF928E"/>
</linearGradient>
<linearGradient id="paint7_linear_1594_8634" x1="288.152" y1="178.51" x2="321.464" y2="178.827" gradientUnits="userSpaceOnUse">
<stop stop-color="#FEBBBA"/>
<stop offset="1" stop-color="#FF928E"/>
</linearGradient>
<linearGradient id="paint8_linear_1594_8634" x1="314.097" y1="173.168" x2="291.22" y2="223.849" gradientUnits="userSpaceOnUse">
<stop stop-color="#FEBBBA"/>
<stop offset="1" stop-color="#FF928E"/>
</linearGradient>
<linearGradient id="paint9_linear_1594_8634" x1="321.518" y1="156.281" x2="330.996" y2="142.023" gradientUnits="userSpaceOnUse">
<stop stop-color="#FEBBBA"/>
<stop offset="1" stop-color="#FF928E"/>
</linearGradient>
<linearGradient id="paint10_linear_1594_8634" x1="214.809" y1="225.049" x2="256.965" y2="225.449" gradientUnits="userSpaceOnUse">
<stop stop-color="#FEBBBA"/>
<stop offset="1" stop-color="#FF928E"/>
</linearGradient>
<linearGradient id="paint11_linear_1594_8634" x1="247.608" y1="180.242" x2="264.276" y2="180.401" gradientUnits="userSpaceOnUse">
<stop stop-color="#FEBBBA"/>
<stop offset="1" stop-color="#FF928E"/>
</linearGradient>
<linearGradient id="paint12_linear_1594_8634" x1="268.341" y1="169.824" x2="250.111" y2="158.478" gradientUnits="userSpaceOnUse">
<stop stop-color="#FEBBBA"/>
<stop offset="1" stop-color="#FF928E"/>
</linearGradient>
<linearGradient id="paint13_linear_1594_8634" x1="263.488" y1="173.951" x2="247.086" y2="163.743" gradientUnits="userSpaceOnUse">
<stop stop-color="#FEBBBA"/>
<stop offset="1" stop-color="#FF928E"/>
</linearGradient>
<linearGradient id="paint14_linear_1594_8634" x1="252.329" y1="223.903" x2="265.509" y2="223.903" gradientUnits="userSpaceOnUse">
<stop stop-color="#FEBBBA"/>
<stop offset="1" stop-color="#FF928E"/>
</linearGradient>
<linearGradient id="paint15_linear_1594_8634" x1="204.082" y1="351.379" x2="211.034" y2="351.379" gradientUnits="userSpaceOnUse">
<stop stop-color="#FEBBBA"/>
<stop offset="1" stop-color="#FF928E"/>
</linearGradient>
<linearGradient id="paint16_linear_1594_8634" x1="237.009" y1="351.965" x2="245.309" y2="351.965" gradientUnits="userSpaceOnUse">
<stop stop-color="#FEBBBA"/>
<stop offset="1" stop-color="#FF928E"/>
</linearGradient>
<linearGradient id="paint17_linear_1594_8634" x1="190.908" y1="234.888" x2="195.007" y2="224.562" gradientUnits="userSpaceOnUse">
<stop stop-color="#FEBBBA"/>
<stop offset="1" stop-color="#FF928E"/>
</linearGradient>
<linearGradient id="paint18_linear_1594_8634" x1="225.866" y1="275.059" x2="245.037" y2="275.059" gradientUnits="userSpaceOnUse">
<stop stop-color="#FEBBBA"/>
<stop offset="1" stop-color="#FF928E"/>
</linearGradient>
<linearGradient id="paint19_linear_1594_8634" x1="203.401" y1="213.881" x2="185.067" y2="232.149" gradientUnits="userSpaceOnUse">
<stop stop-color="#FEBBBA"/>
<stop offset="1" stop-color="#FF928E"/>
</linearGradient>
<linearGradient id="paint20_linear_1594_8634" x1="200.44" y1="210.909" x2="182.106" y2="229.177" gradientUnits="userSpaceOnUse">
<stop stop-color="#FEBBBA"/>
<stop offset="1" stop-color="#FF928E"/>
</linearGradient>
<linearGradient id="paint21_linear_1594_8634" x1="296.104" y1="489.68" x2="347.446" y2="284.529" gradientUnits="userSpaceOnUse">
<stop stop-color="#FEBBBA"/>
<stop offset="1" stop-color="#FF928E"/>
</linearGradient>
<linearGradient id="paint22_linear_1594_8634" x1="321.002" y1="359.911" x2="331.272" y2="206.885" gradientUnits="userSpaceOnUse">
<stop stop-color="#FEBBBA"/>
<stop offset="1" stop-color="#FF928E"/>
</linearGradient>
<linearGradient id="paint23_linear_1594_8634" x1="361.214" y1="245.104" x2="357.114" y2="218.822" gradientUnits="userSpaceOnUse">
<stop stop-color="#FEBBBA"/>
<stop offset="1" stop-color="#FF928E"/>
</linearGradient>
<linearGradient id="paint24_linear_1594_8634" x1="338.968" y1="217.243" x2="369.652" y2="206.903" gradientUnits="userSpaceOnUse">
<stop stop-color="#FEBBBA"/>
<stop offset="1" stop-color="#FF928E"/>
</linearGradient>
<linearGradient id="paint25_linear_1594_8634" x1="338.055" y1="214.533" x2="368.738" y2="204.193" gradientUnits="userSpaceOnUse">
<stop stop-color="#FEBBBA"/>
<stop offset="1" stop-color="#FF928E"/>
</linearGradient>
<linearGradient id="paint26_linear_1594_8634" x1="378.016" y1="274.946" x2="434.957" y2="274.946" gradientUnits="userSpaceOnUse">
<stop stop-color="#FEBBBA"/>
<stop offset="1" stop-color="#FF928E"/>
</linearGradient>
<linearGradient id="paint27_linear_1594_8634" x1="419.788" y1="357.384" x2="421.858" y2="341.219" gradientUnits="userSpaceOnUse">
<stop stop-color="#FEBBBA"/>
<stop offset="1" stop-color="#FF928E"/>
</linearGradient>
<linearGradient id="paint28_linear_1594_8634" x1="464.934" y1="362.925" x2="466.951" y2="347.172" gradientUnits="userSpaceOnUse">
<stop stop-color="#FEBBBA"/>
<stop offset="1" stop-color="#FF928E"/>
</linearGradient>
<linearGradient id="paint29_linear_1594_8634" x1="466.149" y1="293.55" x2="463.892" y2="289.041" gradientUnits="userSpaceOnUse">
<stop stop-color="#4F52FF"/>
<stop offset="1" stop-color="#4042E2"/>
</linearGradient>
<linearGradient id="paint30_linear_1594_8634" x1="449.721" y1="259.46" x2="421.51" y2="259.46" gradientUnits="userSpaceOnUse">
<stop stop-color="#FEBBBA"/>
<stop offset="1" stop-color="#FF928E"/>
</linearGradient>
<linearGradient id="paint31_linear_1594_8634" x1="423.724" y1="224.059" x2="371.042" y2="224.059" gradientUnits="userSpaceOnUse">
<stop stop-color="#FEBBBA"/>
<stop offset="1" stop-color="#FF928E"/>
</linearGradient>
<linearGradient id="paint32_linear_1594_8634" x1="442.69" y1="194.48" x2="424.336" y2="175.669" gradientUnits="userSpaceOnUse">
<stop stop-color="#FEBBBA"/>
<stop offset="1" stop-color="#FF928E"/>
</linearGradient>
<linearGradient id="paint33_linear_1594_8634" x1="416.101" y1="163.785" x2="438.99" y2="194.034" gradientUnits="userSpaceOnUse">
<stop stop-color="#FEBBBA"/>
<stop offset="1" stop-color="#FF928E"/>
</linearGradient>
<linearGradient id="paint34_linear_1594_8634" x1="449.58" y1="187.758" x2="431.225" y2="168.947" gradientUnits="userSpaceOnUse">
<stop stop-color="#FEBBBA"/>
<stop offset="1" stop-color="#FF928E"/>
</linearGradient>
<linearGradient id="paint35_linear_1594_8634" x1="441.396" y1="202.246" x2="430.465" y2="248.109" gradientUnits="userSpaceOnUse">
<stop stop-color="#09005D"/>
<stop offset="1" stop-color="#1A0F91"/>
</linearGradient>
<clipPath id="clip0_1594_8634">
<rect width="341" height="341" fill="white" transform="translate(138 30)"/>
</clipPath>
</defs>
</svg>
