<svg width="225" height="29" viewBox="0 0 225 29" fill="none" xmlns="http://www.w3.org/2000/svg">
<path d="M205.618 12.8646C208.032 11.5963 210.063 9.8557 211.543 7.7846L211.543 7.78456C212.416 6.56007 213.822 5.68216 215.452 5.34621C217.082 5.01038 218.801 5.24428 220.23 5.99613C221.658 6.74795 222.677 7.95504 223.065 9.34971C223.065 9.34971 223.065 9.34972 223.065 9.34973L223.083 9.41667H223.083L223.086 9.42613C223.474 10.8094 223.206 12.2686 222.339 13.4834L222.339 13.4835C219.834 17.0036 216.386 19.961 212.28 22.1095L212.28 22.1096C210.861 22.8541 209.155 23.085 207.537 22.7511L207.537 22.7511L207.447 22.733L205.618 12.8646ZM205.618 12.8646L205.618 12.8656C204.188 13.6148 203.166 14.8202 202.775 16.2143L202.742 16.2049L202.775 16.2143C202.385 17.6083 202.657 19.0785 203.532 20.3012L203.506 20.3195L203.532 20.3012C204.408 21.5243 205.816 22.3997 207.447 22.733L205.618 12.8646ZM203.676 21.6384C204.634 22.5246 205.875 23.1476 207.243 23.4295L207.243 23.4297L207.257 23.4325L207.347 23.451L207.389 23.4597V23.4594C207.92 23.5654 208.464 23.6191 209.01 23.6193C210.314 23.6185 211.593 23.3094 212.706 22.7256C216.924 20.5185 220.468 17.4804 223.042 13.8627C224.026 12.4853 224.331 10.8282 223.889 9.25652L223.889 9.25647L223.876 9.20903L223.868 9.18015C223.54 7.99961 222.811 6.92989 221.774 6.10635C220.737 5.28299 219.439 4.74244 218.045 4.55266C216.65 4.36288 215.221 4.53241 213.939 5.04006C212.657 5.54755 211.578 6.37045 210.841 7.40529C209.43 9.37946 207.494 11.0398 205.19 12.2498C203.985 12.8815 203.024 13.8062 202.431 14.9075L202.462 14.9241L202.431 14.9075C201.838 16.0091 201.64 17.2372 201.862 18.436C202.084 19.6348 202.715 20.7492 203.676 21.6384Z" fill="white" stroke="white" stroke-width="0.07"/>
<mask id="path-2-outside-1_1604_22111" maskUnits="userSpaceOnUse" x="202.323" y="4.80701" width="21" height="18" fill="black">
<rect fill="white" x="202.323" y="4.80701" width="21" height="18"/>
<path d="M206.025 21.5811C206.254 21.6984 206.533 21.7216 206.784 21.6445C207.036 21.5673 207.234 21.3981 207.324 21.1827C207.415 20.9674 207.389 20.7285 207.253 20.5315L207.052 20.2396H207.052C207.036 20.2159 207.017 20.194 206.994 20.1747C206.848 20.0493 206.775 19.8745 206.795 19.6982C206.815 19.5218 206.925 19.3621 207.096 19.2629C207.239 19.1876 207.408 19.1568 207.575 19.1759C207.741 19.195 207.895 19.2628 208.01 19.3677L210.457 21.4661L210.457 21.466C210.671 21.6502 210.961 21.7539 211.264 21.7543C211.46 21.7545 211.653 21.7096 211.823 21.6246L211.903 21.5834C213.123 20.9462 214.286 20.2334 215.384 19.4507C215.625 19.2775 215.771 19.0254 215.785 18.7556C215.8 18.4809 215.679 18.2138 215.453 18.0193L211.95 15.0162C211.828 14.9176 211.749 14.786 211.727 14.6433C211.704 14.5007 211.74 14.3559 211.828 14.2333C211.944 14.0864 212.13 13.9916 212.336 13.9746C212.541 13.9577 212.745 14.0204 212.891 14.1457L216.502 17.2418C216.722 17.4285 217.02 17.5317 217.33 17.5281C217.634 17.5249 217.924 17.4147 218.131 17.2233C219.24 16.2018 220.248 15.1036 221.146 13.9396C221.288 13.7519 221.351 13.5279 221.323 13.3054C221.295 13.0828 221.179 12.875 220.994 12.7172L218.001 10.1507C217.879 10.0521 217.8 9.92049 217.778 9.77784C217.755 9.6352 217.791 9.49039 217.879 9.36776C217.995 9.22093 218.181 9.12608 218.387 9.10913C218.592 9.09219 218.796 9.15489 218.942 9.28015L220.51 10.625C220.742 10.8231 221.062 10.9262 221.388 10.9079C221.715 10.8895 222.016 10.7515 222.216 10.5291C222.415 10.3067 222.493 10.0214 222.43 9.74627C222.416 9.68632 222.4 9.62652 222.384 9.56599L222.362 9.48808C222.043 8.33524 221.236 7.32491 220.098 6.65244C218.961 5.98009 217.572 5.69338 216.202 5.84789C214.832 6.00226 213.578 6.58686 212.681 7.48858C212.494 7.67567 212.395 7.91634 212.404 8.16294C212.413 8.40955 212.53 8.64427 212.732 8.8205L215.495 11.1884C215.62 11.2876 215.7 11.4207 215.723 11.5651C215.746 11.7094 215.709 11.8561 215.62 11.9802C215.503 12.1252 215.318 12.2184 215.113 12.2345C214.909 12.2507 214.706 12.1882 214.561 12.0638L212.163 10.0079C211.94 9.8159 211.634 9.71266 211.318 9.72308C211.002 9.73351 210.706 9.8566 210.501 10.0628C209.552 11.0242 208.475 11.8863 207.291 12.6311C207.025 12.799 206.859 13.0579 206.834 13.34C206.81 13.622 206.93 13.8992 207.163 14.0989L209.443 16.0538V16.054C209.568 16.1531 209.648 16.2862 209.671 16.4306C209.694 16.575 209.658 16.7217 209.568 16.8458C209.452 16.9907 209.266 17.084 209.061 17.1C208.857 17.1163 208.654 17.0537 208.509 16.9293L205.96 14.7434H205.96C205.715 14.5326 205.371 14.429 205.026 14.4622C204.691 14.4923 204.389 14.652 204.208 14.8959C203.393 15.9836 203.127 17.3078 203.469 18.5667C203.812 19.8256 204.735 20.9118 206.027 21.5779L206.025 21.5811ZM204.844 15.2486C204.903 15.1702 205 15.1193 205.109 15.1108C205.225 15.0995 205.342 15.1345 205.425 15.2058L207.974 17.3917V17.3918C208.277 17.6517 208.7 17.7831 209.127 17.7505C209.554 17.7179 209.943 17.5249 210.188 17.2231C210.379 16.9737 210.462 16.6753 210.424 16.3789C210.386 16.0826 210.229 15.8067 209.979 15.5989L207.7 13.644H207.699C207.621 13.5774 207.581 13.4845 207.59 13.39C207.597 13.2972 207.653 13.2121 207.741 13.1578C208.971 12.3823 210.091 11.4854 211.077 10.4856C211.143 10.4183 211.24 10.3782 211.342 10.375C211.448 10.3711 211.552 10.4057 211.626 10.4704L214.024 12.5263H214.024C214.328 12.7862 214.75 12.9175 215.177 12.8849C215.604 12.8524 215.993 12.6593 216.238 12.3575C216.429 12.1082 216.512 11.8097 216.474 11.5133C216.436 11.217 216.279 10.9412 216.03 10.7334L213.268 8.36548C213.126 8.24137 213.121 8.044 213.257 7.91469C214.032 7.13461 215.116 6.62877 216.301 6.49513C217.486 6.36133 218.686 6.6091 219.67 7.19051C220.654 7.77192 221.351 8.6457 221.627 9.64257L221.649 9.72004C221.663 9.77159 221.677 9.82314 221.687 9.8747V9.87484C221.721 10.0163 221.642 10.16 221.493 10.228C221.345 10.2961 221.162 10.2722 221.044 10.1694L219.475 8.82482C219.173 8.56315 218.749 8.43153 218.321 8.46613C217.891 8.49958 217.5 8.69565 217.256 9.00091C217.065 9.24796 216.981 9.54467 217.019 9.8392C217.057 10.1339 217.215 10.4076 217.464 10.6128L220.459 13.1782C220.587 13.2859 220.609 13.4555 220.512 13.5847C219.638 14.7187 218.655 15.7886 217.575 16.7836C217.504 16.8459 217.407 16.8812 217.305 16.8817C217.204 16.882 217.107 16.8473 217.035 16.7855L213.424 13.6893C213.12 13.4283 212.695 13.2969 212.266 13.3309C211.837 13.365 211.448 13.5609 211.205 13.8656C211.014 14.1126 210.93 14.4092 210.968 14.7039C211.006 14.9984 211.164 15.2721 211.413 15.4773L214.915 18.4803C214.992 18.5456 215.033 18.6357 215.029 18.7285C215.026 18.8166 214.979 18.8994 214.9 18.9556C213.83 19.7181 212.698 20.4125 211.51 21.0335L211.442 21.0682H211.442C211.294 21.1387 211.11 21.1153 210.992 21.0112L208.545 18.9127C208.259 18.6645 207.87 18.5238 207.464 18.5216C207.179 18.5207 206.9 18.5947 206.665 18.7338C206.318 18.9384 206.092 19.2625 206.045 19.6216C205.999 19.9807 206.137 20.3392 206.424 20.604L206.602 20.8634C206.639 20.9095 206.629 20.9716 206.58 21.0078C206.538 21.0494 206.467 21.0573 206.414 21.0264C205.297 20.4505 204.5 19.5109 204.204 18.4224C203.908 17.3338 204.139 16.1887 204.844 15.2487L204.844 15.2486Z"/>
</mask>
<path d="M206.025 21.5811C206.254 21.6984 206.533 21.7216 206.784 21.6445C207.036 21.5673 207.234 21.3981 207.324 21.1827C207.415 20.9674 207.389 20.7285 207.253 20.5315L207.052 20.2396H207.052C207.036 20.2159 207.017 20.194 206.994 20.1747C206.848 20.0493 206.775 19.8745 206.795 19.6982C206.815 19.5218 206.925 19.3621 207.096 19.2629C207.239 19.1876 207.408 19.1568 207.575 19.1759C207.741 19.195 207.895 19.2628 208.01 19.3677L210.457 21.4661L210.457 21.466C210.671 21.6502 210.961 21.7539 211.264 21.7543C211.46 21.7545 211.653 21.7096 211.823 21.6246L211.903 21.5834C213.123 20.9462 214.286 20.2334 215.384 19.4507C215.625 19.2775 215.771 19.0254 215.785 18.7556C215.8 18.4809 215.679 18.2138 215.453 18.0193L211.95 15.0162C211.828 14.9176 211.749 14.786 211.727 14.6433C211.704 14.5007 211.74 14.3559 211.828 14.2333C211.944 14.0864 212.13 13.9916 212.336 13.9746C212.541 13.9577 212.745 14.0204 212.891 14.1457L216.502 17.2418C216.722 17.4285 217.02 17.5317 217.33 17.5281C217.634 17.5249 217.924 17.4147 218.131 17.2233C219.24 16.2018 220.248 15.1036 221.146 13.9396C221.288 13.7519 221.351 13.5279 221.323 13.3054C221.295 13.0828 221.179 12.875 220.994 12.7172L218.001 10.1507C217.879 10.0521 217.8 9.92049 217.778 9.77784C217.755 9.6352 217.791 9.49039 217.879 9.36776C217.995 9.22093 218.181 9.12608 218.387 9.10913C218.592 9.09219 218.796 9.15489 218.942 9.28015L220.51 10.625C220.742 10.8231 221.062 10.9262 221.388 10.9079C221.715 10.8895 222.016 10.7515 222.216 10.5291C222.415 10.3067 222.493 10.0214 222.43 9.74627C222.416 9.68632 222.4 9.62652 222.384 9.56599L222.362 9.48808C222.043 8.33524 221.236 7.32491 220.098 6.65244C218.961 5.98009 217.572 5.69338 216.202 5.84789C214.832 6.00226 213.578 6.58686 212.681 7.48858C212.494 7.67567 212.395 7.91634 212.404 8.16294C212.413 8.40955 212.53 8.64427 212.732 8.8205L215.495 11.1884C215.62 11.2876 215.7 11.4207 215.723 11.5651C215.746 11.7094 215.709 11.8561 215.62 11.9802C215.503 12.1252 215.318 12.2184 215.113 12.2345C214.909 12.2507 214.706 12.1882 214.561 12.0638L212.163 10.0079C211.94 9.8159 211.634 9.71266 211.318 9.72308C211.002 9.73351 210.706 9.8566 210.501 10.0628C209.552 11.0242 208.475 11.8863 207.291 12.6311C207.025 12.799 206.859 13.0579 206.834 13.34C206.81 13.622 206.93 13.8992 207.163 14.0989L209.443 16.0538V16.054C209.568 16.1531 209.648 16.2862 209.671 16.4306C209.694 16.575 209.658 16.7217 209.568 16.8458C209.452 16.9907 209.266 17.084 209.061 17.1C208.857 17.1163 208.654 17.0537 208.509 16.9293L205.96 14.7434H205.96C205.715 14.5326 205.371 14.429 205.026 14.4622C204.691 14.4923 204.389 14.652 204.208 14.8959C203.393 15.9836 203.127 17.3078 203.469 18.5667C203.812 19.8256 204.735 20.9118 206.027 21.5779L206.025 21.5811ZM204.844 15.2486C204.903 15.1702 205 15.1193 205.109 15.1108C205.225 15.0995 205.342 15.1345 205.425 15.2058L207.974 17.3917V17.3918C208.277 17.6517 208.7 17.7831 209.127 17.7505C209.554 17.7179 209.943 17.5249 210.188 17.2231C210.379 16.9737 210.462 16.6753 210.424 16.3789C210.386 16.0826 210.229 15.8067 209.979 15.5989L207.7 13.644H207.699C207.621 13.5774 207.581 13.4845 207.59 13.39C207.597 13.2972 207.653 13.2121 207.741 13.1578C208.971 12.3823 210.091 11.4854 211.077 10.4856C211.143 10.4183 211.24 10.3782 211.342 10.375C211.448 10.3711 211.552 10.4057 211.626 10.4704L214.024 12.5263H214.024C214.328 12.7862 214.75 12.9175 215.177 12.8849C215.604 12.8524 215.993 12.6593 216.238 12.3575C216.429 12.1082 216.512 11.8097 216.474 11.5133C216.436 11.217 216.279 10.9412 216.03 10.7334L213.268 8.36548C213.126 8.24137 213.121 8.044 213.257 7.91469C214.032 7.13461 215.116 6.62877 216.301 6.49513C217.486 6.36133 218.686 6.6091 219.67 7.19051C220.654 7.77192 221.351 8.6457 221.627 9.64257L221.649 9.72004C221.663 9.77159 221.677 9.82314 221.687 9.8747V9.87484C221.721 10.0163 221.642 10.16 221.493 10.228C221.345 10.2961 221.162 10.2722 221.044 10.1694L219.475 8.82482C219.173 8.56315 218.749 8.43153 218.321 8.46613C217.891 8.49958 217.5 8.69565 217.256 9.00091C217.065 9.24796 216.981 9.54467 217.019 9.8392C217.057 10.1339 217.215 10.4076 217.464 10.6128L220.459 13.1782C220.587 13.2859 220.609 13.4555 220.512 13.5847C219.638 14.7187 218.655 15.7886 217.575 16.7836C217.504 16.8459 217.407 16.8812 217.305 16.8817C217.204 16.882 217.107 16.8473 217.035 16.7855L213.424 13.6893C213.12 13.4283 212.695 13.2969 212.266 13.3309C211.837 13.365 211.448 13.5609 211.205 13.8656C211.014 14.1126 210.93 14.4092 210.968 14.7039C211.006 14.9984 211.164 15.2721 211.413 15.4773L214.915 18.4803C214.992 18.5456 215.033 18.6357 215.029 18.7285C215.026 18.8166 214.979 18.8994 214.9 18.9556C213.83 19.7181 212.698 20.4125 211.51 21.0335L211.442 21.0682H211.442C211.294 21.1387 211.11 21.1153 210.992 21.0112L208.545 18.9127C208.259 18.6645 207.87 18.5238 207.464 18.5216C207.179 18.5207 206.9 18.5947 206.665 18.7338C206.318 18.9384 206.092 19.2625 206.045 19.6216C205.999 19.9807 206.137 20.3392 206.424 20.604L206.602 20.8634C206.639 20.9095 206.629 20.9716 206.58 21.0078C206.538 21.0494 206.467 21.0573 206.414 21.0264C205.297 20.4505 204.5 19.5109 204.204 18.4224C203.908 17.3338 204.139 16.1887 204.844 15.2487L204.844 15.2486Z" fill="white"/>
<path d="M206.025 21.5811C206.254 21.6984 206.533 21.7216 206.784 21.6445C207.036 21.5673 207.234 21.3981 207.324 21.1827C207.415 20.9674 207.389 20.7285 207.253 20.5315L207.052 20.2396H207.052C207.036 20.2159 207.017 20.194 206.994 20.1747C206.848 20.0493 206.775 19.8745 206.795 19.6982C206.815 19.5218 206.925 19.3621 207.096 19.2629C207.239 19.1876 207.408 19.1568 207.575 19.1759C207.741 19.195 207.895 19.2628 208.01 19.3677L210.457 21.4661L210.457 21.466C210.671 21.6502 210.961 21.7539 211.264 21.7543C211.46 21.7545 211.653 21.7096 211.823 21.6246L211.903 21.5834C213.123 20.9462 214.286 20.2334 215.384 19.4507C215.625 19.2775 215.771 19.0254 215.785 18.7556C215.8 18.4809 215.679 18.2138 215.453 18.0193L211.95 15.0162C211.828 14.9176 211.749 14.786 211.727 14.6433C211.704 14.5007 211.74 14.3559 211.828 14.2333C211.944 14.0864 212.13 13.9916 212.336 13.9746C212.541 13.9577 212.745 14.0204 212.891 14.1457L216.502 17.2418C216.722 17.4285 217.02 17.5317 217.33 17.5281C217.634 17.5249 217.924 17.4147 218.131 17.2233C219.24 16.2018 220.248 15.1036 221.146 13.9396C221.288 13.7519 221.351 13.5279 221.323 13.3054C221.295 13.0828 221.179 12.875 220.994 12.7172L218.001 10.1507C217.879 10.0521 217.8 9.92049 217.778 9.77784C217.755 9.6352 217.791 9.49039 217.879 9.36776C217.995 9.22093 218.181 9.12608 218.387 9.10913C218.592 9.09219 218.796 9.15489 218.942 9.28015L220.51 10.625C220.742 10.8231 221.062 10.9262 221.388 10.9079C221.715 10.8895 222.016 10.7515 222.216 10.5291C222.415 10.3067 222.493 10.0214 222.43 9.74627C222.416 9.68632 222.4 9.62652 222.384 9.56599L222.362 9.48808C222.043 8.33524 221.236 7.32491 220.098 6.65244C218.961 5.98009 217.572 5.69338 216.202 5.84789C214.832 6.00226 213.578 6.58686 212.681 7.48858C212.494 7.67567 212.395 7.91634 212.404 8.16294C212.413 8.40955 212.53 8.64427 212.732 8.8205L215.495 11.1884C215.62 11.2876 215.7 11.4207 215.723 11.5651C215.746 11.7094 215.709 11.8561 215.62 11.9802C215.503 12.1252 215.318 12.2184 215.113 12.2345C214.909 12.2507 214.706 12.1882 214.561 12.0638L212.163 10.0079C211.94 9.8159 211.634 9.71266 211.318 9.72308C211.002 9.73351 210.706 9.8566 210.501 10.0628C209.552 11.0242 208.475 11.8863 207.291 12.6311C207.025 12.799 206.859 13.0579 206.834 13.34C206.81 13.622 206.93 13.8992 207.163 14.0989L209.443 16.0538V16.054C209.568 16.1531 209.648 16.2862 209.671 16.4306C209.694 16.575 209.658 16.7217 209.568 16.8458C209.452 16.9907 209.266 17.084 209.061 17.1C208.857 17.1163 208.654 17.0537 208.509 16.9293L205.96 14.7434H205.96C205.715 14.5326 205.371 14.429 205.026 14.4622C204.691 14.4923 204.389 14.652 204.208 14.8959C203.393 15.9836 203.127 17.3078 203.469 18.5667C203.812 19.8256 204.735 20.9118 206.027 21.5779L206.025 21.5811ZM204.844 15.2486C204.903 15.1702 205 15.1193 205.109 15.1108C205.225 15.0995 205.342 15.1345 205.425 15.2058L207.974 17.3917V17.3918C208.277 17.6517 208.7 17.7831 209.127 17.7505C209.554 17.7179 209.943 17.5249 210.188 17.2231C210.379 16.9737 210.462 16.6753 210.424 16.3789C210.386 16.0826 210.229 15.8067 209.979 15.5989L207.7 13.644H207.699C207.621 13.5774 207.581 13.4845 207.59 13.39C207.597 13.2972 207.653 13.2121 207.741 13.1578C208.971 12.3823 210.091 11.4854 211.077 10.4856C211.143 10.4183 211.24 10.3782 211.342 10.375C211.448 10.3711 211.552 10.4057 211.626 10.4704L214.024 12.5263H214.024C214.328 12.7862 214.75 12.9175 215.177 12.8849C215.604 12.8524 215.993 12.6593 216.238 12.3575C216.429 12.1082 216.512 11.8097 216.474 11.5133C216.436 11.217 216.279 10.9412 216.03 10.7334L213.268 8.36548C213.126 8.24137 213.121 8.044 213.257 7.91469C214.032 7.13461 215.116 6.62877 216.301 6.49513C217.486 6.36133 218.686 6.6091 219.67 7.19051C220.654 7.77192 221.351 8.6457 221.627 9.64257L221.649 9.72004C221.663 9.77159 221.677 9.82314 221.687 9.8747V9.87484C221.721 10.0163 221.642 10.16 221.493 10.228C221.345 10.2961 221.162 10.2722 221.044 10.1694L219.475 8.82482C219.173 8.56315 218.749 8.43153 218.321 8.46613C217.891 8.49958 217.5 8.69565 217.256 9.00091C217.065 9.24796 216.981 9.54467 217.019 9.8392C217.057 10.1339 217.215 10.4076 217.464 10.6128L220.459 13.1782C220.587 13.2859 220.609 13.4555 220.512 13.5847C219.638 14.7187 218.655 15.7886 217.575 16.7836C217.504 16.8459 217.407 16.8812 217.305 16.8817C217.204 16.882 217.107 16.8473 217.035 16.7855L213.424 13.6893C213.12 13.4283 212.695 13.2969 212.266 13.3309C211.837 13.365 211.448 13.5609 211.205 13.8656C211.014 14.1126 210.93 14.4092 210.968 14.7039C211.006 14.9984 211.164 15.2721 211.413 15.4773L214.915 18.4803C214.992 18.5456 215.033 18.6357 215.029 18.7285C215.026 18.8166 214.979 18.8994 214.9 18.9556C213.83 19.7181 212.698 20.4125 211.51 21.0335L211.442 21.0682H211.442C211.294 21.1387 211.11 21.1153 210.992 21.0112L208.545 18.9127C208.259 18.6645 207.87 18.5238 207.464 18.5216C207.179 18.5207 206.9 18.5947 206.665 18.7338C206.318 18.9384 206.092 19.2625 206.045 19.6216C205.999 19.9807 206.137 20.3392 206.424 20.604L206.602 20.8634C206.639 20.9095 206.629 20.9716 206.58 21.0078C206.538 21.0494 206.467 21.0573 206.414 21.0264C205.297 20.4505 204.5 19.5109 204.204 18.4224C203.908 17.3338 204.139 16.1887 204.844 15.2487L204.844 15.2486Z" stroke="white" stroke-width="0.14" mask="url(#path-2-outside-1_1604_22111)"/>
<path d="M208.996 12.9108H208.618C208.395 12.9108 208.204 13.0669 208.204 13.2702C208.204 13.4735 208.395 13.6295 208.618 13.6295H208.996C209.219 13.6295 209.409 13.4735 209.409 13.2702C209.409 13.0669 209.219 12.9108 208.996 12.9108Z" fill="white" stroke="white" stroke-width="0.07"/>
<path d="M211.266 12.3316H211.644C211.867 12.3316 212.058 12.1755 212.058 11.9722C212.058 11.7689 211.867 11.6128 211.644 11.6128H211.266C211.043 11.6128 210.853 11.7689 210.853 11.9722C210.853 12.1755 211.043 12.3316 211.266 12.3316Z" fill="white" stroke="white" stroke-width="0.07"/>
<path d="M215.806 14.2785H216.184C216.407 14.2785 216.597 14.1224 216.597 13.9191C216.597 13.7158 216.407 13.5597 216.184 13.5597H215.806C215.583 13.5597 215.392 13.7158 215.392 13.9191C215.392 14.1224 215.583 14.2785 215.806 14.2785Z" fill="white" stroke="white" stroke-width="0.07"/>
<path d="M215.049 8.36954H214.671C214.448 8.36954 214.257 8.5256 214.257 8.72891C214.257 8.93223 214.448 9.08828 214.671 9.08828H215.049C215.272 9.08828 215.462 8.93223 215.462 8.72891C215.462 8.5256 215.272 8.36954 215.049 8.36954Z" fill="white" stroke="white" stroke-width="0.07"/>
<path d="M210.131 18.8197H210.51C210.733 18.8197 210.923 18.6637 210.923 18.4603C210.923 18.257 210.733 18.101 210.51 18.101H210.131C209.908 18.101 209.718 18.257 209.718 18.4603C209.718 18.6637 209.908 18.8197 210.131 18.8197Z" fill="white" stroke="white" stroke-width="0.07"/>
<path d="M212.779 19.1442H213.158C213.381 19.1442 213.571 18.9881 213.571 18.7848C213.571 18.5815 213.381 18.4254 213.158 18.4254H212.779C212.556 18.4254 212.366 18.5815 212.366 18.7848C212.366 18.9881 212.556 19.1442 212.779 19.1442Z" fill="white" stroke="white" stroke-width="0.07"/>
<path d="M206.004 17.1624C206.004 17.0652 205.959 16.9733 205.881 16.9064C205.803 16.8398 205.699 16.803 205.591 16.803H205.213C204.99 16.803 204.799 16.9591 204.799 17.1624C204.799 17.3657 204.99 17.5218 205.213 17.5218H205.591C205.699 17.5218 205.803 17.485 205.881 17.4183C205.959 17.3515 206.004 17.2596 206.004 17.1624Z" fill="white" stroke="white" stroke-width="0.07"/>
<path d="M219.21 13.954H219.588C219.811 13.954 220.002 13.7979 220.002 13.5946C220.002 13.3913 219.811 13.2353 219.588 13.2353H219.21C218.987 13.2353 218.797 13.3913 218.797 13.5946C218.797 13.7979 218.987 13.954 219.21 13.954Z" fill="white" stroke="white" stroke-width="0.07"/>
<path d="M217.319 15.9009H217.698C217.921 15.9009 218.111 15.7448 218.111 15.5415C218.111 15.3382 217.921 15.1822 217.698 15.1822H217.319C217.096 15.1822 216.906 15.3382 216.906 15.5415C216.906 15.7448 217.096 15.9009 217.319 15.9009Z" fill="white" stroke="white" stroke-width="0.07"/>
<path d="M219.588 8.43911H219.966C220.189 8.43911 220.38 8.28306 220.38 8.07974C220.38 7.87643 220.189 7.72037 219.966 7.72037H219.588C219.365 7.72037 219.175 7.87643 219.175 8.07974C219.175 8.28306 219.365 8.43911 219.588 8.43911Z" fill="white" stroke="white" stroke-width="0.07"/>
<path d="M216.94 7.79153C217.163 7.79153 217.353 7.63547 217.353 7.43216C217.353 7.22885 217.163 7.07279 216.94 7.07279H216.561C216.338 7.07279 216.148 7.22885 216.148 7.43216C216.148 7.63547 216.338 7.79153 216.561 7.79153H216.94Z" fill="white" stroke="white" stroke-width="0.07"/>
<path d="M17.0009 20.5219L17.0016 20.5211C18.4143 21.2963 20.0494 21.5163 21.546 21.133L21.5564 21.1658L21.546 21.133C23.0429 20.7498 24.2788 19.7949 24.9815 18.4785C25.6842 17.1623 25.7959 15.5923 25.2915 14.1149L17.0009 20.5219ZM17.0009 20.5219C14.6108 19.2134 11.9725 18.4504 9.30181 18.2951L9.30176 18.2951C7.72326 18.2054 6.20238 17.5131 5.07501 16.3705C3.94774 15.228 3.30671 13.7294 3.29349 12.2053C3.28035 10.6813 3.89588 9.25746 5.00354 8.24725C5.00354 8.24724 5.00355 8.24723 5.00355 8.24723L5.05779 8.19784L5.05782 8.19789L5.0642 8.19204C6.16117 7.18691 7.65743 6.67274 9.22424 6.76265L9.22429 6.76265C13.7588 7.01733 18.2402 8.31272 22.2957 10.5411L22.2958 10.5411C23.6985 11.3097 24.7661 12.566 25.2633 14.0332L25.2634 14.0334L25.2915 14.1148L17.0009 20.5219ZM26.154 17.7011C26.5014 16.4881 26.4619 15.178 26.0407 13.9357L26.0408 13.9355L26.0362 13.9222L26.0085 13.8405L25.9946 13.7995L25.9943 13.7996C25.8274 13.3196 25.6056 12.8558 25.3331 12.417L25.3331 12.417C24.6798 11.3674 23.7515 10.4927 22.6502 9.88912C18.4831 7.5993 13.8787 6.26777 9.21894 6.00558C7.44388 5.90328 5.7481 6.48601 4.50472 7.62555L4.50469 7.62557L4.46699 7.66021L4.44423 7.68097C3.50841 8.53425 2.87574 9.65516 2.6263 10.9012C2.377 12.1471 2.52197 13.4622 3.04271 14.6799C3.56345 15.8976 4.43663 16.963 5.55175 17.7412C6.66671 18.5195 7.97348 18.9756 9.30662 19.0515C11.8529 19.1992 14.3688 19.9266 16.6484 21.1746C17.8406 21.8287 19.183 22.1389 20.5055 22.0651C21.8281 21.9914 23.071 21.5373 24.0766 20.7602C25.0824 19.9833 25.8053 18.9185 26.154 17.7011Z" fill="white" stroke="white" stroke-width="0.07"/>
<mask id="path-15-outside-2_1604_22111" maskUnits="userSpaceOnUse" x="0.660479" y="1.72551" width="26.4206" height="25.4934" fill="black">
<rect fill="white" x="0.660479" y="1.72551" width="26.4206" height="25.4934"/>
<path d="M24.9273 15.8365C24.922 15.5933 24.8044 15.3577 24.6069 15.1941C24.4092 15.0304 24.1523 14.9557 23.9062 14.9904C23.6601 15.0251 23.4504 15.1656 23.3348 15.3734L23.163 15.6809L23.1631 15.6811C23.1489 15.7057 23.1382 15.7323 23.1315 15.76C23.0876 15.9402 22.9612 16.0864 22.7869 16.1587C22.6126 16.231 22.4084 16.2219 22.2304 16.1338C22.0887 16.0564 21.9754 15.9358 21.91 15.7925C21.8447 15.6491 21.831 15.4916 21.8715 15.3467L22.6042 12.3288L22.6042 12.329C22.669 12.0649 22.6204 11.7794 22.4693 11.5353C22.3713 11.3774 22.233 11.2447 22.069 11.1508L21.9903 11.1065C20.7866 10.4444 19.5404 9.86505 18.2618 9.37317C17.9795 9.26536 17.6715 9.27418 17.4128 9.39751C17.1495 9.52318 16.9608 9.75389 16.8928 10.0335L15.8441 14.3524C15.8133 14.5 15.7301 14.6294 15.6082 14.7187C15.4864 14.808 15.3335 14.8516 15.1753 14.8422C14.9804 14.8224 14.7989 14.7202 14.6803 14.5632C14.5617 14.4062 14.5182 14.2108 14.5619 14.0306L15.643 9.57771C15.7071 9.3075 15.6543 9.0161 15.4963 8.769C15.341 8.52564 15.0935 8.34775 14.8115 8.27691C13.3048 7.89574 11.7767 7.63381 10.2427 7.49359C9.99661 7.47304 9.75644 7.53463 9.56269 7.66806C9.36894 7.80149 9.23332 7.99886 9.17861 8.22655L8.28242 11.9175C8.2517 12.0653 8.16841 12.1946 8.04656 12.2839C7.92473 12.3731 7.77182 12.4167 7.61357 12.4074C7.41875 12.3876 7.23726 12.2853 7.11862 12.1283C6.99997 11.9713 6.95651 11.776 7.00018 11.5957L7.46994 9.66186C7.53886 9.37655 7.47514 9.06782 7.2949 8.81432C7.11452 8.56091 6.83514 8.38742 6.52802 8.33817C6.22101 8.28907 5.91604 8.36893 5.69118 8.55745C5.64213 8.59843 5.59405 8.6407 5.54598 8.68441L5.48432 8.74103C4.5691 9.57421 4.03044 10.7282 3.97235 11.9797C3.91437 13.2311 4.34119 14.4913 5.17023 15.5161C5.99921 16.5411 7.17149 17.2579 8.46039 17.5282C8.72872 17.5857 9.00259 17.545 9.22785 17.4142C9.45313 17.2834 9.61344 17.0719 9.67702 16.8217L10.503 13.4148C10.5332 13.265 10.617 13.1337 10.7403 13.0433C10.8635 12.9528 11.0184 12.9086 11.1788 12.9185C11.3722 12.9397 11.552 13.0425 11.6693 13.199C11.7866 13.3554 11.8295 13.5495 11.7863 13.7288L11.0684 16.6854C11.0008 16.9608 11.0578 17.259 11.2254 17.5077C11.393 17.7565 11.6559 17.9334 11.9507 17.9952C13.3213 18.2775 14.6636 18.7131 15.9501 19.2932C16.2393 19.4228 16.5642 19.4276 16.8394 19.3062C17.1146 19.1849 17.3129 18.9496 17.3823 18.6618L18.065 15.8503L18.0651 15.8502C18.0953 15.7004 18.1791 15.5692 18.3023 15.4787C18.4255 15.3881 18.5805 15.344 18.7408 15.3538C18.9343 15.3752 19.1141 15.4779 19.2313 15.6344C19.3487 15.7908 19.3916 15.985 19.3483 16.1641L18.585 19.3078L18.5851 19.308C18.5109 19.6103 18.5862 19.9385 18.7895 20.1993C18.9854 20.4542 19.285 20.6168 19.6032 20.641C21.0247 20.7527 22.3925 20.3048 23.3948 19.3997C24.3972 18.4946 24.9486 17.2093 24.9236 15.8368L24.9273 15.8365ZM19.6139 19.9527C19.5113 19.9447 19.4151 19.8916 19.353 19.8086C19.2842 19.7206 19.2587 19.6094 19.2836 19.5071L20.0469 16.3634L20.0471 16.3633C20.1377 15.9892 20.049 15.5839 19.8051 15.2566C19.5611 14.9292 19.1868 14.7131 18.7828 14.6667C18.455 14.638 18.1351 14.7201 17.8777 14.8989C17.6205 15.0776 17.4419 15.342 17.3728 15.6465L16.6901 18.458L16.6902 18.4581C16.6675 18.5547 16.6009 18.6335 16.5083 18.6734C16.4179 18.7136 16.3108 18.7116 16.2161 18.6678C14.8779 18.0657 13.4817 17.6133 12.0566 17.32C11.9608 17.3006 11.8753 17.2432 11.8211 17.1623C11.7643 17.0788 11.7449 16.9784 11.7679 16.8858L12.4858 13.9292L12.4857 13.929C12.5764 13.5551 12.4877 13.1497 12.2437 12.8223C11.9997 12.4949 11.6255 12.2789 11.2215 12.2326C10.8937 12.2039 10.5737 12.286 10.3164 12.4648C10.0592 12.6435 9.88056 12.9079 9.81147 13.2123L8.9846 16.6178C8.93983 16.7939 8.75835 16.8967 8.56998 16.8523C7.45527 16.619 6.4413 15.9993 5.72435 15.1131C5.00725 14.227 4.63803 13.1374 4.68814 12.0552C4.73825 10.973 5.20422 9.97514 5.99565 9.25471L6.05707 9.19858C6.09796 9.16126 6.13935 9.12475 6.18235 9.09082L6.18248 9.09075C6.29741 8.99271 6.47069 8.98419 6.60845 9.06972C6.74613 9.15511 6.81539 9.31432 6.77863 9.46081L6.30927 11.3948C6.21662 11.7691 6.30561 12.1755 6.55177 12.5023C6.79811 12.8318 7.17622 13.0479 7.58318 13.0922C7.90901 13.1223 8.22752 13.0413 8.48303 12.8634C8.73878 12.6854 8.91516 12.4219 8.98174 12.1186L9.87607 8.42662C9.91276 8.27018 10.0598 8.1676 10.2285 8.18072C11.723 8.3172 13.2118 8.57246 14.6796 8.94407C14.7731 8.96986 14.8545 9.03031 14.9057 9.11174C14.9567 9.19325 14.9732 9.28894 14.9512 9.37733L13.8701 13.8302C13.779 14.2058 13.8687 14.6129 14.1148 14.9408C14.3611 15.2689 14.7383 15.4839 15.1441 15.5275C15.4699 15.5576 15.7883 15.4767 16.044 15.2987C16.2996 15.1208 16.476 14.8572 16.5425 14.554L17.5912 10.2351C17.6137 10.1406 17.677 10.0624 17.7659 10.0197C17.8494 9.97796 17.9502 9.97459 18.0422 10.0102C19.2878 10.489 20.5015 11.0531 21.6741 11.6977L21.7407 11.7353L21.7407 11.7354C21.8803 11.8189 21.9507 11.9791 21.9124 12.1257L21.1796 15.1436C21.091 15.4975 21.1543 15.8807 21.3555 16.2088C21.4973 16.4387 21.7056 16.6259 21.9526 16.7452C22.317 16.9222 22.7323 16.9422 23.0902 16.7999C23.4482 16.6576 23.7133 16.367 23.8167 16.004L23.9696 15.7309C23.9943 15.6785 24.057 15.6552 24.1153 15.6767C24.1749 15.6894 24.218 15.7428 24.2155 15.8007C24.2372 16.9874 23.76 18.0987 22.8931 18.881C22.026 19.6634 20.843 20.05 19.6139 19.9527L19.6139 19.9527Z"/>
</mask>
<path d="M24.9273 15.8365C24.922 15.5933 24.8044 15.3577 24.6069 15.1941C24.4092 15.0304 24.1523 14.9557 23.9062 14.9904C23.6601 15.0251 23.4504 15.1656 23.3348 15.3734L23.163 15.6809L23.1631 15.6811C23.1489 15.7057 23.1382 15.7323 23.1315 15.76C23.0876 15.9402 22.9612 16.0864 22.7869 16.1587C22.6126 16.231 22.4084 16.2219 22.2304 16.1338C22.0887 16.0564 21.9754 15.9358 21.91 15.7925C21.8447 15.6491 21.831 15.4916 21.8715 15.3467L22.6042 12.3288L22.6042 12.329C22.669 12.0649 22.6204 11.7794 22.4693 11.5353C22.3713 11.3774 22.233 11.2447 22.069 11.1508L21.9903 11.1065C20.7866 10.4444 19.5404 9.86505 18.2618 9.37317C17.9795 9.26536 17.6715 9.27418 17.4128 9.39751C17.1495 9.52318 16.9608 9.75389 16.8928 10.0335L15.8441 14.3524C15.8133 14.5 15.7301 14.6294 15.6082 14.7187C15.4864 14.808 15.3335 14.8516 15.1753 14.8422C14.9804 14.8224 14.7989 14.7202 14.6803 14.5632C14.5617 14.4062 14.5182 14.2108 14.5619 14.0306L15.643 9.57771C15.7071 9.3075 15.6543 9.0161 15.4963 8.769C15.341 8.52564 15.0935 8.34775 14.8115 8.27691C13.3048 7.89574 11.7767 7.63381 10.2427 7.49359C9.99661 7.47304 9.75644 7.53463 9.56269 7.66806C9.36894 7.80149 9.23332 7.99886 9.17861 8.22655L8.28242 11.9175C8.2517 12.0653 8.16841 12.1946 8.04656 12.2839C7.92473 12.3731 7.77182 12.4167 7.61357 12.4074C7.41875 12.3876 7.23726 12.2853 7.11862 12.1283C6.99997 11.9713 6.95651 11.776 7.00018 11.5957L7.46994 9.66186C7.53886 9.37655 7.47514 9.06782 7.2949 8.81432C7.11452 8.56091 6.83514 8.38742 6.52802 8.33817C6.22101 8.28907 5.91604 8.36893 5.69118 8.55745C5.64213 8.59843 5.59405 8.6407 5.54598 8.68441L5.48432 8.74103C4.5691 9.57421 4.03044 10.7282 3.97235 11.9797C3.91437 13.2311 4.34119 14.4913 5.17023 15.5161C5.99921 16.5411 7.17149 17.2579 8.46039 17.5282C8.72872 17.5857 9.00259 17.545 9.22785 17.4142C9.45313 17.2834 9.61344 17.0719 9.67702 16.8217L10.503 13.4148C10.5332 13.265 10.617 13.1337 10.7403 13.0433C10.8635 12.9528 11.0184 12.9086 11.1788 12.9185C11.3722 12.9397 11.552 13.0425 11.6693 13.199C11.7866 13.3554 11.8295 13.5495 11.7863 13.7288L11.0684 16.6854C11.0008 16.9608 11.0578 17.259 11.2254 17.5077C11.393 17.7565 11.6559 17.9334 11.9507 17.9952C13.3213 18.2775 14.6636 18.7131 15.9501 19.2932C16.2393 19.4228 16.5642 19.4276 16.8394 19.3062C17.1146 19.1849 17.3129 18.9496 17.3823 18.6618L18.065 15.8503L18.0651 15.8502C18.0953 15.7004 18.1791 15.5692 18.3023 15.4787C18.4255 15.3881 18.5805 15.344 18.7408 15.3538C18.9343 15.3752 19.1141 15.4779 19.2313 15.6344C19.3487 15.7908 19.3916 15.985 19.3483 16.1641L18.585 19.3078L18.5851 19.308C18.5109 19.6103 18.5862 19.9385 18.7895 20.1993C18.9854 20.4542 19.285 20.6168 19.6032 20.641C21.0247 20.7527 22.3925 20.3048 23.3948 19.3997C24.3972 18.4946 24.9486 17.2093 24.9236 15.8368L24.9273 15.8365ZM19.6139 19.9527C19.5113 19.9447 19.4151 19.8916 19.353 19.8086C19.2842 19.7206 19.2587 19.6094 19.2836 19.5071L20.0469 16.3634L20.0471 16.3633C20.1377 15.9892 20.049 15.5839 19.8051 15.2566C19.5611 14.9292 19.1868 14.7131 18.7828 14.6667C18.455 14.638 18.1351 14.7201 17.8777 14.8989C17.6205 15.0776 17.4419 15.342 17.3728 15.6465L16.6901 18.458L16.6902 18.4581C16.6675 18.5547 16.6009 18.6335 16.5083 18.6734C16.4179 18.7136 16.3108 18.7116 16.2161 18.6678C14.8779 18.0657 13.4817 17.6133 12.0566 17.32C11.9608 17.3006 11.8753 17.2432 11.8211 17.1623C11.7643 17.0788 11.7449 16.9784 11.7679 16.8858L12.4858 13.9292L12.4857 13.929C12.5764 13.5551 12.4877 13.1497 12.2437 12.8223C11.9997 12.4949 11.6255 12.2789 11.2215 12.2326C10.8937 12.2039 10.5737 12.286 10.3164 12.4648C10.0592 12.6435 9.88056 12.9079 9.81147 13.2123L8.9846 16.6178C8.93983 16.7939 8.75835 16.8967 8.56998 16.8523C7.45527 16.619 6.4413 15.9993 5.72435 15.1131C5.00725 14.227 4.63803 13.1374 4.68814 12.0552C4.73825 10.973 5.20422 9.97514 5.99565 9.25471L6.05707 9.19858C6.09796 9.16126 6.13935 9.12475 6.18235 9.09082L6.18248 9.09075C6.29741 8.99271 6.47069 8.98419 6.60845 9.06972C6.74613 9.15511 6.81539 9.31432 6.77863 9.46081L6.30927 11.3948C6.21662 11.7691 6.30561 12.1755 6.55177 12.5023C6.79811 12.8318 7.17622 13.0479 7.58318 13.0922C7.90901 13.1223 8.22752 13.0413 8.48303 12.8634C8.73878 12.6854 8.91516 12.4219 8.98174 12.1186L9.87607 8.42662C9.91276 8.27018 10.0598 8.1676 10.2285 8.18072C11.723 8.3172 13.2118 8.57246 14.6796 8.94407C14.7731 8.96986 14.8545 9.03031 14.9057 9.11174C14.9567 9.19325 14.9732 9.28894 14.9512 9.37733L13.8701 13.8302C13.779 14.2058 13.8687 14.6129 14.1148 14.9408C14.3611 15.2689 14.7383 15.4839 15.1441 15.5275C15.4699 15.5576 15.7883 15.4767 16.044 15.2987C16.2996 15.1208 16.476 14.8572 16.5425 14.554L17.5912 10.2351C17.6137 10.1406 17.677 10.0624 17.7659 10.0197C17.8494 9.97796 17.9502 9.97459 18.0422 10.0102C19.2878 10.489 20.5015 11.0531 21.6741 11.6977L21.7407 11.7353L21.7407 11.7354C21.8803 11.8189 21.9507 11.9791 21.9124 12.1257L21.1796 15.1436C21.091 15.4975 21.1543 15.8807 21.3555 16.2088C21.4973 16.4387 21.7056 16.6259 21.9526 16.7452C22.317 16.9222 22.7323 16.9422 23.0902 16.7999C23.4482 16.6576 23.7133 16.367 23.8167 16.004L23.9696 15.7309C23.9943 15.6785 24.057 15.6552 24.1153 15.6767C24.1749 15.6894 24.218 15.7428 24.2155 15.8007C24.2372 16.9874 23.76 18.0987 22.8931 18.881C22.026 19.6634 20.843 20.05 19.6139 19.9527L19.6139 19.9527Z" fill="white"/>
<path d="M24.9273 15.8365C24.922 15.5933 24.8044 15.3577 24.6069 15.1941C24.4092 15.0304 24.1523 14.9557 23.9062 14.9904C23.6601 15.0251 23.4504 15.1656 23.3348 15.3734L23.163 15.6809L23.1631 15.6811C23.1489 15.7057 23.1382 15.7323 23.1315 15.76C23.0876 15.9402 22.9612 16.0864 22.7869 16.1587C22.6126 16.231 22.4084 16.2219 22.2304 16.1338C22.0887 16.0564 21.9754 15.9358 21.91 15.7925C21.8447 15.6491 21.831 15.4916 21.8715 15.3467L22.6042 12.3288L22.6042 12.329C22.669 12.0649 22.6204 11.7794 22.4693 11.5353C22.3713 11.3774 22.233 11.2447 22.069 11.1508L21.9903 11.1065C20.7866 10.4444 19.5404 9.86505 18.2618 9.37317C17.9795 9.26536 17.6715 9.27418 17.4128 9.39751C17.1495 9.52318 16.9608 9.75389 16.8928 10.0335L15.8441 14.3524C15.8133 14.5 15.7301 14.6294 15.6082 14.7187C15.4864 14.808 15.3335 14.8516 15.1753 14.8422C14.9804 14.8224 14.7989 14.7202 14.6803 14.5632C14.5617 14.4062 14.5182 14.2108 14.5619 14.0306L15.643 9.57771C15.7071 9.3075 15.6543 9.0161 15.4963 8.769C15.341 8.52564 15.0935 8.34775 14.8115 8.27691C13.3048 7.89574 11.7767 7.63381 10.2427 7.49359C9.99661 7.47304 9.75644 7.53463 9.56269 7.66806C9.36894 7.80149 9.23332 7.99886 9.17861 8.22655L8.28242 11.9175C8.2517 12.0653 8.16841 12.1946 8.04656 12.2839C7.92473 12.3731 7.77182 12.4167 7.61357 12.4074C7.41875 12.3876 7.23726 12.2853 7.11862 12.1283C6.99997 11.9713 6.95651 11.776 7.00018 11.5957L7.46994 9.66186C7.53886 9.37655 7.47514 9.06782 7.2949 8.81432C7.11452 8.56091 6.83514 8.38742 6.52802 8.33817C6.22101 8.28907 5.91604 8.36893 5.69118 8.55745C5.64213 8.59843 5.59405 8.6407 5.54598 8.68441L5.48432 8.74103C4.5691 9.57421 4.03044 10.7282 3.97235 11.9797C3.91437 13.2311 4.34119 14.4913 5.17023 15.5161C5.99921 16.5411 7.17149 17.2579 8.46039 17.5282C8.72872 17.5857 9.00259 17.545 9.22785 17.4142C9.45313 17.2834 9.61344 17.0719 9.67702 16.8217L10.503 13.4148C10.5332 13.265 10.617 13.1337 10.7403 13.0433C10.8635 12.9528 11.0184 12.9086 11.1788 12.9185C11.3722 12.9397 11.552 13.0425 11.6693 13.199C11.7866 13.3554 11.8295 13.5495 11.7863 13.7288L11.0684 16.6854C11.0008 16.9608 11.0578 17.259 11.2254 17.5077C11.393 17.7565 11.6559 17.9334 11.9507 17.9952C13.3213 18.2775 14.6636 18.7131 15.9501 19.2932C16.2393 19.4228 16.5642 19.4276 16.8394 19.3062C17.1146 19.1849 17.3129 18.9496 17.3823 18.6618L18.065 15.8503L18.0651 15.8502C18.0953 15.7004 18.1791 15.5692 18.3023 15.4787C18.4255 15.3881 18.5805 15.344 18.7408 15.3538C18.9343 15.3752 19.1141 15.4779 19.2313 15.6344C19.3487 15.7908 19.3916 15.985 19.3483 16.1641L18.585 19.3078L18.5851 19.308C18.5109 19.6103 18.5862 19.9385 18.7895 20.1993C18.9854 20.4542 19.285 20.6168 19.6032 20.641C21.0247 20.7527 22.3925 20.3048 23.3948 19.3997C24.3972 18.4946 24.9486 17.2093 24.9236 15.8368L24.9273 15.8365ZM19.6139 19.9527C19.5113 19.9447 19.4151 19.8916 19.353 19.8086C19.2842 19.7206 19.2587 19.6094 19.2836 19.5071L20.0469 16.3634L20.0471 16.3633C20.1377 15.9892 20.049 15.5839 19.8051 15.2566C19.5611 14.9292 19.1868 14.7131 18.7828 14.6667C18.455 14.638 18.1351 14.7201 17.8777 14.8989C17.6205 15.0776 17.4419 15.342 17.3728 15.6465L16.6901 18.458L16.6902 18.4581C16.6675 18.5547 16.6009 18.6335 16.5083 18.6734C16.4179 18.7136 16.3108 18.7116 16.2161 18.6678C14.8779 18.0657 13.4817 17.6133 12.0566 17.32C11.9608 17.3006 11.8753 17.2432 11.8211 17.1623C11.7643 17.0788 11.7449 16.9784 11.7679 16.8858L12.4858 13.9292L12.4857 13.929C12.5764 13.5551 12.4877 13.1497 12.2437 12.8223C11.9997 12.4949 11.6255 12.2789 11.2215 12.2326C10.8937 12.2039 10.5737 12.286 10.3164 12.4648C10.0592 12.6435 9.88056 12.9079 9.81147 13.2123L8.9846 16.6178C8.93983 16.7939 8.75835 16.8967 8.56998 16.8523C7.45527 16.619 6.4413 15.9993 5.72435 15.1131C5.00725 14.227 4.63803 13.1374 4.68814 12.0552C4.73825 10.973 5.20422 9.97514 5.99565 9.25471L6.05707 9.19858C6.09796 9.16126 6.13935 9.12475 6.18235 9.09082L6.18248 9.09075C6.29741 8.99271 6.47069 8.98419 6.60845 9.06972C6.74613 9.15511 6.81539 9.31432 6.77863 9.46081L6.30927 11.3948C6.21662 11.7691 6.30561 12.1755 6.55177 12.5023C6.79811 12.8318 7.17622 13.0479 7.58318 13.0922C7.90901 13.1223 8.22752 13.0413 8.48303 12.8634C8.73878 12.6854 8.91516 12.4219 8.98174 12.1186L9.87607 8.42662C9.91276 8.27018 10.0598 8.1676 10.2285 8.18072C11.723 8.3172 13.2118 8.57246 14.6796 8.94407C14.7731 8.96986 14.8545 9.03031 14.9057 9.11174C14.9567 9.19325 14.9732 9.28894 14.9512 9.37733L13.8701 13.8302C13.779 14.2058 13.8687 14.6129 14.1148 14.9408C14.3611 15.2689 14.7383 15.4839 15.1441 15.5275C15.4699 15.5576 15.7883 15.4767 16.044 15.2987C16.2996 15.1208 16.476 14.8572 16.5425 14.554L17.5912 10.2351C17.6137 10.1406 17.677 10.0624 17.7659 10.0197C17.8494 9.97796 17.9502 9.97459 18.0422 10.0102C19.2878 10.489 20.5015 11.0531 21.6741 11.6977L21.7407 11.7353L21.7407 11.7354C21.8803 11.8189 21.9507 11.9791 21.9124 12.1257L21.1796 15.1436C21.091 15.4975 21.1543 15.8807 21.3555 16.2088C21.4973 16.4387 21.7056 16.6259 21.9526 16.7452C22.317 16.9222 22.7323 16.9422 23.0902 16.7999C23.4482 16.6576 23.7133 16.367 23.8167 16.004L23.9696 15.7309C23.9943 15.6785 24.057 15.6552 24.1153 15.6767C24.1749 15.6894 24.218 15.7428 24.2155 15.8007C24.2372 16.9874 23.76 18.0987 22.8931 18.881C22.026 19.6634 20.843 20.05 19.6139 19.9527L19.6139 19.9527Z" stroke="white" stroke-width="0.14" mask="url(#path-15-outside-2_1604_22111)"/>
<path d="M15.36 17.7809L15.549 18.0851C15.6629 18.2682 15.9043 18.3397 16.0894 18.2404C16.2745 18.1412 16.3285 17.9112 16.2147 17.728L16.0257 17.4239C15.9118 17.2407 15.6704 17.1692 15.4853 17.2685C15.3002 17.3677 15.2461 17.5977 15.36 17.7809Z" fill="white" stroke="white" stroke-width="0.07"/>
<path d="M13.6808 16.247L13.4917 15.9428C13.3779 15.7597 13.1364 15.6882 12.9513 15.7874C12.7663 15.8867 12.7122 16.1167 12.826 16.2998L13.0151 16.604C13.1289 16.7871 13.3704 16.8586 13.5555 16.7594C13.7405 16.6601 13.7946 16.4301 13.6808 16.247Z" fill="white" stroke="white" stroke-width="0.07"/>
<path d="M13.2266 11.6217L13.0375 11.3176C12.9237 11.1344 12.6822 11.0629 12.4971 11.1622C12.312 11.2614 12.258 11.4914 12.3718 11.6746L12.5609 11.9787C12.6747 12.1619 12.9162 12.2334 13.1012 12.1341C13.2863 12.0349 13.3404 11.8049 13.2266 11.6217Z" fill="white" stroke="white" stroke-width="0.07"/>
<path d="M8.09983 15.1823L8.28889 15.4864C8.40272 15.6696 8.64419 15.7411 8.82927 15.6418C9.01434 15.5426 9.06841 15.3126 8.95458 15.1294L8.76552 14.8252C8.65169 14.6421 8.41022 14.5706 8.22515 14.6699C8.04007 14.7691 7.986 14.9991 8.09983 15.1823Z" fill="white" stroke="white" stroke-width="0.07"/>
<path d="M20.2973 13.9153L20.1083 13.6111C19.9945 13.428 19.753 13.3565 19.5679 13.4557C19.3828 13.555 19.3288 13.785 19.4426 13.9681L19.6317 14.2723C19.7455 14.4554 19.987 14.527 20.172 14.4277C20.3571 14.3285 20.4112 14.0984 20.2973 13.9153Z" fill="white" stroke="white" stroke-width="0.07"/>
<path d="M19.2756 11.6229L19.0866 11.3188C18.9727 11.1356 18.7313 11.0641 18.5462 11.1634C18.3611 11.2626 18.307 11.4926 18.4209 11.6758L18.6099 11.98C18.7238 12.1631 18.9652 12.2346 19.1503 12.1353C19.3354 12.0361 19.3895 11.8061 19.2756 11.6229Z" fill="white" stroke="white" stroke-width="0.07"/>
<path d="M20.8169 18.0616C20.7282 18.1091 20.6655 18.1902 20.6422 18.2863C20.6189 18.3824 20.6369 18.4858 20.6916 18.574L20.8807 18.8781C20.9945 19.0613 21.236 19.1328 21.4211 19.0335C21.6061 18.9343 21.6602 18.7043 21.5464 18.5211L21.3573 18.217C21.3025 18.1288 21.2151 18.0627 21.1139 18.0333C21.0126 18.004 20.9056 18.014 20.8169 18.0616Z" fill="white" stroke="white" stroke-width="0.07"/>
<path d="M11.2211 9.04481L11.032 8.74064C10.9182 8.5575 10.6767 8.48599 10.4916 8.58524C10.3065 8.6845 10.2525 8.91451 10.3663 9.09765L10.5554 9.40182C10.6692 9.58496 10.9107 9.65647 11.0957 9.55722C11.2808 9.45796 11.3349 9.22796 11.2211 9.04481Z" fill="white" stroke="white" stroke-width="0.07"/>
<path d="M13.9817 9.59291L13.7926 9.28874C13.6788 9.1056 13.4373 9.03409 13.2522 9.13334C13.0672 9.2326 13.0131 9.4626 13.1269 9.64574L13.316 9.94992C13.4298 10.1331 13.6713 10.2046 13.8564 10.1053C14.0414 10.0061 14.0955 9.77605 13.9817 9.59291Z" fill="white" stroke="white" stroke-width="0.07"/>
<path d="M5.89086 11.4983L5.7018 11.1941C5.58797 11.011 5.3465 10.9395 5.16143 11.0388C4.97635 11.138 4.92228 11.368 5.03611 11.5511L5.22517 11.8553C5.339 12.0385 5.58047 12.11 5.76555 12.0107C5.95062 11.9115 6.00469 11.6815 5.89086 11.4983Z" fill="white" stroke="white" stroke-width="0.07"/>
<path d="M6.61159 13.9527C6.49776 13.7695 6.25629 13.698 6.07122 13.7973C5.88614 13.8966 5.83207 14.1266 5.9459 14.3097L6.13496 14.6139C6.24879 14.797 6.49026 14.8685 6.67534 14.7693C6.86041 14.67 6.91448 14.44 6.80065 14.2569L6.61159 13.9527Z" fill="white" stroke="white" stroke-width="0.07"/>
<path d="M88.0165 10.0839C87.2746 12.567 87.1639 15.1316 87.6937 17.5681L87.6937 17.5682C88.0089 19.0075 87.6827 20.5515 86.7861 21.8591C85.8895 23.1667 84.4966 24.1299 82.9149 24.5364C81.3333 24.9427 79.6935 24.7588 78.3568 24.0266L78.2918 23.991L78.2918 23.9909L78.2837 23.9865C76.955 23.2627 76.0334 22.0537 75.7214 20.6249L75.7214 20.6248C74.8126 16.4905 74.9998 12.1343 76.2674 7.91866L76.2674 7.91862C76.7037 6.46083 77.734 5.17743 79.1315 4.35125L79.1316 4.35115L79.209 4.30489L88.0165 10.0839ZM88.0165 10.0839L88.0155 10.0835C88.4561 8.61509 88.2615 7.09126 87.4758 5.84802L87.5071 5.83097L87.4758 5.84802C86.6903 4.60466 85.3779 3.74309 83.8274 3.45341C82.277 3.1636 80.6153 3.4696 79.2091 4.30483L88.0165 10.0839ZM82.713 2.60269C81.3615 2.60491 80.0095 2.97954 78.8269 3.67894L78.8267 3.6789L78.8144 3.68617L78.7366 3.73219L78.6985 3.75474L78.6987 3.75496C78.2425 4.02903 77.8174 4.34817 77.4316 4.70637L77.4315 4.70639C76.5094 5.56394 75.8402 6.62296 75.4976 7.76714C74.1951 12.0986 74.0022 16.5744 74.9356 20.8233C75.2887 22.4427 76.3338 23.8138 77.8411 24.6347L77.8411 24.6348L77.8868 24.6596L77.9144 24.6747C79.0442 25.2937 80.3738 25.5712 81.734 25.4725L81.7312 25.4389L81.734 25.4725C83.094 25.3737 84.4238 24.9033 85.5549 24.1211C86.6861 23.339 87.5678 22.28 88.0883 21.0784C88.6089 19.8768 88.7451 18.5863 88.4789 17.3704C87.9735 15.0477 88.0787 12.602 88.7865 10.2335C89.1581 8.99475 89.1332 7.70997 88.7142 6.54225C88.2951 5.37441 87.501 4.37644 86.4323 3.67502C85.3637 2.97349 84.0692 2.60047 82.713 2.60269ZM78.2653 24.0155C76.9276 23.2868 75.9998 22.0696 75.6859 20.6316C74.7759 16.4918 74.9633 12.1302 76.2324 7.9096L78.2653 24.0155Z" fill="white" stroke="white" stroke-width="0.07"/>
<mask id="path-28-outside-3_1604_22111" maskUnits="userSpaceOnUse" x="68.6346" y="1.31494" width="27.8417" height="25.8619" fill="black">
<rect fill="white" x="68.6346" y="1.31494" width="27.8417" height="25.8619"/>
<path d="M81.0927 4.18594C80.8412 4.25364 80.6266 4.42017 80.5076 4.63972C80.3885 4.85947 80.3773 5.10927 80.4771 5.32111C80.5769 5.53294 80.7773 5.6847 81.0233 5.73465L81.3875 5.80919L81.3877 5.80908C81.417 5.81544 81.4473 5.81815 81.4779 5.81701C81.6766 5.80974 81.8614 5.8853 81.9817 6.02298C82.102 6.16067 82.1453 6.34627 82.0999 6.52878C82.056 6.67598 81.96 6.80883 81.8278 6.90456C81.6956 7.00031 81.5354 7.05333 81.3743 7.05454L78.0464 7.17816L78.0466 7.17815C77.7552 7.18834 77.4709 7.30582 77.2562 7.50463C77.1173 7.63343 77.0151 7.79184 76.9599 7.96333L76.9343 8.04532C76.5573 9.29672 76.2774 10.5648 76.0968 11.8394C76.0578 12.1206 76.1466 12.3946 76.3418 12.5948C76.5407 12.7985 76.8294 12.9081 77.1377 12.8968L81.9003 12.7199C82.0618 12.7093 82.2179 12.7504 82.3423 12.8367C82.4666 12.9229 82.5515 13.0488 82.5828 13.1932C82.6126 13.3731 82.5532 13.5624 82.4207 13.7095C82.2881 13.8566 82.0963 13.9462 81.8975 13.9536L76.9873 14.136C76.6897 14.1485 76.4004 14.2712 76.1843 14.477C75.9714 14.6793 75.8505 14.9475 75.8498 15.2188C75.8434 16.6694 75.9665 18.1082 76.2178 19.5209C76.2601 19.747 76.3863 19.9465 76.5752 20.0858C76.7641 20.2251 77.0044 20.2957 77.2554 20.2859L81.3255 20.1347C81.4871 20.124 81.6431 20.1653 81.7674 20.2515C81.8918 20.3377 81.9767 20.4636 82.008 20.608C82.0378 20.7879 81.9784 20.9772 81.8459 21.1243C81.7133 21.2714 81.5214 21.361 81.3227 21.3684L79.1901 21.4475C78.8756 21.4595 78.5711 21.5966 78.3541 21.8239C78.1373 22.0513 78.0292 22.3469 78.0575 22.6352C78.0859 22.9234 78.2478 23.1763 78.5021 23.3293C78.5574 23.3627 78.6138 23.3949 78.6717 23.4267L78.7465 23.4674C79.8498 24.0729 81.1892 24.2575 82.5057 23.9857C83.822 23.7139 85.0219 23.0048 85.873 21.9957C86.7243 20.9866 87.1663 19.7492 87.1138 18.5229C87.1041 18.2672 86.9909 18.032 86.7966 17.8638C86.6023 17.6955 86.3409 17.6064 86.0643 17.6141L82.3077 17.7548C82.1441 17.7664 81.9859 17.7252 81.86 17.638C81.734 17.5509 81.648 17.4233 81.6167 17.2769C81.5887 17.0979 81.6491 16.9099 81.7815 16.7642C81.9138 16.6184 82.1044 16.5297 82.3021 16.5221L85.5624 16.401C85.8662 16.3903 86.1616 16.262 86.3768 16.0473C86.5922 15.8325 86.7081 15.5508 86.6961 15.2703C86.6349 13.9675 86.7404 12.6504 87.0106 11.346C87.0706 11.0529 86.9915 10.7603 86.7941 10.5447C86.5966 10.3292 86.3006 10.2122 85.9834 10.2244L82.8832 10.3395L82.883 10.3394C82.7194 10.3512 82.5613 10.3099 82.4352 10.2228C82.3092 10.1356 82.2232 10.0081 82.1919 9.86164C82.1641 9.68249 82.2244 9.49464 82.3567 9.34893C82.489 9.20313 82.6798 9.11436 82.8773 9.10682L86.3439 8.97804L86.3441 8.97793C86.6776 8.96629 86.9994 8.81378 87.218 8.5638C87.4324 8.32209 87.5239 8.01116 87.4667 7.71946C87.215 6.41514 86.3952 5.30383 85.1946 4.63876C83.9939 3.9736 82.5147 3.81153 81.094 4.18921L81.0927 4.18594ZM86.7483 7.88798C86.7664 7.98208 86.7361 8.08213 86.666 8.15939C86.5922 8.24392 86.4832 8.29557 86.3703 8.29965L82.9037 8.42843L82.9036 8.42833C82.4911 8.44387 82.0926 8.6283 81.8154 8.93188C81.5381 9.23556 81.4102 9.62729 81.4666 10.0018C81.5216 10.3033 81.6898 10.5692 81.9423 10.7538C82.1947 10.9383 82.5159 11.0301 82.8503 11.0133L85.9506 10.8982L85.9507 10.8981C86.0571 10.8935 86.1563 10.9328 86.2217 11.0056C86.2869 11.0763 86.3125 11.1729 86.2915 11.2692C86.0117 12.6257 85.9027 13.9955 85.9665 15.35C85.9711 15.441 85.9336 15.5326 85.8635 15.6022C85.7914 15.6747 85.6919 15.7182 85.5898 15.7215L82.3294 15.8426L82.3293 15.8428C81.9169 15.8582 81.5184 16.0426 81.2411 16.3463C80.9638 16.65 80.836 17.0416 80.8924 17.4161C80.9474 17.7176 81.1156 17.9835 81.3681 18.1681C81.6205 18.3526 81.9417 18.4444 82.2761 18.4276L86.0314 18.2881C86.2262 18.2827 86.38 18.419 86.3825 18.5995C86.4285 19.66 86.0465 20.7302 85.3105 21.6028C84.5747 22.4756 83.5372 23.0888 82.3989 23.324C81.2606 23.5591 80.1023 23.3993 79.1483 22.8756L79.0741 22.8351C79.0247 22.808 78.976 22.7803 78.9296 22.7505L78.9295 22.7504C78.7978 22.6727 78.7441 22.5194 78.7974 22.3737C78.8505 22.2281 78.9982 22.1247 79.16 22.1198L81.2926 22.0404C81.7058 22.0266 82.1053 21.8416 82.3815 21.5361C82.6603 21.2298 82.7873 20.8346 82.7279 20.458C82.6749 20.1579 82.5083 19.8931 82.2571 19.7099C82.0059 19.5265 81.6861 19.4364 81.3536 19.4552L77.2829 19.6083C77.1107 19.6159 76.966 19.5105 76.936 19.3557C76.6911 17.9795 76.5712 16.5776 76.5777 15.1645C76.5804 15.0739 76.6221 14.9852 76.6936 14.9182C76.7651 14.8513 76.8604 14.8118 76.958 14.8086L81.8682 14.6262C82.2824 14.6107 82.6824 14.4248 82.9597 14.1191C83.2372 13.8133 83.3632 13.4192 83.3034 13.0438C83.2504 12.7436 83.0839 12.4789 82.8326 12.2956C82.5815 12.1123 82.2618 12.0223 81.9292 12.041L77.1666 12.2179C77.0626 12.2222 76.9649 12.1856 76.8974 12.117C76.8325 12.0528 76.8028 11.9632 76.8161 11.8715C76.9916 10.63 77.264 9.39499 77.6308 8.1761L77.6527 8.1066L77.6528 8.10649C77.7035 7.95968 77.8519 7.85502 78.0143 7.85145L81.3421 7.72782C81.733 7.71575 82.1152 7.5598 82.4043 7.29436C82.6067 7.10761 82.7474 6.87226 82.8075 6.61977C82.8973 6.24702 82.8106 5.8692 82.57 5.58488C82.3293 5.30055 81.9586 5.13788 81.5543 5.13904L81.2308 5.07258C81.1699 5.06398 81.1294 5.01373 81.1366 4.95585C81.1345 4.89906 81.1788 4.84662 81.2397 4.83393C82.4681 4.50725 83.7472 4.64781 84.7851 5.22316C85.823 5.79861 86.5313 6.76001 86.7482 7.88796L86.7483 7.88798Z"/>
</mask>
<path d="M81.0927 4.18594C80.8412 4.25364 80.6266 4.42017 80.5076 4.63972C80.3885 4.85947 80.3773 5.10927 80.4771 5.32111C80.5769 5.53294 80.7773 5.6847 81.0233 5.73465L81.3875 5.80919L81.3877 5.80908C81.417 5.81544 81.4473 5.81815 81.4779 5.81701C81.6766 5.80974 81.8614 5.8853 81.9817 6.02298C82.102 6.16067 82.1453 6.34627 82.0999 6.52878C82.056 6.67598 81.96 6.80883 81.8278 6.90456C81.6956 7.00031 81.5354 7.05333 81.3743 7.05454L78.0464 7.17816L78.0466 7.17815C77.7552 7.18834 77.4709 7.30582 77.2562 7.50463C77.1173 7.63343 77.0151 7.79184 76.9599 7.96333L76.9343 8.04532C76.5573 9.29672 76.2774 10.5648 76.0968 11.8394C76.0578 12.1206 76.1466 12.3946 76.3418 12.5948C76.5407 12.7985 76.8294 12.9081 77.1377 12.8968L81.9003 12.7199C82.0618 12.7093 82.2179 12.7504 82.3423 12.8367C82.4666 12.9229 82.5515 13.0488 82.5828 13.1932C82.6126 13.3731 82.5532 13.5624 82.4207 13.7095C82.2881 13.8566 82.0963 13.9462 81.8975 13.9536L76.9873 14.136C76.6897 14.1485 76.4004 14.2712 76.1843 14.477C75.9714 14.6793 75.8505 14.9475 75.8498 15.2188C75.8434 16.6694 75.9665 18.1082 76.2178 19.5209C76.2601 19.747 76.3863 19.9465 76.5752 20.0858C76.7641 20.2251 77.0044 20.2957 77.2554 20.2859L81.3255 20.1347C81.4871 20.124 81.6431 20.1653 81.7674 20.2515C81.8918 20.3377 81.9767 20.4636 82.008 20.608C82.0378 20.7879 81.9784 20.9772 81.8459 21.1243C81.7133 21.2714 81.5214 21.361 81.3227 21.3684L79.1901 21.4475C78.8756 21.4595 78.5711 21.5966 78.3541 21.8239C78.1373 22.0513 78.0292 22.3469 78.0575 22.6352C78.0859 22.9234 78.2478 23.1763 78.5021 23.3293C78.5574 23.3627 78.6138 23.3949 78.6717 23.4267L78.7465 23.4674C79.8498 24.0729 81.1892 24.2575 82.5057 23.9857C83.822 23.7139 85.0219 23.0048 85.873 21.9957C86.7243 20.9866 87.1663 19.7492 87.1138 18.5229C87.1041 18.2672 86.9909 18.032 86.7966 17.8638C86.6023 17.6955 86.3409 17.6064 86.0643 17.6141L82.3077 17.7548C82.1441 17.7664 81.9859 17.7252 81.86 17.638C81.734 17.5509 81.648 17.4233 81.6167 17.2769C81.5887 17.0979 81.6491 16.9099 81.7815 16.7642C81.9138 16.6184 82.1044 16.5297 82.3021 16.5221L85.5624 16.401C85.8662 16.3903 86.1616 16.262 86.3768 16.0473C86.5922 15.8325 86.7081 15.5508 86.6961 15.2703C86.6349 13.9675 86.7404 12.6504 87.0106 11.346C87.0706 11.0529 86.9915 10.7603 86.7941 10.5447C86.5966 10.3292 86.3006 10.2122 85.9834 10.2244L82.8832 10.3395L82.883 10.3394C82.7194 10.3512 82.5613 10.3099 82.4352 10.2228C82.3092 10.1356 82.2232 10.0081 82.1919 9.86164C82.1641 9.68249 82.2244 9.49464 82.3567 9.34893C82.489 9.20313 82.6798 9.11436 82.8773 9.10682L86.3439 8.97804L86.3441 8.97793C86.6776 8.96629 86.9994 8.81378 87.218 8.5638C87.4324 8.32209 87.5239 8.01116 87.4667 7.71946C87.215 6.41514 86.3952 5.30383 85.1946 4.63876C83.9939 3.9736 82.5147 3.81153 81.094 4.18921L81.0927 4.18594ZM86.7483 7.88798C86.7664 7.98208 86.7361 8.08213 86.666 8.15939C86.5922 8.24392 86.4832 8.29557 86.3703 8.29965L82.9037 8.42843L82.9036 8.42833C82.4911 8.44387 82.0926 8.6283 81.8154 8.93188C81.5381 9.23556 81.4102 9.62729 81.4666 10.0018C81.5216 10.3033 81.6898 10.5692 81.9423 10.7538C82.1947 10.9383 82.5159 11.0301 82.8503 11.0133L85.9506 10.8982L85.9507 10.8981C86.0571 10.8935 86.1563 10.9328 86.2217 11.0056C86.2869 11.0763 86.3125 11.1729 86.2915 11.2692C86.0117 12.6257 85.9027 13.9955 85.9665 15.35C85.9711 15.441 85.9336 15.5326 85.8635 15.6022C85.7914 15.6747 85.6919 15.7182 85.5898 15.7215L82.3294 15.8426L82.3293 15.8428C81.9169 15.8582 81.5184 16.0426 81.2411 16.3463C80.9638 16.65 80.836 17.0416 80.8924 17.4161C80.9474 17.7176 81.1156 17.9835 81.3681 18.1681C81.6205 18.3526 81.9417 18.4444 82.2761 18.4276L86.0314 18.2881C86.2262 18.2827 86.38 18.419 86.3825 18.5995C86.4285 19.66 86.0465 20.7302 85.3105 21.6028C84.5747 22.4756 83.5372 23.0888 82.3989 23.324C81.2606 23.5591 80.1023 23.3993 79.1483 22.8756L79.0741 22.8351C79.0247 22.808 78.976 22.7803 78.9296 22.7505L78.9295 22.7504C78.7978 22.6727 78.7441 22.5194 78.7974 22.3737C78.8505 22.2281 78.9982 22.1247 79.16 22.1198L81.2926 22.0404C81.7058 22.0266 82.1053 21.8416 82.3815 21.5361C82.6603 21.2298 82.7873 20.8346 82.7279 20.458C82.6749 20.1579 82.5083 19.8931 82.2571 19.7099C82.0059 19.5265 81.6861 19.4364 81.3536 19.4552L77.2829 19.6083C77.1107 19.6159 76.966 19.5105 76.936 19.3557C76.6911 17.9795 76.5712 16.5776 76.5777 15.1645C76.5804 15.0739 76.6221 14.9852 76.6936 14.9182C76.7651 14.8513 76.8604 14.8118 76.958 14.8086L81.8682 14.6262C82.2824 14.6107 82.6824 14.4248 82.9597 14.1191C83.2372 13.8133 83.3632 13.4192 83.3034 13.0438C83.2504 12.7436 83.0839 12.4789 82.8326 12.2956C82.5815 12.1123 82.2618 12.0223 81.9292 12.041L77.1666 12.2179C77.0626 12.2222 76.9649 12.1856 76.8974 12.117C76.8325 12.0528 76.8028 11.9632 76.8161 11.8715C76.9916 10.63 77.264 9.39499 77.6308 8.1761L77.6527 8.1066L77.6528 8.10649C77.7035 7.95968 77.8519 7.85502 78.0143 7.85145L81.3421 7.72782C81.733 7.71575 82.1152 7.5598 82.4043 7.29436C82.6067 7.10761 82.7474 6.87226 82.8075 6.61977C82.8973 6.24702 82.8106 5.8692 82.57 5.58488C82.3293 5.30055 81.9586 5.13788 81.5543 5.13904L81.2308 5.07258C81.1699 5.06398 81.1294 5.01373 81.1366 4.95585C81.1345 4.89906 81.1788 4.84662 81.2397 4.83393C82.4681 4.50725 83.7472 4.64781 84.7851 5.22316C85.823 5.79861 86.5313 6.76001 86.7482 7.88796L86.7483 7.88798Z" fill="white"/>
<path d="M81.0927 4.18594C80.8412 4.25364 80.6266 4.42017 80.5076 4.63972C80.3885 4.85947 80.3773 5.10927 80.4771 5.32111C80.5769 5.53294 80.7773 5.6847 81.0233 5.73465L81.3875 5.80919L81.3877 5.80908C81.417 5.81544 81.4473 5.81815 81.4779 5.81701C81.6766 5.80974 81.8614 5.8853 81.9817 6.02298C82.102 6.16067 82.1453 6.34627 82.0999 6.52878C82.056 6.67598 81.96 6.80883 81.8278 6.90456C81.6956 7.00031 81.5354 7.05333 81.3743 7.05454L78.0464 7.17816L78.0466 7.17815C77.7552 7.18834 77.4709 7.30582 77.2562 7.50463C77.1173 7.63343 77.0151 7.79184 76.9599 7.96333L76.9343 8.04532C76.5573 9.29672 76.2774 10.5648 76.0968 11.8394C76.0578 12.1206 76.1466 12.3946 76.3418 12.5948C76.5407 12.7985 76.8294 12.9081 77.1377 12.8968L81.9003 12.7199C82.0618 12.7093 82.2179 12.7504 82.3423 12.8367C82.4666 12.9229 82.5515 13.0488 82.5828 13.1932C82.6126 13.3731 82.5532 13.5624 82.4207 13.7095C82.2881 13.8566 82.0963 13.9462 81.8975 13.9536L76.9873 14.136C76.6897 14.1485 76.4004 14.2712 76.1843 14.477C75.9714 14.6793 75.8505 14.9475 75.8498 15.2188C75.8434 16.6694 75.9665 18.1082 76.2178 19.5209C76.2601 19.747 76.3863 19.9465 76.5752 20.0858C76.7641 20.2251 77.0044 20.2957 77.2554 20.2859L81.3255 20.1347C81.4871 20.124 81.6431 20.1653 81.7674 20.2515C81.8918 20.3377 81.9767 20.4636 82.008 20.608C82.0378 20.7879 81.9784 20.9772 81.8459 21.1243C81.7133 21.2714 81.5214 21.361 81.3227 21.3684L79.1901 21.4475C78.8756 21.4595 78.5711 21.5966 78.3541 21.8239C78.1373 22.0513 78.0292 22.3469 78.0575 22.6352C78.0859 22.9234 78.2478 23.1763 78.5021 23.3293C78.5574 23.3627 78.6138 23.3949 78.6717 23.4267L78.7465 23.4674C79.8498 24.0729 81.1892 24.2575 82.5057 23.9857C83.822 23.7139 85.0219 23.0048 85.873 21.9957C86.7243 20.9866 87.1663 19.7492 87.1138 18.5229C87.1041 18.2672 86.9909 18.032 86.7966 17.8638C86.6023 17.6955 86.3409 17.6064 86.0643 17.6141L82.3077 17.7548C82.1441 17.7664 81.9859 17.7252 81.86 17.638C81.734 17.5509 81.648 17.4233 81.6167 17.2769C81.5887 17.0979 81.6491 16.9099 81.7815 16.7642C81.9138 16.6184 82.1044 16.5297 82.3021 16.5221L85.5624 16.401C85.8662 16.3903 86.1616 16.262 86.3768 16.0473C86.5922 15.8325 86.7081 15.5508 86.6961 15.2703C86.6349 13.9675 86.7404 12.6504 87.0106 11.346C87.0706 11.0529 86.9915 10.7603 86.7941 10.5447C86.5966 10.3292 86.3006 10.2122 85.9834 10.2244L82.8832 10.3395L82.883 10.3394C82.7194 10.3512 82.5613 10.3099 82.4352 10.2228C82.3092 10.1356 82.2232 10.0081 82.1919 9.86164C82.1641 9.68249 82.2244 9.49464 82.3567 9.34893C82.489 9.20313 82.6798 9.11436 82.8773 9.10682L86.3439 8.97804L86.3441 8.97793C86.6776 8.96629 86.9994 8.81378 87.218 8.5638C87.4324 8.32209 87.5239 8.01116 87.4667 7.71946C87.215 6.41514 86.3952 5.30383 85.1946 4.63876C83.9939 3.9736 82.5147 3.81153 81.094 4.18921L81.0927 4.18594ZM86.7483 7.88798C86.7664 7.98208 86.7361 8.08213 86.666 8.15939C86.5922 8.24392 86.4832 8.29557 86.3703 8.29965L82.9037 8.42843L82.9036 8.42833C82.4911 8.44387 82.0926 8.6283 81.8154 8.93188C81.5381 9.23556 81.4102 9.62729 81.4666 10.0018C81.5216 10.3033 81.6898 10.5692 81.9423 10.7538C82.1947 10.9383 82.5159 11.0301 82.8503 11.0133L85.9506 10.8982L85.9507 10.8981C86.0571 10.8935 86.1563 10.9328 86.2217 11.0056C86.2869 11.0763 86.3125 11.1729 86.2915 11.2692C86.0117 12.6257 85.9027 13.9955 85.9665 15.35C85.9711 15.441 85.9336 15.5326 85.8635 15.6022C85.7914 15.6747 85.6919 15.7182 85.5898 15.7215L82.3294 15.8426L82.3293 15.8428C81.9169 15.8582 81.5184 16.0426 81.2411 16.3463C80.9638 16.65 80.836 17.0416 80.8924 17.4161C80.9474 17.7176 81.1156 17.9835 81.3681 18.1681C81.6205 18.3526 81.9417 18.4444 82.2761 18.4276L86.0314 18.2881C86.2262 18.2827 86.38 18.419 86.3825 18.5995C86.4285 19.66 86.0465 20.7302 85.3105 21.6028C84.5747 22.4756 83.5372 23.0888 82.3989 23.324C81.2606 23.5591 80.1023 23.3993 79.1483 22.8756L79.0741 22.8351C79.0247 22.808 78.976 22.7803 78.9296 22.7505L78.9295 22.7504C78.7978 22.6727 78.7441 22.5194 78.7974 22.3737C78.8505 22.2281 78.9982 22.1247 79.16 22.1198L81.2926 22.0404C81.7058 22.0266 82.1053 21.8416 82.3815 21.5361C82.6603 21.2298 82.7873 20.8346 82.7279 20.458C82.6749 20.1579 82.5083 19.8931 82.2571 19.7099C82.0059 19.5265 81.6861 19.4364 81.3536 19.4552L77.2829 19.6083C77.1107 19.6159 76.966 19.5105 76.936 19.3557C76.6911 17.9795 76.5712 16.5776 76.5777 15.1645C76.5804 15.0739 76.6221 14.9852 76.6936 14.9182C76.7651 14.8513 76.8604 14.8118 76.958 14.8086L81.8682 14.6262C82.2824 14.6107 82.6824 14.4248 82.9597 14.1191C83.2372 13.8133 83.3632 13.4192 83.3034 13.0438C83.2504 12.7436 83.0839 12.4789 82.8326 12.2956C82.5815 12.1123 82.2618 12.0223 81.9292 12.041L77.1666 12.2179C77.0626 12.2222 76.9649 12.1856 76.8974 12.117C76.8325 12.0528 76.8028 11.9632 76.8161 11.8715C76.9916 10.63 77.264 9.39499 77.6308 8.1761L77.6527 8.1066L77.6528 8.10649C77.7035 7.95968 77.8519 7.85502 78.0143 7.85145L81.3421 7.72782C81.733 7.71575 82.1152 7.5598 82.4043 7.29436C82.6067 7.10761 82.7474 6.87226 82.8075 6.61977C82.8973 6.24702 82.8106 5.8692 82.57 5.58488C82.3293 5.30055 81.9586 5.13788 81.5543 5.13904L81.2308 5.07258C81.1699 5.06398 81.1294 5.01373 81.1366 4.95585C81.1345 4.89906 81.1788 4.84662 81.2397 4.83393C82.4681 4.50725 83.7472 4.64781 84.7851 5.22316C85.823 5.79861 86.5313 6.76001 86.7482 7.88796L86.7483 7.88798Z" stroke="white" stroke-width="0.14" mask="url(#path-28-outside-3_1604_22111)"/>
<path d="M85.5916 12.2674L85.8591 12.0189C86.019 11.8703 86.0321 11.635 85.8797 11.4934C85.7273 11.3518 85.4739 11.364 85.314 11.5125L85.0465 11.761C84.8866 11.9095 84.8735 12.1449 85.0259 12.2865C85.1783 12.428 85.4317 12.4159 85.5916 12.2674Z" fill="white" stroke="white" stroke-width="0.07"/>
<path d="M84.4294 14.1697L84.1619 14.4182C84.002 14.5667 83.989 14.8021 84.1414 14.9437C84.2938 15.0853 84.5472 15.0731 84.7071 14.9246L84.9746 14.6761C85.1345 14.5276 85.1476 14.2922 84.9951 14.1506C84.8427 14.009 84.5894 14.0212 84.4294 14.1697Z" fill="white" stroke="white" stroke-width="0.07"/>
<path d="M79.7374 15.7745L79.4699 16.0229C79.31 16.1715 79.2969 16.4068 79.4494 16.5484C79.6018 16.69 79.8552 16.6779 80.0151 16.5293L80.2826 16.2808C80.4425 16.1323 80.4555 15.8969 80.3031 15.7554C80.1507 15.6138 79.8973 15.6259 79.7374 15.7745Z" fill="white" stroke="white" stroke-width="0.07"/>
<path d="M84.7679 19.4545L85.0354 19.206C85.1953 19.0575 85.2084 18.8221 85.0559 18.6805C84.9035 18.539 84.6501 18.5511 84.4902 18.6996L84.2227 18.9481C84.0628 19.0967 84.0497 19.332 84.2022 19.4736C84.3546 19.6152 84.608 19.603 84.7679 19.4545Z" fill="white" stroke="white" stroke-width="0.07"/>
<path d="M80.292 8.83662L80.0245 9.08509C79.8646 9.23363 79.8515 9.46899 80.0039 9.61057C80.1563 9.75214 80.4097 9.73999 80.5696 9.59145L80.8371 9.34297C80.997 9.19443 81.0101 8.95907 80.8577 8.8175C80.7053 8.67593 80.4519 8.68808 80.292 8.83662Z" fill="white" stroke="white" stroke-width="0.07"/>
<path d="M78.1729 10.3465L77.9054 10.595C77.7454 10.7435 77.7324 10.9789 77.8848 11.1204C78.0372 11.262 78.2906 11.2499 78.4505 11.1013L78.718 10.8529C78.8779 10.7043 78.891 10.469 78.7386 10.3274C78.5861 10.1858 78.3328 10.198 78.1729 10.3465Z" fill="white" stroke="white" stroke-width="0.07"/>
<path d="M84.4706 7.29758C84.5436 7.36536 84.6445 7.40079 84.7506 7.39684C84.8566 7.39291 84.9592 7.35008 85.0363 7.27847L85.3038 7.02999C85.4637 6.88145 85.4768 6.64608 85.3244 6.50451C85.172 6.36293 84.9186 6.37508 84.7587 6.52362L84.4912 6.7721C84.4141 6.84371 84.368 6.93903 84.3637 7.03745C84.3595 7.13599 84.3976 7.2298 84.4706 7.29758Z" fill="white" stroke="white" stroke-width="0.07"/>
<path d="M77.5767 18.2404L77.3092 18.4889C77.1492 18.6374 77.1362 18.8728 77.2886 19.0144C77.441 19.156 77.6944 19.1438 77.8543 18.9953L78.1218 18.7468C78.2817 18.5982 78.2948 18.3629 78.1424 18.2213C77.99 18.0797 77.7366 18.0919 77.5767 18.2404Z" fill="white" stroke="white" stroke-width="0.07"/>
<path d="M77.4316 15.6216L77.1641 15.8701C77.0042 16.0187 76.9911 16.254 77.1436 16.3956C77.296 16.5372 77.5494 16.525 77.7093 16.3765L77.9768 16.128C78.1367 15.9795 78.1498 15.7441 77.9973 15.6025C77.8449 15.461 77.5915 15.4731 77.4316 15.6216Z" fill="white" stroke="white" stroke-width="0.07"/>
<path d="M81.5076 22.388L81.2401 22.6365C81.0802 22.785 81.0671 23.0204 81.2195 23.162C81.3719 23.3035 81.6253 23.2914 81.7852 23.1428L82.0527 22.8944C82.2126 22.7458 82.2257 22.5105 82.0733 22.3689C81.9209 22.2273 81.6675 22.2395 81.5076 22.388Z" fill="white" stroke="white" stroke-width="0.07"/>
<path d="M83.8732 21.1064C83.7133 21.255 83.7003 21.4903 83.8527 21.6319C84.0051 21.7735 84.2585 21.7614 84.4184 21.6128L84.6859 21.3643C84.8458 21.2158 84.8589 20.9804 84.7065 20.8389C84.554 20.6973 84.3007 20.7094 84.1407 20.858L83.8732 21.1064Z" fill="white" stroke="white" stroke-width="0.07"/>
<path d="M150.4 7.1825L150.399 7.18305C149.25 6.09477 147.732 5.48909 146.179 5.49948L146.178 5.46949L146.179 5.49948C144.626 5.50972 143.166 6.13514 142.121 7.23789C141.075 8.34047 140.53 9.83 140.605 11.378L150.4 7.1825ZM150.4 7.1825C152.344 9.02107 154.68 10.3924 157.216 11.1844L157.216 11.1844C158.716 11.6506 159.992 12.685 160.762 14.0593C161.533 15.4336 161.734 17.0349 161.322 18.51C160.911 19.985 159.919 21.2125 158.568 21.9222C158.568 21.9222 158.568 21.9222 158.568 21.9222L158.501 21.957L158.501 21.957L158.494 21.9609C157.154 22.6683 155.565 22.8052 154.076 22.3416L154.076 22.3416C149.767 21.0054 145.799 18.6767 142.503 15.5494L142.503 15.5494C141.362 14.4698 140.681 13.0001 140.61 11.4636L140.61 11.4634L140.605 11.3781L150.4 7.1825ZM140.772 7.70539C140.099 8.79348 139.772 10.0685 139.833 11.3698L139.832 11.37L139.833 11.3842L139.837 11.4698L139.839 11.5136L139.839 11.5135C139.867 12.0171 139.952 12.5183 140.093 13.0074L140.093 13.0075C140.432 14.1786 141.085 15.2468 141.98 16.0948C145.367 19.3085 149.444 21.7016 153.872 23.0751C155.558 23.6006 157.358 23.4454 158.876 22.6438L158.876 22.6438L158.922 22.6195L158.95 22.6048C160.091 22.0057 161.015 21.0752 161.603 19.9316L161.571 19.9153L161.603 19.9316C162.191 18.788 162.417 17.4827 162.253 16.181C162.09 14.8794 161.543 13.6401 160.683 12.6201C159.822 11.6002 158.687 10.8455 157.421 10.4517C155.002 9.69683 152.775 8.3893 150.921 6.63586C149.951 5.71735 148.741 5.09507 147.443 4.84837C146.145 4.6017 144.818 4.74151 143.631 5.25022C142.443 5.75877 141.448 6.61331 140.772 7.70539Z" fill="white" stroke="white" stroke-width="0.07"/>
<mask id="path-41-outside-4_1604_22111" maskUnits="userSpaceOnUse" x="139.397" y="2.09306" width="23.7036" height="22.8446" fill="black">
<rect fill="white" x="139.397" y="2.09306" width="23.7036" height="22.8446"/>
<path d="M141.437 9.80221C141.375 10.0383 141.423 10.2942 141.568 10.4998C141.713 10.7054 141.94 10.8393 142.188 10.865C142.435 10.8906 142.677 10.8053 142.846 10.6323L143.098 10.3766L143.098 10.3765C143.119 10.3561 143.136 10.333 143.151 10.3079C143.243 10.1443 143.406 10.0335 143.594 10.0056C143.783 9.97764 143.978 10.0355 144.125 10.1634C144.24 10.2722 144.316 10.4159 144.339 10.5701C144.363 10.7243 144.332 10.8797 144.252 11.01L142.704 13.7489L142.704 13.7487C142.568 13.9882 142.535 14.2756 142.613 14.5478C142.664 14.7239 142.76 14.8853 142.893 15.0154L142.956 15.0771C143.934 16.006 144.977 16.8652 146.075 17.6478C146.317 17.8198 146.617 17.8853 146.902 17.8284C147.191 17.7703 147.438 17.5928 147.581 17.3391L149.797 13.4195C149.868 13.2842 149.985 13.1793 150.127 13.1223C150.27 13.0654 150.43 13.0601 150.58 13.1071C150.763 13.1731 150.909 13.3155 150.98 13.4957C151.051 13.6758 151.039 13.875 150.946 14.0386L148.661 18.0798C148.524 18.3254 148.494 18.6195 148.578 18.8962C148.66 19.1686 148.849 19.4 149.102 19.5362C150.451 20.2666 151.854 20.887 153.297 21.3912C153.529 21.4702 153.778 21.4685 154.002 21.3862C154.227 21.3039 154.413 21.1458 154.529 20.9391L156.423 17.5893C156.494 17.4539 156.61 17.3491 156.753 17.2922C156.895 17.2352 157.055 17.2299 157.206 17.2769C157.388 17.3429 157.535 17.4853 157.606 17.6655C157.677 17.8457 157.664 18.0448 157.572 18.2084L156.579 19.9634C156.433 20.2225 156.409 20.536 156.512 20.8242C156.616 21.1123 156.837 21.3471 157.12 21.4685C157.403 21.5897 157.72 21.5859 157.99 21.4578C158.049 21.4301 158.107 21.4008 158.165 21.3701L158.241 21.3303C159.357 20.7455 160.199 19.7603 160.604 18.5654C161.008 17.3706 160.947 16.0508 160.432 14.8616C159.917 13.6722 158.984 12.698 157.814 12.127C157.571 12.007 157.295 11.9805 157.041 12.0526C156.787 12.1248 156.574 12.2905 156.442 12.5169L154.695 15.6092C154.624 15.7466 154.507 15.8533 154.363 15.911C154.218 15.9688 154.056 15.9742 153.904 15.9262C153.723 15.8591 153.578 15.7166 153.509 15.5372C153.439 15.3579 153.452 15.1602 153.543 14.9974L155.06 12.3141C155.202 12.0643 155.23 11.7626 155.138 11.4821C155.045 11.2014 154.841 10.9674 154.573 10.8368C153.328 10.2346 152.153 9.49115 151.072 8.62156C150.828 8.4268 150.516 8.3441 150.216 8.39516C149.917 8.44619 149.66 8.62582 149.512 8.88707L148.07 11.4387L148.069 11.4387C147.999 11.5762 147.881 11.6828 147.737 11.7406C147.593 11.7984 147.431 11.8038 147.278 11.7558C147.098 11.6886 146.952 11.5462 146.883 11.3668C146.813 11.1875 146.826 10.9896 146.917 10.827L148.531 7.97391L148.531 7.97376C148.687 7.69963 148.705 7.36449 148.581 7.06363C148.463 6.77034 148.219 6.54122 147.919 6.44141C146.577 5.99178 145.131 6.09556 143.91 6.72884C142.69 7.36214 141.799 8.47108 141.441 9.80279L141.437 9.80221ZM147.717 7.10363C147.813 7.13604 147.891 7.21047 147.928 7.30554C147.97 7.40717 147.964 7.52065 147.911 7.61349L146.298 10.4666L146.298 10.4666C146.106 10.8062 146.079 11.219 146.223 11.5938C146.368 11.9687 146.669 12.2674 147.046 12.4093C147.355 12.5159 147.687 12.5135 147.985 12.4027C148.284 12.2919 148.53 12.0794 148.681 11.802L150.124 9.25039L150.124 9.25024C150.173 9.16239 150.259 9.10226 150.36 9.08601C150.458 9.06895 150.561 9.09662 150.641 9.16166C151.765 10.065 152.988 10.8376 154.283 11.4635C154.37 11.5053 154.436 11.5813 154.466 11.6725C154.498 11.7668 154.489 11.8685 154.441 11.9523L152.923 14.6357L152.923 14.6358C152.732 14.9752 152.704 15.3881 152.849 15.763C152.993 16.1379 153.295 16.4365 153.672 16.5784C153.981 16.6849 154.312 16.6825 154.611 16.5717C154.909 16.4609 155.155 16.2485 155.307 15.971L157.054 12.8804C157.147 12.721 157.351 12.6654 157.52 12.7536C158.532 13.2469 159.339 14.0892 159.784 15.1176C160.23 16.1459 160.283 17.2871 159.933 18.3204C159.583 19.3537 158.855 20.2055 157.89 20.7112L157.815 20.7506C157.765 20.7768 157.715 20.8021 157.664 20.8246L157.664 20.8246C157.525 20.8917 157.356 20.8582 157.246 20.7425C157.137 20.6269 157.115 20.4565 157.191 20.3238L158.183 18.5686C158.377 18.2293 158.404 17.8154 158.258 17.4405C158.111 17.0631 157.806 16.7633 157.426 16.6228C157.119 16.5154 156.789 16.517 156.493 16.6275C156.196 16.7378 155.952 16.95 155.804 17.227L153.911 20.5781C153.832 20.7204 153.661 20.7841 153.502 20.7309C152.096 20.2398 150.73 19.6353 149.415 18.9235C149.332 18.8761 149.27 18.7981 149.244 18.7071C149.217 18.6161 149.228 18.5198 149.274 18.4397L151.559 14.3985C151.751 14.0575 151.778 13.6428 151.632 13.2668C151.485 12.8908 151.181 12.5923 150.801 12.4527C150.495 12.3453 150.165 12.3469 149.868 12.4574C149.572 12.5677 149.328 12.7799 149.179 13.0568L146.963 16.9765C146.915 17.0623 146.832 17.1226 146.734 17.1425C146.642 17.1627 146.543 17.1418 146.464 17.0852C145.395 16.3233 144.379 15.4867 143.426 14.5821L143.373 14.5298L143.373 14.5296C143.261 14.4154 143.238 14.2437 143.315 14.1113L144.864 11.3725C145.048 11.052 145.094 10.6666 144.991 10.3013C144.918 10.0451 144.769 9.81425 144.564 9.6396C144.261 9.38102 143.866 9.26183 143.48 9.31327C143.095 9.3647 142.758 9.5816 142.557 9.90741L142.333 10.1344C142.294 10.1791 142.227 10.1865 142.177 10.1518C142.123 10.1251 142.096 10.0632 142.115 10.0079C142.425 8.85637 143.195 7.8977 144.25 7.35048C145.306 6.80324 146.556 6.71418 147.716 7.10363L147.717 7.10363Z"/>
</mask>
<path d="M141.437 9.80221C141.375 10.0383 141.423 10.2942 141.568 10.4998C141.713 10.7054 141.94 10.8393 142.188 10.865C142.435 10.8906 142.677 10.8053 142.846 10.6323L143.098 10.3766L143.098 10.3765C143.119 10.3561 143.136 10.333 143.151 10.3079C143.243 10.1443 143.406 10.0335 143.594 10.0056C143.783 9.97764 143.978 10.0355 144.125 10.1634C144.24 10.2722 144.316 10.4159 144.339 10.5701C144.363 10.7243 144.332 10.8797 144.252 11.01L142.704 13.7489L142.704 13.7487C142.568 13.9882 142.535 14.2756 142.613 14.5478C142.664 14.7239 142.76 14.8853 142.893 15.0154L142.956 15.0771C143.934 16.006 144.977 16.8652 146.075 17.6478C146.317 17.8198 146.617 17.8853 146.902 17.8284C147.191 17.7703 147.438 17.5928 147.581 17.3391L149.797 13.4195C149.868 13.2842 149.985 13.1793 150.127 13.1223C150.27 13.0654 150.43 13.0601 150.58 13.1071C150.763 13.1731 150.909 13.3155 150.98 13.4957C151.051 13.6758 151.039 13.875 150.946 14.0386L148.661 18.0798C148.524 18.3254 148.494 18.6195 148.578 18.8962C148.66 19.1686 148.849 19.4 149.102 19.5362C150.451 20.2666 151.854 20.887 153.297 21.3912C153.529 21.4702 153.778 21.4685 154.002 21.3862C154.227 21.3039 154.413 21.1458 154.529 20.9391L156.423 17.5893C156.494 17.4539 156.61 17.3491 156.753 17.2922C156.895 17.2352 157.055 17.2299 157.206 17.2769C157.388 17.3429 157.535 17.4853 157.606 17.6655C157.677 17.8457 157.664 18.0448 157.572 18.2084L156.579 19.9634C156.433 20.2225 156.409 20.536 156.512 20.8242C156.616 21.1123 156.837 21.3471 157.12 21.4685C157.403 21.5897 157.72 21.5859 157.99 21.4578C158.049 21.4301 158.107 21.4008 158.165 21.3701L158.241 21.3303C159.357 20.7455 160.199 19.7603 160.604 18.5654C161.008 17.3706 160.947 16.0508 160.432 14.8616C159.917 13.6722 158.984 12.698 157.814 12.127C157.571 12.007 157.295 11.9805 157.041 12.0526C156.787 12.1248 156.574 12.2905 156.442 12.5169L154.695 15.6092C154.624 15.7466 154.507 15.8533 154.363 15.911C154.218 15.9688 154.056 15.9742 153.904 15.9262C153.723 15.8591 153.578 15.7166 153.509 15.5372C153.439 15.3579 153.452 15.1602 153.543 14.9974L155.06 12.3141C155.202 12.0643 155.23 11.7626 155.138 11.4821C155.045 11.2014 154.841 10.9674 154.573 10.8368C153.328 10.2346 152.153 9.49115 151.072 8.62156C150.828 8.4268 150.516 8.3441 150.216 8.39516C149.917 8.44619 149.66 8.62582 149.512 8.88707L148.07 11.4387L148.069 11.4387C147.999 11.5762 147.881 11.6828 147.737 11.7406C147.593 11.7984 147.431 11.8038 147.278 11.7558C147.098 11.6886 146.952 11.5462 146.883 11.3668C146.813 11.1875 146.826 10.9896 146.917 10.827L148.531 7.97391L148.531 7.97376C148.687 7.69963 148.705 7.36449 148.581 7.06363C148.463 6.77034 148.219 6.54122 147.919 6.44141C146.577 5.99178 145.131 6.09556 143.91 6.72884C142.69 7.36214 141.799 8.47108 141.441 9.80279L141.437 9.80221ZM147.717 7.10363C147.813 7.13604 147.891 7.21047 147.928 7.30554C147.97 7.40717 147.964 7.52065 147.911 7.61349L146.298 10.4666L146.298 10.4666C146.106 10.8062 146.079 11.219 146.223 11.5938C146.368 11.9687 146.669 12.2674 147.046 12.4093C147.355 12.5159 147.687 12.5135 147.985 12.4027C148.284 12.2919 148.53 12.0794 148.681 11.802L150.124 9.25039L150.124 9.25024C150.173 9.16239 150.259 9.10226 150.36 9.08601C150.458 9.06895 150.561 9.09662 150.641 9.16166C151.765 10.065 152.988 10.8376 154.283 11.4635C154.37 11.5053 154.436 11.5813 154.466 11.6725C154.498 11.7668 154.489 11.8685 154.441 11.9523L152.923 14.6357L152.923 14.6358C152.732 14.9752 152.704 15.3881 152.849 15.763C152.993 16.1379 153.295 16.4365 153.672 16.5784C153.981 16.6849 154.312 16.6825 154.611 16.5717C154.909 16.4609 155.155 16.2485 155.307 15.971L157.054 12.8804C157.147 12.721 157.351 12.6654 157.52 12.7536C158.532 13.2469 159.339 14.0892 159.784 15.1176C160.23 16.1459 160.283 17.2871 159.933 18.3204C159.583 19.3537 158.855 20.2055 157.89 20.7112L157.815 20.7506C157.765 20.7768 157.715 20.8021 157.664 20.8246L157.664 20.8246C157.525 20.8917 157.356 20.8582 157.246 20.7425C157.137 20.6269 157.115 20.4565 157.191 20.3238L158.183 18.5686C158.377 18.2293 158.404 17.8154 158.258 17.4405C158.111 17.0631 157.806 16.7633 157.426 16.6228C157.119 16.5154 156.789 16.517 156.493 16.6275C156.196 16.7378 155.952 16.95 155.804 17.227L153.911 20.5781C153.832 20.7204 153.661 20.7841 153.502 20.7309C152.096 20.2398 150.73 19.6353 149.415 18.9235C149.332 18.8761 149.27 18.7981 149.244 18.7071C149.217 18.6161 149.228 18.5198 149.274 18.4397L151.559 14.3985C151.751 14.0575 151.778 13.6428 151.632 13.2668C151.485 12.8908 151.181 12.5923 150.801 12.4527C150.495 12.3453 150.165 12.3469 149.868 12.4574C149.572 12.5677 149.328 12.7799 149.179 13.0568L146.963 16.9765C146.915 17.0623 146.832 17.1226 146.734 17.1425C146.642 17.1627 146.543 17.1418 146.464 17.0852C145.395 16.3233 144.379 15.4867 143.426 14.5821L143.373 14.5298L143.373 14.5296C143.261 14.4154 143.238 14.2437 143.315 14.1113L144.864 11.3725C145.048 11.052 145.094 10.6666 144.991 10.3013C144.918 10.0451 144.769 9.81425 144.564 9.6396C144.261 9.38102 143.866 9.26183 143.48 9.31327C143.095 9.3647 142.758 9.5816 142.557 9.90741L142.333 10.1344C142.294 10.1791 142.227 10.1865 142.177 10.1518C142.123 10.1251 142.096 10.0632 142.115 10.0079C142.425 8.85637 143.195 7.8977 144.25 7.35048C145.306 6.80324 146.556 6.71418 147.716 7.10363L147.717 7.10363Z" fill="white"/>
<path d="M141.437 9.80221C141.375 10.0383 141.423 10.2942 141.568 10.4998C141.713 10.7054 141.94 10.8393 142.188 10.865C142.435 10.8906 142.677 10.8053 142.846 10.6323L143.098 10.3766L143.098 10.3765C143.119 10.3561 143.136 10.333 143.151 10.3079C143.243 10.1443 143.406 10.0335 143.594 10.0056C143.783 9.97764 143.978 10.0355 144.125 10.1634C144.24 10.2722 144.316 10.4159 144.339 10.5701C144.363 10.7243 144.332 10.8797 144.252 11.01L142.704 13.7489L142.704 13.7487C142.568 13.9882 142.535 14.2756 142.613 14.5478C142.664 14.7239 142.76 14.8853 142.893 15.0154L142.956 15.0771C143.934 16.006 144.977 16.8652 146.075 17.6478C146.317 17.8198 146.617 17.8853 146.902 17.8284C147.191 17.7703 147.438 17.5928 147.581 17.3391L149.797 13.4195C149.868 13.2842 149.985 13.1793 150.127 13.1223C150.27 13.0654 150.43 13.0601 150.58 13.1071C150.763 13.1731 150.909 13.3155 150.98 13.4957C151.051 13.6758 151.039 13.875 150.946 14.0386L148.661 18.0798C148.524 18.3254 148.494 18.6195 148.578 18.8962C148.66 19.1686 148.849 19.4 149.102 19.5362C150.451 20.2666 151.854 20.887 153.297 21.3912C153.529 21.4702 153.778 21.4685 154.002 21.3862C154.227 21.3039 154.413 21.1458 154.529 20.9391L156.423 17.5893C156.494 17.4539 156.61 17.3491 156.753 17.2922C156.895 17.2352 157.055 17.2299 157.206 17.2769C157.388 17.3429 157.535 17.4853 157.606 17.6655C157.677 17.8457 157.664 18.0448 157.572 18.2084L156.579 19.9634C156.433 20.2225 156.409 20.536 156.512 20.8242C156.616 21.1123 156.837 21.3471 157.12 21.4685C157.403 21.5897 157.72 21.5859 157.99 21.4578C158.049 21.4301 158.107 21.4008 158.165 21.3701L158.241 21.3303C159.357 20.7455 160.199 19.7603 160.604 18.5654C161.008 17.3706 160.947 16.0508 160.432 14.8616C159.917 13.6722 158.984 12.698 157.814 12.127C157.571 12.007 157.295 11.9805 157.041 12.0526C156.787 12.1248 156.574 12.2905 156.442 12.5169L154.695 15.6092C154.624 15.7466 154.507 15.8533 154.363 15.911C154.218 15.9688 154.056 15.9742 153.904 15.9262C153.723 15.8591 153.578 15.7166 153.509 15.5372C153.439 15.3579 153.452 15.1602 153.543 14.9974L155.06 12.3141C155.202 12.0643 155.23 11.7626 155.138 11.4821C155.045 11.2014 154.841 10.9674 154.573 10.8368C153.328 10.2346 152.153 9.49115 151.072 8.62156C150.828 8.4268 150.516 8.3441 150.216 8.39516C149.917 8.44619 149.66 8.62582 149.512 8.88707L148.07 11.4387L148.069 11.4387C147.999 11.5762 147.881 11.6828 147.737 11.7406C147.593 11.7984 147.431 11.8038 147.278 11.7558C147.098 11.6886 146.952 11.5462 146.883 11.3668C146.813 11.1875 146.826 10.9896 146.917 10.827L148.531 7.97391L148.531 7.97376C148.687 7.69963 148.705 7.36449 148.581 7.06363C148.463 6.77034 148.219 6.54122 147.919 6.44141C146.577 5.99178 145.131 6.09556 143.91 6.72884C142.69 7.36214 141.799 8.47108 141.441 9.80279L141.437 9.80221ZM147.717 7.10363C147.813 7.13604 147.891 7.21047 147.928 7.30554C147.97 7.40717 147.964 7.52065 147.911 7.61349L146.298 10.4666L146.298 10.4666C146.106 10.8062 146.079 11.219 146.223 11.5938C146.368 11.9687 146.669 12.2674 147.046 12.4093C147.355 12.5159 147.687 12.5135 147.985 12.4027C148.284 12.2919 148.53 12.0794 148.681 11.802L150.124 9.25039L150.124 9.25024C150.173 9.16239 150.259 9.10226 150.36 9.08601C150.458 9.06895 150.561 9.09662 150.641 9.16166C151.765 10.065 152.988 10.8376 154.283 11.4635C154.37 11.5053 154.436 11.5813 154.466 11.6725C154.498 11.7668 154.489 11.8685 154.441 11.9523L152.923 14.6357L152.923 14.6358C152.732 14.9752 152.704 15.3881 152.849 15.763C152.993 16.1379 153.295 16.4365 153.672 16.5784C153.981 16.6849 154.312 16.6825 154.611 16.5717C154.909 16.4609 155.155 16.2485 155.307 15.971L157.054 12.8804C157.147 12.721 157.351 12.6654 157.52 12.7536C158.532 13.2469 159.339 14.0892 159.784 15.1176C160.23 16.1459 160.283 17.2871 159.933 18.3204C159.583 19.3537 158.855 20.2055 157.89 20.7112L157.815 20.7506C157.765 20.7768 157.715 20.8021 157.664 20.8246L157.664 20.8246C157.525 20.8917 157.356 20.8582 157.246 20.7425C157.137 20.6269 157.115 20.4565 157.191 20.3238L158.183 18.5686C158.377 18.2293 158.404 17.8154 158.258 17.4405C158.111 17.0631 157.806 16.7633 157.426 16.6228C157.119 16.5154 156.789 16.517 156.493 16.6275C156.196 16.7378 155.952 16.95 155.804 17.227L153.911 20.5781C153.832 20.7204 153.661 20.7841 153.502 20.7309C152.096 20.2398 150.73 19.6353 149.415 18.9235C149.332 18.8761 149.27 18.7981 149.244 18.7071C149.217 18.6161 149.228 18.5198 149.274 18.4397L151.559 14.3985C151.751 14.0575 151.778 13.6428 151.632 13.2668C151.485 12.8908 151.181 12.5923 150.801 12.4527C150.495 12.3453 150.165 12.3469 149.868 12.4574C149.572 12.5677 149.328 12.7799 149.179 13.0568L146.963 16.9765C146.915 17.0623 146.832 17.1226 146.734 17.1425C146.642 17.1627 146.543 17.1418 146.464 17.0852C145.395 16.3233 144.379 15.4867 143.426 14.5821L143.373 14.5298L143.373 14.5296C143.261 14.4154 143.238 14.2437 143.315 14.1113L144.864 11.3725C145.048 11.052 145.094 10.6666 144.991 10.3013C144.918 10.0451 144.769 9.81425 144.564 9.6396C144.261 9.38102 143.866 9.26183 143.48 9.31327C143.095 9.3647 142.758 9.5816 142.557 9.90741L142.333 10.1344C142.294 10.1791 142.227 10.1865 142.177 10.1518C142.123 10.1251 142.096 10.0632 142.115 10.0079C142.425 8.85637 143.195 7.8977 144.25 7.35048C145.306 6.80324 146.556 6.71418 147.716 7.10363L147.717 7.10363Z" stroke="white" stroke-width="0.14" mask="url(#path-41-outside-4_1604_22111)"/>
<path d="M151.22 10.2243L151.122 9.88493C151.062 9.67943 150.848 9.55312 150.643 9.60428C150.437 9.65544 150.32 9.86424 150.379 10.0697L150.477 10.4092C150.536 10.6147 150.75 10.741 150.956 10.6898C151.162 10.6387 151.279 10.4298 151.22 10.2243Z" fill="white" stroke="white" stroke-width="0.07"/>
<path d="M152.414 12.1099L152.512 12.4493C152.572 12.6548 152.786 12.7811 152.991 12.73C153.197 12.6788 153.314 12.47 153.255 12.2645L153.157 11.9251C153.098 11.7196 152.884 11.5933 152.678 11.6444C152.472 11.6956 152.355 11.9044 152.414 12.1099Z" fill="white" stroke="white" stroke-width="0.07"/>
<path d="M151.565 16.6867L151.663 17.0261C151.722 17.2316 151.936 17.3579 152.142 17.3068C152.347 17.2556 152.464 17.0468 152.405 16.8413L152.307 16.5019C152.248 16.2964 152.034 16.1701 151.828 16.2212C151.623 16.2724 151.505 16.4812 151.565 16.6867Z" fill="white" stroke="white" stroke-width="0.07"/>
<path d="M157.509 14.4802L157.411 14.1408C157.352 13.9353 157.138 13.809 156.932 13.8601C156.727 13.9113 156.609 14.1201 156.669 14.3256L156.767 14.665C156.826 14.8705 157.04 14.9968 157.246 14.9457C157.451 14.8945 157.568 14.6857 157.509 14.4802Z" fill="white" stroke="white" stroke-width="0.07"/>
<path d="M145.374 12.7712L145.472 13.1106C145.531 13.3161 145.745 13.4424 145.951 13.3912C146.156 13.3401 146.274 13.1313 146.214 12.9258L146.116 12.5863C146.057 12.3808 145.843 12.2545 145.638 12.3057C145.432 12.3569 145.315 12.5657 145.374 12.7712Z" fill="white" stroke="white" stroke-width="0.07"/>
<path d="M145.722 15.2314L145.82 15.5708C145.879 15.7763 146.093 15.9026 146.299 15.8514C146.504 15.8003 146.622 15.5915 146.562 15.386L146.465 15.0465C146.405 14.841 146.191 14.7147 145.986 14.7659C145.78 14.8171 145.663 15.0259 145.722 15.2314Z" fill="white" stroke="white" stroke-width="0.07"/>
<path d="M146.027 8.64221C146.126 8.61766 146.209 8.5547 146.258 8.46737C146.308 8.38007 146.319 8.2755 146.291 8.17675L146.193 7.83732C146.134 7.63182 145.92 7.50551 145.714 7.55667C145.508 7.60783 145.391 7.81664 145.45 8.02213L145.548 8.36156C145.577 8.46031 145.643 8.54548 145.733 8.59816C145.823 8.65085 145.929 8.66676 146.027 8.64221Z" fill="white" stroke="white" stroke-width="0.07"/>
<path d="M152.784 19.658L152.882 19.9974C152.941 20.2029 153.155 20.3292 153.361 20.2781C153.566 20.2269 153.683 20.0181 153.624 19.8126L153.526 19.4732C153.467 19.2677 153.253 19.1414 153.047 19.1925C152.842 19.2437 152.724 19.4525 152.784 19.658Z" fill="white" stroke="white" stroke-width="0.07"/>
<path d="M150.27 18.4648L150.368 18.8042C150.427 19.0097 150.641 19.136 150.847 19.0848C151.052 19.0337 151.169 18.8249 151.11 18.6194L151.012 18.28C150.953 18.0745 150.739 17.9481 150.533 17.9993C150.328 18.0505 150.21 18.2593 150.27 18.4648Z" fill="white" stroke="white" stroke-width="0.07"/>
<path d="M158.616 18.5693L158.714 18.9087C158.773 19.1142 158.987 19.2405 159.193 19.1893C159.398 19.1382 159.516 18.9294 159.456 18.7239L159.358 18.3844C159.299 18.1789 159.085 18.0526 158.88 18.1038C158.674 18.155 158.557 18.3638 158.616 18.5693Z" fill="white" stroke="white" stroke-width="0.07"/>
<path d="M158.604 16.0257C158.663 16.2312 158.877 16.3575 159.083 16.3064C159.288 16.2552 159.406 16.0464 159.347 15.8409L159.249 15.5015C159.189 15.296 158.975 15.1697 158.77 15.2209C158.564 15.272 158.447 15.4808 158.506 15.6863L158.604 16.0257Z" fill="white" stroke="white" stroke-width="0.07"/>
</svg>
