<svg width="30" height="26" viewBox="0 0 30 26" fill="none" xmlns="http://www.w3.org/2000/svg">
<path d="M7.55681 25.3503L7.67333 25.3751V25.3749C8.37578 25.5242 9.09546 25.5998 9.81777 25.6C11.499 25.5991 13.1472 25.1858 14.5811 24.4058C20.0355 21.4465 24.6172 17.3733 27.9455 12.5238C29.2109 10.686 29.6029 8.47637 29.0356 6.381L29.0076 6.27818L29.0078 6.27838C28.5861 4.70414 27.648 3.2765 26.3127 2.17672C24.9774 1.07714 23.3049 0.354684 21.5072 0.101011C19.7094 -0.152662 17.8675 0.0739935 16.2149 0.75236C14.5624 1.43053 13.1735 2.52971 12.2242 3.91073C10.3937 6.56703 7.88169 8.80037 4.8936 10.4277C3.34051 11.2717 2.10396 12.5065 1.34118 13.9758C0.578406 15.4452 0.323475 17.0828 0.608796 18.6811C0.893883 20.2794 1.70648 21.7664 2.94347 22.9536C4.18046 24.1408 5.786 24.9749 7.55663 25.35L7.55681 25.3503ZM5.40207 11.1714C8.52314 9.47198 11.1471 7.13971 13.0595 4.36528C14.1965 2.71099 16.0273 1.52666 18.1477 1.07361C20.2682 0.620717 22.5042 0.935992 24.3629 1.95041C26.2214 2.96486 27.5497 4.59487 28.0552 6.48085L28.0826 6.58309V6.58328C28.5889 8.45433 28.2387 10.4276 27.109 12.0692C23.8624 16.8007 19.3928 20.7751 14.072 23.6622C12.2257 24.6667 10.0061 24.978 7.90158 24.5277L7.78506 24.5034C5.66356 24.054 3.83018 22.873 2.6894 21.2207C1.5484 19.5683 1.19356 17.5803 1.7032 15.6949C2.21259 13.8097 3.54464 12.182 5.40533 11.1711L5.40207 11.1714Z" fill="#E1AB3B"/>
<path d="M5.95347 22.9114C6.25036 23.0688 6.61086 23.0999 6.93619 22.9965C7.26172 22.8929 7.51814 22.6657 7.63556 22.3767C7.75296 22.0876 7.71908 21.7669 7.54309 21.5026L7.28315 21.1107H7.28293C7.26238 21.0789 7.23724 21.0495 7.20816 21.0237C7.01905 20.8553 6.92439 20.6207 6.94997 20.384C6.97555 20.1473 7.11874 19.9329 7.34021 19.7997C7.52538 19.6987 7.74423 19.6573 7.95955 19.6829C8.17489 19.7086 8.37383 19.7995 8.52252 19.9405L11.6905 22.7571L11.6903 22.7569C11.9671 23.0041 12.3431 23.1433 12.7356 23.1439C12.9896 23.1441 13.2393 23.0838 13.4588 22.9697L13.5631 22.9145C15.1413 22.0591 16.6471 21.1024 18.0684 20.0518C18.3813 19.8193 18.5699 19.4809 18.5885 19.1188C18.6073 18.7501 18.451 18.3915 18.1576 18.1305L13.6238 14.0996C13.4656 13.9672 13.3632 13.7905 13.3344 13.599C13.3055 13.4076 13.3519 13.2132 13.4656 13.0486C13.6155 12.8515 13.8564 12.7242 14.1227 12.7014C14.389 12.6787 14.6529 12.7629 14.8422 12.931L19.5166 17.0869C19.8012 17.3374 20.187 17.476 20.5876 17.4712C20.9818 17.4669 21.3567 17.319 21.6247 17.062C23.06 15.6909 24.3652 14.2168 25.5273 12.6544C25.7114 12.4025 25.7925 12.1019 25.7569 11.8031C25.7213 11.5044 25.5708 11.2255 25.3314 11.0136L21.4568 7.56874C21.2983 7.43637 21.1962 7.25969 21.1674 7.06821C21.1385 6.87675 21.1849 6.68238 21.2986 6.51778C21.4485 6.32068 21.6895 6.19337 21.9557 6.17062C22.222 6.14788 22.4859 6.23205 22.6752 6.40018L24.7051 8.2053C25.0048 8.4712 25.4187 8.60959 25.8413 8.5851C26.2639 8.56041 26.6541 8.37517 26.9123 8.07661C27.1703 7.77805 27.2713 7.39516 27.1893 7.02584C27.1716 6.94537 27.1517 6.86509 27.1301 6.78385L27.1017 6.67927C26.6885 5.13186 25.6443 3.77572 24.1715 2.87309C22.6987 1.9706 20.9016 1.58576 19.1281 1.79316C17.3545 2.00036 15.7305 2.78506 14.5701 3.99541C14.327 4.24654 14.1989 4.56958 14.2109 4.90058C14.2229 5.23159 14.3744 5.54665 14.6352 5.78321L18.2126 8.96158C18.3737 9.09473 18.478 9.27335 18.5073 9.46714C18.5368 9.66092 18.4898 9.85783 18.3741 10.0244C18.2233 10.219 17.9828 10.3441 17.718 10.3657C17.4533 10.3875 17.1914 10.3035 17.0029 10.1365L13.8992 7.37704C13.6106 7.11931 13.2138 6.98072 12.8052 6.99471C12.3963 7.00871 12.0127 7.17393 11.7473 7.45071C10.5195 8.74117 9.12492 9.89827 7.59215 10.8981C7.24847 11.1234 7.03247 11.4709 7.0008 11.8495C6.9691 12.2282 7.12475 12.6002 7.42711 12.8683L10.3785 15.4923V15.4925C10.5398 15.6256 10.6439 15.8042 10.6734 15.998C10.7029 16.1918 10.6559 16.3887 10.5403 16.5553C10.3892 16.7498 10.1489 16.875 9.88416 16.8966C9.61941 16.9184 9.35728 16.8344 9.16907 16.6674L5.86896 13.7334H5.86874C5.55196 13.4504 5.10708 13.3114 4.66063 13.3559C4.22623 13.3963 3.83601 13.6107 3.60095 13.938C2.54608 15.398 2.20132 17.1755 2.64492 18.8652C3.0885 20.5551 4.28285 22.0131 5.95549 22.9071L5.95347 22.9114ZM4.42467 14.4115C4.50075 14.3062 4.62711 14.2379 4.76746 14.2265C4.91831 14.2113 5.06894 14.2583 5.17629 14.354L8.4764 17.288V17.2882C8.86926 17.6371 9.41581 17.8134 9.96871 17.7697C10.5218 17.7259 11.0249 17.4668 11.3423 17.0618C11.5891 16.727 11.6971 16.3265 11.6479 15.9286C11.5988 15.5309 11.3952 15.1606 11.0725 14.8817L8.12117 12.2577H8.12095C8.01907 12.1683 7.96704 12.0435 7.97884 11.9168C7.9889 11.7922 8.0606 11.6779 8.17473 11.605C9.76761 10.5641 11.2173 9.3602 12.4936 8.01824C12.5791 7.92786 12.7037 7.87402 12.8364 7.86974C12.9739 7.86449 13.1077 7.91095 13.2046 7.99783L16.3083 10.7573H16.3086C16.7012 11.1062 17.2477 11.2825 17.8009 11.2388C18.354 11.1951 18.8568 10.936 19.1742 10.5309C19.4211 10.1962 19.5291 9.79557 19.4799 9.3977C19.4307 9.00001 19.2272 8.62971 18.9045 8.35081L15.3296 5.17244C15.1459 5.00586 15.1394 4.74093 15.3149 4.56737C16.318 3.52028 17.7222 2.84132 19.2558 2.66193C20.7894 2.48233 22.3434 2.8149 23.6171 3.59532C24.8908 4.37573 25.7935 5.54857 26.1507 6.88665L26.1787 6.99063C26.1973 7.05983 26.2146 7.12902 26.2277 7.19822V7.19842C26.2716 7.38832 26.1698 7.58114 25.9774 7.67249C25.7852 7.76384 25.5482 7.73177 25.3952 7.59377L23.3649 5.789C22.9731 5.43777 22.425 5.26111 21.8712 5.30754C21.3142 5.35244 20.8085 5.61562 20.4917 6.02537C20.2445 6.35697 20.136 6.75524 20.1855 7.15057C20.2346 7.54612 20.4386 7.91348 20.7615 8.1889L24.6385 11.6324C24.8036 11.777 24.8322 12.0046 24.7072 12.178C23.5751 13.7001 22.3035 15.1363 20.9049 16.4719C20.8133 16.5555 20.6876 16.6029 20.5562 16.6035C20.4248 16.6039 20.2986 16.5574 20.2062 16.4744L15.5318 12.3185C15.1374 11.9681 14.588 11.7918 14.0329 11.8374C13.4776 11.8831 12.9739 12.1461 12.6587 12.5551C12.4114 12.8867 12.303 13.2847 12.3524 13.6803C12.4016 14.0756 12.6055 14.443 12.9284 14.7184L17.4622 18.7493C17.5617 18.837 17.615 18.9579 17.6091 19.0825C17.6054 19.2006 17.5442 19.3118 17.4417 19.3872C16.0576 20.4108 14.5913 21.3428 13.0543 22.1763L12.9658 22.2229H12.9656C12.7745 22.3176 12.5356 22.2861 12.3834 22.1464L9.21539 19.3297C8.8457 18.9966 8.34219 18.8077 7.81599 18.8047C7.44673 18.8036 7.08601 18.9029 6.7821 19.0895C6.33262 19.3641 6.03964 19.7991 5.97976 20.2812C5.91986 20.7632 6.09891 21.2445 6.47013 21.5998L6.70077 21.9481C6.748 22.0099 6.73553 22.0933 6.67192 22.1419C6.61792 22.1977 6.52566 22.2084 6.45745 22.1668C5.01103 21.3938 3.97872 20.1327 3.59568 18.6716C3.21265 17.2103 3.51172 15.6734 4.42466 14.4115L4.42467 14.4115Z" fill="#E1AB3B"/>
<path d="M9.79944 11.3203H9.30972C9.03929 11.3203 8.82001 11.5153 8.82001 11.7557C8.82001 11.9961 9.03929 12.1911 9.30972 12.1911H9.79944C10.0699 12.1911 10.2891 11.9961 10.2891 11.7557C10.2891 11.5153 10.0699 11.3203 9.79944 11.3203Z" fill="#E1AB3B"/>
<path d="M12.7378 10.4489H13.2275C13.498 10.4489 13.7172 10.254 13.7172 10.0135C13.7172 9.77308 13.498 9.57812 13.2275 9.57812H12.7378C12.4674 9.57812 12.2481 9.77308 12.2481 10.0135C12.2481 10.254 12.4674 10.4489 12.7378 10.4489Z" fill="#E1AB3B"/>
<path d="M18.6142 13.0622H19.1039C19.3744 13.0622 19.5937 12.8672 19.5937 12.6268C19.5937 12.3864 19.3744 12.1914 19.1039 12.1914H18.6142C18.3438 12.1914 18.1245 12.3864 18.1245 12.6268C18.1245 12.8672 18.3438 13.0622 18.6142 13.0622Z" fill="#E1AB3B"/>
<path d="M17.6354 5.22461H17.1457C16.8753 5.22461 16.656 5.41957 16.656 5.66C16.656 5.90044 16.8753 6.0954 17.1457 6.0954H17.6354C17.9059 6.0954 18.1251 5.90044 18.1251 5.66C18.1251 5.41957 17.9059 5.22461 17.6354 5.22461Z" fill="#E1AB3B"/>
<path d="M11.2693 19.1579H11.759C12.0294 19.1579 12.2487 18.9629 12.2487 18.7225C12.2487 18.4821 12.0294 18.2871 11.759 18.2871H11.2693C10.9988 18.2871 10.7795 18.4821 10.7795 18.7225C10.7795 18.9629 10.9988 19.1579 11.2693 19.1579Z" fill="#E1AB3B"/>
<path d="M14.6974 19.5934H15.1871C15.4575 19.5934 15.6768 19.3985 15.6768 19.158C15.6768 18.9176 15.4575 18.7227 15.1871 18.7227H14.6974C14.4269 18.7227 14.2076 18.9176 14.2076 19.158C14.2076 19.3985 14.4269 19.5934 14.6974 19.5934Z" fill="#E1AB3B"/>
<path d="M5.88132 16.9803C5.88132 16.8649 5.82973 16.7541 5.73791 16.6724C5.64609 16.5908 5.52147 16.5449 5.39161 16.5449H4.90189C4.63145 16.5449 4.41217 16.7399 4.41217 16.9803C4.41217 17.2208 4.63145 17.4157 4.90189 17.4157H5.39161C5.52147 17.4157 5.64609 17.3698 5.73791 17.2882C5.82973 17.2066 5.88132 17.0958 5.88132 16.9803Z" fill="#E1AB3B"/>
<path d="M23.0221 12.6266H23.5119C23.7823 12.6266 24.0016 12.4317 24.0016 12.1913C24.0016 11.9508 23.7823 11.7559 23.5119 11.7559H23.0221C22.7517 11.7559 22.5324 11.9508 22.5324 12.1913C22.5324 12.4317 22.7517 12.6266 23.0221 12.6266Z" fill="#E1AB3B"/>
<path d="M20.5738 15.2399H21.0635C21.3339 15.2399 21.5532 15.045 21.5532 14.8045C21.5532 14.5641 21.3339 14.3691 21.0635 14.3691H20.5738C20.3033 14.3691 20.084 14.5641 20.084 14.8045C20.084 15.045 20.3033 15.2399 20.5738 15.2399Z" fill="#E1AB3B"/>
<path d="M23.511 5.2243H24.0007C24.2711 5.2243 24.4904 5.02935 24.4904 4.78891C24.4904 4.54847 24.2711 4.35352 24.0007 4.35352H23.511C23.2405 4.35352 23.0212 4.54847 23.0212 4.78891C23.0212 5.02935 23.2405 5.2243 23.511 5.2243Z" fill="#E1AB3B"/>
<path d="M20.0827 4.35516C20.3531 4.35516 20.5724 4.16021 20.5724 3.91977C20.5724 3.67933 20.3531 3.48438 20.0827 3.48438H19.593C19.3226 3.48438 19.1033 3.67933 19.1033 3.91977C19.1033 4.16021 19.3226 4.35516 19.593 4.35516H20.0827Z" fill="#E1AB3B"/>
</svg>
