<svg width="247" height="237" viewBox="0 0 247 237" fill="none" xmlns="http://www.w3.org/2000/svg">
<path d="M137.29 234.748C148.5 232.558 159.75 228.818 168.51 221.948C206.57 205.228 239.89 176.668 246.63 134.418C238 172.678 208.13 199.208 174.21 216.598C176.208 214.351 177.946 211.885 179.39 209.248C180.972 205.756 181.92 202.011 182.19 198.188C208.02 178.048 231.33 153.578 240.75 125.628C246.44 108.228 247.91 87.7977 238.57 71.4177C246.01 88.2677 243.76 107.688 237.51 124.488C227.7 150.088 206.02 173.048 182.24 192.908C181.79 184.588 178.96 176.038 175.24 168.048C192.24 151.998 208.31 134.748 218.36 113.488C233.15 82.6977 235.28 45.0477 202.69 25.2677C241.79 53.7777 222.06 106.928 196.24 137.658C188.892 146.539 181.06 155.008 172.78 163.028C170.12 157.898 167.23 153.078 164.56 148.828C161.62 144.298 158.17 139.568 154.39 134.758C171.8 114.498 187.81 93.2177 198 68.1377C209.96 43.8177 202.54 18.9177 175.96 9.91774C199.96 21.0077 205.85 43.3977 193.52 66.1177C182.63 89.8577 166.96 110.048 150.32 129.638C143.39 121.148 135.7 112.518 128.32 104.328C132.77 99.3977 136.99 94.6577 140.74 90.1177C153.94 74.2477 168.54 57.5577 173.59 36.7977C179.43 7.53774 161.1 -0.542262 135.35 0.0277377C147.03 1.41774 164.96 3.58774 169.11 16.4777C175.93 42.2677 151 67.2277 135.51 85.5277C131.78 89.6777 127.66 94.1777 123.36 98.8877C119.07 94.1877 114.95 89.6977 111.21 85.5277C95.71 67.1977 70.8 42.3177 77.61 16.4777C81.76 3.61774 99.69 1.38774 111.37 0.0277377C85.47 -0.522262 67.37 7.56774 73.13 36.7977C78.13 57.5577 92.78 74.2477 105.98 90.1177C109.73 94.6577 113.98 99.3977 118.4 104.328C110.98 112.508 103.28 121.158 96.35 129.638C79.72 110.048 64.04 89.8577 53.15 66.1277C40.82 43.3177 46.69 21.0677 70.71 9.91774C44.04 19.0077 36.71 43.7977 48.63 68.1677C58.82 93.2477 74.83 114.528 92.24 134.778C88.45 139.608 85 144.338 82.07 148.858C79.4 153.118 76.51 157.928 73.85 163.058C65.5736 155.038 57.745 146.568 50.4 137.688C24.57 106.938 4.84002 53.8477 43.94 25.2977C11.36 45.0277 13.48 82.7877 28.27 113.518C38.32 134.778 54.43 152.028 71.39 168.068C67.69 176.068 64.86 184.608 64.39 192.938C40.61 173.078 18.95 150.138 9.13 124.518C2.87 107.718 0.620013 88.2977 8.06001 71.4477C-1.27999 87.8177 0.190005 108.258 5.88 125.658C15.31 153.658 38.62 178.088 64.44 198.218C64.7162 202.04 65.664 205.784 67.24 209.278C68.684 211.915 70.4217 214.381 72.42 216.628C38.5 199.238 8.63 172.718 0 134.448C6.73 176.698 40.07 205.258 78.13 221.988C86.82 228.798 97.96 232.538 109.08 234.728C75.11 228.918 42.87 213.068 19.16 187.918C40.59 216.148 74.89 232.638 109.75 236.298C114.252 236.697 118.772 236.848 123.29 236.748C127.808 236.848 132.328 236.697 136.83 236.298C171.69 232.608 205.96 216.118 227.42 187.918C203.65 213.138 171.3 229.018 137.29 234.748ZM100.96 228.918C99.026 226.72 97.7658 224.012 97.33 221.118C102.64 224.458 107.85 227.608 112.88 230.558C114.63 231.488 117.11 232.938 119.48 234.228C119.779 234.618 120.114 234.98 120.48 235.308C114.74 233.618 109.04 231.838 103.48 229.788L100.96 228.918ZM143.17 229.788C137.56 231.838 131.85 233.618 126.11 235.308C126.452 234.984 126.763 234.629 127.04 234.248C129.44 232.938 131.95 231.478 133.68 230.558C138.68 227.608 143.92 224.458 149.23 221.118C148.792 224.015 147.532 226.725 145.6 228.928L143.17 229.788ZM123.47 236.068C124.47 235.638 125.47 235.068 126.6 234.488C126.393 234.801 126.159 235.095 125.9 235.368L123.49 236.078L123.47 236.068ZM123.28 219.328C126.88 224.678 128.76 229.658 127.19 233.388L124.42 235.218L123.28 235.948L122.14 235.218L119.38 233.398C117.82 229.698 119.69 224.708 123.29 219.358L123.28 219.328ZM133.05 229.528L127.78 232.998C129.62 228.998 127.91 223.568 124.44 217.678C129.44 210.748 137.02 203.358 143.44 197.388C146.96 204.208 149.53 211.508 149.44 217.928C143.85 222.018 138.32 225.918 133.06 229.558L133.05 229.528ZM123.29 215.808C118.46 208.278 111.15 200.248 104.99 193.898C107.875 188.891 111.169 184.131 114.84 179.668C117.613 176.368 120.427 173.088 123.28 169.828C126.133 173.088 128.947 176.368 131.72 179.668C135.392 184.14 138.689 188.906 141.58 193.918C135.43 200.268 128.13 208.298 123.3 215.838L123.29 215.808ZM122.13 217.688C118.66 223.578 116.93 229.038 118.75 232.978C116.75 231.658 114.52 230.178 113.51 229.528C108.25 225.848 102.72 221.988 97.06 217.928C96.99 211.508 99.56 204.208 103.06 197.378C109.55 203.388 117.11 210.778 122.14 217.718L122.13 217.688ZM119.96 234.518C121.06 235.108 122.13 235.658 123.08 236.098L120.66 235.388C120.402 235.119 120.167 234.828 119.96 234.518ZM122.67 236.468L122.75 236.418L123.27 236.188L123.78 236.418L123.86 236.468L123.26 236.518L122.67 236.468ZM124.02 236.468C123.88 236.368 123.71 236.298 123.58 236.188H123.52L125.61 235.748C125.424 235.943 125.224 236.123 125.01 236.288C125.27 236.108 125.51 235.918 125.74 235.728C131.46 234.498 137.25 233.018 143.05 231.298C142.84 231.448 142.63 231.608 142.41 231.748C137.02 233.618 131.62 235.078 126.7 236.248L124.02 236.468ZM146.02 230.388L146.1 230.318L146.59 230.158L146.02 230.388ZM161.02 222.808C156.813 224.641 152.59 226.344 148.35 227.918C150.181 225.466 151.337 222.576 151.7 219.538C159.82 214.358 168.11 208.728 176.24 202.668C174.37 211.278 168.57 217.798 161.11 222.798L161.02 222.808ZM176.96 197.268C168.69 203.938 160.26 210.268 152.06 216.158C152.11 209.388 149.81 201.708 146.6 194.588C150.11 191.378 153.03 188.768 154.6 187.108C159.77 182.338 165.05 177.558 170.29 172.688C173.936 180.427 176.194 188.747 176.96 197.268ZM167.96 167.798C162.47 173.148 156.96 178.468 151.54 183.878C150.1 185.398 147.65 187.788 144.73 190.738C142.213 185.766 139.23 181.045 135.82 176.638C132.947 172.904 130.023 169.238 127.05 165.638C134.55 157.168 142.22 148.758 149.71 140.218C156.66 148.807 162.771 158.043 167.96 167.798ZM123.3 109.798C130.63 117.798 138.36 126.338 145.61 135.148C138.18 143.778 130.61 152.358 123.3 161.148C115.96 152.378 108.42 143.798 100.99 135.148C108.23 126.288 115.96 117.808 123.29 109.758L123.3 109.798ZM96.89 140.228C104.38 148.768 112.05 157.228 119.56 165.648C116.58 169.274 113.657 172.941 110.79 176.648C107.371 181.051 104.384 185.772 101.87 190.748C98.96 187.818 96.52 185.428 95.06 183.888C89.66 178.478 84.13 173.158 78.65 167.808C83.8265 158.038 89.9313 148.788 96.88 140.188L96.89 140.228ZM76.29 172.728C81.54 177.598 86.82 182.378 91.98 187.148C93.58 188.798 96.51 191.408 99.98 194.618C96.77 201.748 94.48 209.428 94.53 216.198C86.33 210.278 77.9 203.978 69.62 197.308C70.3781 188.774 72.6325 180.44 76.28 172.688L76.29 172.728ZM70.29 202.728C78.43 208.788 86.72 214.418 94.84 219.608C95.208 222.645 96.3628 225.534 98.19 227.988C93.95 226.398 89.71 224.698 85.49 222.858C77.96 217.798 72.21 211.278 70.25 202.658L70.29 202.728ZM100.49 230.388L100.56 230.448L100.04 230.238L100.49 230.388ZM104.17 231.758L103.55 231.318C109.34 233.038 115.13 234.518 120.85 235.738C121.084 235.943 121.331 236.134 121.59 236.308C121.379 236.141 121.178 235.961 120.99 235.768L123.08 236.208H123.02C122.879 236.309 122.732 236.403 122.58 236.488L119.91 236.228C114.96 235.018 109.53 233.558 104.13 231.688L104.17 231.758Z" fill="white" fill-opacity="0.1"/>
</svg>
