<svg width="360" height="418" viewBox="0 0 360 418" fill="none" xmlns="http://www.w3.org/2000/svg">
<rect width="360" height="418" rx="8" fill="#133373"/>
<path d="M28.2559 277.359H30.8125L35.0879 289.133L39.3525 277.359H41.9199L36.1084 293H34.0566L28.2559 277.359ZM26.9668 277.359H29.4697L29.9209 288.177V293H26.9668V277.359ZM40.6953 277.359H43.209V293H40.2549V288.177L40.6953 277.359ZM51.2227 293.215C50.3418 293.215 49.5505 293.072 48.8486 292.785C48.1468 292.499 47.5488 292.101 47.0547 291.593C46.5677 291.077 46.1917 290.479 45.9268 289.799C45.6689 289.111 45.54 288.374 45.54 287.586V287.156C45.54 286.261 45.6689 285.448 45.9268 284.718C46.1846 283.98 46.5498 283.346 47.0225 282.816C47.4951 282.286 48.0609 281.878 48.7197 281.592C49.3786 281.305 50.1055 281.162 50.9004 281.162C51.724 281.162 52.4508 281.302 53.0811 281.581C53.7113 281.853 54.2376 282.24 54.6602 282.741C55.0827 283.243 55.4014 283.844 55.6162 284.546C55.8311 285.241 55.9385 286.01 55.9385 286.855V288.048H46.8291V286.093H53.1455V285.878C53.1312 285.427 53.0452 285.015 52.8877 284.643C52.7301 284.263 52.4867 283.962 52.1572 283.74C51.8278 283.511 51.4017 283.396 50.8789 283.396C50.4564 283.396 50.0876 283.49 49.7725 283.676C49.4645 283.855 49.2067 284.113 48.999 284.449C48.7985 284.779 48.6481 285.173 48.5479 285.631C48.4476 286.089 48.3975 286.598 48.3975 287.156V287.586C48.3975 288.073 48.4619 288.524 48.5908 288.939C48.7269 289.355 48.9238 289.716 49.1816 290.024C49.4466 290.325 49.7617 290.562 50.127 290.733C50.4993 290.898 50.9219 290.98 51.3945 290.98C51.9889 290.98 52.526 290.866 53.0059 290.637C53.4928 290.4 53.9154 290.053 54.2734 289.595L55.7021 291.077C55.4587 291.435 55.1292 291.779 54.7139 292.108C54.3057 292.438 53.8115 292.706 53.2314 292.914C52.6514 293.115 51.9818 293.215 51.2227 293.215ZM63.0605 293.215C62.1797 293.215 61.3883 293.072 60.6865 292.785C59.9847 292.499 59.3867 292.101 58.8926 291.593C58.4056 291.077 58.0296 290.479 57.7646 289.799C57.5068 289.111 57.3779 288.374 57.3779 287.586V287.156C57.3779 286.261 57.5068 285.448 57.7646 284.718C58.0225 283.98 58.3877 283.346 58.8604 282.816C59.333 282.286 59.8988 281.878 60.5576 281.592C61.2165 281.305 61.9434 281.162 62.7383 281.162C63.5618 281.162 64.2887 281.302 64.9189 281.581C65.5492 281.853 66.0755 282.24 66.498 282.741C66.9206 283.243 67.2393 283.844 67.4541 284.546C67.6689 285.241 67.7764 286.01 67.7764 286.855V288.048H58.667V286.093H64.9834V285.878C64.9691 285.427 64.8831 285.015 64.7256 284.643C64.568 284.263 64.3245 283.962 63.9951 283.74C63.6657 283.511 63.2396 283.396 62.7168 283.396C62.2943 283.396 61.9255 283.49 61.6104 283.676C61.3024 283.855 61.0446 284.113 60.8369 284.449C60.6364 284.779 60.486 285.173 60.3857 285.631C60.2855 286.089 60.2354 286.598 60.2354 287.156V287.586C60.2354 288.073 60.2998 288.524 60.4287 288.939C60.5648 289.355 60.7617 289.716 61.0195 290.024C61.2845 290.325 61.5996 290.562 61.9648 290.733C62.3372 290.898 62.7598 290.98 63.2324 290.98C63.8268 290.98 64.3639 290.866 64.8438 290.637C65.3307 290.4 65.7533 290.053 66.1113 289.595L67.54 291.077C67.2965 291.435 66.9671 291.779 66.5518 292.108C66.1436 292.438 65.6494 292.706 65.0693 292.914C64.4893 293.115 63.8197 293.215 63.0605 293.215ZM75.1777 281.377V283.418H68.5176V281.377H75.1777ZM70.3008 278.52H73.1475V289.648C73.1475 289.992 73.194 290.257 73.2871 290.443C73.3802 290.63 73.5199 290.755 73.7061 290.819C73.8923 290.884 74.1143 290.916 74.3721 290.916C74.5583 290.916 74.7301 290.905 74.8877 290.884C75.0452 290.862 75.1777 290.841 75.2852 290.819L75.2959 292.946C75.0596 293.025 74.791 293.09 74.4902 293.14C74.1966 293.19 73.8636 293.215 73.4912 293.215C72.8538 293.215 72.2952 293.107 71.8154 292.893C71.3356 292.671 70.9632 292.316 70.6982 291.829C70.4333 291.335 70.3008 290.683 70.3008 289.874V278.52ZM85.9521 291.711L89.0674 281.377H92.1074L87.4453 294.762C87.3379 295.048 87.1982 295.36 87.0264 295.696C86.8617 296.033 86.6396 296.352 86.3604 296.652C86.0811 296.96 85.7301 297.211 85.3076 297.404C84.8923 297.598 84.3874 297.694 83.793 297.694C83.5352 297.694 83.306 297.676 83.1055 297.641C82.9049 297.605 82.6937 297.558 82.4717 297.501V295.374C82.5433 295.381 82.6257 295.385 82.7188 295.385C82.819 295.392 82.9049 295.396 82.9766 295.396C83.3919 295.396 83.7357 295.345 84.0078 295.245C84.2799 295.152 84.4984 294.998 84.6631 294.783C84.835 294.576 84.9782 294.303 85.0928 293.967L85.9521 291.711ZM84.416 281.377L87.0479 289.938L87.5098 292.936L85.5547 293.29L81.3545 281.377H84.416ZM92.8057 287.307V287.081C92.8057 286.229 92.9274 285.445 93.1709 284.729C93.4144 284.005 93.7689 283.379 94.2344 282.849C94.6999 282.319 95.2692 281.907 95.9424 281.613C96.6156 281.312 97.3818 281.162 98.2412 281.162C99.1149 281.162 99.8883 281.312 100.562 281.613C101.242 281.907 101.815 282.319 102.28 282.849C102.746 283.379 103.1 284.005 103.344 284.729C103.587 285.445 103.709 286.229 103.709 287.081V287.307C103.709 288.152 103.587 288.936 103.344 289.659C103.1 290.375 102.746 291.002 102.28 291.539C101.815 292.069 101.245 292.481 100.572 292.774C99.8991 293.068 99.1292 293.215 98.2627 293.215C97.4033 293.215 96.6335 293.068 95.9531 292.774C95.2728 292.481 94.6999 292.069 94.2344 291.539C93.7689 291.002 93.4144 290.375 93.1709 289.659C92.9274 288.936 92.8057 288.152 92.8057 287.307ZM95.6416 287.081V287.307C95.6416 287.815 95.6917 288.291 95.792 288.735C95.8923 289.179 96.0462 289.57 96.2539 289.906C96.4616 290.243 96.7301 290.508 97.0596 290.701C97.3962 290.887 97.7972 290.98 98.2627 290.98C98.721 290.98 99.1149 290.887 99.4443 290.701C99.7738 290.508 100.042 290.243 100.25 289.906C100.465 289.57 100.622 289.179 100.723 288.735C100.823 288.291 100.873 287.815 100.873 287.307V287.081C100.873 286.58 100.823 286.111 100.723 285.674C100.622 285.23 100.465 284.84 100.25 284.503C100.042 284.159 99.7702 283.891 99.4336 283.697C99.1042 283.497 98.7067 283.396 98.2412 283.396C97.7829 283.396 97.389 283.497 97.0596 283.697C96.7301 283.891 96.4616 284.159 96.2539 284.503C96.0462 284.84 95.8923 285.23 95.792 285.674C95.6917 286.111 95.6416 286.58 95.6416 287.081ZM112.689 290.239V281.377H115.547V293H112.861L112.689 290.239ZM113.055 287.833L113.936 287.812C113.936 288.592 113.85 289.312 113.678 289.971C113.506 290.63 113.237 291.202 112.872 291.689C112.514 292.169 112.059 292.545 111.508 292.817C110.956 293.082 110.305 293.215 109.553 293.215C108.98 293.215 108.457 293.136 107.984 292.979C107.512 292.814 107.104 292.56 106.76 292.216C106.423 291.865 106.162 291.417 105.976 290.873C105.789 290.322 105.696 289.659 105.696 288.886V281.377H108.532V288.907C108.532 289.294 108.575 289.616 108.661 289.874C108.754 290.132 108.88 290.343 109.037 290.508C109.202 290.665 109.392 290.78 109.606 290.852C109.828 290.916 110.065 290.948 110.315 290.948C111.003 290.948 111.544 290.812 111.938 290.54C112.339 290.261 112.625 289.888 112.797 289.423C112.969 288.95 113.055 288.42 113.055 287.833ZM120.896 283.751V293H118.061V281.377H120.746L120.896 283.751ZM124.431 281.302L124.388 283.944C124.23 283.916 124.051 283.894 123.851 283.88C123.657 283.866 123.475 283.858 123.303 283.858C122.866 283.858 122.483 283.919 122.153 284.041C121.824 284.156 121.548 284.324 121.326 284.546C121.111 284.768 120.947 285.04 120.832 285.362C120.717 285.677 120.653 286.035 120.639 286.437L120.026 286.361C120.026 285.624 120.102 284.94 120.252 284.31C120.402 283.679 120.621 283.128 120.907 282.655C121.194 282.183 121.552 281.817 121.981 281.56C122.418 281.295 122.92 281.162 123.485 281.162C123.643 281.162 123.811 281.176 123.99 281.205C124.176 281.227 124.323 281.259 124.431 281.302ZM134.249 276.5V293H131.402V276.5H134.249ZM133.798 286.77H132.96C132.96 285.96 133.067 285.215 133.282 284.535C133.497 283.855 133.801 283.264 134.195 282.763C134.589 282.254 135.058 281.86 135.603 281.581C136.154 281.302 136.763 281.162 137.429 281.162C138.002 281.162 138.521 281.244 138.986 281.409C139.459 281.567 139.864 281.821 140.2 282.172C140.537 282.523 140.795 282.981 140.974 283.547C141.16 284.105 141.253 284.786 141.253 285.588V293H138.396V285.566C138.396 285.029 138.317 284.607 138.159 284.299C138.002 283.984 137.776 283.758 137.482 283.622C137.196 283.486 136.841 283.418 136.419 283.418C135.961 283.418 135.567 283.507 135.237 283.687C134.908 283.858 134.636 284.098 134.421 284.406C134.213 284.714 134.056 285.069 133.948 285.47C133.848 285.871 133.798 286.304 133.798 286.77ZM148.977 293.215C148.096 293.215 147.304 293.072 146.603 292.785C145.901 292.499 145.303 292.101 144.809 291.593C144.322 291.077 143.946 290.479 143.681 289.799C143.423 289.111 143.294 288.374 143.294 287.586V287.156C143.294 286.261 143.423 285.448 143.681 284.718C143.938 283.98 144.304 283.346 144.776 282.816C145.249 282.286 145.815 281.878 146.474 281.592C147.132 281.305 147.859 281.162 148.654 281.162C149.478 281.162 150.205 281.302 150.835 281.581C151.465 281.853 151.992 282.24 152.414 282.741C152.837 283.243 153.155 283.844 153.37 284.546C153.585 285.241 153.692 286.01 153.692 286.855V288.048H144.583V286.093H150.899V285.878C150.885 285.427 150.799 285.015 150.642 284.643C150.484 284.263 150.241 283.962 149.911 283.74C149.582 283.511 149.156 283.396 148.633 283.396C148.21 283.396 147.841 283.49 147.526 283.676C147.218 283.855 146.961 284.113 146.753 284.449C146.552 284.779 146.402 285.173 146.302 285.631C146.201 286.089 146.151 286.598 146.151 287.156V287.586C146.151 288.073 146.216 288.524 146.345 288.939C146.481 289.355 146.678 289.716 146.936 290.024C147.201 290.325 147.516 290.562 147.881 290.733C148.253 290.898 148.676 290.98 149.148 290.98C149.743 290.98 150.28 290.866 150.76 290.637C151.247 290.4 151.669 290.053 152.027 289.595L153.456 291.077C153.213 291.435 152.883 291.779 152.468 292.108C152.06 292.438 151.565 292.706 150.985 292.914C150.405 293.115 149.736 293.215 148.977 293.215ZM161.996 290.529V285.169C161.996 284.775 161.928 284.435 161.792 284.148C161.656 283.862 161.448 283.64 161.169 283.482C160.89 283.325 160.535 283.246 160.105 283.246C159.726 283.246 159.393 283.311 159.106 283.439C158.827 283.568 158.612 283.751 158.462 283.987C158.312 284.216 158.236 284.481 158.236 284.782H155.39C155.39 284.302 155.504 283.848 155.733 283.418C155.963 282.981 156.288 282.594 156.711 282.258C157.141 281.914 157.653 281.646 158.247 281.452C158.849 281.259 159.522 281.162 160.267 281.162C161.147 281.162 161.932 281.312 162.619 281.613C163.314 281.907 163.858 282.351 164.252 282.945C164.653 283.54 164.854 284.288 164.854 285.19V290.261C164.854 290.841 164.889 291.339 164.961 291.754C165.04 292.162 165.154 292.517 165.305 292.817V293H162.415C162.279 292.706 162.175 292.334 162.104 291.883C162.032 291.424 161.996 290.973 161.996 290.529ZM162.394 285.921L162.415 287.607H160.621C160.177 287.607 159.787 287.654 159.45 287.747C159.114 287.833 158.838 287.962 158.623 288.134C158.408 288.299 158.247 288.499 158.14 288.735C158.032 288.965 157.979 289.226 157.979 289.52C157.979 289.806 158.043 290.064 158.172 290.293C158.308 290.522 158.501 290.705 158.752 290.841C159.01 290.97 159.311 291.034 159.654 291.034C160.156 291.034 160.592 290.934 160.965 290.733C161.337 290.526 161.627 290.275 161.835 289.981C162.043 289.688 162.154 289.409 162.168 289.144L162.984 290.368C162.884 290.662 162.734 290.973 162.533 291.303C162.333 291.632 162.075 291.94 161.76 292.227C161.445 292.513 161.065 292.749 160.621 292.936C160.177 293.122 159.661 293.215 159.074 293.215C158.322 293.215 157.649 293.064 157.055 292.764C156.46 292.463 155.991 292.051 155.647 291.528C155.304 291.006 155.132 290.411 155.132 289.745C155.132 289.129 155.246 288.585 155.476 288.112C155.705 287.64 156.045 287.242 156.496 286.92C156.947 286.59 157.506 286.343 158.172 286.179C158.845 286.007 159.615 285.921 160.481 285.921H162.394ZM170.418 276.5V293H167.571V276.5H170.418ZM178.625 281.377V283.418H171.965V281.377H178.625ZM173.748 278.52H176.595V289.648C176.595 289.992 176.641 290.257 176.734 290.443C176.827 290.63 176.967 290.755 177.153 290.819C177.34 290.884 177.562 290.916 177.819 290.916C178.006 290.916 178.177 290.905 178.335 290.884C178.493 290.862 178.625 290.841 178.732 290.819L178.743 292.946C178.507 293.025 178.238 293.09 177.938 293.14C177.644 293.19 177.311 293.215 176.938 293.215C176.301 293.215 175.743 293.107 175.263 292.893C174.783 292.671 174.41 292.316 174.146 291.829C173.881 291.335 173.748 290.683 173.748 289.874V278.52ZM183.298 276.5V293H180.451V276.5H183.298ZM182.847 286.77H182.009C182.009 285.96 182.116 285.215 182.331 284.535C182.546 283.855 182.85 283.264 183.244 282.763C183.638 282.254 184.107 281.86 184.651 281.581C185.203 281.302 185.812 281.162 186.478 281.162C187.05 281.162 187.57 281.244 188.035 281.409C188.508 281.567 188.912 281.821 189.249 282.172C189.586 282.523 189.843 282.981 190.022 283.547C190.209 284.105 190.302 284.786 190.302 285.588V293H187.444V285.566C187.444 285.029 187.366 284.607 187.208 284.299C187.05 283.984 186.825 283.758 186.531 283.622C186.245 283.486 185.89 283.418 185.468 283.418C185.009 283.418 184.616 283.507 184.286 283.687C183.957 283.858 183.685 284.098 183.47 284.406C183.262 284.714 183.104 285.069 182.997 285.47C182.897 285.871 182.847 286.304 182.847 286.77ZM197.574 290.98C197.975 290.98 198.333 290.902 198.648 290.744C198.964 290.587 199.214 290.365 199.4 290.078C199.594 289.792 199.698 289.459 199.712 289.079H202.387C202.372 289.867 202.15 290.572 201.721 291.195C201.291 291.818 200.718 292.312 200.002 292.678C199.293 293.036 198.498 293.215 197.617 293.215C196.722 293.215 195.941 293.064 195.275 292.764C194.609 292.463 194.054 292.044 193.61 291.507C193.174 290.97 192.844 290.347 192.622 289.638C192.407 288.929 192.3 288.17 192.3 287.36V287.017C192.3 286.207 192.407 285.448 192.622 284.739C192.844 284.03 193.174 283.407 193.61 282.87C194.054 282.333 194.609 281.914 195.275 281.613C195.941 281.312 196.718 281.162 197.606 281.162C198.545 281.162 199.368 281.345 200.077 281.71C200.793 282.075 201.352 282.591 201.753 283.257C202.161 283.923 202.372 284.707 202.387 285.609H199.712C199.698 285.194 199.604 284.822 199.433 284.492C199.261 284.163 199.017 283.898 198.702 283.697C198.387 283.497 198.004 283.396 197.553 283.396C197.073 283.396 196.672 283.497 196.35 283.697C196.035 283.898 195.787 284.174 195.608 284.524C195.437 284.868 195.315 285.255 195.243 285.685C195.179 286.107 195.146 286.551 195.146 287.017V287.36C195.146 287.833 195.179 288.284 195.243 288.714C195.315 289.144 195.437 289.53 195.608 289.874C195.787 290.211 196.035 290.479 196.35 290.68C196.672 290.88 197.08 290.98 197.574 290.98ZM210.68 290.529V285.169C210.68 284.775 210.612 284.435 210.476 284.148C210.34 283.862 210.132 283.64 209.853 283.482C209.573 283.325 209.219 283.246 208.789 283.246C208.41 283.246 208.076 283.311 207.79 283.439C207.511 283.568 207.296 283.751 207.146 283.987C206.995 284.216 206.92 284.481 206.92 284.782H204.073C204.073 284.302 204.188 283.848 204.417 283.418C204.646 282.981 204.972 282.594 205.395 282.258C205.824 281.914 206.336 281.646 206.931 281.452C207.532 281.259 208.205 281.162 208.95 281.162C209.831 281.162 210.615 281.312 211.303 281.613C211.997 281.907 212.542 282.351 212.936 282.945C213.337 283.54 213.537 284.288 213.537 285.19V290.261C213.537 290.841 213.573 291.339 213.645 291.754C213.723 292.162 213.838 292.517 213.988 292.817V293H211.099C210.963 292.706 210.859 292.334 210.787 291.883C210.715 291.424 210.68 290.973 210.68 290.529ZM211.077 285.921L211.099 287.607H209.305C208.861 287.607 208.47 287.654 208.134 287.747C207.797 287.833 207.521 287.962 207.307 288.134C207.092 288.299 206.931 288.499 206.823 288.735C206.716 288.965 206.662 289.226 206.662 289.52C206.662 289.806 206.727 290.064 206.855 290.293C206.992 290.522 207.185 290.705 207.436 290.841C207.693 290.97 207.994 291.034 208.338 291.034C208.839 291.034 209.276 290.934 209.648 290.733C210.021 290.526 210.311 290.275 210.519 289.981C210.726 289.688 210.837 289.409 210.852 289.144L211.668 290.368C211.568 290.662 211.417 290.973 211.217 291.303C211.016 291.632 210.758 291.94 210.443 292.227C210.128 292.513 209.749 292.749 209.305 292.936C208.861 293.122 208.345 293.215 207.758 293.215C207.006 293.215 206.333 293.064 205.738 292.764C205.144 292.463 204.675 292.051 204.331 291.528C203.987 291.006 203.815 290.411 203.815 289.745C203.815 289.129 203.93 288.585 204.159 288.112C204.388 287.64 204.729 287.242 205.18 286.92C205.631 286.59 206.189 286.343 206.855 286.179C207.529 286.007 208.299 285.921 209.165 285.921H211.077ZM218.93 283.751V293H216.094V281.377H218.779L218.93 283.751ZM222.464 281.302L222.421 283.944C222.263 283.916 222.084 283.894 221.884 283.88C221.69 283.866 221.508 283.858 221.336 283.858C220.899 283.858 220.516 283.919 220.187 284.041C219.857 284.156 219.581 284.324 219.359 284.546C219.145 284.768 218.98 285.04 218.865 285.362C218.751 285.677 218.686 286.035 218.672 286.437L218.06 286.361C218.06 285.624 218.135 284.94 218.285 284.31C218.436 283.679 218.654 283.128 218.94 282.655C219.227 282.183 219.585 281.817 220.015 281.56C220.451 281.295 220.953 281.162 221.519 281.162C221.676 281.162 221.844 281.176 222.023 281.205C222.21 281.227 222.356 281.259 222.464 281.302ZM229.027 293.215C228.146 293.215 227.355 293.072 226.653 292.785C225.951 292.499 225.354 292.101 224.859 291.593C224.372 291.077 223.996 290.479 223.731 289.799C223.474 289.111 223.345 288.374 223.345 287.586V287.156C223.345 286.261 223.474 285.448 223.731 284.718C223.989 283.98 224.354 283.346 224.827 282.816C225.3 282.286 225.866 281.878 226.524 281.592C227.183 281.305 227.91 281.162 228.705 281.162C229.529 281.162 230.256 281.302 230.886 281.581C231.516 281.853 232.042 282.24 232.465 282.741C232.887 283.243 233.206 283.844 233.421 284.546C233.636 285.241 233.743 286.01 233.743 286.855V288.048H224.634V286.093H230.95V285.878C230.936 285.427 230.85 285.015 230.692 284.643C230.535 284.263 230.291 283.962 229.962 283.74C229.632 283.511 229.206 283.396 228.684 283.396C228.261 283.396 227.892 283.49 227.577 283.676C227.269 283.855 227.011 284.113 226.804 284.449C226.603 284.779 226.453 285.173 226.353 285.631C226.252 286.089 226.202 286.598 226.202 287.156V287.586C226.202 288.073 226.267 288.524 226.396 288.939C226.532 289.355 226.729 289.716 226.986 290.024C227.251 290.325 227.566 290.562 227.932 290.733C228.304 290.898 228.727 290.98 229.199 290.98C229.794 290.98 230.331 290.866 230.811 290.637C231.298 290.4 231.72 290.053 232.078 289.595L233.507 291.077C233.263 291.435 232.934 291.779 232.519 292.108C232.11 292.438 231.616 292.706 231.036 292.914C230.456 293.115 229.786 293.215 229.027 293.215ZM247.515 289.82C247.515 289.577 247.45 289.358 247.321 289.165C247.192 288.972 246.949 288.796 246.591 288.639C246.24 288.474 245.724 288.32 245.044 288.177C244.442 288.048 243.887 287.887 243.379 287.693C242.87 287.5 242.434 287.267 242.068 286.995C241.703 286.716 241.417 286.39 241.209 286.018C241.008 285.638 240.908 285.201 240.908 284.707C240.908 284.227 241.012 283.776 241.22 283.354C241.427 282.924 241.728 282.548 242.122 282.226C242.516 281.896 242.996 281.638 243.562 281.452C244.127 281.259 244.765 281.162 245.474 281.162C246.462 281.162 247.311 281.323 248.02 281.646C248.736 281.968 249.284 282.412 249.663 282.978C250.043 283.536 250.232 284.166 250.232 284.868H247.396C247.396 284.56 247.325 284.281 247.182 284.03C247.046 283.78 246.834 283.579 246.548 283.429C246.261 283.271 245.9 283.192 245.463 283.192C245.069 283.192 244.736 283.257 244.464 283.386C244.199 283.515 243.998 283.683 243.862 283.891C243.726 284.098 243.658 284.327 243.658 284.578C243.658 284.764 243.694 284.933 243.766 285.083C243.844 285.226 243.97 285.359 244.142 285.48C244.313 285.602 244.546 285.713 244.84 285.813C245.141 285.914 245.509 286.01 245.946 286.104C246.813 286.275 247.568 286.505 248.213 286.791C248.865 287.07 249.373 287.443 249.738 287.908C250.104 288.374 250.286 288.968 250.286 289.691C250.286 290.207 250.175 290.68 249.953 291.109C249.731 291.532 249.409 291.901 248.986 292.216C248.564 292.531 248.059 292.778 247.472 292.957C246.884 293.129 246.222 293.215 245.484 293.215C244.417 293.215 243.515 293.025 242.777 292.646C242.04 292.259 241.481 291.772 241.102 291.185C240.722 290.59 240.532 289.974 240.532 289.337H243.25C243.271 289.788 243.393 290.15 243.615 290.422C243.837 290.694 244.117 290.891 244.453 291.013C244.797 291.127 245.159 291.185 245.538 291.185C245.968 291.185 246.329 291.127 246.623 291.013C246.917 290.891 247.139 290.73 247.289 290.529C247.439 290.322 247.515 290.085 247.515 289.82ZM255.281 283.611V297.469H252.435V281.377H255.066L255.281 283.611ZM262.747 287.07V287.296C262.747 288.141 262.647 288.925 262.446 289.648C262.253 290.365 261.966 290.991 261.587 291.528C261.207 292.058 260.735 292.474 260.169 292.774C259.61 293.068 258.966 293.215 258.235 293.215C257.519 293.215 256.896 293.079 256.366 292.807C255.836 292.527 255.389 292.133 255.023 291.625C254.658 291.117 254.365 290.526 254.143 289.853C253.928 289.172 253.767 288.431 253.659 287.629V286.909C253.767 286.057 253.928 285.284 254.143 284.589C254.365 283.887 254.658 283.282 255.023 282.773C255.389 282.258 255.833 281.86 256.355 281.581C256.885 281.302 257.505 281.162 258.214 281.162C258.951 281.162 259.6 281.302 260.158 281.581C260.724 281.86 261.2 282.261 261.587 282.784C261.974 283.307 262.264 283.93 262.457 284.653C262.65 285.377 262.747 286.182 262.747 287.07ZM259.9 287.296V287.07C259.9 286.555 259.854 286.078 259.761 285.642C259.668 285.198 259.524 284.811 259.331 284.481C259.138 284.145 258.887 283.883 258.579 283.697C258.271 283.511 257.899 283.418 257.462 283.418C257.025 283.418 256.649 283.49 256.334 283.633C256.019 283.776 255.761 283.98 255.561 284.245C255.36 284.51 255.202 284.825 255.088 285.19C254.98 285.549 254.909 285.946 254.873 286.383V288.166C254.938 288.696 255.063 289.172 255.249 289.595C255.435 290.017 255.707 290.354 256.065 290.604C256.431 290.855 256.903 290.98 257.483 290.98C257.92 290.98 258.293 290.884 258.601 290.69C258.909 290.497 259.159 290.232 259.353 289.896C259.546 289.552 259.686 289.158 259.771 288.714C259.857 288.27 259.9 287.797 259.9 287.296ZM270.041 293.215C269.16 293.215 268.369 293.072 267.667 292.785C266.965 292.499 266.367 292.101 265.873 291.593C265.386 291.077 265.01 290.479 264.745 289.799C264.487 289.111 264.358 288.374 264.358 287.586V287.156C264.358 286.261 264.487 285.448 264.745 284.718C265.003 283.98 265.368 283.346 265.841 282.816C266.313 282.286 266.879 281.878 267.538 281.592C268.197 281.305 268.924 281.162 269.719 281.162C270.542 281.162 271.269 281.302 271.899 281.581C272.53 281.853 273.056 282.24 273.479 282.741C273.901 283.243 274.22 283.844 274.435 284.546C274.649 285.241 274.757 286.01 274.757 286.855V288.048H265.647V286.093H271.964V285.878C271.95 285.427 271.864 285.015 271.706 284.643C271.549 284.263 271.305 283.962 270.976 283.74C270.646 283.511 270.22 283.396 269.697 283.396C269.275 283.396 268.906 283.49 268.591 283.676C268.283 283.855 268.025 284.113 267.817 284.449C267.617 284.779 267.466 285.173 267.366 285.631C267.266 286.089 267.216 286.598 267.216 287.156V287.586C267.216 288.073 267.28 288.524 267.409 288.939C267.545 289.355 267.742 289.716 268 290.024C268.265 290.325 268.58 290.562 268.945 290.733C269.318 290.898 269.74 290.98 270.213 290.98C270.807 290.98 271.344 290.866 271.824 290.637C272.311 290.4 272.734 290.053 273.092 289.595L274.521 291.077C274.277 291.435 273.948 291.779 273.532 292.108C273.124 292.438 272.63 292.706 272.05 292.914C271.47 293.115 270.8 293.215 270.041 293.215ZM281.428 290.98C281.829 290.98 282.187 290.902 282.502 290.744C282.817 290.587 283.068 290.365 283.254 290.078C283.447 289.792 283.551 289.459 283.565 289.079H286.24C286.226 289.867 286.004 290.572 285.574 291.195C285.145 291.818 284.572 292.312 283.855 292.678C283.146 293.036 282.352 293.215 281.471 293.215C280.576 293.215 279.795 293.064 279.129 292.764C278.463 292.463 277.908 292.044 277.464 291.507C277.027 290.97 276.698 290.347 276.476 289.638C276.261 288.929 276.153 288.17 276.153 287.36V287.017C276.153 286.207 276.261 285.448 276.476 284.739C276.698 284.03 277.027 283.407 277.464 282.87C277.908 282.333 278.463 281.914 279.129 281.613C279.795 281.312 280.572 281.162 281.46 281.162C282.398 281.162 283.222 281.345 283.931 281.71C284.647 282.075 285.205 282.591 285.606 283.257C286.015 283.923 286.226 284.707 286.24 285.609H283.565C283.551 285.194 283.458 284.822 283.286 284.492C283.114 284.163 282.871 283.898 282.556 283.697C282.241 283.497 281.857 283.396 281.406 283.396C280.926 283.396 280.525 283.497 280.203 283.697C279.888 283.898 279.641 284.174 279.462 284.524C279.29 284.868 279.168 285.255 279.097 285.685C279.032 286.107 279 286.551 279 287.017V287.36C279 287.833 279.032 288.284 279.097 288.714C279.168 289.144 279.29 289.53 279.462 289.874C279.641 290.211 279.888 290.479 280.203 290.68C280.525 290.88 280.934 290.98 281.428 290.98ZM291.139 281.377V293H288.292V281.377H291.139ZM288.099 278.337C288.099 277.914 288.242 277.563 288.528 277.284C288.822 277.005 289.216 276.865 289.71 276.865C290.204 276.865 290.594 277.005 290.881 277.284C291.174 277.563 291.321 277.914 291.321 278.337C291.321 278.752 291.174 279.1 290.881 279.379C290.594 279.658 290.204 279.798 289.71 279.798C289.216 279.798 288.822 279.658 288.528 279.379C288.242 279.1 288.099 278.752 288.099 278.337ZM300.248 290.529V285.169C300.248 284.775 300.18 284.435 300.044 284.148C299.908 283.862 299.7 283.64 299.421 283.482C299.142 283.325 298.787 283.246 298.357 283.246C297.978 283.246 297.645 283.311 297.358 283.439C297.079 283.568 296.864 283.751 296.714 283.987C296.563 284.216 296.488 284.481 296.488 284.782H293.642C293.642 284.302 293.756 283.848 293.985 283.418C294.215 282.981 294.54 282.594 294.963 282.258C295.393 281.914 295.905 281.646 296.499 281.452C297.101 281.259 297.774 281.162 298.519 281.162C299.399 281.162 300.184 281.312 300.871 281.613C301.566 281.907 302.11 282.351 302.504 282.945C302.905 283.54 303.105 284.288 303.105 285.19V290.261C303.105 290.841 303.141 291.339 303.213 291.754C303.292 292.162 303.406 292.517 303.557 292.817V293H300.667C300.531 292.706 300.427 292.334 300.355 291.883C300.284 291.424 300.248 290.973 300.248 290.529ZM300.646 285.921L300.667 287.607H298.873C298.429 287.607 298.039 287.654 297.702 287.747C297.366 287.833 297.09 287.962 296.875 288.134C296.66 288.299 296.499 288.499 296.392 288.735C296.284 288.965 296.23 289.226 296.23 289.52C296.23 289.806 296.295 290.064 296.424 290.293C296.56 290.522 296.753 290.705 297.004 290.841C297.262 290.97 297.562 291.034 297.906 291.034C298.408 291.034 298.844 290.934 299.217 290.733C299.589 290.526 299.879 290.275 300.087 289.981C300.295 289.688 300.406 289.409 300.42 289.144L301.236 290.368C301.136 290.662 300.986 290.973 300.785 291.303C300.585 291.632 300.327 291.94 300.012 292.227C299.697 292.513 299.317 292.749 298.873 292.936C298.429 293.122 297.913 293.215 297.326 293.215C296.574 293.215 295.901 293.064 295.307 292.764C294.712 292.463 294.243 292.051 293.899 291.528C293.556 291.006 293.384 290.411 293.384 289.745C293.384 289.129 293.498 288.585 293.728 288.112C293.957 287.64 294.297 287.242 294.748 286.92C295.199 286.59 295.758 286.343 296.424 286.179C297.097 286.007 297.867 285.921 298.733 285.921H300.646ZM308.67 276.5V293H305.823V276.5H308.67ZM314.385 281.377V293H311.538V281.377H314.385ZM311.345 278.337C311.345 277.914 311.488 277.563 311.774 277.284C312.068 277.005 312.462 276.865 312.956 276.865C313.45 276.865 313.84 277.005 314.127 277.284C314.421 277.563 314.567 277.914 314.567 278.337C314.567 278.752 314.421 279.1 314.127 279.379C313.84 279.658 313.45 279.798 312.956 279.798C312.462 279.798 312.068 279.658 311.774 279.379C311.488 279.1 311.345 278.752 311.345 278.337ZM323.483 289.82C323.483 289.577 323.419 289.358 323.29 289.165C323.161 288.972 322.918 288.796 322.56 288.639C322.209 288.474 321.693 288.32 321.013 288.177C320.411 288.048 319.856 287.887 319.348 287.693C318.839 287.5 318.402 287.267 318.037 286.995C317.672 286.716 317.385 286.39 317.178 286.018C316.977 285.638 316.877 285.201 316.877 284.707C316.877 284.227 316.981 283.776 317.188 283.354C317.396 282.924 317.697 282.548 318.091 282.226C318.485 281.896 318.965 281.638 319.53 281.452C320.096 281.259 320.733 281.162 321.442 281.162C322.431 281.162 323.279 281.323 323.988 281.646C324.704 281.968 325.252 282.412 325.632 282.978C326.011 283.536 326.201 284.166 326.201 284.868H323.365C323.365 284.56 323.294 284.281 323.15 284.03C323.014 283.78 322.803 283.579 322.517 283.429C322.23 283.271 321.868 283.192 321.432 283.192C321.038 283.192 320.705 283.257 320.433 283.386C320.168 283.515 319.967 283.683 319.831 283.891C319.695 284.098 319.627 284.327 319.627 284.578C319.627 284.764 319.663 284.933 319.734 285.083C319.813 285.226 319.938 285.359 320.11 285.48C320.282 285.602 320.515 285.713 320.809 285.813C321.109 285.914 321.478 286.01 321.915 286.104C322.782 286.275 323.537 286.505 324.182 286.791C324.833 287.07 325.342 287.443 325.707 287.908C326.072 288.374 326.255 288.968 326.255 289.691C326.255 290.207 326.144 290.68 325.922 291.109C325.7 291.532 325.378 291.901 324.955 292.216C324.533 292.531 324.028 292.778 323.44 292.957C322.853 293.129 322.191 293.215 321.453 293.215C320.386 293.215 319.484 293.025 318.746 292.646C318.008 292.259 317.45 291.772 317.07 291.185C316.691 290.59 316.501 289.974 316.501 289.337H319.219C319.24 289.788 319.362 290.15 319.584 290.422C319.806 290.694 320.085 290.891 320.422 291.013C320.766 291.127 321.127 291.185 321.507 291.185C321.937 291.185 322.298 291.127 322.592 291.013C322.885 290.891 323.107 290.73 323.258 290.529C323.408 290.322 323.483 290.085 323.483 289.82ZM333.914 281.377V283.418H327.254V281.377H333.914ZM329.037 278.52H331.884V289.648C331.884 289.992 331.93 290.257 332.023 290.443C332.117 290.63 332.256 290.755 332.442 290.819C332.629 290.884 332.851 290.916 333.108 290.916C333.295 290.916 333.466 290.905 333.624 290.884C333.782 290.862 333.914 290.841 334.021 290.819L334.032 292.946C333.796 293.025 333.527 293.09 333.227 293.14C332.933 293.19 332.6 293.215 332.228 293.215C331.59 293.215 331.032 293.107 330.552 292.893C330.072 292.671 329.7 292.316 329.435 291.829C329.17 291.335 329.037 290.683 329.037 289.874V278.52ZM39.8467 316.377V318.418H33.1865V316.377H39.8467ZM34.9697 313.52H37.8164V324.648C37.8164 324.992 37.863 325.257 37.9561 325.443C38.0492 325.63 38.1888 325.755 38.375 325.819C38.5612 325.884 38.7832 325.916 39.041 325.916C39.2272 325.916 39.3991 325.905 39.5566 325.884C39.7142 325.862 39.8467 325.841 39.9541 325.819L39.9648 327.946C39.7285 328.025 39.46 328.09 39.1592 328.14C38.8656 328.19 38.5326 328.215 38.1602 328.215C37.5228 328.215 36.9642 328.107 36.4844 327.893C36.0046 327.671 35.6322 327.316 35.3672 326.829C35.1022 326.335 34.9697 325.683 34.9697 324.874V313.52ZM40.9531 322.307V322.081C40.9531 321.229 41.0749 320.445 41.3184 319.729C41.5618 319.005 41.9163 318.379 42.3818 317.849C42.8473 317.319 43.4167 316.907 44.0898 316.613C44.763 316.312 45.5293 316.162 46.3887 316.162C47.2624 316.162 48.0358 316.312 48.709 316.613C49.3893 316.907 49.9622 317.319 50.4277 317.849C50.8932 318.379 51.2477 319.005 51.4912 319.729C51.7347 320.445 51.8564 321.229 51.8564 322.081V322.307C51.8564 323.152 51.7347 323.936 51.4912 324.659C51.2477 325.375 50.8932 326.002 50.4277 326.539C49.9622 327.069 49.3929 327.481 48.7197 327.774C48.0465 328.068 47.2767 328.215 46.4102 328.215C45.5508 328.215 44.7809 328.068 44.1006 327.774C43.4202 327.481 42.8473 327.069 42.3818 326.539C41.9163 326.002 41.5618 325.375 41.3184 324.659C41.0749 323.936 40.9531 323.152 40.9531 322.307ZM43.7891 322.081V322.307C43.7891 322.815 43.8392 323.291 43.9395 323.735C44.0397 324.179 44.1937 324.57 44.4014 324.906C44.609 325.243 44.8776 325.508 45.207 325.701C45.5436 325.887 45.9447 325.98 46.4102 325.98C46.8685 325.98 47.2624 325.887 47.5918 325.701C47.9212 325.508 48.1898 325.243 48.3975 324.906C48.6123 324.57 48.7699 324.179 48.8701 323.735C48.9704 323.291 49.0205 322.815 49.0205 322.307V322.081C49.0205 321.58 48.9704 321.111 48.8701 320.674C48.7699 320.23 48.6123 319.84 48.3975 319.503C48.1898 319.159 47.9176 318.891 47.5811 318.697C47.2516 318.497 46.8542 318.396 46.3887 318.396C45.9303 318.396 45.5365 318.497 45.207 318.697C44.8776 318.891 44.609 319.159 44.4014 319.503C44.1937 319.84 44.0397 320.23 43.9395 320.674C43.8392 321.111 43.7891 321.58 43.7891 322.081ZM66.3154 325.239V316.377H69.1729V328H66.4873L66.3154 325.239ZM66.6807 322.833L67.5615 322.812C67.5615 323.592 67.4756 324.312 67.3037 324.971C67.1318 325.63 66.8633 326.202 66.498 326.689C66.14 327.169 65.6852 327.545 65.1338 327.817C64.5824 328.082 63.9307 328.215 63.1787 328.215C62.6058 328.215 62.083 328.136 61.6104 327.979C61.1377 327.814 60.7295 327.56 60.3857 327.216C60.0492 326.865 59.7878 326.417 59.6016 325.873C59.4154 325.322 59.3223 324.659 59.3223 323.886V316.377H62.1582V323.907C62.1582 324.294 62.2012 324.616 62.2871 324.874C62.3802 325.132 62.5055 325.343 62.6631 325.508C62.8278 325.665 63.0176 325.78 63.2324 325.852C63.4544 325.916 63.6908 325.948 63.9414 325.948C64.6289 325.948 65.1696 325.812 65.5635 325.54C65.9645 325.261 66.251 324.888 66.4229 324.423C66.5947 323.95 66.6807 323.42 66.6807 322.833ZM74.4688 318.858V328H71.6328V316.377H74.2969L74.4688 318.858ZM74.0176 321.77H73.1797C73.1868 320.924 73.3014 320.158 73.5234 319.471C73.7454 318.783 74.057 318.192 74.458 317.698C74.8662 317.204 75.3496 316.825 75.9082 316.56C76.4668 316.295 77.0898 316.162 77.7773 316.162C78.3359 316.162 78.8408 316.241 79.292 316.398C79.7432 316.556 80.1299 316.807 80.4521 317.15C80.7816 317.494 81.0322 317.945 81.2041 318.504C81.3831 319.055 81.4727 319.736 81.4727 320.545V328H78.6152V320.523C78.6152 319.993 78.5365 319.575 78.3789 319.267C78.2285 318.959 78.0065 318.74 77.7129 318.611C77.4264 318.482 77.0719 318.418 76.6494 318.418C76.2126 318.418 75.8294 318.507 75.5 318.687C75.1777 318.858 74.9056 319.098 74.6836 319.406C74.4688 319.714 74.304 320.069 74.1895 320.47C74.0749 320.871 74.0176 321.304 74.0176 321.77ZM90.9473 325.529V311.5H93.8047V328H91.2266L90.9473 325.529ZM83.4814 322.328V322.103C83.4814 321.215 83.5817 320.409 83.7822 319.686C83.9899 318.955 84.2907 318.328 84.6846 317.806C85.0785 317.283 85.5547 316.878 86.1133 316.592C86.679 316.305 87.32 316.162 88.0361 316.162C88.7308 316.162 89.3359 316.302 89.8516 316.581C90.3743 316.86 90.8184 317.258 91.1836 317.773C91.556 318.289 91.8532 318.901 92.0752 319.61C92.2972 320.312 92.4583 321.086 92.5586 321.931V322.543C92.4583 323.367 92.2972 324.122 92.0752 324.81C91.8532 325.497 91.556 326.099 91.1836 326.614C90.8184 327.123 90.3743 327.517 89.8516 327.796C89.3288 328.075 88.7165 328.215 88.0146 328.215C87.3057 328.215 86.6683 328.068 86.1025 327.774C85.5439 327.481 85.0677 327.069 84.6738 326.539C84.2871 326.009 83.9899 325.386 83.7822 324.67C83.5817 323.954 83.4814 323.173 83.4814 322.328ZM86.3281 322.103V322.328C86.3281 322.829 86.3711 323.299 86.457 323.735C86.543 324.172 86.6826 324.559 86.876 324.896C87.0693 325.225 87.3164 325.483 87.6172 325.669C87.9251 325.855 88.2975 325.948 88.7344 325.948C89.293 325.948 89.7513 325.826 90.1094 325.583C90.4746 325.332 90.7575 324.992 90.958 324.562C91.1585 324.126 91.2874 323.635 91.3447 323.091V321.404C91.3161 320.975 91.2409 320.577 91.1191 320.212C91.0046 319.847 90.8398 319.532 90.625 319.267C90.4173 319.002 90.1595 318.794 89.8516 318.644C89.5436 318.493 89.1784 318.418 88.7559 318.418C88.319 318.418 87.9466 318.515 87.6387 318.708C87.3307 318.894 87.0801 319.156 86.8867 319.492C86.6934 319.829 86.5501 320.219 86.457 320.663C86.3711 321.107 86.3281 321.587 86.3281 322.103ZM101.593 328.215C100.712 328.215 99.9206 328.072 99.2188 327.785C98.5169 327.499 97.9189 327.101 97.4248 326.593C96.9378 326.077 96.5618 325.479 96.2969 324.799C96.0391 324.111 95.9102 323.374 95.9102 322.586V322.156C95.9102 321.261 96.0391 320.448 96.2969 319.718C96.5547 318.98 96.9199 318.346 97.3926 317.816C97.8652 317.286 98.431 316.878 99.0898 316.592C99.7487 316.305 100.476 316.162 101.271 316.162C102.094 316.162 102.821 316.302 103.451 316.581C104.081 316.853 104.608 317.24 105.03 317.741C105.453 318.243 105.771 318.844 105.986 319.546C106.201 320.241 106.309 321.01 106.309 321.855V323.048H97.1992V321.093H103.516V320.878C103.501 320.427 103.415 320.015 103.258 319.643C103.1 319.263 102.857 318.962 102.527 318.74C102.198 318.511 101.772 318.396 101.249 318.396C100.826 318.396 100.458 318.49 100.143 318.676C99.8346 318.855 99.5768 319.113 99.3691 319.449C99.1686 319.779 99.0182 320.173 98.918 320.631C98.8177 321.089 98.7676 321.598 98.7676 322.156V322.586C98.7676 323.073 98.832 323.524 98.9609 323.939C99.097 324.355 99.2939 324.716 99.5518 325.024C99.8167 325.325 100.132 325.562 100.497 325.733C100.869 325.898 101.292 325.98 101.765 325.98C102.359 325.98 102.896 325.866 103.376 325.637C103.863 325.4 104.285 325.053 104.644 324.595L106.072 326.077C105.829 326.435 105.499 326.779 105.084 327.108C104.676 327.438 104.182 327.706 103.602 327.914C103.021 328.115 102.352 328.215 101.593 328.215ZM111.046 318.751V328H108.21V316.377H110.896L111.046 318.751ZM114.58 316.302L114.537 318.944C114.38 318.916 114.201 318.894 114 318.88C113.807 318.866 113.624 318.858 113.452 318.858C113.015 318.858 112.632 318.919 112.303 319.041C111.973 319.156 111.698 319.324 111.476 319.546C111.261 319.768 111.096 320.04 110.981 320.362C110.867 320.677 110.802 321.035 110.788 321.437L110.176 321.361C110.176 320.624 110.251 319.94 110.401 319.31C110.552 318.679 110.77 318.128 111.057 317.655C111.343 317.183 111.701 316.817 112.131 316.56C112.568 316.295 113.069 316.162 113.635 316.162C113.792 316.162 113.961 316.176 114.14 316.205C114.326 316.227 114.473 316.259 114.58 316.302ZM122.529 324.82C122.529 324.577 122.465 324.358 122.336 324.165C122.207 323.972 121.964 323.796 121.605 323.639C121.255 323.474 120.739 323.32 120.059 323.177C119.457 323.048 118.902 322.887 118.394 322.693C117.885 322.5 117.448 322.267 117.083 321.995C116.718 321.716 116.431 321.39 116.224 321.018C116.023 320.638 115.923 320.201 115.923 319.707C115.923 319.227 116.027 318.776 116.234 318.354C116.442 317.924 116.743 317.548 117.137 317.226C117.531 316.896 118.01 316.638 118.576 316.452C119.142 316.259 119.779 316.162 120.488 316.162C121.477 316.162 122.325 316.323 123.034 316.646C123.75 316.968 124.298 317.412 124.678 317.978C125.057 318.536 125.247 319.166 125.247 319.868H122.411C122.411 319.56 122.34 319.281 122.196 319.03C122.06 318.78 121.849 318.579 121.562 318.429C121.276 318.271 120.914 318.192 120.478 318.192C120.084 318.192 119.751 318.257 119.479 318.386C119.214 318.515 119.013 318.683 118.877 318.891C118.741 319.098 118.673 319.327 118.673 319.578C118.673 319.764 118.709 319.933 118.78 320.083C118.859 320.226 118.984 320.359 119.156 320.48C119.328 320.602 119.561 320.713 119.854 320.813C120.155 320.914 120.524 321.01 120.961 321.104C121.827 321.275 122.583 321.505 123.228 321.791C123.879 322.07 124.388 322.443 124.753 322.908C125.118 323.374 125.301 323.968 125.301 324.691C125.301 325.207 125.19 325.68 124.968 326.109C124.746 326.532 124.424 326.901 124.001 327.216C123.578 327.531 123.074 327.778 122.486 327.957C121.899 328.129 121.237 328.215 120.499 328.215C119.432 328.215 118.53 328.025 117.792 327.646C117.054 327.259 116.496 326.772 116.116 326.185C115.737 325.59 115.547 324.974 115.547 324.337H118.265C118.286 324.788 118.408 325.15 118.63 325.422C118.852 325.694 119.131 325.891 119.468 326.013C119.812 326.127 120.173 326.185 120.553 326.185C120.982 326.185 121.344 326.127 121.638 326.013C121.931 325.891 122.153 325.73 122.304 325.529C122.454 325.322 122.529 325.085 122.529 324.82ZM132.96 316.377V318.418H126.3V316.377H132.96ZM128.083 313.52H130.93V324.648C130.93 324.992 130.976 325.257 131.069 325.443C131.162 325.63 131.302 325.755 131.488 325.819C131.674 325.884 131.896 325.916 132.154 325.916C132.34 325.916 132.512 325.905 132.67 325.884C132.827 325.862 132.96 325.841 133.067 325.819L133.078 327.946C132.842 328.025 132.573 328.09 132.272 328.14C131.979 328.19 131.646 328.215 131.273 328.215C130.636 328.215 130.077 328.107 129.598 327.893C129.118 327.671 128.745 327.316 128.48 326.829C128.215 326.335 128.083 325.683 128.083 324.874V313.52ZM141.253 325.529V320.169C141.253 319.775 141.185 319.435 141.049 319.148C140.913 318.862 140.705 318.64 140.426 318.482C140.146 318.325 139.792 318.246 139.362 318.246C138.983 318.246 138.65 318.311 138.363 318.439C138.084 318.568 137.869 318.751 137.719 318.987C137.568 319.216 137.493 319.481 137.493 319.782H134.646C134.646 319.302 134.761 318.848 134.99 318.418C135.219 317.981 135.545 317.594 135.968 317.258C136.397 316.914 136.91 316.646 137.504 316.452C138.105 316.259 138.779 316.162 139.523 316.162C140.404 316.162 141.188 316.312 141.876 316.613C142.571 316.907 143.115 317.351 143.509 317.945C143.91 318.54 144.11 319.288 144.11 320.19V325.261C144.11 325.841 144.146 326.339 144.218 326.754C144.297 327.162 144.411 327.517 144.562 327.817V328H141.672C141.536 327.706 141.432 327.334 141.36 326.883C141.289 326.424 141.253 325.973 141.253 325.529ZM141.65 320.921L141.672 322.607H139.878C139.434 322.607 139.044 322.654 138.707 322.747C138.37 322.833 138.095 322.962 137.88 323.134C137.665 323.299 137.504 323.499 137.396 323.735C137.289 323.965 137.235 324.226 137.235 324.52C137.235 324.806 137.3 325.064 137.429 325.293C137.565 325.522 137.758 325.705 138.009 325.841C138.267 325.97 138.567 326.034 138.911 326.034C139.412 326.034 139.849 325.934 140.222 325.733C140.594 325.526 140.884 325.275 141.092 324.981C141.299 324.688 141.41 324.409 141.425 324.144L142.241 325.368C142.141 325.662 141.991 325.973 141.79 326.303C141.59 326.632 141.332 326.94 141.017 327.227C140.701 327.513 140.322 327.749 139.878 327.936C139.434 328.122 138.918 328.215 138.331 328.215C137.579 328.215 136.906 328.064 136.312 327.764C135.717 327.463 135.248 327.051 134.904 326.528C134.561 326.006 134.389 325.411 134.389 324.745C134.389 324.129 134.503 323.585 134.732 323.112C134.962 322.64 135.302 322.242 135.753 321.92C136.204 321.59 136.763 321.343 137.429 321.179C138.102 321.007 138.872 320.921 139.738 320.921H141.65ZM149.449 318.858V328H146.613V316.377H149.277L149.449 318.858ZM148.998 321.77H148.16C148.167 320.924 148.282 320.158 148.504 319.471C148.726 318.783 149.037 318.192 149.438 317.698C149.847 317.204 150.33 316.825 150.889 316.56C151.447 316.295 152.07 316.162 152.758 316.162C153.316 316.162 153.821 316.241 154.272 316.398C154.724 316.556 155.11 316.807 155.433 317.15C155.762 317.494 156.013 317.945 156.185 318.504C156.364 319.055 156.453 319.736 156.453 320.545V328H153.596V320.523C153.596 319.993 153.517 319.575 153.359 319.267C153.209 318.959 152.987 318.74 152.693 318.611C152.407 318.482 152.052 318.418 151.63 318.418C151.193 318.418 150.81 318.507 150.48 318.687C150.158 318.858 149.886 319.098 149.664 319.406C149.449 319.714 149.285 320.069 149.17 320.47C149.055 320.871 148.998 321.304 148.998 321.77ZM165.928 325.529V311.5H168.785V328H166.207L165.928 325.529ZM158.462 322.328V322.103C158.462 321.215 158.562 320.409 158.763 319.686C158.97 318.955 159.271 318.328 159.665 317.806C160.059 317.283 160.535 316.878 161.094 316.592C161.66 316.305 162.3 316.162 163.017 316.162C163.711 316.162 164.316 316.302 164.832 316.581C165.355 316.86 165.799 317.258 166.164 317.773C166.536 318.289 166.834 318.901 167.056 319.61C167.278 320.312 167.439 321.086 167.539 321.931V322.543C167.439 323.367 167.278 324.122 167.056 324.81C166.834 325.497 166.536 326.099 166.164 326.614C165.799 327.123 165.355 327.517 164.832 327.796C164.309 328.075 163.697 328.215 162.995 328.215C162.286 328.215 161.649 328.068 161.083 327.774C160.524 327.481 160.048 327.069 159.654 326.539C159.268 326.009 158.97 325.386 158.763 324.67C158.562 323.954 158.462 323.173 158.462 322.328ZM161.309 322.103V322.328C161.309 322.829 161.352 323.299 161.438 323.735C161.523 324.172 161.663 324.559 161.856 324.896C162.05 325.225 162.297 325.483 162.598 325.669C162.906 325.855 163.278 325.948 163.715 325.948C164.273 325.948 164.732 325.826 165.09 325.583C165.455 325.332 165.738 324.992 165.938 324.562C166.139 324.126 166.268 323.635 166.325 323.091V321.404C166.297 320.975 166.221 320.577 166.1 320.212C165.985 319.847 165.82 319.532 165.605 319.267C165.398 319.002 165.14 318.794 164.832 318.644C164.524 318.493 164.159 318.418 163.736 318.418C163.299 318.418 162.927 318.515 162.619 318.708C162.311 318.894 162.061 319.156 161.867 319.492C161.674 319.829 161.531 320.219 161.438 320.663C161.352 321.107 161.309 321.587 161.309 322.103ZM174.36 316.377V328H171.514V316.377H174.36ZM171.32 313.337C171.32 312.914 171.464 312.563 171.75 312.284C172.044 312.005 172.438 311.865 172.932 311.865C173.426 311.865 173.816 312.005 174.103 312.284C174.396 312.563 174.543 312.914 174.543 313.337C174.543 313.752 174.396 314.1 174.103 314.379C173.816 314.658 173.426 314.798 172.932 314.798C172.438 314.798 172.044 314.658 171.75 314.379C171.464 314.1 171.32 313.752 171.32 313.337ZM179.85 318.858V328H177.014V316.377H179.678L179.85 318.858ZM179.398 321.77H178.561C178.568 320.924 178.682 320.158 178.904 319.471C179.126 318.783 179.438 318.192 179.839 317.698C180.247 317.204 180.73 316.825 181.289 316.56C181.848 316.295 182.471 316.162 183.158 316.162C183.717 316.162 184.222 316.241 184.673 316.398C185.124 316.556 185.511 316.807 185.833 317.15C186.162 317.494 186.413 317.945 186.585 318.504C186.764 319.055 186.854 319.736 186.854 320.545V328H183.996V320.523C183.996 319.993 183.917 319.575 183.76 319.267C183.609 318.959 183.387 318.74 183.094 318.611C182.807 318.482 182.453 318.418 182.03 318.418C181.593 318.418 181.21 318.507 180.881 318.687C180.559 318.858 180.286 319.098 180.064 319.406C179.85 319.714 179.685 320.069 179.57 320.47C179.456 320.871 179.398 321.304 179.398 321.77ZM196.747 316.377H199.325V327.646C199.325 328.698 199.096 329.59 198.638 330.32C198.187 331.058 197.553 331.617 196.736 331.996C195.92 332.383 194.971 332.576 193.89 332.576C193.424 332.576 192.919 332.512 192.375 332.383C191.838 332.254 191.319 332.05 190.817 331.771C190.323 331.498 189.911 331.144 189.582 330.707L190.86 329.031C191.247 329.482 191.684 329.823 192.171 330.052C192.658 330.288 193.184 330.406 193.75 330.406C194.323 330.406 194.81 330.299 195.211 330.084C195.619 329.876 195.931 329.568 196.146 329.16C196.368 328.759 196.479 328.265 196.479 327.678V319.03L196.747 316.377ZM188.895 322.328V322.103C188.895 321.215 189.002 320.409 189.217 319.686C189.432 318.955 189.74 318.328 190.141 317.806C190.549 317.283 191.039 316.878 191.612 316.592C192.192 316.305 192.844 316.162 193.567 316.162C194.334 316.162 194.978 316.302 195.501 316.581C196.031 316.86 196.468 317.258 196.812 317.773C197.162 318.289 197.435 318.901 197.628 319.61C197.828 320.312 197.982 321.086 198.09 321.931V322.543C197.99 323.367 197.828 324.122 197.606 324.81C197.392 325.497 197.105 326.099 196.747 326.614C196.389 327.123 195.945 327.517 195.415 327.796C194.885 328.075 194.262 328.215 193.546 328.215C192.83 328.215 192.185 328.068 191.612 327.774C191.039 327.481 190.549 327.069 190.141 326.539C189.74 326.009 189.432 325.386 189.217 324.67C189.002 323.954 188.895 323.173 188.895 322.328ZM191.73 322.103V322.328C191.73 322.829 191.781 323.299 191.881 323.735C191.981 324.172 192.135 324.559 192.343 324.896C192.55 325.225 192.812 325.483 193.127 325.669C193.442 325.855 193.818 325.948 194.255 325.948C194.842 325.948 195.322 325.826 195.694 325.583C196.074 325.332 196.36 324.992 196.554 324.562C196.754 324.126 196.883 323.635 196.94 323.091V321.404C196.905 320.975 196.826 320.577 196.704 320.212C196.59 319.847 196.428 319.532 196.221 319.267C196.013 319.002 195.748 318.794 195.426 318.644C195.104 318.493 194.72 318.418 194.276 318.418C193.847 318.418 193.471 318.515 193.148 318.708C192.826 318.894 192.561 319.156 192.354 319.492C192.146 319.829 191.988 320.219 191.881 320.663C191.781 321.107 191.73 321.587 191.73 322.103ZM210.766 326.711L213.881 316.377H216.921L212.259 329.762C212.151 330.048 212.012 330.36 211.84 330.696C211.675 331.033 211.453 331.352 211.174 331.652C210.895 331.96 210.544 332.211 210.121 332.404C209.706 332.598 209.201 332.694 208.606 332.694C208.349 332.694 208.119 332.676 207.919 332.641C207.718 332.605 207.507 332.558 207.285 332.501V330.374C207.357 330.381 207.439 330.385 207.532 330.385C207.632 330.392 207.718 330.396 207.79 330.396C208.205 330.396 208.549 330.345 208.821 330.245C209.093 330.152 209.312 329.998 209.477 329.783C209.648 329.576 209.792 329.303 209.906 328.967L210.766 326.711ZM209.229 316.377L211.861 324.938L212.323 327.936L210.368 328.29L206.168 316.377H209.229ZM217.619 322.307V322.081C217.619 321.229 217.741 320.445 217.984 319.729C218.228 319.005 218.582 318.379 219.048 317.849C219.513 317.319 220.083 316.907 220.756 316.613C221.429 316.312 222.195 316.162 223.055 316.162C223.928 316.162 224.702 316.312 225.375 316.613C226.055 316.907 226.628 317.319 227.094 317.849C227.559 318.379 227.914 319.005 228.157 319.729C228.401 320.445 228.522 321.229 228.522 322.081V322.307C228.522 323.152 228.401 323.936 228.157 324.659C227.914 325.375 227.559 326.002 227.094 326.539C226.628 327.069 226.059 327.481 225.386 327.774C224.713 328.068 223.943 328.215 223.076 328.215C222.217 328.215 221.447 328.068 220.767 327.774C220.086 327.481 219.513 327.069 219.048 326.539C218.582 326.002 218.228 325.375 217.984 324.659C217.741 323.936 217.619 323.152 217.619 322.307ZM220.455 322.081V322.307C220.455 322.815 220.505 323.291 220.605 323.735C220.706 324.179 220.86 324.57 221.067 324.906C221.275 325.243 221.544 325.508 221.873 325.701C222.21 325.887 222.611 325.98 223.076 325.98C223.535 325.98 223.928 325.887 224.258 325.701C224.587 325.508 224.856 325.243 225.063 324.906C225.278 324.57 225.436 324.179 225.536 323.735C225.636 323.291 225.687 322.815 225.687 322.307V322.081C225.687 321.58 225.636 321.111 225.536 320.674C225.436 320.23 225.278 319.84 225.063 319.503C224.856 319.159 224.584 318.891 224.247 318.697C223.918 318.497 223.52 318.396 223.055 318.396C222.596 318.396 222.202 318.497 221.873 318.697C221.544 318.891 221.275 319.159 221.067 319.503C220.86 319.84 220.706 320.23 220.605 320.674C220.505 321.111 220.455 321.58 220.455 322.081ZM237.503 325.239V316.377H240.36V328H237.675L237.503 325.239ZM237.868 322.833L238.749 322.812C238.749 323.592 238.663 324.312 238.491 324.971C238.319 325.63 238.051 326.202 237.686 326.689C237.327 327.169 236.873 327.545 236.321 327.817C235.77 328.082 235.118 328.215 234.366 328.215C233.793 328.215 233.271 328.136 232.798 327.979C232.325 327.814 231.917 327.56 231.573 327.216C231.237 326.865 230.975 326.417 230.789 325.873C230.603 325.322 230.51 324.659 230.51 323.886V316.377H233.346V323.907C233.346 324.294 233.389 324.616 233.475 324.874C233.568 325.132 233.693 325.343 233.851 325.508C234.015 325.665 234.205 325.78 234.42 325.852C234.642 325.916 234.878 325.948 235.129 325.948C235.816 325.948 236.357 325.812 236.751 325.54C237.152 325.261 237.438 324.888 237.61 324.423C237.782 323.95 237.868 323.42 237.868 322.833ZM245.71 318.751V328H242.874V316.377H245.56L245.71 318.751ZM249.244 316.302L249.201 318.944C249.044 318.916 248.865 318.894 248.664 318.88C248.471 318.866 248.288 318.858 248.116 318.858C247.679 318.858 247.296 318.919 246.967 319.041C246.637 319.156 246.362 319.324 246.14 319.546C245.925 319.768 245.76 320.04 245.646 320.362C245.531 320.677 245.466 321.035 245.452 321.437L244.84 321.361C244.84 320.624 244.915 319.94 245.065 319.31C245.216 318.679 245.434 318.128 245.721 317.655C246.007 317.183 246.365 316.817 246.795 316.56C247.232 316.295 247.733 316.162 248.299 316.162C248.456 316.162 248.625 316.176 248.804 316.205C248.99 316.227 249.137 316.259 249.244 316.302ZM262.672 324.82C262.672 324.577 262.607 324.358 262.479 324.165C262.35 323.972 262.106 323.796 261.748 323.639C261.397 323.474 260.882 323.32 260.201 323.177C259.6 323.048 259.045 322.887 258.536 322.693C258.028 322.5 257.591 322.267 257.226 321.995C256.86 321.716 256.574 321.39 256.366 321.018C256.166 320.638 256.065 320.201 256.065 319.707C256.065 319.227 256.169 318.776 256.377 318.354C256.585 317.924 256.885 317.548 257.279 317.226C257.673 316.896 258.153 316.638 258.719 316.452C259.285 316.259 259.922 316.162 260.631 316.162C261.619 316.162 262.468 316.323 263.177 316.646C263.893 316.968 264.441 317.412 264.82 317.978C265.2 318.536 265.39 319.166 265.39 319.868H262.554C262.554 319.56 262.482 319.281 262.339 319.03C262.203 318.78 261.992 318.579 261.705 318.429C261.419 318.271 261.057 318.192 260.62 318.192C260.226 318.192 259.893 318.257 259.621 318.386C259.356 318.515 259.156 318.683 259.02 318.891C258.883 319.098 258.815 319.327 258.815 319.578C258.815 319.764 258.851 319.933 258.923 320.083C259.002 320.226 259.127 320.359 259.299 320.48C259.471 320.602 259.703 320.713 259.997 320.813C260.298 320.914 260.667 321.01 261.104 321.104C261.97 321.275 262.726 321.505 263.37 321.791C264.022 322.07 264.53 322.443 264.896 322.908C265.261 323.374 265.443 323.968 265.443 324.691C265.443 325.207 265.332 325.68 265.11 326.109C264.888 326.532 264.566 326.901 264.144 327.216C263.721 327.531 263.216 327.778 262.629 327.957C262.042 328.129 261.379 328.215 260.642 328.215C259.575 328.215 258.672 328.025 257.935 327.646C257.197 327.259 256.638 326.772 256.259 326.185C255.879 325.59 255.689 324.974 255.689 324.337H258.407C258.429 324.788 258.55 325.15 258.772 325.422C258.994 325.694 259.274 325.891 259.61 326.013C259.954 326.127 260.316 326.185 260.695 326.185C261.125 326.185 261.487 326.127 261.78 326.013C262.074 325.891 262.296 325.73 262.446 325.529C262.597 325.322 262.672 325.085 262.672 324.82ZM271.008 326.711L274.123 316.377H277.163L272.501 329.762C272.394 330.048 272.254 330.36 272.082 330.696C271.917 331.033 271.695 331.352 271.416 331.652C271.137 331.96 270.786 332.211 270.363 332.404C269.948 332.598 269.443 332.694 268.849 332.694C268.591 332.694 268.362 332.676 268.161 332.641C267.961 332.605 267.749 332.558 267.527 332.501V330.374C267.599 330.381 267.681 330.385 267.774 330.385C267.875 330.392 267.961 330.396 268.032 330.396C268.448 330.396 268.791 330.345 269.063 330.245C269.336 330.152 269.554 329.998 269.719 329.783C269.891 329.576 270.034 329.303 270.148 328.967L271.008 326.711ZM269.472 316.377L272.104 324.938L272.565 327.936L270.61 328.29L266.41 316.377H269.472ZM284.93 324.82C284.93 324.577 284.865 324.358 284.736 324.165C284.607 323.972 284.364 323.796 284.006 323.639C283.655 323.474 283.139 323.32 282.459 323.177C281.857 323.048 281.302 322.887 280.794 322.693C280.285 322.5 279.849 322.267 279.483 321.995C279.118 321.716 278.832 321.39 278.624 321.018C278.424 320.638 278.323 320.201 278.323 319.707C278.323 319.227 278.427 318.776 278.635 318.354C278.842 317.924 279.143 317.548 279.537 317.226C279.931 316.896 280.411 316.638 280.977 316.452C281.542 316.259 282.18 316.162 282.889 316.162C283.877 316.162 284.726 316.323 285.435 316.646C286.151 316.968 286.699 317.412 287.078 317.978C287.458 318.536 287.647 319.166 287.647 319.868H284.812C284.812 319.56 284.74 319.281 284.597 319.03C284.461 318.78 284.249 318.579 283.963 318.429C283.676 318.271 283.315 318.192 282.878 318.192C282.484 318.192 282.151 318.257 281.879 318.386C281.614 318.515 281.413 318.683 281.277 318.891C281.141 319.098 281.073 319.327 281.073 319.578C281.073 319.764 281.109 319.933 281.181 320.083C281.259 320.226 281.385 320.359 281.557 320.48C281.729 320.602 281.961 320.713 282.255 320.813C282.556 320.914 282.924 321.01 283.361 321.104C284.228 321.275 284.983 321.505 285.628 321.791C286.28 322.07 286.788 322.443 287.153 322.908C287.519 323.374 287.701 323.968 287.701 324.691C287.701 325.207 287.59 325.68 287.368 326.109C287.146 326.532 286.824 326.901 286.401 327.216C285.979 327.531 285.474 327.778 284.887 327.957C284.299 328.129 283.637 328.215 282.899 328.215C281.832 328.215 280.93 328.025 280.192 327.646C279.455 327.259 278.896 326.772 278.517 326.185C278.137 325.59 277.947 324.974 277.947 324.337H280.665C280.687 324.788 280.808 325.15 281.03 325.422C281.252 325.694 281.532 325.891 281.868 326.013C282.212 326.127 282.574 326.185 282.953 326.185C283.383 326.185 283.744 326.127 284.038 326.013C284.332 325.891 284.554 325.73 284.704 325.529C284.854 325.322 284.93 325.085 284.93 324.82ZM295.36 316.377V318.418H288.7V316.377H295.36ZM290.483 313.52H293.33V324.648C293.33 324.992 293.377 325.257 293.47 325.443C293.563 325.63 293.702 325.755 293.889 325.819C294.075 325.884 294.297 325.916 294.555 325.916C294.741 325.916 294.913 325.905 295.07 325.884C295.228 325.862 295.36 325.841 295.468 325.819L295.479 327.946C295.242 328.025 294.974 328.09 294.673 328.14C294.379 328.19 294.046 328.215 293.674 328.215C293.036 328.215 292.478 328.107 291.998 327.893C291.518 327.671 291.146 327.316 290.881 326.829C290.616 326.335 290.483 325.683 290.483 324.874V313.52ZM302.472 328.215C301.591 328.215 300.799 328.072 300.098 327.785C299.396 327.499 298.798 327.101 298.304 326.593C297.817 326.077 297.441 325.479 297.176 324.799C296.918 324.111 296.789 323.374 296.789 322.586V322.156C296.789 321.261 296.918 320.448 297.176 319.718C297.434 318.98 297.799 318.346 298.271 317.816C298.744 317.286 299.31 316.878 299.969 316.592C300.628 316.305 301.354 316.162 302.149 316.162C302.973 316.162 303.7 316.302 304.33 316.581C304.96 316.853 305.487 317.24 305.909 317.741C306.332 318.243 306.65 318.844 306.865 319.546C307.08 320.241 307.188 321.01 307.188 321.855V323.048H298.078V321.093H304.395V320.878C304.38 320.427 304.294 320.015 304.137 319.643C303.979 319.263 303.736 318.962 303.406 318.74C303.077 318.511 302.651 318.396 302.128 318.396C301.705 318.396 301.337 318.49 301.021 318.676C300.714 318.855 300.456 319.113 300.248 319.449C300.048 319.779 299.897 320.173 299.797 320.631C299.697 321.089 299.646 321.598 299.646 322.156V322.586C299.646 323.073 299.711 323.524 299.84 323.939C299.976 324.355 300.173 324.716 300.431 325.024C300.696 325.325 301.011 325.562 301.376 325.733C301.748 325.898 302.171 325.98 302.644 325.98C303.238 325.98 303.775 325.866 304.255 325.637C304.742 325.4 305.164 325.053 305.522 324.595L306.951 326.077C306.708 326.435 306.378 326.779 305.963 327.108C305.555 327.438 305.061 327.706 304.48 327.914C303.9 328.115 303.231 328.215 302.472 328.215ZM311.914 318.762V328H309.078V316.377H311.753L311.914 318.762ZM311.495 321.77H310.625C310.625 320.96 310.722 320.215 310.915 319.535C311.116 318.855 311.409 318.264 311.796 317.763C312.183 317.254 312.659 316.86 313.225 316.581C313.798 316.302 314.46 316.162 315.212 316.162C315.735 316.162 316.215 316.241 316.651 316.398C317.088 316.549 317.464 316.789 317.779 317.118C318.102 317.44 318.349 317.863 318.521 318.386C318.692 318.901 318.778 319.521 318.778 320.244V328H315.942V320.534C315.942 319.99 315.864 319.564 315.706 319.256C315.556 318.948 315.337 318.733 315.051 318.611C314.764 318.482 314.421 318.418 314.02 318.418C313.576 318.418 313.192 318.507 312.87 318.687C312.555 318.858 312.294 319.098 312.086 319.406C311.885 319.714 311.735 320.069 311.635 320.47C311.542 320.871 311.495 321.304 311.495 321.77ZM318.563 321.243L317.393 321.458C317.4 320.728 317.5 320.044 317.693 319.406C317.887 318.762 318.17 318.2 318.542 317.72C318.922 317.233 319.391 316.853 319.949 316.581C320.515 316.302 321.167 316.162 321.904 316.162C322.477 316.162 322.993 316.244 323.451 316.409C323.917 316.567 324.314 316.821 324.644 317.172C324.973 317.516 325.224 317.963 325.396 318.515C325.575 319.066 325.664 319.739 325.664 320.534V328H322.807V320.523C322.807 319.958 322.728 319.524 322.57 319.224C322.42 318.923 322.201 318.715 321.915 318.601C321.629 318.479 321.292 318.418 320.905 318.418C320.511 318.418 320.168 318.493 319.874 318.644C319.588 318.787 319.344 318.987 319.144 319.245C318.95 319.503 318.803 319.804 318.703 320.147C318.61 320.484 318.563 320.849 318.563 321.243ZM149.567 346.5H152.414V360.433L152.135 363H149.567V346.5ZM159.891 357.07V357.296C159.891 358.162 159.794 358.957 159.601 359.681C159.414 360.404 159.132 361.031 158.752 361.561C158.372 362.083 157.9 362.492 157.334 362.785C156.775 363.072 156.12 363.215 155.368 363.215C154.652 363.215 154.029 363.075 153.499 362.796C152.976 362.517 152.536 362.123 152.178 361.614C151.82 361.099 151.533 360.493 151.318 359.799C151.104 359.097 150.942 358.331 150.835 357.5V356.888C150.942 356.05 151.104 355.284 151.318 354.589C151.533 353.894 151.82 353.289 152.178 352.773C152.536 352.258 152.976 351.86 153.499 351.581C154.022 351.302 154.638 351.162 155.347 351.162C156.106 351.162 156.768 351.309 157.334 351.603C157.907 351.889 158.38 352.297 158.752 352.827C159.132 353.35 159.414 353.973 159.601 354.696C159.794 355.412 159.891 356.204 159.891 357.07ZM157.044 357.296V357.07C157.044 356.576 157.005 356.111 156.926 355.674C156.847 355.23 156.718 354.84 156.539 354.503C156.36 354.166 156.117 353.901 155.809 353.708C155.501 353.515 155.114 353.418 154.648 353.418C154.204 353.418 153.825 353.493 153.51 353.644C153.202 353.794 152.944 354.002 152.736 354.267C152.536 354.532 152.378 354.843 152.264 355.201C152.156 355.559 152.085 355.946 152.049 356.361V358.037C152.099 358.589 152.217 359.086 152.403 359.53C152.59 359.967 152.865 360.314 153.23 360.572C153.603 360.83 154.083 360.959 154.67 360.959C155.128 360.959 155.511 360.869 155.819 360.69C156.127 360.504 156.371 360.246 156.55 359.917C156.729 359.58 156.854 359.19 156.926 358.746C157.005 358.302 157.044 357.819 157.044 357.296ZM167.174 363.215C166.293 363.215 165.502 363.072 164.8 362.785C164.098 362.499 163.5 362.101 163.006 361.593C162.519 361.077 162.143 360.479 161.878 359.799C161.62 359.111 161.491 358.374 161.491 357.586V357.156C161.491 356.261 161.62 355.448 161.878 354.718C162.136 353.98 162.501 353.346 162.974 352.816C163.446 352.286 164.012 351.878 164.671 351.592C165.33 351.305 166.057 351.162 166.852 351.162C167.675 351.162 168.402 351.302 169.032 351.581C169.662 351.853 170.189 352.24 170.611 352.741C171.034 353.243 171.353 353.844 171.567 354.546C171.782 355.241 171.89 356.01 171.89 356.855V358.048H162.78V356.093H169.097V355.878C169.082 355.427 168.996 355.015 168.839 354.643C168.681 354.263 168.438 353.962 168.108 353.74C167.779 353.511 167.353 353.396 166.83 353.396C166.408 353.396 166.039 353.49 165.724 353.676C165.416 353.855 165.158 354.113 164.95 354.449C164.75 354.779 164.599 355.173 164.499 355.631C164.399 356.089 164.349 356.598 164.349 357.156V357.586C164.349 358.073 164.413 358.524 164.542 358.939C164.678 359.355 164.875 359.716 165.133 360.024C165.398 360.325 165.713 360.562 166.078 360.733C166.451 360.898 166.873 360.98 167.346 360.98C167.94 360.98 168.477 360.866 168.957 360.637C169.444 360.4 169.867 360.053 170.225 359.595L171.653 361.077C171.41 361.435 171.08 361.779 170.665 362.108C170.257 362.438 169.763 362.706 169.183 362.914C168.603 363.115 167.933 363.215 167.174 363.215ZM179.291 351.377V353.418H172.631V351.377H179.291ZM174.414 348.52H177.261V359.648C177.261 359.992 177.307 360.257 177.4 360.443C177.493 360.63 177.633 360.755 177.819 360.819C178.006 360.884 178.228 360.916 178.485 360.916C178.672 360.916 178.843 360.905 179.001 360.884C179.159 360.862 179.291 360.841 179.398 360.819L179.409 362.946C179.173 363.025 178.904 363.09 178.604 363.14C178.31 363.19 177.977 363.215 177.604 363.215C176.967 363.215 176.409 363.107 175.929 362.893C175.449 362.671 175.076 362.316 174.812 361.829C174.547 361.335 174.414 360.683 174.414 359.874V348.52ZM186.682 351.377V353.418H180.021V351.377H186.682ZM181.805 348.52H184.651V359.648C184.651 359.992 184.698 360.257 184.791 360.443C184.884 360.63 185.024 360.755 185.21 360.819C185.396 360.884 185.618 360.916 185.876 360.916C186.062 360.916 186.234 360.905 186.392 360.884C186.549 360.862 186.682 360.841 186.789 360.819L186.8 362.946C186.563 363.025 186.295 363.09 185.994 363.14C185.701 363.19 185.368 363.215 184.995 363.215C184.358 363.215 183.799 363.107 183.319 362.893C182.84 362.671 182.467 362.316 182.202 361.829C181.937 361.335 181.805 360.683 181.805 359.874V348.52ZM193.793 363.215C192.912 363.215 192.121 363.072 191.419 362.785C190.717 362.499 190.119 362.101 189.625 361.593C189.138 361.077 188.762 360.479 188.497 359.799C188.239 359.111 188.11 358.374 188.11 357.586V357.156C188.11 356.261 188.239 355.448 188.497 354.718C188.755 353.98 189.12 353.346 189.593 352.816C190.065 352.286 190.631 351.878 191.29 351.592C191.949 351.305 192.676 351.162 193.471 351.162C194.294 351.162 195.021 351.302 195.651 351.581C196.282 351.853 196.808 352.24 197.23 352.741C197.653 353.243 197.972 353.844 198.187 354.546C198.401 355.241 198.509 356.01 198.509 356.855V358.048H189.399V356.093H195.716V355.878C195.701 355.427 195.616 355.015 195.458 354.643C195.3 354.263 195.057 353.962 194.728 353.74C194.398 353.511 193.972 353.396 193.449 353.396C193.027 353.396 192.658 353.49 192.343 353.676C192.035 353.855 191.777 354.113 191.569 354.449C191.369 354.779 191.218 355.173 191.118 355.631C191.018 356.089 190.968 356.598 190.968 357.156V357.586C190.968 358.073 191.032 358.524 191.161 358.939C191.297 359.355 191.494 359.716 191.752 360.024C192.017 360.325 192.332 360.562 192.697 360.733C193.07 360.898 193.492 360.98 193.965 360.98C194.559 360.98 195.096 360.866 195.576 360.637C196.063 360.4 196.486 360.053 196.844 359.595L198.272 361.077C198.029 361.435 197.7 361.779 197.284 362.108C196.876 362.438 196.382 362.706 195.802 362.914C195.222 363.115 194.552 363.215 193.793 363.215ZM203.246 353.751V363H200.41V351.377H203.096L203.246 353.751ZM206.78 351.302L206.737 353.944C206.58 353.916 206.401 353.894 206.2 353.88C206.007 353.866 205.824 353.858 205.652 353.858C205.215 353.858 204.832 353.919 204.503 354.041C204.174 354.156 203.898 354.324 203.676 354.546C203.461 354.768 203.296 355.04 203.182 355.362C203.067 355.677 203.003 356.035 202.988 356.437L202.376 356.361C202.376 355.624 202.451 354.94 202.602 354.31C202.752 353.679 202.97 353.128 203.257 352.655C203.543 352.183 203.901 351.817 204.331 351.56C204.768 351.295 205.269 351.162 205.835 351.162C205.993 351.162 206.161 351.176 206.34 351.205C206.526 351.227 206.673 351.259 206.78 351.302ZM206.845 361.614C206.845 361.185 206.992 360.823 207.285 360.529C207.579 360.236 207.976 360.089 208.478 360.089C208.979 360.089 209.376 360.236 209.67 360.529C209.964 360.823 210.11 361.185 210.11 361.614C210.11 362.037 209.964 362.395 209.67 362.688C209.376 362.975 208.979 363.118 208.478 363.118C207.976 363.118 207.579 362.975 207.285 362.688C206.992 362.395 206.845 362.037 206.845 361.614Z" fill="white"/>
<g clip-path="url(#clip0_2409_8803)">
<path d="M302.683 243.157C284.857 243.157 60.0028 243.279 60.0028 243.25C59.9035 243.017 18.9257 196.972 67.6896 158.321C91.3033 139.606 53.7434 110.972 83.6017 81.8155C106.373 59.5802 130.002 84.2403 154.674 73.8915C159.034 72.0646 163.407 69.1244 167.787 64.6131C170.252 62.0764 172.952 59.857 175.845 57.9415C181.007 54.5092 186.778 52.0782 192.656 50.5048C197.158 49.2979 201.732 48.5807 206.263 48.2387C233.83 46.1719 264.853 57.7976 280.864 74.7896C284.087 78.2109 298.744 95.9152 287.19 120.249C279.896 135.614 308.956 155.604 315.737 175.323C332.803 224.958 302.933 242.577 302.683 243.157Z" fill="#EBF3FA"/>
<path d="M133.109 167.693C133.109 167.693 140.976 156.119 131.76 150.345C131.76 150.345 125.153 147.271 120.14 148.138C120.14 148.138 128.62 159.377 126.437 160.83C124.256 162.284 117.888 147.622 117.888 147.622C117.888 147.622 103.648 147.815 99.3568 150.503C99.3568 150.503 112.491 159.055 110.02 159.924C107.548 160.794 93.4691 152.533 93.4691 152.533C93.4691 152.533 80.6033 156.226 82.1865 164.174C83.771 172.121 88.5624 174.097 90.5246 173.664C92.4867 173.229 103.614 167.493 104.046 169.097C104.479 170.701 98.0753 176.812 93.2054 177.604C93.2054 177.604 103.578 186.806 109.397 183.172C115.216 179.539 115.225 174.802 118.861 172.622C122.497 170.442 125.768 170.084 124.383 172.048C123 174.013 116.26 176.523 114.498 180.651C112.735 184.781 111.06 187.621 117.311 185.956C123.562 184.292 133.381 178.479 133.245 173.086C133.109 167.693 133.109 167.693 133.109 167.693Z" fill="#AEC3FF"/>
<path d="M88.6531 163.677C88.6531 163.677 124.117 158.348 133.109 167.693C133.109 167.693 135.424 172.726 141.302 176.892L142.387 179.08C142.387 179.08 135.497 173.237 133.244 173.088C133.245 173.087 135.303 160.045 88.6531 163.677Z" fill="#AEC3FF"/>
<path d="M141.302 176.892C141.302 176.892 149.573 181.716 151.221 191.79L149.847 192.068C149.847 192.068 146.25 181.861 141.385 178.253C136.52 174.645 141.302 176.892 141.302 176.892Z" fill="#AEC3FF"/>
<path d="M180.713 204.091C180.713 204.091 186.85 185.646 172.362 181.435C172.362 181.435 162.38 179.841 156.01 182.902C156.01 182.902 171.577 194.69 169.212 197.46C166.846 200.231 152.809 183.07 152.809 183.07C152.809 183.07 133.864 188.738 129.149 193.959C129.149 193.959 149.919 200.389 146.946 202.489C143.973 204.591 122.052 198.907 122.052 198.907C122.052 198.907 106.264 208.728 111.379 218.738C116.494 228.75 123.639 229.569 126.096 228.244C128.554 226.919 141.247 215.03 142.43 217.009C143.614 218.987 137.368 229.58 131.165 232.489C131.165 232.489 148.491 240.837 154.89 233.774C161.289 226.712 159.512 220.382 163.546 216.088C167.579 211.796 171.812 210.075 170.705 213.226C169.599 216.376 161.546 222.286 160.751 228.471C159.958 234.655 158.79 239.084 166.51 234.485C174.23 229.887 185.148 218.394 182.931 211.243C180.713 204.091 180.713 204.091 180.713 204.091Z" fill="#D2E0FF"/>
<path d="M119.826 215.616C119.826 215.616 165.176 195.027 180.712 204.091C180.712 204.091 185.993 210.587 182.93 211.243C182.93 211.243 180.754 193.042 119.826 215.616Z" fill="#D2E0FF"/>
<path opacity="0.3" d="M196.515 127.556C196.515 127.556 192.763 103.319 202.298 85.5148C211.833 67.7108 224.101 60.5533 226.103 65.7289C228.104 70.9045 208.851 85.4373 203.658 99.8422C198.464 114.247 196.515 127.556 196.515 127.556Z" fill="#AFCDFB"/>
<path opacity="0.3" d="M201.306 133.132C201.306 133.132 200.108 115.279 208.16 102.945C216.212 90.6105 225.58 86.1878 226.709 90.0753C227.837 93.9641 212.928 103.304 208.244 113.444C203.561 123.583 201.306 133.132 201.306 133.132Z" fill="#AFCDFB"/>
<path opacity="0.3" d="M276.044 98.0091C273.493 88.5363 257.558 91.4864 257.558 91.4864C257.558 91.4864 246.729 108.054 243.582 108.448C240.434 108.84 250.083 92.4681 250.083 92.4681C243.986 91.8727 228.441 99.3611 228.441 99.3611C228.441 99.3611 229.413 118.699 226.266 118.303C223.119 117.907 226.277 101.136 226.277 101.136C220.374 102.909 214.863 109.811 214.863 109.811C207.972 121.054 222.719 129.351 222.719 129.351C222.719 129.351 222.912 136.059 218.776 143.753C218.776 143.753 217.843 145.173 216.894 147.588L218.503 147.589C218.634 147.156 218.78 146.738 218.941 146.336C218.941 146.334 218.942 146.332 218.944 146.329C218.947 146.323 218.949 146.318 218.952 146.312C219.062 146.062 219.22 145.708 219.418 145.276C219.418 145.276 219.418 145.275 219.419 145.275C219.419 145.274 219.42 145.274 219.42 145.272C219.912 144.308 220.244 143.594 220.455 143.08C220.457 143.079 220.457 143.076 220.457 143.075C221.931 140.046 224.055 136.1 225.471 135.273C225.471 135.273 225.293 135.022 225.128 134.532C225.237 134.769 225.352 135.015 225.471 135.273C228.222 141.194 241.99 142.189 249.662 140.616C257.335 139.042 253.991 136.87 249.864 133.344C245.734 129.818 237.08 130.742 234.523 129.359C231.967 127.976 235.705 126.597 240.819 126.995C245.933 127.392 248.488 132.525 256.748 133.319C265.009 134.114 271.314 118.529 271.314 118.529C265.609 120.302 255.382 117.138 254.99 115.165C254.597 113.191 269.743 113.398 272.104 112.808C274.461 112.215 278.595 107.482 276.044 98.0091Z" fill="#AFCDFB"/>
<path opacity="0.3" d="M299.195 159.918C296.644 150.445 280.709 153.396 280.709 153.396C280.709 153.396 269.88 169.963 266.733 170.357C263.585 170.749 273.234 154.377 273.234 154.377C267.137 153.782 251.593 161.27 251.593 161.27C251.593 161.27 252.564 180.608 249.417 180.212C246.27 179.816 249.428 163.046 249.428 163.046C243.526 164.818 238.014 171.72 238.014 171.72C231.124 182.963 245.871 191.26 245.871 191.26C245.871 191.26 246.063 197.968 241.928 205.662C241.928 205.662 240.995 207.082 240.045 209.497L241.654 209.498C241.786 209.065 241.931 208.647 242.092 208.246C242.092 208.243 242.093 208.241 242.096 208.238C242.098 208.232 242.101 208.227 242.103 208.221C242.214 207.971 242.372 207.617 242.569 207.185C242.569 207.185 242.569 207.184 242.57 207.184C242.57 207.183 242.572 207.183 242.572 207.182C243.063 206.217 243.396 205.503 243.607 204.989C243.608 204.988 243.608 204.986 243.608 204.984C245.082 201.955 247.206 198.009 248.622 197.182C248.622 197.182 248.445 196.931 248.279 196.442C248.388 196.678 248.504 196.924 248.622 197.182C251.373 203.103 265.142 204.099 272.814 202.525C280.486 200.952 277.143 198.779 273.015 195.253C268.886 191.727 260.231 192.651 257.674 191.268C255.119 189.886 258.856 188.507 263.97 188.904C269.084 189.301 271.639 194.434 279.9 195.229C288.16 196.023 294.465 180.439 294.465 180.439C288.76 182.211 278.534 179.047 278.141 177.074C277.749 175.101 292.894 175.307 295.255 174.717C297.612 174.125 301.746 169.392 299.195 159.918Z" fill="#AFCDFB"/>
<path opacity="0.3" d="M288.883 225.555C291.658 219.571 282.183 214.168 282.183 214.168C282.183 214.168 269.458 217.992 267.669 216.827C265.88 215.662 277.913 211.426 277.913 211.426C275.032 208.471 263.799 205.574 263.799 205.574C263.799 205.574 255.951 215.949 254.503 214.378C253.054 212.807 261.919 205.548 261.919 205.548C258.116 203.897 252.299 205.054 252.299 205.054C243.9 207.848 247.909 218.524 247.909 218.524C247.909 218.524 245.111 222.061 239.663 224.224C239.663 224.224 238.57 224.55 237.038 225.38L237.866 226.079C238.121 225.913 238.376 225.762 238.631 225.624C238.632 225.623 238.634 225.622 238.636 225.622C238.64 225.619 238.643 225.618 238.647 225.615C238.811 225.535 239.046 225.421 239.335 225.284H239.336H239.338C240.007 225.001 240.487 224.779 240.817 224.605C240.818 224.605 240.819 224.604 240.819 224.604C242.885 223.685 245.682 222.577 246.768 222.766C246.768 222.766 246.785 222.559 246.91 222.236C246.865 222.406 246.817 222.582 246.768 222.766C245.628 227.008 252.284 233.501 256.913 236.024C261.541 238.548 260.758 235.976 260.155 232.369C259.552 228.761 254.698 225.478 253.979 223.656C253.26 221.834 255.779 222.748 258.239 225.174C260.7 227.6 259.799 231.351 263.708 235.348C267.618 239.345 277.589 234.062 277.589 234.062C273.888 232.496 269.989 226.426 270.639 225.24C271.289 224.054 278.996 230.739 280.466 231.46C281.937 232.179 286.107 231.539 288.883 225.555Z" fill="#AFCDFB"/>
<path d="M319.352 244H39.3495C39.157 244 39 243.843 39 243.649V243.449C39 243.256 39.157 243.098 39.3495 243.098H319.352C319.544 243.098 319.701 243.256 319.701 243.449V243.649C319.7 243.843 319.543 244 319.352 244Z" fill="#233862"/>
<path d="M242.822 171.845H112.82C111.961 171.845 111.259 171.141 111.259 170.279C111.259 169.418 111.961 168.713 112.82 168.713H242.822C243.68 168.713 244.383 169.418 244.383 170.279C244.383 171.141 243.68 171.845 242.822 171.845Z" fill="#7498EE"/>
<path d="M242.822 171.845H212.388C211.53 171.845 210.827 171.141 210.827 170.279C210.827 169.418 211.53 168.713 212.388 168.713H242.822C243.68 168.713 244.383 169.418 244.383 170.279C244.383 171.141 243.68 171.845 242.822 171.845Z" fill="#7498EE"/>
<path d="M239.526 175.771H139.542V186.687H239.526V175.771Z" fill="#1A2E35"/>
<path d="M239.526 175.771H139.542V186.687H239.526V175.771Z" fill="#7498EE"/>
<path d="M238.066 241.173H241.061L240.936 171.845H236.793L238.066 241.173Z" fill="#1A2E35"/>
<path d="M238.066 241.173H241.061L240.936 171.845H236.793L238.066 241.173Z" fill="#7498EE"/>
<path d="M210.498 241.173H207.505L214.274 171.845H218.417L210.498 241.173Z" fill="#1A2E35"/>
<path d="M210.498 241.173H207.505L214.274 171.845H218.417L210.498 241.173Z" fill="#AED2FD"/>
<path d="M138.497 241.173H141.492L141.367 171.845H137.224L138.497 241.173Z" fill="#1A2E35"/>
<path d="M138.497 241.173H141.492L141.367 171.845H137.224L138.497 241.173Z" fill="#7498EE"/>
<path d="M110.93 241.173H107.935L114.705 171.845H118.848L110.93 241.173Z" fill="#1A2E35"/>
<path d="M110.93 241.173H107.935L114.705 171.845H118.848L110.93 241.173Z" fill="#AED2FD"/>
<path d="M195.137 168.713H188.235L185.471 155.176H192.373L195.137 168.713Z" fill="#1A2E35"/>
<path d="M204.294 165.924H174.349C173.355 165.924 172.593 165.11 172.653 164.113L173.796 145.098C173.856 144.101 174.717 143.287 175.71 143.287H205.655C206.649 143.287 207.412 144.101 207.351 145.098L206.208 164.113C206.148 165.109 205.287 165.924 204.294 165.924Z" fill="#1A2E35"/>
<path d="M203.826 165.924H173.88C172.887 165.924 172.124 165.11 172.184 164.113L173.327 145.098C173.387 144.101 174.248 143.287 175.242 143.287H205.187C206.18 143.287 206.943 144.101 206.883 145.098L205.74 164.113C205.68 165.109 204.818 165.924 203.826 165.924Z" fill="#007CFF"/>
<path d="M173.88 164.983C173.662 164.983 173.463 164.9 173.321 164.748C173.178 164.596 173.107 164.39 173.12 164.17L174.263 145.154C174.294 144.652 174.741 144.228 175.24 144.228H205.186C205.404 144.228 205.603 144.311 205.745 144.463C205.888 144.615 205.96 144.821 205.946 145.041L204.803 164.057C204.772 164.559 204.325 164.983 203.826 164.983H173.88Z" fill="white"/>
<path opacity="0.2" d="M187.029 143.287L188.976 149.969L194.752 143.287H187.029Z" fill="black"/>
<path d="M129.863 132.735L132.682 134.899L136.519 137.849C136.38 137.999 136.208 138.735 136.144 139.255C136.011 140.338 135.876 141.161 138.267 141.802C138.78 141.938 139.213 142.342 139.291 142.868C139.387 143.507 138.994 144.298 136.782 144.662C134.219 145.084 132.156 144.374 130.534 143.592C129.595 143.14 129.572 142.56 129.988 141.603C131.168 138.892 130.594 135.432 129.863 132.735Z" fill="#CD5B51"/>
<path d="M126.637 142.464C127.575 140.622 127.965 139.211 127.965 139.211C127.965 139.211 135.095 138.819 137.45 139.525C139.805 140.23 141.264 143.287 141.264 143.287L126.637 142.464Z" fill="#AED2FD"/>
<path d="M129.616 147.781C129.439 148.307 129.247 148.952 129.064 149.547L128.537 151.378C128.206 152.603 127.891 153.83 127.638 155.053C127.373 156.274 127.167 157.489 127.035 158.676C126.897 159.856 126.843 161.019 126.93 162.047C126.961 162.567 127.047 163.028 127.147 163.434C127.177 163.529 127.2 163.634 127.23 163.723C127.264 163.806 127.295 163.889 127.323 163.976L127.328 163.992C127.33 163.998 127.335 164.01 127.318 163.976C127.293 163.93 127.268 163.887 127.238 163.844C127.172 163.75 127.141 163.706 127.086 163.646C126.994 163.543 126.924 163.486 126.878 163.453C126.784 163.388 126.771 163.4 126.791 163.421C126.846 163.47 127.019 163.577 127.231 163.669C127.443 163.765 127.692 163.86 127.957 163.95C128.489 164.126 129.076 164.291 129.677 164.449C132.099 165.063 134.737 165.537 137.31 166.087L137.227 169.347C135.831 169.536 134.472 169.643 133.083 169.688C131.696 169.733 130.303 169.728 128.866 169.617C128.144 169.566 127.415 169.488 126.646 169.347C126.259 169.277 125.863 169.194 125.44 169.079C125.017 168.961 124.565 168.823 124.029 168.556C123.755 168.416 123.457 168.248 123.105 167.969C122.93 167.827 122.739 167.654 122.54 167.421C122.434 167.294 122.346 167.188 122.239 167.02C122.189 166.942 122.141 166.862 122.095 166.782L122.035 166.669L121.71 166.006C121.612 165.785 121.534 165.569 121.448 165.349C121.139 164.479 120.93 163.623 120.813 162.808C120.367 159.538 120.713 156.626 121.201 153.789C121.462 152.377 121.772 150.989 122.145 149.625C122.329 148.942 122.526 148.263 122.74 147.589C122.953 146.901 123.173 146.268 123.445 145.529L129.616 147.781Z" fill="#CD5B51"/>
<path d="M125.276 141.879C129.709 140.707 132.337 144.345 130.836 150.362C129.337 156.379 128.836 156.587 128.836 156.587L119.696 155.058C120.823 149.141 120.736 143.08 125.276 141.879Z" fill="#AED2FD"/>
<path d="M139.591 164.808L138.901 164.744C136.941 164.744 136.606 165.283 135.401 166.407L134.952 168.879C138.116 170.506 139.814 168.723 139.814 168.723H142.747L141.714 166.346C141.339 165.484 140.525 164.895 139.591 164.808Z" fill="#CD5B51"/>
<path d="M128.653 128.056C129.451 132.341 129.7 134.894 132.145 136.805C135.823 139.678 140.886 136.947 141.381 132.488C141.826 128.473 140.447 122.14 136.026 121.017C131.672 119.909 127.858 123.771 128.653 128.056Z" fill="#CD5B51"/>
<path d="M137.116 129.554C140.164 129.308 139.275 126.088 138.331 125.411C139.761 124.87 140.748 122.598 139.369 121.028C140.176 118.918 137.872 116.374 133.826 116.753C130.871 117.03 130.536 118.593 130.536 118.593C130.536 118.593 126.992 118.221 125.522 121.154C124.265 123.663 125.789 125.005 125.789 125.005C125.789 125.005 123.146 125.777 123.873 129.253C124.655 132.987 127.514 132.121 127.514 132.121C127.514 132.121 126.873 135.541 130.738 135.592C134.081 135.635 134.123 133.123 134.123 133.123C134.123 133.123 138.465 132.694 137.116 129.554Z" fill="#233862"/>
<path d="M134.848 129.802C135.212 130.797 135.96 131.554 136.702 131.935C137.818 132.509 138.67 131.319 138.474 130.1C138.298 129.002 137.344 127.595 136.17 127.53C135.012 127.465 134.431 128.664 134.848 129.802Z" fill="#CD5B51"/>
<path d="M180.302 235.787L184.469 234.09L181.527 224.046L177.358 225.742L180.302 235.787Z" fill="#CD5B51"/>
<path opacity="0.2" d="M178.785 230.611L182.996 229.062L181.527 224.046L177.358 225.742L178.785 230.611Z" fill="black"/>
<path d="M184.107 232.389L179.341 234.052C179.169 234.113 179.079 234.28 179.128 234.452L180.21 238.315C180.321 238.716 180.818 238.959 181.214 238.812C182.864 238.204 183.526 237.871 185.564 236.99C186.817 236.449 189.81 235.139 191.433 234.178C193.022 233.239 192.065 231.634 191.291 231.896C189.459 232.516 186.454 232.919 184.929 232.394C184.654 232.3 184.361 232.3 184.107 232.389Z" fill="#1A2E35"/>
<path d="M146.824 177.832C146.824 177.832 178.327 180.679 179.134 189.771C180.776 208.268 183.29 226.104 183.29 226.104L176.883 228.456C176.883 228.456 169.037 208.134 169.141 193.638C160.056 191.065 136.165 194.842 132.258 187.811C128.808 181.604 131.835 177.148 131.835 177.148L146.824 177.832Z" fill="#233862"/>
<path d="M176.415 229.918L184.394 227.213L184.046 223.566L175.052 226.473L176.415 229.918Z" fill="#1B4688"/>
<path d="M185.868 232.604C185.477 232.741 185.015 232.811 184.685 232.847C184.644 232.852 184.604 232.831 184.583 232.795C184.562 232.759 184.565 232.714 184.589 232.681C184.692 232.539 185.607 231.297 186.196 231.32C186.332 231.325 186.446 231.394 186.523 231.52C186.652 231.728 186.673 231.924 186.586 232.101C186.476 232.329 186.197 232.49 185.868 232.604ZM184.907 232.608C185.719 232.495 186.269 232.276 186.398 232.009C186.452 231.898 186.435 231.775 186.345 231.63C186.304 231.564 186.254 231.532 186.188 231.529C185.871 231.518 185.289 232.123 184.907 232.608Z" fill="#1B4688"/>
<path d="M184.708 232.842C184.692 232.847 184.676 232.849 184.659 232.847C184.623 232.842 184.593 232.818 184.578 232.785C184.556 232.735 184.036 231.544 184.32 230.982C184.397 230.83 184.522 230.734 184.692 230.697C184.896 230.653 185.06 230.715 185.154 230.872C185.413 231.302 185.089 232.411 184.755 232.811C184.741 232.826 184.725 232.836 184.708 232.842ZM184.69 230.915C184.607 230.944 184.547 230.996 184.508 231.076C184.338 231.412 184.546 232.126 184.698 232.526C184.958 232.084 185.146 231.262 184.975 230.98C184.944 230.926 184.887 230.87 184.736 230.902C184.72 230.905 184.704 230.91 184.69 230.915Z" fill="#1B4688"/>
<path d="M157.995 238.774L162.451 238.562L163.18 228.011L158.725 228.222L157.995 238.774Z" fill="#CD5B51"/>
<path d="M162.554 237.797L157.511 237.637C157.327 237.631 157.185 237.755 157.169 237.934L156.798 241.928C156.76 242.343 157.136 242.748 157.559 242.754C159.315 242.78 160.157 242.702 162.375 242.772C163.74 242.815 166.423 243.02 168.293 242.783C170.123 242.552 169.877 240.698 169.063 240.63C167.137 240.472 164.554 239.136 163.318 238.097C163.094 237.912 162.822 237.806 162.554 237.797Z" fill="#1A2E35"/>
<path d="M164.12 238.633C163.705 238.619 163.249 238.519 162.929 238.433C162.889 238.422 162.859 238.389 162.853 238.348C162.847 238.308 162.865 238.266 162.9 238.244C163.047 238.148 164.344 237.317 164.886 237.551C165.011 237.605 165.092 237.71 165.12 237.856C165.166 238.096 165.116 238.287 164.972 238.421C164.786 238.593 164.467 238.644 164.12 238.633ZM163.221 238.291C164.019 238.476 164.61 238.47 164.827 238.268C164.917 238.185 164.945 238.063 164.913 237.896C164.899 237.818 164.863 237.77 164.803 237.744C164.511 237.619 163.752 237.974 163.221 238.291Z" fill="#1B4688"/>
<path d="M162.952 238.437C162.936 238.437 162.919 238.432 162.904 238.423C162.873 238.406 162.853 238.373 162.85 238.337C162.848 238.282 162.788 236.984 163.254 236.561C163.38 236.446 163.531 236.402 163.702 236.428C163.908 236.46 164.039 236.577 164.071 236.758C164.159 237.252 163.46 238.171 163.004 238.423C162.989 238.433 162.971 238.438 162.952 238.437ZM163.623 236.631C163.536 236.628 163.461 236.656 163.395 236.716C163.117 236.968 163.056 237.709 163.055 238.137C163.456 237.818 163.924 237.118 163.866 236.795C163.855 236.733 163.823 236.659 163.671 236.636C163.655 236.633 163.639 236.632 163.623 236.631Z" fill="#1B4688"/>
<path opacity="0.2" d="M158.724 228.225L163.182 228.013L162.762 234.047L158.32 234.04L158.724 228.225Z" fill="black"/>
<path d="M136.363 177.354C136.363 177.354 170.307 182.557 169.768 190.399C168.798 204.513 164.081 232.085 164.081 232.085L157.396 232.18C157.396 232.18 155.816 203.894 158.32 193.586C149.974 193.586 126.419 193.293 123.203 188.988C119.652 184.231 123.305 176.759 123.305 176.759L136.363 177.354Z" fill="#1B4688"/>
<path d="M156.607 232.704L164.699 232.577L165.096 228.287L156.217 228.637L156.607 232.704Z" fill="#1B4688"/>
<path d="M142.339 141.403C139.608 140.871 127.278 141.023 127.278 141.023C124.731 140.959 122.542 142.848 122.255 145.388C121.824 149.203 124.236 157.725 124.32 162.074C124.423 167.412 123.407 169.576 123.306 176.759L146.825 177.832C146.825 163.38 146.2 151.412 145.629 145.676C145.43 143.682 145.071 141.937 142.339 141.403Z" fill="#007CFF"/>
<path d="M142.339 141.403C139.608 140.871 127.278 141.023 127.278 141.023C124.731 140.959 122.542 142.848 122.255 145.388C121.824 149.203 124.236 157.725 124.32 162.074C124.423 167.412 123.407 169.576 123.306 176.759L146.825 177.832C146.825 163.38 146.2 151.412 145.629 145.676C145.43 143.682 145.071 141.937 142.339 141.403Z" fill="#AED2FD"/>
<path d="M145.561 145.959C146.298 148.498 147.038 151.106 147.803 153.658C148.567 156.214 149.348 158.769 150.232 161.193C150.447 161.809 150.68 162.382 150.907 162.974L151.268 163.806L151.313 163.91L151.335 163.962L151.346 163.988L151.351 164L151.333 163.966C151.226 163.774 151.109 163.645 151.035 163.57C150.871 163.415 150.81 163.401 150.8 163.404C150.797 163.423 150.956 163.53 151.153 163.624C151.352 163.721 151.6 163.819 151.864 163.91C152.393 164.092 152.987 164.259 153.593 164.422C156.043 165.048 158.72 165.529 161.33 166.087L161.246 169.347C159.83 169.539 158.453 169.646 157.042 169.69C155.636 169.736 154.221 169.724 152.761 169.608C152.028 169.553 151.286 169.466 150.499 169.315C150.104 169.24 149.698 169.15 149.256 169.02C148.815 168.888 148.344 168.73 147.758 168.4C147.458 168.222 147.121 168.007 146.725 167.604C146.533 167.405 146.317 167.137 146.125 166.798L145.966 166.5L145.436 165.494C145.125 164.836 144.79 164.171 144.514 163.517C143.933 162.199 143.429 160.891 142.925 159.58C142.45 158.265 141.979 156.952 141.549 155.635C140.683 152.99 139.9 150.367 139.219 147.647L145.561 145.959Z" fill="#CD5B51"/>
<path d="M138.88 143.337C142.097 140.06 146.206 141.845 147.976 147.787C149.746 153.73 149.421 154.164 149.421 154.164L140.781 157.525C138.743 151.863 135.586 146.693 138.88 143.337Z" fill="#AED2FD"/>
<path d="M163.608 164.808L162.918 164.744C160.958 164.744 160.623 165.283 159.418 166.406L158.969 168.879C162.133 170.506 163.832 168.723 163.832 168.723H166.764L165.731 166.346C165.356 165.484 164.542 164.895 163.608 164.808Z" fill="#CD5B51"/>
<path d="M123.454 195.301H155.263C155.435 195.301 155.576 195.16 155.576 194.987V191.279C155.576 191.107 155.435 190.966 155.263 190.966H123.454C123.282 190.966 123.141 191.107 123.141 191.279V194.987C123.141 195.16 123.281 195.301 123.454 195.301Z" fill="#7498EE"/>
<path d="M124.471 243.587H123.141L124.673 195.301H126.513L124.471 243.587Z" fill="#007CFF"/>
<path d="M124.471 243.587H123.141L124.673 195.301H126.513L124.471 243.587Z" fill="#AED2FD"/>
<path d="M136.719 243.587H138.05L136.518 195.301H134.677L136.719 243.587Z" fill="#007CFF"/>
<path d="M136.719 243.587H138.05L136.518 195.301H134.677L136.719 243.587Z" fill="#AED2FD"/>
<path d="M141.996 243.587H140.667L142.197 195.301H144.038L141.996 243.587Z" fill="#007CFF"/>
<path d="M141.996 243.587H140.667L142.197 195.301H144.038L141.996 243.587Z" fill="#AED2FD"/>
<path d="M154.245 243.587H155.574L154.044 195.301H152.202L154.245 243.587Z" fill="#007CFF"/>
<path d="M154.245 243.587H155.574L154.044 195.301H152.202L154.245 243.587Z" fill="#AED2FD"/>
<g opacity="0.3">
<path opacity="0.3" d="M124.671 195.299H126.515L126.428 197.352H124.605L124.671 195.299Z" fill="#007CFF"/>
<path opacity="0.3" d="M136.583 197.352H134.763L134.677 195.299H136.517L136.583 197.352Z" fill="#007CFF"/>
<path opacity="0.3" d="M144.038 195.299L143.952 197.352H142.132L142.199 195.299H144.038Z" fill="#007CFF"/>
<path opacity="0.3" d="M154.11 197.352H152.288L152.201 195.299H154.045L154.11 197.352Z" fill="#007CFF"/>
</g>
<path d="M243.355 136.283H168.277C165.788 136.283 163.874 134.24 164.024 131.743L166.891 84.0669C167.041 81.5695 169.201 79.5273 171.69 79.5273H246.768C249.258 79.5273 251.171 81.5707 251.021 84.0669L248.154 131.743C248.004 134.241 245.845 136.283 243.355 136.283Z" fill="#F79546"/>
<path d="M178.327 126.201L185.254 149.971L205.799 126.201H178.327Z" fill="#F79546"/>
<path opacity="0.1" d="M239.715 117.099H197.63C196.235 117.099 195.163 115.953 195.246 114.553L196.853 87.8277C196.937 86.4277 198.148 85.2823 199.542 85.2823H241.627C243.023 85.2823 244.095 86.4277 244.011 87.8277L242.405 114.553C242.32 115.953 241.11 117.099 239.715 117.099Z" fill="white"/>
<path opacity="0.1" d="M217.198 128.626H175.113C173.717 128.626 172.646 127.481 172.729 126.081L174.335 99.355C174.42 97.955 175.63 96.8096 177.025 96.8096H219.11C220.506 96.8096 221.577 97.955 221.494 99.355L219.887 126.081C219.804 127.481 218.594 128.626 217.198 128.626Z" fill="white"/>
<g opacity="0.5">
<path opacity="0.5" d="M174.555 83.6756C174.5 84.4482 173.898 85.0744 173.21 85.0744C172.522 85.0744 172.009 84.4482 172.064 83.6756C172.119 82.903 172.721 82.2769 173.409 82.2769C174.097 82.2769 174.61 82.903 174.555 83.6756Z" fill="white"/>
<path opacity="0.5" d="M179.161 83.6756C179.106 84.4482 178.504 85.0744 177.816 85.0744C177.128 85.0744 176.615 84.4482 176.67 83.6756C176.726 82.903 177.328 82.2769 178.016 82.2769C178.704 82.2769 179.216 82.903 179.161 83.6756Z" fill="white"/>
<path opacity="0.5" d="M183.767 83.6756C183.712 84.4482 183.11 85.0744 182.422 85.0744C181.734 85.0744 181.221 84.4482 181.277 83.6756C181.332 82.903 181.934 82.2769 182.622 82.2769C183.31 82.2769 183.822 82.903 183.767 83.6756Z" fill="white"/>
</g>
<path opacity="0.3" d="M242.796 135.839H167.718C166.483 135.839 165.347 135.353 164.52 134.471C163.689 133.586 163.274 132.416 163.348 131.174L166.216 83.4972C166.37 80.9334 168.575 78.847 171.131 78.847H246.208C247.443 78.847 248.578 79.3329 249.406 80.215C250.236 81.0995 250.652 82.2695 250.577 83.512L247.71 131.189C247.557 133.754 245.352 135.839 242.796 135.839ZM171.131 79.0832C168.697 79.0832 166.596 81.07 166.45 83.512L163.583 131.189C163.512 132.366 163.905 133.473 164.69 134.311C165.472 135.145 166.548 135.604 167.718 135.604H242.796C245.23 135.604 247.331 133.617 247.477 131.175L250.344 83.4985C250.415 82.3211 250.022 81.2139 249.237 80.3774C248.454 79.5433 247.379 79.0832 246.209 79.0832H171.131Z" fill="#1A2E35"/>
<path d="M202.141 107.968C201.822 108.648 201.53 109.224 201.206 109.835C200.89 110.437 200.553 111.026 200.215 111.616C199.525 112.784 198.815 113.943 198.037 115.068C197.652 115.632 197.251 116.19 196.848 116.746C196.422 117.292 196.018 117.844 195.565 118.378C194.707 119.466 193.724 120.497 192.7 121.503C192.44 121.753 192.158 121.994 191.888 122.239C191.616 122.482 191.348 122.727 191.036 122.951L190.133 123.631C190.133 123.631 189.972 123.749 189.859 123.822C189.739 123.902 189.61 123.968 189.481 124.034C189.221 124.16 188.949 124.255 188.672 124.32C188.117 124.448 187.547 124.448 187.001 124.33C186.456 124.212 185.931 123.972 185.482 123.621C185.259 123.446 185.053 123.246 184.876 123.027L184.748 122.86L184.688 122.776L184.666 122.738L184.579 122.587L184.242 121.975C184.143 121.776 184.07 121.59 183.986 121.397C183.657 120.631 183.452 119.921 183.262 119.209C182.915 117.796 182.714 116.434 182.578 115.074C182.448 113.708 182.377 112.384 182.402 110.993C182.418 110.099 183.155 109.386 184.047 109.402C184.775 109.416 185.381 109.91 185.571 110.578L185.586 110.633C186.266 113.035 186.974 115.54 187.888 117.674C188.122 118.19 188.356 118.709 188.613 119.103C188.677 119.199 188.737 119.311 188.798 119.393C188.86 119.464 188.919 119.537 188.976 119.61L189.017 119.665L189.027 119.679L189.004 119.642C188.988 119.617 188.97 119.594 188.951 119.57C188.878 119.477 188.793 119.387 188.697 119.311C188.507 119.156 188.287 119.047 188.06 118.992C187.832 118.937 187.592 118.932 187.353 118.982C187.233 119.006 187.113 119.046 186.999 119.098C186.94 119.122 186.886 119.157 186.831 119.186C186.783 119.211 186.694 119.284 186.751 119.232L187.34 118.66C187.537 118.48 187.729 118.266 187.922 118.057C188.114 117.845 188.31 117.647 188.499 117.428C190 115.656 191.382 113.641 192.678 111.547C193.322 110.496 193.954 109.428 194.566 108.348L195.471 106.722L196.329 105.127L196.373 105.045C197.222 103.469 199.184 102.881 200.755 103.732C202.265 104.556 202.859 106.423 202.141 107.968Z" fill="#1A2E35"/>
<path d="M182.835 110.799L180.549 109.491L183.007 106.971C183.007 106.971 184.033 107.706 184.999 108.772C185.607 109.444 185.425 110.507 184.625 110.886C184.054 111.154 183.387 111.122 182.835 110.799Z" fill="#FFC3BD"/>
<path d="M180.032 106.792L181.272 105.902C181.609 105.661 182.076 105.733 182.325 106.065L183.006 106.971L180.548 109.491L179.776 107.722C179.631 107.39 179.737 107.002 180.032 106.792Z" fill="#FFC3BD"/>
<path d="M197.224 105.864C197.589 104.614 198.653 103.677 199.933 103.441C200.938 103.265 201.405 103.112 202.694 103.016C204.912 102.857 208.561 103.004 211.081 103.17C212.545 103.267 214.039 103.474 215.23 103.671L215.273 103.678C216.586 103.895 217.485 105.152 217.261 106.456C216.674 109.853 214.954 115.758 214.767 121.333C214.522 128.649 214.633 132.864 214.504 134.628L195.726 134.265C194.418 116.372 196.045 109.91 197.224 105.864Z" fill="white"/>
<path d="M215.773 103.394L215.728 103.388C214.472 103.18 212.898 102.962 211.354 102.859C211.086 102.839 210.806 102.824 210.518 102.808C209.696 106.216 204.808 111.942 203.325 120.628C202.754 113.371 202.311 105.783 203.151 102.823C202.643 102.813 200.201 102.984 199.186 103.16C197.84 103.41 196.702 104.485 196.212 105.933C195.06 109.34 192.86 116.968 194.213 135.723H215.08C215.219 133.859 214.73 129.892 215.482 123.813C216.211 117.922 217.254 109.909 217.87 106.328C218.105 104.949 217.157 103.624 215.773 103.394Z" fill="#1A2E35"/>
<path opacity="0.2" d="M202.867 134.751C202.803 134.751 202.748 134.702 202.742 134.636C202.299 129.346 203.124 121.747 203.133 121.67C203.14 121.601 203.204 121.551 203.271 121.56C203.34 121.567 203.39 121.63 203.382 121.699C203.373 121.775 202.55 129.349 202.992 134.615C202.998 134.684 202.946 134.745 202.878 134.75C202.873 134.751 202.87 134.751 202.867 134.751Z" fill="white"/>
<path opacity="0.3" d="M215.04 110.841C214.263 114.357 214.678 119.229 215.501 123.676C216.119 118.684 216.956 112.209 217.57 108.199C216.717 107.627 215.654 108.031 215.04 110.841Z" fill="black"/>
<path d="M203.091 102.992C205.527 102.458 205.946 100.953 205.772 99.2886C205.735 98.8838 205.663 98.4631 205.571 98.0473L208.612 95.5585L210.847 93.7328C210.241 96.432 209.568 101.354 211.405 103.195C211.405 103.195 209.907 105.666 205.732 105.363C202.205 105.108 203.091 102.992 203.091 102.992Z" fill="#FFC3BD"/>
<path d="M206.791 104.74L206.117 105.384L208.271 106.195L207.992 105.373L206.791 104.74Z" fill="#E1E1E1"/>
<path d="M208.44 107.344C208.44 107.344 207.594 105.192 206.792 104.741C209.603 103.983 210.968 102.421 210.968 102.421L212.25 102.931C212.248 102.93 212.652 105.4 208.44 107.344Z" fill="#F5F5F5"/>
<path d="M205.608 104.576L206.117 105.384L203.847 105.58L204.303 104.86L205.608 104.576Z" fill="#E1E1E1"/>
<path d="M202.707 106.738C202.707 106.738 203.904 105.389 205.609 104.576C204.376 104.207 204.302 102.503 204.302 102.503L203.107 102.732C203.107 102.732 200.911 104.874 202.707 106.738Z" fill="#F5F5F5"/>
<path opacity="0.2" d="M205.571 98.0473C205.663 98.4631 205.735 98.8838 205.772 99.2886C206.91 99.0794 208.426 97.8898 208.579 96.7247C208.637 96.2868 208.644 95.8624 208.612 95.5573L205.571 98.0473Z" fill="black"/>
<path d="M201.882 85.7351C200.794 87.0785 200.9 91.9244 203.2 91.9822C205.501 92.0412 203.86 83.2906 201.882 85.7351Z" fill="#233862"/>
<path d="M211.798 89.2646C211.567 92.9369 211.617 95.0959 209.77 96.9954C206.991 99.8532 202.49 98.2109 201.626 94.5546C200.848 91.2637 201.357 85.8113 204.932 84.3203C208.456 82.8514 212.03 85.5923 211.798 89.2646Z" fill="#FFC3BD"/>
<path d="M209.999 86.205C207.697 88.4982 210.689 90.1762 209.52 91.4114C211.69 92.5481 210.895 93.3859 210.895 93.3859C210.895 93.3859 210.53 94.2668 210.918 95.3235C213.362 94.6912 217.906 86.5384 212.95 85.2836C209.964 86.6159 209.999 86.205 209.999 86.205Z" fill="#233862"/>
<path d="M210.94 87.8511C208.759 88.1906 206.017 87.1461 204.318 86.2641C202.618 85.382 202.365 87.0477 202.992 87.557C201.902 87.5964 200.517 86.7266 200.859 84.7939C201.172 83.0298 203.477 81.364 206.756 82.8538C209.075 83.9069 211.936 82.5204 213.049 83.7359C214.164 84.9502 212.397 87.6235 210.94 87.8511Z" fill="#233862"/>
<path d="M212.425 85.4595C213.891 85.2639 213.952 84.3412 213.542 82.7148C215.124 84.9686 214.491 85.66 213.539 86.205C212.504 85.8519 212.425 85.4595 212.425 85.4595Z" fill="#233862"/>
<path d="M212.782 92.0794C212.424 92.8729 211.788 93.4499 211.186 93.7217C210.28 94.1302 209.82 93.2936 210.065 92.3094C210.286 91.4224 211.023 90.143 211.936 90.1516C212.833 90.1614 213.19 91.1727 212.782 92.0794Z" fill="#FFC3BD"/>
<path d="M218.416 105.517C218.985 106.727 219.466 107.858 219.932 109.048C220.401 110.224 220.821 111.421 221.234 112.623C222.03 115.042 222.727 117.506 223.218 120.088C223.326 120.741 223.45 121.384 223.526 122.057L223.59 122.556L223.622 122.806L223.638 122.932L223.652 123.107C223.69 123.571 223.698 124.058 223.645 124.566C223.545 125.576 223.179 126.661 222.581 127.545C221.988 128.435 221.211 129.087 220.452 129.544C219.688 130.004 218.93 130.3 218.191 130.501C217.453 130.703 216.738 130.827 216.034 130.888C215.333 130.956 214.645 130.967 213.965 130.94C213.274 130.912 212.645 130.847 211.91 130.722C211.032 130.575 210.438 129.741 210.587 128.859C210.698 128.188 211.206 127.684 211.83 127.546L211.999 127.509C212.486 127.402 213.08 127.27 213.605 127.129C214.142 126.985 214.667 126.822 215.162 126.644C216.146 126.286 217.04 125.81 217.529 125.325C217.773 125.084 217.891 124.863 217.938 124.705C217.979 124.542 217.967 124.415 217.942 124.202C217.933 124.097 217.907 123.97 217.871 123.826L217.703 123.06C217.598 122.52 217.44 121.967 217.301 121.421C217.008 120.318 216.679 119.21 216.304 118.104C215.951 116.994 215.545 115.887 215.139 114.781C214.731 113.674 214.299 112.571 213.864 111.469C213.423 110.382 212.967 109.247 212.532 108.221L212.511 108.172C211.813 106.522 212.58 104.618 214.224 103.918C215.829 103.234 217.678 103.954 218.416 105.517Z" fill="#1A2E35"/>
<path d="M210.405 128.883L208.34 129.869L211.913 131.141C211.913 131.141 214.294 130.38 213.137 129.054L212.497 128.852C211.466 128.528 210.959 128.565 210.405 128.883Z" fill="#FFC3BD"/>
<path d="M208.616 132.413L210.186 132.712C210.646 132.799 211.11 132.581 211.339 132.172L211.913 131.141L208.339 129.869L207.846 130.849C207.522 131.497 207.906 132.277 208.616 132.413Z" fill="#FFC3BD"/>
</g>
<defs>
<clipPath id="clip0_2409_8803">
<rect width="282" height="196" fill="white" transform="translate(39 48)"/>
</clipPath>
</defs>
</svg>
