<svg width="360" height="418" viewBox="0 0 360 418" fill="none" xmlns="http://www.w3.org/2000/svg">
<rect width="360" height="418" rx="8" fill="#133373"/>
<path d="M35.1416 277.359H40.8242C42.013 277.359 43.0335 277.538 43.8857 277.896C44.738 278.255 45.3932 278.785 45.8516 279.486C46.3099 280.188 46.5391 281.051 46.5391 282.075C46.5391 282.884 46.3958 283.586 46.1094 284.181C45.8229 284.775 45.4183 285.273 44.8955 285.674C44.3799 286.075 43.7712 286.39 43.0693 286.619L42.1455 287.092H37.1289L37.1074 284.761H40.8564C41.4652 284.761 41.9701 284.653 42.3711 284.438C42.7721 284.224 43.0729 283.926 43.2734 283.547C43.4811 283.167 43.585 282.734 43.585 282.247C43.585 281.724 43.4847 281.273 43.2842 280.894C43.0837 280.507 42.7793 280.21 42.3711 280.002C41.9629 279.794 41.4473 279.69 40.8242 279.69H38.0957V293H35.1416V277.359ZM43.9717 293L40.3516 285.996L43.4775 285.985L47.1406 292.85V293H43.9717ZM54.1338 293.215C53.2529 293.215 52.4616 293.072 51.7598 292.785C51.0579 292.499 50.46 292.101 49.9658 291.593C49.4788 291.077 49.1029 290.479 48.8379 289.799C48.5801 289.111 48.4512 288.374 48.4512 287.586V287.156C48.4512 286.261 48.5801 285.448 48.8379 284.718C49.0957 283.98 49.4609 283.346 49.9336 282.816C50.4062 282.286 50.972 281.878 51.6309 281.592C52.2897 281.305 53.0166 281.162 53.8115 281.162C54.6351 281.162 55.362 281.302 55.9922 281.581C56.6224 281.853 57.1488 282.24 57.5713 282.741C57.9938 283.243 58.3125 283.844 58.5273 284.546C58.7422 285.241 58.8496 286.01 58.8496 286.855V288.048H49.7402V286.093H56.0566V285.878C56.0423 285.427 55.9564 285.015 55.7988 284.643C55.6413 284.263 55.3978 283.962 55.0684 283.74C54.7389 283.511 54.3128 283.396 53.79 283.396C53.3675 283.396 52.9987 283.49 52.6836 283.676C52.3757 283.855 52.1178 284.113 51.9102 284.449C51.7096 284.779 51.5592 285.173 51.459 285.631C51.3587 286.089 51.3086 286.598 51.3086 287.156V287.586C51.3086 288.073 51.373 288.524 51.502 288.939C51.638 289.355 51.835 289.716 52.0928 290.024C52.3577 290.325 52.6729 290.562 53.0381 290.733C53.4105 290.898 53.833 290.98 54.3057 290.98C54.9001 290.98 55.4372 290.866 55.917 290.637C56.404 290.4 56.8265 290.053 57.1846 289.595L58.6133 291.077C58.3698 291.435 58.0404 291.779 57.625 292.108C57.2168 292.438 56.7227 292.706 56.1426 292.914C55.5625 293.115 54.8929 293.215 54.1338 293.215ZM65.5205 290.98C65.9215 290.98 66.2796 290.902 66.5947 290.744C66.9098 290.587 67.1605 290.365 67.3467 290.078C67.54 289.792 67.6439 289.459 67.6582 289.079H70.333C70.3187 289.867 70.0967 290.572 69.667 291.195C69.2373 291.818 68.6644 292.312 67.9482 292.678C67.2393 293.036 66.4443 293.215 65.5635 293.215C64.6683 293.215 63.8877 293.064 63.2217 292.764C62.5557 292.463 62.0007 292.044 61.5566 291.507C61.1198 290.97 60.7904 290.347 60.5684 289.638C60.3535 288.929 60.2461 288.17 60.2461 287.36V287.017C60.2461 286.207 60.3535 285.448 60.5684 284.739C60.7904 284.03 61.1198 283.407 61.5566 282.87C62.0007 282.333 62.5557 281.914 63.2217 281.613C63.8877 281.312 64.6647 281.162 65.5527 281.162C66.4909 281.162 67.3145 281.345 68.0234 281.71C68.7396 282.075 69.2982 282.591 69.6992 283.257C70.1074 283.923 70.3187 284.707 70.333 285.609H67.6582C67.6439 285.194 67.5508 284.822 67.3789 284.492C67.207 284.163 66.9635 283.898 66.6484 283.697C66.3333 283.497 65.9502 283.396 65.499 283.396C65.0192 283.396 64.6182 283.497 64.2959 283.697C63.9808 283.898 63.7337 284.174 63.5547 284.524C63.3828 284.868 63.2611 285.255 63.1895 285.685C63.125 286.107 63.0928 286.551 63.0928 287.017V287.36C63.0928 287.833 63.125 288.284 63.1895 288.714C63.2611 289.144 63.3828 289.53 63.5547 289.874C63.7337 290.211 63.9808 290.479 64.2959 290.68C64.6182 290.88 65.0264 290.98 65.5205 290.98ZM77.4443 293.215C76.5635 293.215 75.7721 293.072 75.0703 292.785C74.3685 292.499 73.7705 292.101 73.2764 291.593C72.7894 291.077 72.4134 290.479 72.1484 289.799C71.8906 289.111 71.7617 288.374 71.7617 287.586V287.156C71.7617 286.261 71.8906 285.448 72.1484 284.718C72.4062 283.98 72.7715 283.346 73.2441 282.816C73.7168 282.286 74.2826 281.878 74.9414 281.592C75.6003 281.305 76.3271 281.162 77.1221 281.162C77.9456 281.162 78.6725 281.302 79.3027 281.581C79.9329 281.853 80.4593 282.24 80.8818 282.741C81.3044 283.243 81.623 283.844 81.8379 284.546C82.0527 285.241 82.1602 286.01 82.1602 286.855V288.048H73.0508V286.093H79.3672V285.878C79.3529 285.427 79.2669 285.015 79.1094 284.643C78.9518 284.263 78.7083 283.962 78.3789 283.74C78.0495 283.511 77.6234 283.396 77.1006 283.396C76.6781 283.396 76.3092 283.49 75.9941 283.676C75.6862 283.855 75.4284 284.113 75.2207 284.449C75.0202 284.779 74.8698 285.173 74.7695 285.631C74.6693 286.089 74.6191 286.598 74.6191 287.156V287.586C74.6191 288.073 74.6836 288.524 74.8125 288.939C74.9486 289.355 75.1455 289.716 75.4033 290.024C75.6683 290.325 75.9834 290.562 76.3486 290.733C76.721 290.898 77.1436 290.98 77.6162 290.98C78.2106 290.98 78.7477 290.866 79.2275 290.637C79.7145 290.4 80.137 290.053 80.4951 289.595L81.9238 291.077C81.6803 291.435 81.3509 291.779 80.9355 292.108C80.5273 292.438 80.0332 292.706 79.4531 292.914C78.873 293.115 78.2035 293.215 77.4443 293.215ZM87.0693 281.377V293H84.2227V281.377H87.0693ZM84.0293 278.337C84.0293 277.914 84.1725 277.563 84.459 277.284C84.7526 277.005 85.1465 276.865 85.6406 276.865C86.1348 276.865 86.5251 277.005 86.8115 277.284C87.1051 277.563 87.252 277.914 87.252 278.337C87.252 278.752 87.1051 279.1 86.8115 279.379C86.5251 279.658 86.1348 279.798 85.6406 279.798C85.1465 279.798 84.7526 279.658 84.459 279.379C84.1725 279.1 84.0293 278.752 84.0293 278.337ZM93.6328 290.852L96.3398 281.377H99.3047L95.3193 293H93.5146L93.6328 290.852ZM91.6562 281.377L94.3955 290.873L94.4922 293H92.6768L88.6807 281.377H91.6562ZM105.868 293.215C104.987 293.215 104.196 293.072 103.494 292.785C102.792 292.499 102.194 292.101 101.7 291.593C101.213 291.077 100.837 290.479 100.572 289.799C100.314 289.111 100.186 288.374 100.186 287.586V287.156C100.186 286.261 100.314 285.448 100.572 284.718C100.83 283.98 101.195 283.346 101.668 282.816C102.141 282.286 102.706 281.878 103.365 281.592C104.024 281.305 104.751 281.162 105.546 281.162C106.369 281.162 107.096 281.302 107.727 281.581C108.357 281.853 108.883 282.24 109.306 282.741C109.728 283.243 110.047 283.844 110.262 284.546C110.477 285.241 110.584 286.01 110.584 286.855V288.048H101.475V286.093H107.791V285.878C107.777 285.427 107.691 285.015 107.533 284.643C107.376 284.263 107.132 283.962 106.803 283.74C106.473 283.511 106.047 283.396 105.524 283.396C105.102 283.396 104.733 283.49 104.418 283.676C104.11 283.855 103.852 284.113 103.645 284.449C103.444 284.779 103.294 285.173 103.193 285.631C103.093 286.089 103.043 286.598 103.043 287.156V287.586C103.043 288.073 103.107 288.524 103.236 288.939C103.372 289.355 103.569 289.716 103.827 290.024C104.092 290.325 104.407 290.562 104.772 290.733C105.145 290.898 105.567 290.98 106.04 290.98C106.634 290.98 107.172 290.866 107.651 290.637C108.138 290.4 108.561 290.053 108.919 289.595L110.348 291.077C110.104 291.435 109.775 291.779 109.359 292.108C108.951 292.438 108.457 292.706 107.877 292.914C107.297 293.115 106.627 293.215 105.868 293.215ZM124.366 290.529V285.169C124.366 284.775 124.298 284.435 124.162 284.148C124.026 283.862 123.818 283.64 123.539 283.482C123.26 283.325 122.905 283.246 122.476 283.246C122.096 283.246 121.763 283.311 121.477 283.439C121.197 283.568 120.982 283.751 120.832 283.987C120.682 284.216 120.606 284.481 120.606 284.782H117.76C117.76 284.302 117.874 283.848 118.104 283.418C118.333 282.981 118.659 282.594 119.081 282.258C119.511 281.914 120.023 281.646 120.617 281.452C121.219 281.259 121.892 281.162 122.637 281.162C123.518 281.162 124.302 281.312 124.989 281.613C125.684 281.907 126.228 282.351 126.622 282.945C127.023 283.54 127.224 284.288 127.224 285.19V290.261C127.224 290.841 127.259 291.339 127.331 291.754C127.41 292.162 127.524 292.517 127.675 292.817V293H124.785C124.649 292.706 124.545 292.334 124.474 291.883C124.402 291.424 124.366 290.973 124.366 290.529ZM124.764 285.921L124.785 287.607H122.991C122.547 287.607 122.157 287.654 121.82 287.747C121.484 287.833 121.208 287.962 120.993 288.134C120.778 288.299 120.617 288.499 120.51 288.735C120.402 288.965 120.349 289.226 120.349 289.52C120.349 289.806 120.413 290.064 120.542 290.293C120.678 290.522 120.871 290.705 121.122 290.841C121.38 290.97 121.681 291.034 122.024 291.034C122.526 291.034 122.963 290.934 123.335 290.733C123.707 290.526 123.997 290.275 124.205 289.981C124.413 289.688 124.524 289.409 124.538 289.144L125.354 290.368C125.254 290.662 125.104 290.973 124.903 291.303C124.703 291.632 124.445 291.94 124.13 292.227C123.815 292.513 123.435 292.749 122.991 292.936C122.547 293.122 122.032 293.215 121.444 293.215C120.692 293.215 120.019 293.064 119.425 292.764C118.83 292.463 118.361 292.051 118.018 291.528C117.674 291.006 117.502 290.411 117.502 289.745C117.502 289.129 117.617 288.585 117.846 288.112C118.075 287.64 118.415 287.242 118.866 286.92C119.317 286.59 119.876 286.343 120.542 286.179C121.215 286.007 121.985 285.921 122.852 285.921H124.764ZM138.095 283.611V297.469H135.248V281.377H137.88L138.095 283.611ZM145.561 287.07V287.296C145.561 288.141 145.46 288.925 145.26 289.648C145.066 290.365 144.78 290.991 144.4 291.528C144.021 292.058 143.548 292.474 142.982 292.774C142.424 293.068 141.779 293.215 141.049 293.215C140.333 293.215 139.71 293.079 139.18 292.807C138.65 292.527 138.202 292.133 137.837 291.625C137.472 291.117 137.178 290.526 136.956 289.853C136.741 289.172 136.58 288.431 136.473 287.629V286.909C136.58 286.057 136.741 285.284 136.956 284.589C137.178 283.887 137.472 283.282 137.837 282.773C138.202 282.258 138.646 281.86 139.169 281.581C139.699 281.302 140.318 281.162 141.027 281.162C141.765 281.162 142.413 281.302 142.972 281.581C143.537 281.86 144.014 282.261 144.4 282.784C144.787 283.307 145.077 283.93 145.271 284.653C145.464 285.377 145.561 286.182 145.561 287.07ZM142.714 287.296V287.07C142.714 286.555 142.667 286.078 142.574 285.642C142.481 285.198 142.338 284.811 142.145 284.481C141.951 284.145 141.701 283.883 141.393 283.697C141.085 283.511 140.712 283.418 140.275 283.418C139.839 283.418 139.463 283.49 139.147 283.633C138.832 283.776 138.575 283.98 138.374 284.245C138.174 284.51 138.016 284.825 137.901 285.19C137.794 285.549 137.722 285.946 137.687 286.383V288.166C137.751 288.696 137.876 289.172 138.062 289.595C138.249 290.017 138.521 290.354 138.879 290.604C139.244 290.855 139.717 290.98 140.297 290.98C140.734 290.98 141.106 290.884 141.414 290.69C141.722 290.497 141.973 290.232 142.166 289.896C142.359 289.552 142.499 289.158 142.585 288.714C142.671 288.27 142.714 287.797 142.714 287.296ZM152.854 293.215C151.974 293.215 151.182 293.072 150.48 292.785C149.779 292.499 149.181 292.101 148.687 291.593C148.2 291.077 147.824 290.479 147.559 289.799C147.301 289.111 147.172 288.374 147.172 287.586V287.156C147.172 286.261 147.301 285.448 147.559 284.718C147.816 283.98 148.182 283.346 148.654 282.816C149.127 282.286 149.693 281.878 150.352 281.592C151.01 281.305 151.737 281.162 152.532 281.162C153.356 281.162 154.083 281.302 154.713 281.581C155.343 281.853 155.869 282.24 156.292 282.741C156.715 283.243 157.033 283.844 157.248 284.546C157.463 285.241 157.57 286.01 157.57 286.855V288.048H148.461V286.093H154.777V285.878C154.763 285.427 154.677 285.015 154.52 284.643C154.362 284.263 154.118 283.962 153.789 283.74C153.46 283.511 153.034 283.396 152.511 283.396C152.088 283.396 151.719 283.49 151.404 283.676C151.096 283.855 150.839 284.113 150.631 284.449C150.43 284.779 150.28 285.173 150.18 285.631C150.079 286.089 150.029 286.598 150.029 287.156V287.586C150.029 288.073 150.094 288.524 150.223 288.939C150.359 289.355 150.556 289.716 150.813 290.024C151.078 290.325 151.394 290.562 151.759 290.733C152.131 290.898 152.554 290.98 153.026 290.98C153.621 290.98 154.158 290.866 154.638 290.637C155.125 290.4 155.547 290.053 155.905 289.595L157.334 291.077C157.09 291.435 156.761 291.779 156.346 292.108C155.938 292.438 155.443 292.706 154.863 292.914C154.283 293.115 153.614 293.215 152.854 293.215ZM162.308 283.751V293H159.472V281.377H162.157L162.308 283.751ZM165.842 281.302L165.799 283.944C165.641 283.916 165.462 283.894 165.262 283.88C165.068 283.866 164.886 283.858 164.714 283.858C164.277 283.858 163.894 283.919 163.564 284.041C163.235 284.156 162.959 284.324 162.737 284.546C162.522 284.768 162.358 285.04 162.243 285.362C162.129 285.677 162.064 286.035 162.05 286.437L161.438 286.361C161.438 285.624 161.513 284.94 161.663 284.31C161.813 283.679 162.032 283.128 162.318 282.655C162.605 282.183 162.963 281.817 163.393 281.56C163.829 281.295 164.331 281.162 164.896 281.162C165.054 281.162 165.222 281.176 165.401 281.205C165.588 281.227 165.734 281.259 165.842 281.302ZM173.791 289.82C173.791 289.577 173.727 289.358 173.598 289.165C173.469 288.972 173.225 288.796 172.867 288.639C172.516 288.474 172.001 288.32 171.32 288.177C170.719 288.048 170.164 287.887 169.655 287.693C169.147 287.5 168.71 287.267 168.345 286.995C167.979 286.716 167.693 286.39 167.485 286.018C167.285 285.638 167.185 285.201 167.185 284.707C167.185 284.227 167.288 283.776 167.496 283.354C167.704 282.924 168.005 282.548 168.398 282.226C168.792 281.896 169.272 281.638 169.838 281.452C170.404 281.259 171.041 281.162 171.75 281.162C172.738 281.162 173.587 281.323 174.296 281.646C175.012 281.968 175.56 282.412 175.939 282.978C176.319 283.536 176.509 284.166 176.509 284.868H173.673C173.673 284.56 173.601 284.281 173.458 284.03C173.322 283.78 173.111 283.579 172.824 283.429C172.538 283.271 172.176 283.192 171.739 283.192C171.345 283.192 171.012 283.257 170.74 283.386C170.475 283.515 170.275 283.683 170.139 283.891C170.003 284.098 169.935 284.327 169.935 284.578C169.935 284.764 169.97 284.933 170.042 285.083C170.121 285.226 170.246 285.359 170.418 285.48C170.59 285.602 170.823 285.713 171.116 285.813C171.417 285.914 171.786 286.01 172.223 286.104C173.089 286.275 173.845 286.505 174.489 286.791C175.141 287.07 175.649 287.443 176.015 287.908C176.38 288.374 176.562 288.968 176.562 289.691C176.562 290.207 176.451 290.68 176.229 291.109C176.007 291.532 175.685 291.901 175.263 292.216C174.84 292.531 174.335 292.778 173.748 292.957C173.161 293.129 172.498 293.215 171.761 293.215C170.694 293.215 169.791 293.025 169.054 292.646C168.316 292.259 167.757 291.772 167.378 291.185C166.998 290.59 166.809 289.974 166.809 289.337H169.526C169.548 289.788 169.67 290.15 169.892 290.422C170.114 290.694 170.393 290.891 170.729 291.013C171.073 291.127 171.435 291.185 171.814 291.185C172.244 291.185 172.606 291.127 172.899 291.013C173.193 290.891 173.415 290.73 173.565 290.529C173.716 290.322 173.791 290.085 173.791 289.82ZM178.217 287.307V287.081C178.217 286.229 178.339 285.445 178.582 284.729C178.826 284.005 179.18 283.379 179.646 282.849C180.111 282.319 180.68 281.907 181.354 281.613C182.027 281.312 182.793 281.162 183.652 281.162C184.526 281.162 185.299 281.312 185.973 281.613C186.653 281.907 187.226 282.319 187.691 282.849C188.157 283.379 188.511 284.005 188.755 284.729C188.998 285.445 189.12 286.229 189.12 287.081V287.307C189.12 288.152 188.998 288.936 188.755 289.659C188.511 290.375 188.157 291.002 187.691 291.539C187.226 292.069 186.657 292.481 185.983 292.774C185.31 293.068 184.54 293.215 183.674 293.215C182.814 293.215 182.045 293.068 181.364 292.774C180.684 292.481 180.111 292.069 179.646 291.539C179.18 291.002 178.826 290.375 178.582 289.659C178.339 288.936 178.217 288.152 178.217 287.307ZM181.053 287.081V287.307C181.053 287.815 181.103 288.291 181.203 288.735C181.303 289.179 181.457 289.57 181.665 289.906C181.873 290.243 182.141 290.508 182.471 290.701C182.807 290.887 183.208 290.98 183.674 290.98C184.132 290.98 184.526 290.887 184.855 290.701C185.185 290.508 185.453 290.243 185.661 289.906C185.876 289.57 186.034 289.179 186.134 288.735C186.234 288.291 186.284 287.815 186.284 287.307V287.081C186.284 286.58 186.234 286.111 186.134 285.674C186.034 285.23 185.876 284.84 185.661 284.503C185.453 284.159 185.181 283.891 184.845 283.697C184.515 283.497 184.118 283.396 183.652 283.396C183.194 283.396 182.8 283.497 182.471 283.697C182.141 283.891 181.873 284.159 181.665 284.503C181.457 284.84 181.303 285.23 181.203 285.674C181.103 286.111 181.053 286.58 181.053 287.081ZM193.965 283.858V293H191.129V281.377H193.793L193.965 283.858ZM193.514 286.77H192.676C192.683 285.924 192.798 285.158 193.02 284.471C193.242 283.783 193.553 283.192 193.954 282.698C194.362 282.204 194.846 281.825 195.404 281.56C195.963 281.295 196.586 281.162 197.273 281.162C197.832 281.162 198.337 281.241 198.788 281.398C199.239 281.556 199.626 281.807 199.948 282.15C200.278 282.494 200.528 282.945 200.7 283.504C200.879 284.055 200.969 284.736 200.969 285.545V293H198.111V285.523C198.111 284.993 198.033 284.575 197.875 284.267C197.725 283.959 197.503 283.74 197.209 283.611C196.923 283.482 196.568 283.418 196.146 283.418C195.709 283.418 195.326 283.507 194.996 283.687C194.674 283.858 194.402 284.098 194.18 284.406C193.965 284.714 193.8 285.069 193.686 285.47C193.571 285.871 193.514 286.304 193.514 286.77ZM209.874 290.529V285.169C209.874 284.775 209.806 284.435 209.67 284.148C209.534 283.862 209.326 283.64 209.047 283.482C208.768 283.325 208.413 283.246 207.983 283.246C207.604 283.246 207.271 283.311 206.984 283.439C206.705 283.568 206.49 283.751 206.34 283.987C206.189 284.216 206.114 284.481 206.114 284.782H203.268C203.268 284.302 203.382 283.848 203.611 283.418C203.84 282.981 204.166 282.594 204.589 282.258C205.019 281.914 205.531 281.646 206.125 281.452C206.727 281.259 207.4 281.162 208.145 281.162C209.025 281.162 209.81 281.312 210.497 281.613C211.192 281.907 211.736 282.351 212.13 282.945C212.531 283.54 212.731 284.288 212.731 285.19V290.261C212.731 290.841 212.767 291.339 212.839 291.754C212.918 292.162 213.032 292.517 213.183 292.817V293H210.293C210.157 292.706 210.053 292.334 209.981 291.883C209.91 291.424 209.874 290.973 209.874 290.529ZM210.271 285.921L210.293 287.607H208.499C208.055 287.607 207.665 287.654 207.328 287.747C206.992 287.833 206.716 287.962 206.501 288.134C206.286 288.299 206.125 288.499 206.018 288.735C205.91 288.965 205.856 289.226 205.856 289.52C205.856 289.806 205.921 290.064 206.05 290.293C206.186 290.522 206.379 290.705 206.63 290.841C206.888 290.97 207.188 291.034 207.532 291.034C208.034 291.034 208.47 290.934 208.843 290.733C209.215 290.526 209.505 290.275 209.713 289.981C209.921 289.688 210.032 289.409 210.046 289.144L210.862 290.368C210.762 290.662 210.612 290.973 210.411 291.303C210.211 291.632 209.953 291.94 209.638 292.227C209.323 292.513 208.943 292.749 208.499 292.936C208.055 293.122 207.539 293.215 206.952 293.215C206.2 293.215 205.527 293.064 204.933 292.764C204.338 292.463 203.869 292.051 203.525 291.528C203.182 291.006 203.01 290.411 203.01 289.745C203.01 289.129 203.124 288.585 203.354 288.112C203.583 287.64 203.923 287.242 204.374 286.92C204.825 286.59 205.384 286.343 206.05 286.179C206.723 286.007 207.493 285.921 208.359 285.921H210.271ZM218.296 276.5V293H215.449V276.5H218.296ZM224.011 281.377V293H221.164V281.377H224.011ZM220.971 278.337C220.971 277.914 221.114 277.563 221.4 277.284C221.694 277.005 222.088 276.865 222.582 276.865C223.076 276.865 223.466 277.005 223.753 277.284C224.047 277.563 224.193 277.914 224.193 278.337C224.193 278.752 224.047 279.1 223.753 279.379C223.466 279.658 223.076 279.798 222.582 279.798C222.088 279.798 221.694 279.658 221.4 279.379C221.114 279.1 220.971 278.752 220.971 278.337ZM235.827 290.766V293H227.083V290.766H235.827ZM235.623 283.074L228.146 293H226.277V291.249L233.711 281.377H235.623V283.074ZM234.581 281.377V283.622H226.428V281.377H234.581ZM242.896 293.215C242.015 293.215 241.223 293.072 240.521 292.785C239.82 292.499 239.222 292.101 238.728 291.593C238.241 291.077 237.865 290.479 237.6 289.799C237.342 289.111 237.213 288.374 237.213 287.586V287.156C237.213 286.261 237.342 285.448 237.6 284.718C237.857 283.98 238.223 283.346 238.695 282.816C239.168 282.286 239.734 281.878 240.393 281.592C241.051 281.305 241.778 281.162 242.573 281.162C243.397 281.162 244.124 281.302 244.754 281.581C245.384 281.853 245.91 282.24 246.333 282.741C246.756 283.243 247.074 283.844 247.289 284.546C247.504 285.241 247.611 286.01 247.611 286.855V288.048H238.502V286.093H244.818V285.878C244.804 285.427 244.718 285.015 244.561 284.643C244.403 284.263 244.16 283.962 243.83 283.74C243.501 283.511 243.075 283.396 242.552 283.396C242.129 283.396 241.76 283.49 241.445 283.676C241.137 283.855 240.88 284.113 240.672 284.449C240.471 284.779 240.321 285.173 240.221 285.631C240.12 286.089 240.07 286.598 240.07 287.156V287.586C240.07 288.073 240.135 288.524 240.264 288.939C240.4 289.355 240.597 289.716 240.854 290.024C241.119 290.325 241.435 290.562 241.8 290.733C242.172 290.898 242.595 290.98 243.067 290.98C243.662 290.98 244.199 290.866 244.679 290.637C245.166 290.4 245.588 290.053 245.946 289.595L247.375 291.077C247.132 291.435 246.802 291.779 246.387 292.108C245.979 292.438 245.484 292.706 244.904 292.914C244.324 293.115 243.655 293.215 242.896 293.215ZM256.484 290.529V276.5H259.342V293H256.764L256.484 290.529ZM249.019 287.328V287.103C249.019 286.215 249.119 285.409 249.319 284.686C249.527 283.955 249.828 283.328 250.222 282.806C250.616 282.283 251.092 281.878 251.65 281.592C252.216 281.305 252.857 281.162 253.573 281.162C254.268 281.162 254.873 281.302 255.389 281.581C255.911 281.86 256.355 282.258 256.721 282.773C257.093 283.289 257.39 283.901 257.612 284.61C257.834 285.312 257.995 286.086 258.096 286.931V287.543C257.995 288.367 257.834 289.122 257.612 289.81C257.39 290.497 257.093 291.099 256.721 291.614C256.355 292.123 255.911 292.517 255.389 292.796C254.866 293.075 254.254 293.215 253.552 293.215C252.843 293.215 252.205 293.068 251.64 292.774C251.081 292.481 250.605 292.069 250.211 291.539C249.824 291.009 249.527 290.386 249.319 289.67C249.119 288.954 249.019 288.173 249.019 287.328ZM251.865 287.103V287.328C251.865 287.829 251.908 288.299 251.994 288.735C252.08 289.172 252.22 289.559 252.413 289.896C252.606 290.225 252.854 290.483 253.154 290.669C253.462 290.855 253.835 290.948 254.271 290.948C254.83 290.948 255.288 290.826 255.646 290.583C256.012 290.332 256.295 289.992 256.495 289.562C256.696 289.126 256.825 288.635 256.882 288.091V286.404C256.853 285.975 256.778 285.577 256.656 285.212C256.542 284.847 256.377 284.532 256.162 284.267C255.954 284.002 255.697 283.794 255.389 283.644C255.081 283.493 254.715 283.418 254.293 283.418C253.856 283.418 253.484 283.515 253.176 283.708C252.868 283.894 252.617 284.156 252.424 284.492C252.23 284.829 252.087 285.219 251.994 285.663C251.908 286.107 251.865 286.587 251.865 287.103ZM270.224 283.751V293H267.388V281.377H270.073L270.224 283.751ZM273.758 281.302L273.715 283.944C273.557 283.916 273.378 283.894 273.178 283.88C272.984 283.866 272.802 283.858 272.63 283.858C272.193 283.858 271.81 283.919 271.48 284.041C271.151 284.156 270.875 284.324 270.653 284.546C270.438 284.768 270.274 285.04 270.159 285.362C270.045 285.677 269.98 286.035 269.966 286.437L269.354 286.361C269.354 285.624 269.429 284.94 269.579 284.31C269.729 283.679 269.948 283.128 270.234 282.655C270.521 282.183 270.879 281.817 271.309 281.56C271.745 281.295 272.247 281.162 272.812 281.162C272.97 281.162 273.138 281.176 273.317 281.205C273.504 281.227 273.65 281.259 273.758 281.302ZM280.321 293.215C279.44 293.215 278.649 293.072 277.947 292.785C277.245 292.499 276.647 292.101 276.153 291.593C275.666 291.077 275.29 290.479 275.025 289.799C274.768 289.111 274.639 288.374 274.639 287.586V287.156C274.639 286.261 274.768 285.448 275.025 284.718C275.283 283.98 275.648 283.346 276.121 282.816C276.594 282.286 277.16 281.878 277.818 281.592C278.477 281.305 279.204 281.162 279.999 281.162C280.823 281.162 281.549 281.302 282.18 281.581C282.81 281.853 283.336 282.24 283.759 282.741C284.181 283.243 284.5 283.844 284.715 284.546C284.93 285.241 285.037 286.01 285.037 286.855V288.048H275.928V286.093H282.244V285.878C282.23 285.427 282.144 285.015 281.986 284.643C281.829 284.263 281.585 283.962 281.256 283.74C280.926 283.511 280.5 283.396 279.978 283.396C279.555 283.396 279.186 283.49 278.871 283.676C278.563 283.855 278.305 284.113 278.098 284.449C277.897 284.779 277.747 285.173 277.646 285.631C277.546 286.089 277.496 286.598 277.496 287.156V287.586C277.496 288.073 277.561 288.524 277.689 288.939C277.826 289.355 278.022 289.716 278.28 290.024C278.545 290.325 278.86 290.562 279.226 290.733C279.598 290.898 280.021 290.98 280.493 290.98C281.088 290.98 281.625 290.866 282.104 290.637C282.591 290.4 283.014 290.053 283.372 289.595L284.801 291.077C284.557 291.435 284.228 291.779 283.812 292.108C283.404 292.438 282.91 292.706 282.33 292.914C281.75 293.115 281.08 293.215 280.321 293.215ZM289.774 283.611V297.469H286.928V281.377H289.56L289.774 283.611ZM297.24 287.07V287.296C297.24 288.141 297.14 288.925 296.939 289.648C296.746 290.365 296.46 290.991 296.08 291.528C295.701 292.058 295.228 292.474 294.662 292.774C294.104 293.068 293.459 293.215 292.729 293.215C292.012 293.215 291.389 293.079 290.859 292.807C290.329 292.527 289.882 292.133 289.517 291.625C289.151 291.117 288.858 290.526 288.636 289.853C288.421 289.172 288.26 288.431 288.152 287.629V286.909C288.26 286.057 288.421 285.284 288.636 284.589C288.858 283.887 289.151 283.282 289.517 282.773C289.882 282.258 290.326 281.86 290.849 281.581C291.379 281.302 291.998 281.162 292.707 281.162C293.445 281.162 294.093 281.302 294.651 281.581C295.217 281.86 295.693 282.261 296.08 282.784C296.467 283.307 296.757 283.93 296.95 284.653C297.144 285.377 297.24 286.182 297.24 287.07ZM294.394 287.296V287.07C294.394 286.555 294.347 286.078 294.254 285.642C294.161 285.198 294.018 284.811 293.824 284.481C293.631 284.145 293.38 283.883 293.072 283.697C292.764 283.511 292.392 283.418 291.955 283.418C291.518 283.418 291.142 283.49 290.827 283.633C290.512 283.776 290.254 283.98 290.054 284.245C289.853 284.51 289.696 284.825 289.581 285.19C289.474 285.549 289.402 285.946 289.366 286.383V288.166C289.431 288.696 289.556 289.172 289.742 289.595C289.928 290.017 290.201 290.354 290.559 290.604C290.924 290.855 291.396 290.98 291.977 290.98C292.413 290.98 292.786 290.884 293.094 290.69C293.402 290.497 293.652 290.232 293.846 289.896C294.039 289.552 294.179 289.158 294.265 288.714C294.351 288.27 294.394 287.797 294.394 287.296ZM298.809 287.307V287.081C298.809 286.229 298.93 285.445 299.174 284.729C299.417 284.005 299.772 283.379 300.237 282.849C300.703 282.319 301.272 281.907 301.945 281.613C302.618 281.312 303.385 281.162 304.244 281.162C305.118 281.162 305.891 281.312 306.564 281.613C307.245 281.907 307.818 282.319 308.283 282.849C308.749 283.379 309.103 284.005 309.347 284.729C309.59 285.445 309.712 286.229 309.712 287.081V287.307C309.712 288.152 309.59 288.936 309.347 289.659C309.103 290.375 308.749 291.002 308.283 291.539C307.818 292.069 307.248 292.481 306.575 292.774C305.902 293.068 305.132 293.215 304.266 293.215C303.406 293.215 302.636 293.068 301.956 292.774C301.276 292.481 300.703 292.069 300.237 291.539C299.772 291.002 299.417 290.375 299.174 289.659C298.93 288.936 298.809 288.152 298.809 287.307ZM301.645 287.081V287.307C301.645 287.815 301.695 288.291 301.795 288.735C301.895 289.179 302.049 289.57 302.257 289.906C302.465 290.243 302.733 290.508 303.062 290.701C303.399 290.887 303.8 290.98 304.266 290.98C304.724 290.98 305.118 290.887 305.447 290.701C305.777 290.508 306.045 290.243 306.253 289.906C306.468 289.57 306.625 289.179 306.726 288.735C306.826 288.291 306.876 287.815 306.876 287.307V287.081C306.876 286.58 306.826 286.111 306.726 285.674C306.625 285.23 306.468 284.84 306.253 284.503C306.045 284.159 305.773 283.891 305.437 283.697C305.107 283.497 304.71 283.396 304.244 283.396C303.786 283.396 303.392 283.497 303.062 283.697C302.733 283.891 302.465 284.159 302.257 284.503C302.049 284.84 301.895 285.23 301.795 285.674C301.695 286.111 301.645 286.58 301.645 287.081ZM314.61 283.751V293H311.774V281.377H314.46L314.61 283.751ZM318.145 281.302L318.102 283.944C317.944 283.916 317.765 283.894 317.564 283.88C317.371 283.866 317.188 283.858 317.017 283.858C316.58 283.858 316.197 283.919 315.867 284.041C315.538 284.156 315.262 284.324 315.04 284.546C314.825 284.768 314.66 285.04 314.546 285.362C314.431 285.677 314.367 286.035 314.353 286.437L313.74 286.361C313.74 285.624 313.815 284.94 313.966 284.31C314.116 283.679 314.335 283.128 314.621 282.655C314.908 282.183 315.266 281.817 315.695 281.56C316.132 281.295 316.633 281.162 317.199 281.162C317.357 281.162 317.525 281.176 317.704 281.205C317.89 281.227 318.037 281.259 318.145 281.302ZM325.739 281.377V283.418H319.079V281.377H325.739ZM320.862 278.52H323.709V289.648C323.709 289.992 323.756 290.257 323.849 290.443C323.942 290.63 324.081 290.755 324.268 290.819C324.454 290.884 324.676 290.916 324.934 290.916C325.12 290.916 325.292 290.905 325.449 290.884C325.607 290.862 325.739 290.841 325.847 290.819L325.857 292.946C325.621 293.025 325.353 293.09 325.052 293.14C324.758 293.19 324.425 293.215 324.053 293.215C323.415 293.215 322.857 293.107 322.377 292.893C321.897 292.671 321.525 292.316 321.26 291.829C320.995 291.335 320.862 290.683 320.862 289.874V278.52ZM112.657 325.207L115.203 316.377H117.008L116.471 319.428L113.903 328H112.346L112.657 325.207ZM111.25 316.377L113.162 325.229L113.334 328H111.54L108.489 316.377H111.25ZM119.371 325.1L121.24 316.377H123.99L120.961 328H119.167L119.371 325.1ZM117.287 316.377L119.812 325.121L120.145 328H118.587L115.998 319.428L115.472 316.377H117.287ZM128.674 316.377V328H125.827V316.377H128.674ZM125.634 313.337C125.634 312.914 125.777 312.563 126.063 312.284C126.357 312.005 126.751 311.865 127.245 311.865C127.739 311.865 128.13 312.005 128.416 312.284C128.71 312.563 128.856 312.914 128.856 313.337C128.856 313.752 128.71 314.1 128.416 314.379C128.13 314.658 127.739 314.798 127.245 314.798C126.751 314.798 126.357 314.658 126.063 314.379C125.777 314.1 125.634 313.752 125.634 313.337ZM136.881 316.377V318.418H130.221V316.377H136.881ZM132.004 313.52H134.851V324.648C134.851 324.992 134.897 325.257 134.99 325.443C135.083 325.63 135.223 325.755 135.409 325.819C135.595 325.884 135.817 325.916 136.075 325.916C136.261 325.916 136.433 325.905 136.591 325.884C136.748 325.862 136.881 325.841 136.988 325.819L136.999 327.946C136.763 328.025 136.494 328.09 136.193 328.14C135.9 328.19 135.567 328.215 135.194 328.215C134.557 328.215 133.998 328.107 133.519 327.893C133.039 327.671 132.666 327.316 132.401 326.829C132.136 326.335 132.004 325.683 132.004 324.874V313.52ZM141.554 311.5V328H138.707V311.5H141.554ZM141.103 321.77H140.265C140.265 320.96 140.372 320.215 140.587 319.535C140.802 318.855 141.106 318.264 141.5 317.763C141.894 317.254 142.363 316.86 142.907 316.581C143.459 316.302 144.067 316.162 144.733 316.162C145.306 316.162 145.826 316.244 146.291 316.409C146.764 316.567 147.168 316.821 147.505 317.172C147.841 317.523 148.099 317.981 148.278 318.547C148.465 319.105 148.558 319.786 148.558 320.588V328H145.7V320.566C145.7 320.029 145.621 319.607 145.464 319.299C145.306 318.984 145.081 318.758 144.787 318.622C144.501 318.486 144.146 318.418 143.724 318.418C143.265 318.418 142.871 318.507 142.542 318.687C142.213 318.858 141.94 319.098 141.726 319.406C141.518 319.714 141.36 320.069 141.253 320.47C141.153 320.871 141.103 321.304 141.103 321.77ZM163.93 316.377H166.508V327.646C166.508 328.698 166.279 329.59 165.82 330.32C165.369 331.058 164.735 331.617 163.919 331.996C163.103 332.383 162.154 332.576 161.072 332.576C160.607 332.576 160.102 332.512 159.558 332.383C159.021 332.254 158.501 332.05 158 331.771C157.506 331.498 157.094 331.144 156.765 330.707L158.043 329.031C158.43 329.482 158.867 329.823 159.354 330.052C159.84 330.288 160.367 330.406 160.933 330.406C161.506 330.406 161.993 330.299 162.394 330.084C162.802 329.876 163.113 329.568 163.328 329.16C163.55 328.759 163.661 328.265 163.661 327.678V319.03L163.93 316.377ZM156.077 322.328V322.103C156.077 321.215 156.185 320.409 156.399 319.686C156.614 318.955 156.922 318.328 157.323 317.806C157.731 317.283 158.222 316.878 158.795 316.592C159.375 316.305 160.027 316.162 160.75 316.162C161.516 316.162 162.161 316.302 162.684 316.581C163.214 316.86 163.65 317.258 163.994 317.773C164.345 318.289 164.617 318.901 164.811 319.61C165.011 320.312 165.165 321.086 165.272 321.931V322.543C165.172 323.367 165.011 324.122 164.789 324.81C164.574 325.497 164.288 326.099 163.93 326.614C163.572 327.123 163.128 327.517 162.598 327.796C162.068 328.075 161.445 328.215 160.729 328.215C160.012 328.215 159.368 328.068 158.795 327.774C158.222 327.481 157.731 327.069 157.323 326.539C156.922 326.009 156.614 325.386 156.399 324.67C156.185 323.954 156.077 323.173 156.077 322.328ZM158.913 322.103V322.328C158.913 322.829 158.963 323.299 159.063 323.735C159.164 324.172 159.318 324.559 159.525 324.896C159.733 325.225 159.994 325.483 160.31 325.669C160.625 325.855 161.001 325.948 161.438 325.948C162.025 325.948 162.505 325.826 162.877 325.583C163.257 325.332 163.543 324.992 163.736 324.562C163.937 324.126 164.066 323.635 164.123 323.091V321.404C164.087 320.975 164.008 320.577 163.887 320.212C163.772 319.847 163.611 319.532 163.403 319.267C163.196 319.002 162.931 318.794 162.608 318.644C162.286 318.493 161.903 318.418 161.459 318.418C161.029 318.418 160.653 318.515 160.331 318.708C160.009 318.894 159.744 319.156 159.536 319.492C159.328 319.829 159.171 320.219 159.063 320.663C158.963 321.107 158.913 321.587 158.913 322.103ZM175.982 325.239V316.377H178.84V328H176.154L175.982 325.239ZM176.348 322.833L177.229 322.812C177.229 323.592 177.143 324.312 176.971 324.971C176.799 325.63 176.53 326.202 176.165 326.689C175.807 327.169 175.352 327.545 174.801 327.817C174.249 328.082 173.598 328.215 172.846 328.215C172.273 328.215 171.75 328.136 171.277 327.979C170.805 327.814 170.396 327.56 170.053 327.216C169.716 326.865 169.455 326.417 169.269 325.873C169.082 325.322 168.989 324.659 168.989 323.886V316.377H171.825V323.907C171.825 324.294 171.868 324.616 171.954 324.874C172.047 325.132 172.173 325.343 172.33 325.508C172.495 325.665 172.685 325.78 172.899 325.852C173.121 325.916 173.358 325.948 173.608 325.948C174.296 325.948 174.837 325.812 175.23 325.54C175.632 325.261 175.918 324.888 176.09 324.423C176.262 323.95 176.348 323.42 176.348 322.833ZM184.361 316.377V328H181.515V316.377H184.361ZM181.321 313.337C181.321 312.914 181.465 312.563 181.751 312.284C182.045 312.005 182.438 311.865 182.933 311.865C183.427 311.865 183.817 312.005 184.104 312.284C184.397 312.563 184.544 312.914 184.544 313.337C184.544 313.752 184.397 314.1 184.104 314.379C183.817 314.658 183.427 314.798 182.933 314.798C182.438 314.798 182.045 314.658 181.751 314.379C181.465 314.1 181.321 313.752 181.321 313.337ZM194.04 325.529V311.5H196.897V328H194.319L194.04 325.529ZM186.574 322.328V322.103C186.574 321.215 186.674 320.409 186.875 319.686C187.083 318.955 187.383 318.328 187.777 317.806C188.171 317.283 188.647 316.878 189.206 316.592C189.772 316.305 190.413 316.162 191.129 316.162C191.824 316.162 192.429 316.302 192.944 316.581C193.467 316.86 193.911 317.258 194.276 317.773C194.649 318.289 194.946 318.901 195.168 319.61C195.39 320.312 195.551 321.086 195.651 321.931V322.543C195.551 323.367 195.39 324.122 195.168 324.81C194.946 325.497 194.649 326.099 194.276 326.614C193.911 327.123 193.467 327.517 192.944 327.796C192.422 328.075 191.809 328.215 191.107 328.215C190.398 328.215 189.761 328.068 189.195 327.774C188.637 327.481 188.16 327.069 187.767 326.539C187.38 326.009 187.083 325.386 186.875 324.67C186.674 323.954 186.574 323.173 186.574 322.328ZM189.421 322.103V322.328C189.421 322.829 189.464 323.299 189.55 323.735C189.636 324.172 189.775 324.559 189.969 324.896C190.162 325.225 190.409 325.483 190.71 325.669C191.018 325.855 191.39 325.948 191.827 325.948C192.386 325.948 192.844 325.826 193.202 325.583C193.567 325.332 193.85 324.992 194.051 324.562C194.251 324.126 194.38 323.635 194.438 323.091V321.404C194.409 320.975 194.334 320.577 194.212 320.212C194.097 319.847 193.933 319.532 193.718 319.267C193.51 319.002 193.252 318.794 192.944 318.644C192.636 318.493 192.271 318.418 191.849 318.418C191.412 318.418 191.039 318.515 190.731 318.708C190.424 318.894 190.173 319.156 189.979 319.492C189.786 319.829 189.643 320.219 189.55 320.663C189.464 321.107 189.421 321.587 189.421 322.103ZM205.867 325.529V320.169C205.867 319.775 205.799 319.435 205.663 319.148C205.527 318.862 205.319 318.64 205.04 318.482C204.761 318.325 204.406 318.246 203.977 318.246C203.597 318.246 203.264 318.311 202.978 318.439C202.698 318.568 202.483 318.751 202.333 318.987C202.183 319.216 202.107 319.481 202.107 319.782H199.261C199.261 319.302 199.375 318.848 199.604 318.418C199.834 317.981 200.16 317.594 200.582 317.258C201.012 316.914 201.524 316.646 202.118 316.452C202.72 316.259 203.393 316.162 204.138 316.162C205.019 316.162 205.803 316.312 206.49 316.613C207.185 316.907 207.729 317.351 208.123 317.945C208.524 318.54 208.725 319.288 208.725 320.19V325.261C208.725 325.841 208.76 326.339 208.832 326.754C208.911 327.162 209.025 327.517 209.176 327.817V328H206.286C206.15 327.706 206.046 327.334 205.975 326.883C205.903 326.424 205.867 325.973 205.867 325.529ZM206.265 320.921L206.286 322.607H204.492C204.048 322.607 203.658 322.654 203.321 322.747C202.985 322.833 202.709 322.962 202.494 323.134C202.279 323.299 202.118 323.499 202.011 323.735C201.903 323.965 201.85 324.226 201.85 324.52C201.85 324.806 201.914 325.064 202.043 325.293C202.179 325.522 202.372 325.705 202.623 325.841C202.881 325.97 203.182 326.034 203.525 326.034C204.027 326.034 204.464 325.934 204.836 325.733C205.208 325.526 205.498 325.275 205.706 324.981C205.914 324.688 206.025 324.409 206.039 324.144L206.855 325.368C206.755 325.662 206.605 325.973 206.404 326.303C206.204 326.632 205.946 326.94 205.631 327.227C205.316 327.513 204.936 327.749 204.492 327.936C204.048 328.122 203.533 328.215 202.945 328.215C202.193 328.215 201.52 328.064 200.926 327.764C200.331 327.463 199.862 327.051 199.519 326.528C199.175 326.006 199.003 325.411 199.003 324.745C199.003 324.129 199.118 323.585 199.347 323.112C199.576 322.64 199.916 322.242 200.367 321.92C200.818 321.59 201.377 321.343 202.043 321.179C202.716 321.007 203.486 320.921 204.353 320.921H206.265ZM214.063 318.858V328H211.228V316.377H213.892L214.063 318.858ZM213.612 321.77H212.774C212.782 320.924 212.896 320.158 213.118 319.471C213.34 318.783 213.652 318.192 214.053 317.698C214.461 317.204 214.944 316.825 215.503 316.56C216.062 316.295 216.685 316.162 217.372 316.162C217.931 316.162 218.436 316.241 218.887 316.398C219.338 316.556 219.725 316.807 220.047 317.15C220.376 317.494 220.627 317.945 220.799 318.504C220.978 319.055 221.067 319.736 221.067 320.545V328H218.21V320.523C218.21 319.993 218.131 319.575 217.974 319.267C217.823 318.959 217.601 318.74 217.308 318.611C217.021 318.482 216.667 318.418 216.244 318.418C215.807 318.418 215.424 318.507 215.095 318.687C214.772 318.858 214.5 319.098 214.278 319.406C214.063 319.714 213.899 320.069 213.784 320.47C213.67 320.871 213.612 321.304 213.612 321.77ZM228.34 325.98C228.741 325.98 229.099 325.902 229.414 325.744C229.729 325.587 229.98 325.365 230.166 325.078C230.359 324.792 230.463 324.459 230.478 324.079H233.152C233.138 324.867 232.916 325.572 232.486 326.195C232.057 326.818 231.484 327.312 230.768 327.678C230.059 328.036 229.264 328.215 228.383 328.215C227.488 328.215 226.707 328.064 226.041 327.764C225.375 327.463 224.82 327.044 224.376 326.507C223.939 325.97 223.61 325.347 223.388 324.638C223.173 323.929 223.065 323.17 223.065 322.36V322.017C223.065 321.207 223.173 320.448 223.388 319.739C223.61 319.03 223.939 318.407 224.376 317.87C224.82 317.333 225.375 316.914 226.041 316.613C226.707 316.312 227.484 316.162 228.372 316.162C229.31 316.162 230.134 316.345 230.843 316.71C231.559 317.075 232.118 317.591 232.519 318.257C232.927 318.923 233.138 319.707 233.152 320.609H230.478C230.463 320.194 230.37 319.822 230.198 319.492C230.026 319.163 229.783 318.898 229.468 318.697C229.153 318.497 228.77 318.396 228.318 318.396C227.839 318.396 227.438 318.497 227.115 318.697C226.8 318.898 226.553 319.174 226.374 319.524C226.202 319.868 226.08 320.255 226.009 320.685C225.944 321.107 225.912 321.551 225.912 322.017V322.36C225.912 322.833 225.944 323.284 226.009 323.714C226.08 324.144 226.202 324.53 226.374 324.874C226.553 325.211 226.8 325.479 227.115 325.68C227.438 325.88 227.846 325.98 228.34 325.98ZM240.264 328.215C239.383 328.215 238.591 328.072 237.89 327.785C237.188 327.499 236.59 327.101 236.096 326.593C235.609 326.077 235.233 325.479 234.968 324.799C234.71 324.111 234.581 323.374 234.581 322.586V322.156C234.581 321.261 234.71 320.448 234.968 319.718C235.226 318.98 235.591 318.346 236.063 317.816C236.536 317.286 237.102 316.878 237.761 316.592C238.42 316.305 239.146 316.162 239.941 316.162C240.765 316.162 241.492 316.302 242.122 316.581C242.752 316.853 243.279 317.24 243.701 317.741C244.124 318.243 244.442 318.844 244.657 319.546C244.872 320.241 244.979 321.01 244.979 321.855V323.048H235.87V321.093H242.187V320.878C242.172 320.427 242.086 320.015 241.929 319.643C241.771 319.263 241.528 318.962 241.198 318.74C240.869 318.511 240.443 318.396 239.92 318.396C239.497 318.396 239.129 318.49 238.813 318.676C238.506 318.855 238.248 319.113 238.04 319.449C237.84 319.779 237.689 320.173 237.589 320.631C237.489 321.089 237.438 321.598 237.438 322.156V322.586C237.438 323.073 237.503 323.524 237.632 323.939C237.768 324.355 237.965 324.716 238.223 325.024C238.488 325.325 238.803 325.562 239.168 325.733C239.54 325.898 239.963 325.98 240.436 325.98C241.03 325.98 241.567 325.866 242.047 325.637C242.534 325.4 242.956 325.053 243.314 324.595L244.743 326.077C244.5 326.435 244.17 326.779 243.755 327.108C243.347 327.438 242.853 327.706 242.272 327.914C241.692 328.115 241.023 328.215 240.264 328.215ZM246.999 326.614C246.999 326.185 247.146 325.823 247.439 325.529C247.733 325.236 248.131 325.089 248.632 325.089C249.133 325.089 249.531 325.236 249.824 325.529C250.118 325.823 250.265 326.185 250.265 326.614C250.265 327.037 250.118 327.395 249.824 327.688C249.531 327.975 249.133 328.118 248.632 328.118C248.131 328.118 247.733 327.975 247.439 327.688C247.146 327.395 246.999 327.037 246.999 326.614Z" fill="white"/>
<g clip-path="url(#clip0_2409_8802)">
<path d="M312.162 240.525C293.965 240.525 62.3212 240.553 62.3212 240.525C62.2192 240.296 10.3782 216.533 68.8238 148.434C88.5656 125.431 62.5436 107.957 82.2507 88.4672C104.9 66.0703 116.688 84.5645 141.874 74.4087C146.323 72.6154 150.788 69.7306 155.259 65.3029C165.696 54.974 179.983 50.2889 194.535 49.2331C222.675 47.2045 254.344 58.6135 270.688 75.2891C273.978 78.6471 288.939 96.022 277.146 119.903C269.699 134.98 300.895 149.382 311.98 166.6C340.163 210.376 312.418 239.955 312.162 240.525Z" fill="#EBF2F8"/>
<g opacity="0.5">
<g opacity="0.5">
<path opacity="0.5" d="M142.437 115.226C142.437 115.226 140.021 96.0393 130.074 84.6407C128.752 83.1256 126.246 84.1099 126.299 86.1166C126.301 86.15 126.302 86.1835 126.303 86.2181C126.452 89.6407 137.598 104.023 142.437 115.226Z" fill="#AEC3FF"/>
</g>
<g opacity="0.5">
<path opacity="0.5" d="M143.671 120.715C143.671 120.715 133.684 96.7756 116.807 86.2608C115.779 85.6192 114.392 85.8627 113.71 86.8632C113.266 87.5152 113.072 88.5295 113.583 90.1092C114.947 94.3223 133.783 108.42 143.671 120.715Z" fill="#AEC3FF"/>
</g>
</g>
<g opacity="0.3">
<path opacity="0.3" d="M105.8 159.678C105.8 159.678 121.186 169.817 119.114 172.55C117.044 175.285 102.787 160.023 102.787 160.023C102.787 160.023 85.2341 166.441 81.0883 171.611C81.0883 171.611 101.071 176.423 98.3876 178.566C95.7041 180.709 74.6773 176.663 74.6773 176.663C74.6773 176.663 60.3477 186.79 65.7623 195.873C71.1769 204.957 77.9703 205.306 80.2124 203.922C82.4544 202.537 93.7412 190.652 94.9741 192.436C96.2069 194.22 90.9303 204.513 85.2446 207.603C85.2446 207.603 102.09 214.414 107.717 207.42C113.345 200.427 111.298 194.599 114.854 190.34C118.411 186.08 122.304 184.22 121.444 187.238C120.585 190.255 113.327 196.265 112.94 202.107C112.551 207.95 111.764 212.246 118.728 207.408C137.79 194.165 130.359 178.093 130.359 178.093C130.359 178.093 135.074 160.447 121.15 157.348C121.151 157.348 111.634 156.438 105.8 159.678Z" fill="#AEC3FF"/>
</g>
<g opacity="0.3">
<path opacity="0.3" d="M121.728 120.707C121.728 120.707 126.737 130.082 124.928 130.902C123.119 131.723 120.103 120.055 120.103 120.055C120.103 120.055 109.409 118.495 105.872 119.983C105.872 119.983 114.69 127.915 112.733 128.267C110.778 128.619 101.216 120.789 101.216 120.789C101.216 120.789 91.1331 121.998 91.3683 128.099C91.6035 134.2 94.9579 136.244 96.4805 136.156C98.003 136.068 107.027 133.131 107.159 134.376C107.291 135.621 101.761 139.4 98.0169 139.408C98.0169 139.408 104.687 147.494 109.483 145.487C114.278 143.48 114.852 139.957 117.837 138.77C120.823 137.584 123.317 137.708 122.045 139.004C120.772 140.301 115.422 141.36 113.607 144.222C111.793 147.084 110.203 149.049 115.08 148.505C128.43 147.012 129.105 136.807 129.105 136.807C129.105 136.807 136.386 129.138 130.171 123.74C130.172 123.74 125.589 120.663 121.728 120.707Z" fill="#AEC3FF"/>
</g>
<g opacity="0.3">
<path opacity="0.3" d="M163.757 102.423C163.757 102.423 163.645 120.926 167.103 120.734C170.562 120.542 165.734 100.107 165.734 100.107C165.734 100.107 180.969 89.0822 187.635 88.526C187.635 88.526 180.472 107.872 183.776 106.838C187.081 105.804 195.473 86.0173 195.473 86.0173C195.473 86.0173 212.015 79.7572 216.609 89.3615C221.203 98.9657 217.688 104.822 215.267 105.914C212.847 107.005 196.535 109.744 197.342 111.772C198.15 113.801 209.754 115.176 215.537 112.17C215.537 112.17 211.813 130.023 202.784 130.79C193.754 131.558 190.006 126.583 184.435 127.158C178.862 127.732 175.116 129.934 178.134 130.909C181.151 131.884 190.269 129.208 195.394 132.161C200.518 135.114 204.569 136.867 196.6 139.956C174.787 148.411 165.454 133.208 165.454 133.208C165.454 133.208 147.988 127.241 153.193 113.904C153.192 113.906 157.763 105.466 163.757 102.423Z" fill="#AEC3FF"/>
</g>
<path d="M292.754 220.157C292.754 220.157 289.491 216.366 292.552 213.957C292.552 213.957 294.789 212.608 296.612 212.718C296.612 212.718 294.029 217.034 294.864 217.463C295.701 217.892 297.396 212.448 297.396 212.448C297.396 212.448 302.486 211.956 304.123 212.74C304.123 212.74 299.772 216.286 300.689 216.497C301.605 216.708 306.305 213.228 306.305 213.228C306.305 213.228 311.042 214.031 310.789 216.909C310.536 219.787 308.904 220.676 308.187 220.599C307.469 220.523 303.273 218.927 303.181 219.512C303.09 220.097 305.615 222.011 307.385 222.101C307.385 222.101 304.045 225.769 301.825 224.71C299.605 223.652 299.416 221.973 298.033 221.344C296.65 220.715 295.469 220.716 296.039 221.358C296.61 221.999 299.114 222.623 299.905 224.017C300.697 225.411 301.407 226.352 299.111 226.007C296.814 225.663 293.081 223.99 292.917 222.073C292.754 220.157 292.754 220.157 292.754 220.157Z" fill="#BBD0FF"/>
<path d="M308.461 216.986C308.461 216.986 295.595 216.493 292.753 220.158C292.753 220.158 292.125 222.031 290.191 223.738L289.89 224.556C289.89 224.556 292.119 222.215 292.917 222.073C292.917 222.074 291.669 217.533 308.461 216.986Z" fill="#BBD0FF"/>
<path d="M290.191 223.739C290.191 223.739 287.43 225.774 287.237 229.408L287.739 229.453C287.739 229.453 288.621 225.694 290.215 224.225C291.809 222.755 290.191 223.739 290.191 223.739Z" fill="#BBD0FF"/>
<path d="M281.344 215.389C281.344 215.389 286.535 212.494 284.112 208.565C284.112 208.565 282.174 206.152 280.097 205.532C280.097 205.532 281.205 211.391 280.097 211.529C278.99 211.667 279.336 204.912 279.336 204.912C279.336 204.912 273.868 202.292 271.722 202.499C271.722 202.499 275.114 208.22 274.006 208.081C272.898 207.944 269.092 202.154 269.092 202.154C269.092 202.154 263.486 201.12 262.586 204.428C261.686 207.736 263.14 209.391 263.971 209.598C264.801 209.804 270.13 209.735 269.992 210.425C269.853 211.114 266.254 212.217 264.248 211.596C264.248 211.596 266.463 217.042 269.369 216.766C272.276 216.49 273.175 214.698 274.975 214.561C276.774 214.422 278.089 214.906 277.19 215.388C276.29 215.871 273.245 215.546 271.792 216.776C270.339 218.008 269.162 218.766 271.861 219.316C274.561 219.868 279.406 219.523 280.374 217.455C281.344 215.389 281.344 215.389 281.344 215.389Z" fill="#AEC3FF"/>
<path d="M265.148 205.463C265.148 205.463 279.683 210.15 281.344 215.389C281.344 215.389 281.275 217.733 282.729 220.422V221.456C282.729 221.456 281.206 217.941 280.375 217.457C280.375 217.457 283.628 212.908 265.148 205.463Z" fill="#AEC3FF"/>
<path d="M282.728 220.422C282.728 220.422 284.97 223.812 283.692 227.939L283.115 227.784C283.115 227.784 283.674 223.239 282.502 220.953C281.329 218.667 282.728 220.422 282.728 220.422Z" fill="#AEC3FF"/>
<path d="M289.602 211.397C289.602 211.397 282.759 207.581 285.952 202.402C285.952 202.402 288.507 199.221 291.244 198.403C291.244 198.403 289.784 206.127 291.244 206.308C292.704 206.489 292.247 197.585 292.247 197.585C292.247 197.585 299.456 194.133 302.284 194.405C302.284 194.405 297.814 201.947 299.274 201.765C300.734 201.582 305.752 193.95 305.752 193.95C305.752 193.95 313.142 192.587 314.329 196.949C315.515 201.311 313.599 203.491 312.504 203.765C311.409 204.037 304.384 203.946 304.567 204.855C304.749 205.763 309.493 207.217 312.14 206.4C312.14 206.4 309.22 213.579 305.388 213.215C301.556 212.852 300.37 210.49 297.998 210.307C295.626 210.126 293.893 210.762 295.078 211.398C296.265 212.034 300.278 211.607 302.195 213.228C304.111 214.85 305.662 215.85 302.103 216.577C298.545 217.304 292.158 216.849 290.881 214.124C289.602 211.397 289.602 211.397 289.602 211.397Z" fill="#D2E0FF"/>
<path d="M310.952 198.312C310.952 198.312 291.792 204.49 289.604 211.397C289.604 211.397 289.695 214.486 287.779 218.03V219.392C287.779 219.392 289.785 214.758 290.88 214.122C290.88 214.122 286.592 208.125 310.952 198.312Z" fill="#D2E0FF"/>
<path d="M287.777 218.03C287.777 218.03 284.823 222.498 286.507 227.937L287.268 227.734C287.268 227.734 286.529 221.743 288.075 218.73C289.622 215.717 287.777 218.03 287.777 218.03Z" fill="#D2E0FF"/>
<path d="M289.372 239.734C296.774 239.734 302.775 233.758 302.775 226.385H275.968C275.968 233.757 281.969 239.734 289.372 239.734Z" fill="#C0D4FF"/>
<path d="M302.961 240.413H275.782C275.782 239.503 276.523 238.766 277.436 238.766H301.306C302.22 238.766 302.961 239.503 302.961 240.413Z" fill="#C0D4FF"/>
<path d="M303.081 226.384H275.528V226.794H303.081V226.384Z" fill="#86A2E2"/>
<path d="M238.203 125.017H221.382V116.306C221.382 112.973 224.006 110.273 227.245 110.273H238.203V125.017Z" fill="#B5D3FA"/>
<path d="M239.856 240.695H221.652C218.08 240.695 215.183 237.812 215.183 234.253V131.46C215.183 127.902 218.078 125.017 221.652 125.017H239.856C243.428 125.017 246.325 127.901 246.325 131.46V234.253C246.325 237.812 243.429 240.695 239.856 240.695Z" fill="#799AE9"/>
<path d="M250.318 240.695H232.114C228.542 240.695 225.645 237.812 225.645 234.253V131.46C225.645 127.902 228.542 125.017 232.114 125.017H250.318C253.89 125.017 256.787 127.901 256.787 131.46V234.253C256.786 237.812 253.89 240.695 250.318 240.695Z" fill="#9CBFEE"/>
<path d="M249.13 140.415H237.745C234.629 140.415 232.103 137.9 232.103 134.797V115.892C232.103 112.789 234.629 110.273 237.745 110.273H249.13C252.246 110.273 254.772 112.789 254.772 115.892V134.798C254.772 137.9 252.246 140.415 249.13 140.415Z" fill="#B5D3FA"/>
<path d="M257.146 140.415H245.761C242.645 140.415 240.119 137.9 240.119 134.797V115.892C240.119 112.789 242.645 110.273 245.761 110.273H257.146C260.262 110.273 262.788 112.789 262.788 115.892V134.798C262.788 137.9 260.262 140.415 257.146 140.415Z" fill="#799AE9"/>
<path d="M266.063 240.695H207.466C205.605 240.695 204.098 239.193 204.098 237.341V234.29C204.098 232.437 205.606 230.935 207.466 230.935H266.063C267.924 230.935 269.432 232.438 269.432 234.29V237.341C269.432 239.193 267.923 240.695 266.063 240.695Z" fill="#B5D3FA"/>
<path d="M266.565 240.695H224.973C223.389 240.695 222.105 239.417 222.105 237.841V233.791C222.105 232.214 223.389 230.936 224.973 230.936H266.565C268.149 230.936 269.433 232.215 269.433 233.791V237.841C269.432 239.417 268.148 240.695 266.565 240.695Z" fill="#799AE9"/>
<path d="M109.721 146.302C109.713 146.071 109.533 143.58 105.722 143.449C105.722 143.449 107.596 143.672 107.919 144.492C107.919 144.492 106.643 143.479 105.604 143.805C104.565 144.13 103.955 145.943 103.948 146.539C103.942 147.136 104.52 149.057 105.179 149.221C105.429 149.283 105.716 149.266 105.977 149.222C105.802 149.495 105.63 149.796 105.465 150.132C103.945 153.239 105.513 156.277 106.8 155.942C107.625 155.726 107.859 157.129 107.859 157.129L115.878 150.664C115.88 150.664 112.935 144.594 109.721 146.302Z" fill="#2C3A64"/>
<path d="M123.449 179.306C123.374 179.476 123.035 180.282 122.488 181.1C122.045 181.765 121.462 182.437 120.771 182.784C120.242 182.529 119.286 182.154 118.881 181.905C117.417 181.015 115.329 178.489 113.623 175.779C113.363 175.366 113.111 174.949 112.873 174.533C112.82 174.456 112.782 174.378 112.743 174.302C112.136 173.224 111.645 172.152 111.362 171.171L114.461 164.574C114.473 164.586 115.424 165.146 116.263 167.549C117.512 171.125 119.536 176.203 120.942 177.756C121.27 178.117 122.23 178.665 123.392 179.247V179.248C123.417 179.286 123.436 179.306 123.449 179.306Z" fill="#B5D3FA"/>
<path d="M112.513 237.868L110.81 238.499C110.81 238.499 103.411 228.279 102.5 219.287C102.338 217.682 102.671 214.279 102.544 213.552C102.486 213.213 102.413 212.805 102.331 212.336C102.09 210.964 101.759 209.085 101.381 206.947C100.51 202.026 99.3818 195.735 98.5059 191.11L98.9647 190.964L103.931 189.368L104.957 186.122L108.656 185.153C108.656 185.153 109.482 186.762 110.22 194.365C110.357 195.362 110.48 196.461 110.574 197.654C110.861 201.294 110.882 205.809 110.221 210.972C110.052 212.293 109.348 217.487 109.43 219.096C109.804 226.444 112.513 237.868 112.513 237.868Z" fill="#2B478B"/>
<path d="M110.575 197.653L102.544 213.552C102.486 213.213 102.413 212.805 102.331 212.336C102.09 210.964 101.759 209.085 101.381 206.947C100.51 202.026 99.3818 195.735 98.5059 191.11L98.9647 190.964L103.931 189.368L104.957 186.122L108.656 185.153C108.656 185.153 109.482 186.762 110.22 194.365C110.357 195.362 110.481 196.461 110.575 197.653Z" fill="#233862"/>
<path d="M107.042 187.193L106.857 185.605C103.742 186.429 95.4202 183.303 95.4202 183.303C95.4202 183.303 92.403 185.944 92.7992 192.275C92.9927 195.365 93.3461 208.497 93.7146 212.382C93.8479 213.791 92.9302 217.415 92.5617 218.393C88.9408 228.001 93.119 239.835 93.119 239.835L94.2036 239.399C94.2036 239.399 101.063 214.632 101.771 212.008C103.108 207.048 104.185 200.595 104.901 195.613C104.999 195.618 107.042 187.193 107.042 187.193Z" fill="#2B478B"/>
<path d="M109.405 168.772C104.05 169.064 105.226 161.116 105.553 161.156C106.208 160.816 107.385 159.16 108.065 156.392L108.296 156.498L112.159 158.307C112.159 158.307 111.749 159.559 111.445 160.757C111.209 161.695 111.039 162.601 111.181 162.854C111.486 162.977 111.667 163.055 111.667 163.055C111.667 163.055 111.667 163.056 111.669 163.059C111.709 163.157 110.833 168.695 109.405 168.772Z" fill="#FFB27D"/>
<path d="M112.16 158.308C112.16 158.308 111.749 159.559 111.446 160.758C109.188 160.131 108.502 157.767 108.296 156.499L112.16 158.308Z" fill="#ED985F"/>
<path d="M112.635 159.632C112.635 159.632 107.232 158.387 108.063 155.047C108.893 151.709 108.756 149.3 112.24 149.953C115.724 150.607 116.075 152.046 116.07 153.228C116.066 154.409 114.062 159.87 112.635 159.632Z" fill="#FFB27D"/>
<path d="M116.374 151.333C115.794 150.122 115.11 150.187 114.682 150.402C112.144 148.063 109.654 149.974 109.654 149.974C108.695 152.279 106.618 153.222 106.618 153.222C106.618 153.222 107.448 154.068 109.854 154.049C110.589 154.043 111.328 153.708 112 153.245C110.703 154.545 109.183 155.337 109.183 155.337C112.195 154.764 114.214 151.291 114.421 150.922C114.675 151.297 115.163 152.096 115.205 152.771C115.261 153.687 114.944 155.467 115.471 155.534C115.47 155.534 117.245 153.147 116.374 151.333Z" fill="#2C3A64"/>
<path d="M99.4225 240.716H90.8423C90.8423 240.716 90.6373 239.413 91.0845 238.426C91.5144 237.477 92.1864 237.047 92.0254 235.9C92.5711 236.458 93.4587 237.085 94.6996 236.918C94.8514 237.164 95.681 238.477 96.1885 238.84C96.7494 239.243 99.2498 239.099 99.4225 240.716Z" fill="#233862"/>
<path d="M117.845 240.716H109.264C109.264 240.716 108.943 239.353 109.507 238.426C110.005 237.605 109.814 237.138 109.445 236.459C109.833 236.617 110.336 236.762 110.89 236.73C111.318 236.706 111.77 236.512 112.166 236.284C112.535 236.703 114.116 238.488 114.611 238.841C115.171 239.243 117.672 239.099 117.845 240.716Z" fill="#233862"/>
<path d="M114.461 164.574L113.054 183.391L112.194 194.912C110.87 195.321 109.611 195.642 108.415 195.888C108.336 194.922 108.022 193.767 108.022 193.767C108.036 194.373 107.325 195.532 106.902 196.162C95.915 197.915 90.7646 193.143 90.7646 193.143C91.1922 188.918 93.0426 180.372 95.2592 173.208C95.7204 171.718 96.1978 170.287 96.6809 168.969C97.7794 165.969 98.4769 164.402 99.0702 163.19C100.196 160.882 105.233 161.027 105.233 161.027C106.203 164.509 108.869 166.679 108.869 166.679C110.291 165.848 111.349 162.925 111.349 162.925L114.461 164.574Z" fill="#B5D3FA"/>
<path d="M106.346 160.384C106.346 160.384 105.431 160.446 105.236 161.027C105.236 161.027 106.428 165.809 108.87 166.679L106.346 160.384Z" fill="#97B7E9"/>
<path d="M108.87 166.679C108.87 166.679 111.15 162.903 111.14 162.337C111.14 162.337 112.082 162.702 112.023 163.283C112.023 163.283 110.058 166.418 108.87 166.679Z" fill="#97B7E9"/>
<path d="M102.614 164.978C102.68 165.204 110.905 178.283 111.085 180.888C111.264 183.492 107.626 182.02 107.569 181.68C107.511 181.34 102.614 164.978 102.614 164.978Z" fill="#97B7E9"/>
<path d="M113.054 183.391L112.194 194.912C100.427 191.536 99.7805 166.808 99.7805 166.808L107.052 179.884L112.991 183.302C112.991 183.303 113.014 183.333 113.054 183.391Z" fill="#97B7E9"/>
<path d="M120.774 179.285C120.77 179.298 120.764 179.305 120.756 179.305C120.761 179.295 120.764 179.287 120.767 179.281C120.777 179.261 120.779 179.261 120.774 179.285Z" fill="#ABDDDA"/>
<path d="M204.028 102.309H118.199V219.201H204.028V102.309Z" fill="#799AE9"/>
<path d="M200.372 105.464H121.857V215.98H200.372V105.464Z" fill="#F3FAFF"/>
<path d="M144.836 102.309V106.291C144.836 108.49 146.624 110.273 148.83 110.273H170.287C172.493 110.273 174.281 108.49 174.281 106.291V102.309H144.836Z" fill="#EB9A57"/>
<path d="M140.686 205.189H130.971V206.168H140.686V205.189Z" fill="#AEC3FF"/>
<path d="M152.649 205.189H142.935V206.168H152.649V205.189Z" fill="#AEC3FF"/>
<path d="M144.443 207.361H130.971V208.341H144.443V207.361Z" fill="#AEC3FF"/>
<path d="M194.413 142.272H128.473V143.652H194.413V142.272Z" fill="#AEC3FF"/>
<path d="M189.243 148.435H128.473V149.815H189.243V148.435Z" fill="#AEC3FF"/>
<path d="M170.431 145.354H152.456V146.734H170.431V145.354Z" fill="#AEC3FF"/>
<path d="M194.413 145.354H173.544V146.734H194.413V145.354Z" fill="#AEC3FF"/>
<path d="M149.78 145.354H128.473V146.734H149.78V145.354Z" fill="#AEC3FF"/>
<path d="M170.431 138.777H152.456V140.157H170.431V138.777Z" fill="#AEC3FF"/>
<path d="M194.413 138.777H173.544V140.157H194.413V138.777Z" fill="#AEC3FF"/>
<path d="M149.78 138.777H128.473V140.157H149.78V138.777Z" fill="#AEC3FF"/>
<path d="M194.413 160.72H128.473V162.1H194.413V160.72Z" fill="#AEC3FF"/>
<path d="M179.351 166.883H128.473V168.263H179.351V166.883Z" fill="#AEC3FF"/>
<path d="M170.431 157.225H152.456V158.605H170.431V157.225Z" fill="#AEC3FF"/>
<path d="M194.413 157.225H173.544V158.605H194.413V157.225Z" fill="#AEC3FF"/>
<path d="M149.78 157.225H128.473V158.605H149.78V157.225Z" fill="#AEC3FF"/>
<path d="M190.731 119.437H174.903V120.817H190.731V119.437Z" fill="#AEC3FF"/>
<path d="M167.054 122.333H153.786V123.713H167.054V122.333Z" fill="#AEC3FF"/>
<path d="M187.274 122.333H169.27V123.713H187.274V122.333Z" fill="#AEC3FF"/>
<path d="M169.971 125.68H153.786V127.06H169.971V125.68Z" fill="#AEC3FF"/>
<path d="M181.437 125.68H172.609V127.06H181.437V125.68Z" fill="#AEC3FF"/>
<path d="M172.547 119.437H153.786V120.817H172.547V119.437Z" fill="#AEC3FF"/>
<path d="M160.538 179.662H145.633V180.555H160.538V179.662Z" fill="#AEC3FF"/>
<path d="M159.37 183.654H145.633V184.547H159.37V183.654Z" fill="#AEC3FF"/>
<path d="M160.539 181.657H156.475V182.55H160.539V181.657Z" fill="#AEC3FF"/>
<path d="M155.349 181.657H145.633V182.55H155.349V181.657Z" fill="#AEC3FF"/>
<path d="M195.583 179.662H180.678V180.555H195.583V179.662Z" fill="#AEC3FF"/>
<path d="M194.414 183.654H180.678V184.547H194.414V183.654Z" fill="#AEC3FF"/>
<path d="M195.584 181.657H191.52V182.55H195.584V181.657Z" fill="#AEC3FF"/>
<path d="M190.394 181.657H180.678V182.55H190.394V181.657Z" fill="#AEC3FF"/>
<path d="M166.894 208.316C164.046 208.316 161.564 206.301 160.994 203.526C160.949 203.303 161.093 203.086 161.315 203.041C161.538 202.996 161.757 203.139 161.802 203.361C162.294 205.755 164.435 207.493 166.894 207.493C169.329 207.493 171.465 205.776 171.976 203.409C172.024 203.188 172.244 203.047 172.466 203.094C172.689 203.141 172.831 203.361 172.783 203.582C172.191 206.325 169.714 208.316 166.894 208.316Z" fill="#AEC3FF"/>
<path d="M161.387 201.66C161.36 201.66 161.335 201.657 161.308 201.652C161.084 201.609 160.938 201.393 160.981 201.171C161.528 198.359 164.015 196.319 166.894 196.319C169.661 196.319 172.063 198.183 172.736 200.853C172.792 201.074 172.657 201.296 172.436 201.352C172.215 201.407 171.991 201.273 171.936 201.053C171.355 198.75 169.282 197.141 166.894 197.141C164.409 197.141 162.263 198.902 161.791 201.327C161.753 201.524 161.58 201.66 161.387 201.66Z" fill="#AEC3FF"/>
<path d="M166.894 210.844C162.174 210.844 158.333 207.019 158.333 202.318C158.333 197.616 162.174 193.791 166.894 193.791C171.615 193.791 175.456 197.616 175.456 202.318C175.456 207.019 171.615 210.844 166.894 210.844ZM166.894 194.959C162.82 194.959 159.505 198.26 159.505 202.318C159.505 206.375 162.82 209.676 166.894 209.676C170.968 209.676 174.283 206.375 174.283 202.318C174.283 198.26 170.968 194.959 166.894 194.959Z" fill="#AEC3FF"/>
<path d="M168.589 201.249H165.198V201.789H168.589V201.249Z" fill="#AEC3FF"/>
<path d="M168.589 203.461H165.198V204.001H168.589V203.461Z" fill="#AEC3FF"/>
<path d="M169.39 202.318H164.398V202.858H169.39V202.318Z" fill="#AEC3FF"/>
<path d="M142.444 188.064H132.252V177.914H142.444V188.064ZM132.731 187.586H141.963V178.393H132.731V187.586Z" fill="#AFCDFB"/>
<path d="M137.601 186.024C137.388 186.024 137.184 185.929 137.046 185.764L133.902 181.976C133.648 181.67 133.691 181.219 133.998 180.966C134.304 180.713 134.758 180.756 135.012 181.062L137.506 184.067L142.018 176.525C142.222 176.184 142.664 176.073 143.006 176.275C143.347 176.478 143.459 176.918 143.256 177.258L138.221 185.674C138.102 185.875 137.891 186.004 137.658 186.023C137.637 186.024 137.619 186.024 137.601 186.024Z" fill="#EB9A57"/>
<path d="M178.174 188.064H167.982V177.914H178.174V188.064ZM168.463 187.586H177.694V178.393H168.463V187.586Z" fill="#AFCDFB"/>
<path d="M173.332 186.024C173.119 186.024 172.915 185.929 172.777 185.764L169.632 181.976C169.378 181.67 169.421 181.219 169.728 180.966C170.034 180.713 170.489 180.756 170.742 181.062L173.237 184.067L177.749 176.525C177.953 176.184 178.394 176.073 178.736 176.275C179.078 176.478 179.189 176.918 178.986 177.258L173.952 185.674C173.833 185.875 173.622 186.004 173.389 186.023C173.369 186.024 173.35 186.024 173.332 186.024Z" fill="#EB9A57"/>
<path d="M148.94 123.617C148.94 126.449 147.799 129.014 145.95 130.88C144.064 132.787 141.445 133.967 138.546 133.967C135.648 133.967 133.027 132.787 131.141 130.88C129.292 129.013 128.151 126.448 128.151 123.617C128.151 117.9 132.805 113.265 138.546 113.265C144.286 113.265 148.94 117.9 148.94 123.617Z" fill="#EB9A57"/>
<path d="M138.57 115.653C138.57 115.653 134.662 115.347 132.605 119.502C130.765 123.218 130.062 123.474 130.854 124.651C131.648 125.83 139.262 127.961 144.893 125.536C144.893 125.536 146.935 124.651 146.151 123.112C145.369 121.571 143.272 115.261 138.57 115.653Z" fill="#2B478B"/>
<path d="M142.752 122.64C143.3 120.327 141.862 118.01 139.54 117.464C137.217 116.918 134.89 118.35 134.342 120.663C133.793 122.975 135.232 125.293 137.554 125.839C139.876 126.385 142.203 124.953 142.752 122.64Z" fill="#FFC9A4"/>
<path d="M145.949 130.88C144.064 132.787 141.444 133.967 138.545 133.967C135.648 133.967 133.027 132.787 131.141 130.88C131.739 128.235 133.729 126.115 136.306 125.324C137.014 125.106 137.766 124.989 138.544 124.989C139.323 124.989 140.075 125.106 140.783 125.324C143.361 126.115 145.352 128.235 145.949 130.88Z" fill="#FFC9A4"/>
<path d="M138.9 117.121C138.9 117.121 137.577 120.572 134.224 120.442C134.225 120.442 133.767 116.465 138.9 117.121Z" fill="#2B478B"/>
<path d="M138.18 117.121C138.18 117.121 139.504 120.572 142.857 120.442C142.857 120.442 143.313 116.465 138.18 117.121Z" fill="#2B478B"/>
<path d="M123.279 184.283C122.568 184.279 121.449 184.231 120.8 183.984C120.8 183.984 122.87 183.955 122.429 183.303C122.349 183.184 121.32 183.274 120.172 183.274C119.702 183.274 118.537 183.917 118.597 183.947C117.766 183.837 117.009 183.677 116.764 183.624C116.7 183.611 116.674 183.598 116.674 183.598L115.939 185.73C115.939 185.73 116.095 185.768 116.365 185.82C117.048 185.987 118.453 186.346 119.781 186.859C121.637 187.591 123.003 186.682 123.623 186.038C124.016 185.629 124.325 185.088 124.304 184.696C124.281 184.264 123.711 184.285 123.279 184.283Z" fill="#FFB27D"/>
<path d="M118.287 184.446L117.835 186.09C117.835 186.09 117.267 185.987 116.365 185.82C116.094 185.768 115.94 185.728 115.94 185.728C115.218 185.588 114.354 185.396 113.414 185.19H113.4C111.789 184.804 109.984 184.343 108.463 183.828C108.326 183.781 108.191 183.733 108.062 183.685C107.162 183.354 108.9 178.808 109.687 179.373C109.896 179.523 110.119 179.678 110.354 179.838C111.657 180.719 113.317 181.702 114.792 182.531C115.514 182.942 116.198 183.314 116.766 183.622C117.681 184.124 118.287 184.446 118.287 184.446Z" fill="#FFB27D"/>
<path d="M110.355 179.84C110.355 179.84 110.45 182.944 107.531 184.454C104.158 183.242 102.354 178.232 100.961 174.791C100.768 174.317 100.587 173.842 100.407 173.379C99.7631 171.658 99.2463 169.964 98.9369 168.5C98.7434 167.627 98.6148 166.831 98.5893 166.176C98.5766 165.945 98.5627 165.726 98.5766 165.522C98.6021 161.799 101.245 161.414 101.593 161.837C102.031 162.363 102.494 163.223 102.972 164.264C103.706 165.92 104.479 168.064 105.201 170.195C105.601 171.364 105.988 172.532 106.375 173.61C106.594 174.264 106.814 174.88 107.019 175.446C107.419 176.525 107.78 177.398 108.101 177.95C108.308 178.31 108.901 178.811 109.687 179.375C109.896 179.525 110.119 179.681 110.355 179.84Z" fill="#B5D3FA"/>
<path d="M252.378 171.627H229.793V174.133H252.378V171.627Z" fill="#799AE9"/>
<path d="M260.424 180.515C259.61 182.517 255.985 189.848 255.985 189.848L254.135 188.582C254.135 188.582 256.849 180.086 256.703 178.869C256.557 177.653 255.601 172.465 255.601 172.465L255.345 161.163C255.345 161.163 257.981 162.198 258.491 165.011C259 167.823 261.238 178.513 260.424 180.515Z" fill="#EB9A57"/>
<path d="M256.704 167.593L253.272 182.759L241.106 182.197C241.106 182.197 240.248 171.572 242.005 167.417C243.763 163.261 244.868 161.661 244.868 161.661C244.868 161.661 246.887 159.41 255.345 161.162L256.704 167.593Z" fill="#EB9A57"/>
<path d="M239.713 206.087C239.716 207.498 240.86 215.162 241.436 234.582C241.448 234.972 241.82 235.268 242.958 234.949C244.538 234.504 244.725 234.786 244.725 234.786C244.725 234.786 246.544 222.437 246.905 210.071C247.086 203.868 239.708 203.002 239.713 206.087Z" fill="#FFB27D"/>
<path d="M252.496 161.219C252.284 160.147 252.221 157.415 252.51 155.534L252.227 155.547L247.474 155.77C247.474 155.77 247.362 157.232 247.16 158.596C247.159 158.607 247.157 158.619 247.156 158.629C246.983 159.813 246.83 160.764 246.907 161.106C247.177 162.307 252.672 162.108 252.496 161.219Z" fill="#FFB27D"/>
<path d="M247.475 155.77C247.475 155.77 247.363 157.232 247.161 158.596C249.755 158.908 251.473 156.764 252.227 155.548L247.475 155.77Z" fill="#E8945B"/>
<path d="M246.42 156.932C246.42 156.932 252.516 157.943 253.089 154.152C253.663 150.361 254.837 147.939 250.969 147.134C247.101 146.328 246.124 147.661 245.624 148.88C245.122 150.099 244.849 156.572 246.42 156.932Z" fill="#FFB27D"/>
<path d="M248.214 206.168C248.18 207.577 249.13 215.269 249.21 234.697C249.211 235.087 249.575 235.393 250.722 235.102C252.313 234.698 252.493 234.984 252.493 234.984C252.493 234.984 254.626 222.686 255.301 210.332C255.64 204.135 248.287 203.083 248.214 206.168Z" fill="#FFB27D"/>
<path d="M253.08 238.989C253.023 240.264 251.727 240.017 249.674 239.84C247.622 239.664 248.381 240.043 245.517 240.166C242.654 240.289 242.169 239.822 242.018 239.418C241.884 239.06 242.462 238.805 243.928 238.404C244.112 238.354 247.989 236.765 248.812 235.737C249.919 234.352 249.814 224.358 249.814 224.358L252.742 228.183C252.742 228.183 252.626 232.742 252.493 234.981C252.438 235.898 253.167 236.98 253.348 237.771C253.445 238.203 253.1 238.54 253.08 238.989Z" fill="#FFB27D"/>
<path d="M249.611 240.257C247.559 240.08 248.117 240.58 245.254 240.702C242.391 240.826 241.376 239.911 241.225 239.508C241.091 239.15 242.462 238.805 243.928 238.405L243.946 238.431C243.946 238.431 245.82 239.364 248.171 239.059C250.087 238.811 252.026 237.955 253.348 237.774C253.445 238.204 253.542 238.644 253.521 239.094C253.466 240.368 251.663 240.433 249.611 240.257Z" fill="#E5803C"/>
<path d="M245.415 238.775C245.391 240.051 244.089 239.838 242.032 239.712C239.975 239.588 240.745 239.948 237.885 240.143C235.027 240.338 234.528 239.883 234.368 239.484C234.225 239.129 234.796 238.859 236.251 238.422C236.434 238.368 240.27 236.681 241.066 235.633C242.137 234.221 241.778 224.232 241.778 224.232L244.802 227.982C244.802 227.982 244.802 232.543 244.726 234.785C244.695 235.703 245.45 236.765 245.653 237.552C245.761 237.981 245.423 238.325 245.415 238.775Z" fill="#FFB27D"/>
<path d="M241.98 240.131C239.923 240.006 240.494 240.491 237.636 240.687C234.777 240.882 233.739 239.995 233.578 239.594C233.434 239.24 234.796 238.861 236.251 238.423L236.27 238.449C236.27 238.449 238.166 239.334 240.509 238.969C242.419 238.672 244.335 237.768 245.652 237.553C245.759 237.981 245.868 238.419 245.859 238.868C245.836 240.144 244.035 240.256 241.98 240.131Z" fill="#F49656"/>
<path d="M245.405 182.759C245.405 182.759 243.848 179.345 244.041 176.624C244.296 173.041 245.231 167.772 243.981 168.279C241.183 169.413 241.024 181.858 241.024 181.858L245.405 182.759Z" fill="#F4A671"/>
<path d="M241.024 181.858C241.024 181.858 237.657 201.08 236.332 212.144C235.008 223.21 234.008 227.491 234.008 227.491C234.008 227.491 242.528 229.349 249.134 228.646C255.739 227.943 256.682 230.44 261.628 227.625C261.628 227.625 257.733 217.18 258.628 205.647C259.897 189.273 253.722 181.628 253.722 181.628C253.722 181.628 251.254 182.787 241.024 181.858Z" fill="#DE8140"/>
<path d="M249.695 180.743C249.605 180.743 249.52 180.69 249.483 180.601C249.443 180.502 248.489 178.135 249.253 175.546C249.289 175.425 249.416 175.356 249.537 175.391C249.658 175.427 249.728 175.554 249.692 175.674C248.975 178.107 249.897 180.405 249.906 180.428C249.954 180.545 249.898 180.678 249.781 180.726C249.753 180.738 249.724 180.743 249.695 180.743Z" fill="#F4A671"/>
<path d="M235.468 193.537C235.166 194.441 233.382 195.716 233.382 196.729C233.382 197.742 233.929 200.397 234.283 200.402C235.609 200.423 235.189 198.527 235.697 197.919C236.206 197.311 237.274 196.956 237.325 196.45C237.376 195.943 237.555 193.434 237.555 193.434C237.555 193.434 235.748 192.702 235.468 193.537Z" fill="#FFB27D"/>
<path d="M237.325 196.451C237.325 196.451 236.104 198.985 236.066 198.833C236.028 198.68 236.066 197.237 236.066 197.237L237.325 196.451Z" fill="#FFB27D"/>
<path d="M253.721 181.628C253.721 181.628 252.131 183.86 241.98 181.922V180.82C241.98 180.82 250.856 182.163 253.78 180.516L253.721 181.628Z" fill="#2B478B"/>
<path d="M245.06 160.704C245.06 160.704 241.473 161.639 240.428 164.731C239.464 167.583 239.447 178.12 238.629 180.072C237.98 181.619 235.29 193.895 235.29 193.895L237.554 193.436C237.554 193.436 242.324 182.339 243.01 179.983C243.697 177.627 243.201 172.078 244.269 170.102C245.339 168.126 245.06 160.704 245.06 160.704Z" fill="#EB9A57"/>
<path d="M256.704 178.869C256.558 177.653 255.603 172.465 255.603 172.465C255.603 172.465 256.455 169.347 256.965 169.396C257.474 169.444 257.258 178.261 256.704 178.869Z" fill="#F4A671"/>
<path d="M247.817 146.388C247.817 146.388 245.415 146.617 244.575 148.136C243.735 149.656 244.544 151.252 246.887 152.621C249.23 153.989 249.146 157.315 247.276 157.742C245.405 158.169 241.886 160.016 242.973 161.659C244.059 163.303 247.637 162.231 246.888 164.579C245.466 169.038 251.903 170.536 254.421 169.396C256.94 168.255 257.308 165.11 259.305 165.136C262.968 165.187 261.827 159.524 259.534 156.914C256.428 153.38 259.458 151.971 257.158 149.2C254.991 146.591 251.747 144.868 247.817 146.388Z" fill="#163560"/>
<path d="M327.636 241H41.3638C41.1634 241 41 240.837 41 240.638V240.413C41 240.213 41.1634 240.05 41.3638 240.05H327.636C327.837 240.05 328 240.213 328 240.413V240.638C328 240.837 327.837 241 327.636 241Z" fill="#233862"/>
</g>
<defs>
<clipPath id="clip0_2409_8802">
<rect width="287" height="192" fill="white" transform="translate(41 49)"/>
</clipPath>
</defs>
</svg>
