<svg width="1097" height="532" viewBox="0 0 1097 532" fill="none" xmlns="http://www.w3.org/2000/svg">
<circle cx="158" cy="266" r="154.5" fill="#06225C" stroke="#E1AB3B" stroke-width="7"/>
<path d="M63.0273 315.938L67.457 324.504L71.8984 315.938H74.4648L68.582 326.625V333H66.3203V326.625L60.4375 315.938H63.0273ZM93.4414 323.93V325.008C93.4414 326.289 93.2812 327.438 92.9609 328.453C92.6406 329.469 92.1797 330.332 91.5781 331.043C90.9766 331.754 90.2539 332.297 89.4102 332.672C88.5742 333.047 87.6367 333.234 86.5977 333.234C85.5898 333.234 84.6641 333.047 83.8203 332.672C82.9844 332.297 82.2578 331.754 81.6406 331.043C81.0312 330.332 80.5586 329.469 80.2227 328.453C79.8867 327.438 79.7188 326.289 79.7188 325.008V323.93C79.7188 322.648 79.8828 321.504 80.2109 320.496C80.5469 319.48 81.0195 318.617 81.6289 317.906C82.2383 317.188 82.9609 316.641 83.7969 316.266C84.6406 315.891 85.5664 315.703 86.5742 315.703C87.6133 315.703 88.5508 315.891 89.3867 316.266C90.2305 316.641 90.9531 317.188 91.5547 317.906C92.1641 318.617 92.6289 319.48 92.9492 320.496C93.2773 321.504 93.4414 322.648 93.4414 323.93ZM91.2031 325.008V323.906C91.2031 322.891 91.0977 321.992 90.8867 321.211C90.6836 320.43 90.3828 319.773 89.9844 319.242C89.5859 318.711 89.0977 318.309 88.5195 318.035C87.9492 317.762 87.3008 317.625 86.5742 317.625C85.8711 317.625 85.2344 317.762 84.6641 318.035C84.1016 318.309 83.6172 318.711 83.2109 319.242C82.8125 319.773 82.5039 320.43 82.2852 321.211C82.0664 321.992 81.957 322.891 81.957 323.906V325.008C81.957 326.031 82.0664 326.938 82.2852 327.727C82.5039 328.508 82.8164 329.168 83.2227 329.707C83.6367 330.238 84.125 330.641 84.6875 330.914C85.2578 331.188 85.8945 331.324 86.5977 331.324C87.332 331.324 87.9844 331.188 88.5547 330.914C89.125 330.641 89.6055 330.238 89.9961 329.707C90.3945 329.168 90.6953 328.508 90.8984 327.727C91.1016 326.938 91.2031 326.031 91.2031 325.008ZM110.59 315.938H112.84V327.48C112.84 328.762 112.555 329.828 111.984 330.68C111.414 331.531 110.656 332.172 109.711 332.602C108.773 333.023 107.754 333.234 106.652 333.234C105.496 333.234 104.449 333.023 103.512 332.602C102.582 332.172 101.844 331.531 101.297 330.68C100.758 329.828 100.488 328.762 100.488 327.48V315.938H102.727V327.48C102.727 328.371 102.891 329.105 103.219 329.684C103.547 330.262 104.004 330.691 104.59 330.973C105.184 331.254 105.871 331.395 106.652 331.395C107.441 331.395 108.129 331.254 108.715 330.973C109.309 330.691 109.77 330.262 110.098 329.684C110.426 329.105 110.59 328.371 110.59 327.48V315.938ZM120.391 315.938H126.039C127.32 315.938 128.402 316.133 129.285 316.523C130.176 316.914 130.852 317.492 131.312 318.258C131.781 319.016 132.016 319.949 132.016 321.059C132.016 321.84 131.855 322.555 131.535 323.203C131.223 323.844 130.77 324.391 130.176 324.844C129.59 325.289 128.887 325.621 128.066 325.84L127.434 326.086H122.125L122.102 324.246H126.109C126.922 324.246 127.598 324.105 128.137 323.824C128.676 323.535 129.082 323.148 129.355 322.664C129.629 322.18 129.766 321.645 129.766 321.059C129.766 320.402 129.637 319.828 129.379 319.336C129.121 318.844 128.715 318.465 128.16 318.199C127.613 317.926 126.906 317.789 126.039 317.789H122.652V333H120.391V315.938ZM130.363 333L126.215 325.266L128.57 325.254L132.777 332.859V333H130.363ZM160.277 323.273V325.113H151.043V323.273H160.277ZM151.395 315.938V333H149.133V315.938H151.395ZM162.246 315.938V333H159.996V315.938H162.246ZM181.105 331.16V333H172.07V331.16H181.105ZM172.527 315.938V333H170.266V315.938H172.527ZM179.91 323.273V325.113H172.07V323.273H179.91ZM180.988 315.938V317.789H172.07V315.938H180.988ZM194.223 317.449L188.574 333H186.266L192.77 315.938H194.258L194.223 317.449ZM198.957 333L193.297 317.449L193.262 315.938H194.75L201.277 333H198.957ZM198.664 326.684V328.535H189.078V326.684H198.664ZM217.91 331.16V333H209.379V331.16H217.91ZM209.824 315.938V333H207.562V315.938H209.824ZM227.57 315.938V333H225.344V315.938H227.57ZM233.055 315.938V317.789H219.871V315.938H233.055ZM250.73 323.273V325.113H241.496V323.273H250.73ZM241.848 315.938V333H239.586V315.938H241.848ZM252.699 315.938V333H250.449V315.938H252.699Z" fill="white"/>
<rect x="570" y="227" width="525" height="79" rx="39.5" fill="#E1AB3B"/>
<path d="M642.364 269.486V272H634.039V269.486H642.364ZM635.092 256.359V272H631.869V256.359H635.092ZM641.279 262.729V265.179H634.039V262.729H641.279ZM642.354 256.359V258.884H634.039V256.359H642.354ZM647.716 256.359H650.444L654.462 267.843L658.479 256.359H661.208L655.558 272H653.366L647.716 256.359ZM646.244 256.359H648.962L649.456 267.553V272H646.244V256.359ZM659.962 256.359H662.69V272H659.468V267.553L659.962 256.359ZM680.363 263.814V264.556C680.363 265.744 680.202 266.812 679.88 267.757C679.558 268.702 679.103 269.508 678.516 270.174C677.928 270.833 677.227 271.338 676.41 271.688C675.601 272.039 674.702 272.215 673.714 272.215C672.733 272.215 671.834 272.039 671.018 271.688C670.208 271.338 669.507 270.833 668.912 270.174C668.318 269.508 667.856 268.702 667.526 267.757C667.204 266.812 667.043 265.744 667.043 264.556V263.814C667.043 262.618 667.204 261.551 667.526 260.613C667.849 259.668 668.303 258.862 668.891 258.196C669.485 257.53 670.187 257.022 670.996 256.671C671.812 256.32 672.711 256.145 673.692 256.145C674.681 256.145 675.579 256.32 676.389 256.671C677.205 257.022 677.907 257.53 678.494 258.196C679.089 258.862 679.547 259.668 679.869 260.613C680.199 261.551 680.363 262.618 680.363 263.814ZM677.108 264.556V263.793C677.108 262.962 677.033 262.232 676.883 261.602C676.732 260.971 676.51 260.441 676.217 260.012C675.923 259.582 675.565 259.26 675.143 259.045C674.72 258.823 674.237 258.712 673.692 258.712C673.148 258.712 672.665 258.823 672.242 259.045C671.827 259.26 671.472 259.582 671.179 260.012C670.892 260.441 670.674 260.971 670.523 261.602C670.373 262.232 670.298 262.962 670.298 263.793V264.556C670.298 265.379 670.373 266.11 670.523 266.747C670.674 267.377 670.896 267.911 671.189 268.348C671.483 268.777 671.841 269.103 672.264 269.325C672.686 269.547 673.17 269.658 673.714 269.658C674.258 269.658 674.742 269.547 675.164 269.325C675.587 269.103 675.941 268.777 676.228 268.348C676.514 267.911 676.732 267.377 676.883 266.747C677.033 266.11 677.108 265.379 677.108 264.556ZM690.946 256.359V272H687.734V256.359H690.946ZM695.759 256.359V258.884H682.997V256.359H695.759ZM703.022 256.359V272H699.811V256.359H703.022ZM720.889 263.814V264.556C720.889 265.744 720.728 266.812 720.405 267.757C720.083 268.702 719.628 269.508 719.041 270.174C718.454 270.833 717.752 271.338 716.936 271.688C716.126 272.039 715.228 272.215 714.239 272.215C713.258 272.215 712.359 272.039 711.543 271.688C710.734 271.338 710.032 270.833 709.438 270.174C708.843 269.508 708.381 268.702 708.052 267.757C707.729 266.812 707.568 265.744 707.568 264.556V263.814C707.568 262.618 707.729 261.551 708.052 260.613C708.374 259.668 708.829 258.862 709.416 258.196C710.01 257.53 710.712 257.022 711.521 256.671C712.338 256.32 713.237 256.145 714.218 256.145C715.206 256.145 716.105 256.32 716.914 256.671C717.73 257.022 718.432 257.53 719.02 258.196C719.614 258.862 720.072 259.668 720.395 260.613C720.724 261.551 720.889 262.618 720.889 263.814ZM717.634 264.556V263.793C717.634 262.962 717.559 262.232 717.408 261.602C717.258 260.971 717.036 260.441 716.742 260.012C716.449 259.582 716.09 259.26 715.668 259.045C715.245 258.823 714.762 258.712 714.218 258.712C713.674 258.712 713.19 258.823 712.768 259.045C712.352 259.26 711.998 259.582 711.704 260.012C711.418 260.441 711.199 260.971 711.049 261.602C710.898 262.232 710.823 262.962 710.823 263.793V264.556C710.823 265.379 710.898 266.11 711.049 266.747C711.199 267.377 711.421 267.911 711.715 268.348C712.008 268.777 712.367 269.103 712.789 269.325C713.212 269.547 713.695 269.658 714.239 269.658C714.784 269.658 715.267 269.547 715.689 269.325C716.112 269.103 716.466 268.777 716.753 268.348C717.039 267.911 717.258 267.377 717.408 266.747C717.559 266.11 717.634 265.379 717.634 264.556ZM737.938 256.359V272H734.716L728.432 261.516V272H725.209V256.359H728.432L734.727 266.854V256.359H737.938ZM749.295 259.034L745.041 272H741.614L747.426 256.359H749.606L749.295 259.034ZM752.829 272L748.564 259.034L748.221 256.359H750.423L756.267 272H752.829ZM752.636 266.178V268.702H744.375V266.178H752.636ZM769.771 269.486V272H761.897V269.486H769.771ZM762.939 256.359V272H759.717V256.359H762.939ZM784.868 269.519L787.983 256.359H789.724L790.121 258.551L786.802 272H784.933L784.868 269.519ZM783.268 256.359L785.846 269.519L785.631 272H783.547L780.077 256.359H783.268ZM792.86 269.465L795.406 256.359H798.597L795.138 272H793.054L792.86 269.465ZM790.701 256.359L793.838 269.572L793.752 272H791.883L788.542 258.54L788.972 256.359H790.701ZM812.843 269.486V272H804.518V269.486H812.843ZM805.57 256.359V272H802.348V256.359H805.57ZM811.758 262.729V265.179H804.518V262.729H811.758ZM812.832 256.359V258.884H804.518V256.359H812.832ZM826.777 269.486V272H818.903V269.486H826.777ZM819.945 256.359V272H816.723V256.359H819.945ZM840.68 269.486V272H832.806V269.486H840.68ZM833.848 256.359V272H830.625V256.359H833.848ZM850.436 264.072V266.5H844.366V264.072H850.436ZM861.33 265.136H857.312L857.291 262.923H860.664C861.258 262.923 861.745 262.848 862.125 262.697C862.505 262.54 862.787 262.314 862.974 262.021C863.167 261.72 863.264 261.354 863.264 260.925C863.264 260.438 863.171 260.044 862.984 259.743C862.805 259.442 862.522 259.224 862.136 259.088C861.756 258.952 861.266 258.884 860.664 258.884H858.43V272H855.207V256.359H860.664C861.574 256.359 862.386 256.445 863.103 256.617C863.826 256.789 864.438 257.05 864.939 257.401C865.441 257.752 865.824 258.196 866.089 258.733C866.354 259.263 866.486 259.894 866.486 260.624C866.486 261.269 866.34 261.863 866.046 262.407C865.759 262.951 865.305 263.396 864.682 263.739C864.066 264.083 863.26 264.273 862.265 264.309L861.33 265.136ZM861.19 272H856.432L857.688 269.486H861.19C861.756 269.486 862.218 269.397 862.576 269.218C862.934 269.032 863.199 268.781 863.371 268.466C863.543 268.151 863.629 267.789 863.629 267.381C863.629 266.923 863.55 266.525 863.393 266.188C863.242 265.852 862.999 265.594 862.662 265.415C862.326 265.229 861.882 265.136 861.33 265.136H858.226L858.247 262.923H862.114L862.855 263.793C863.808 263.779 864.574 263.947 865.154 264.298C865.742 264.642 866.168 265.089 866.433 265.641C866.705 266.192 866.841 266.783 866.841 267.413C866.841 268.416 866.622 269.261 866.186 269.948C865.749 270.629 865.108 271.141 864.263 271.484C863.425 271.828 862.401 272 861.19 272ZM881.753 269.486V272H873.428V269.486H881.753ZM874.48 256.359V272H871.258V256.359H874.48ZM880.668 262.729V265.179H873.428V262.729H880.668ZM881.742 256.359V258.884H873.428V256.359H881.742ZM889.06 256.359V272H885.848V256.359H889.06ZM906.808 256.359V272H903.585L897.301 261.516V272H894.078V256.359H897.301L903.596 266.854V256.359H906.808ZM924.008 263.825V270.023C923.764 270.317 923.388 270.636 922.88 270.979C922.371 271.316 921.716 271.606 920.914 271.85C920.112 272.093 919.142 272.215 918.003 272.215C916.993 272.215 916.073 272.05 915.242 271.721C914.411 271.384 913.695 270.894 913.094 270.249C912.499 269.604 912.041 268.817 911.719 267.886C911.396 266.948 911.235 265.877 911.235 264.674V263.696C911.235 262.493 911.389 261.423 911.697 260.484C912.012 259.546 912.46 258.755 913.04 258.11C913.62 257.466 914.311 256.975 915.113 256.639C915.915 256.302 916.807 256.134 917.788 256.134C919.149 256.134 920.266 256.356 921.14 256.8C922.013 257.237 922.679 257.845 923.138 258.626C923.603 259.399 923.89 260.287 923.997 261.29H920.871C920.792 260.76 920.642 260.298 920.42 259.904C920.198 259.51 919.879 259.202 919.464 258.98C919.056 258.758 918.526 258.647 917.874 258.647C917.337 258.647 916.857 258.758 916.435 258.98C916.019 259.195 915.668 259.514 915.382 259.937C915.095 260.359 914.877 260.882 914.727 261.505C914.576 262.128 914.501 262.851 914.501 263.675V264.674C914.501 265.49 914.58 266.214 914.737 266.844C914.895 267.467 915.128 267.993 915.436 268.423C915.751 268.845 916.137 269.164 916.596 269.379C917.054 269.594 917.588 269.701 918.196 269.701C918.705 269.701 919.127 269.658 919.464 269.572C919.808 269.486 920.083 269.382 920.291 269.261C920.506 269.132 920.671 269.01 920.785 268.896V266.124H917.842V263.825H924.008Z" fill="white"/>
<rect x="570" y="454" width="525" height="78" rx="39" fill="#E1AB3B"/>
<path d="M640.012 496.75C640.012 496.471 639.969 496.22 639.883 495.998C639.804 495.769 639.654 495.561 639.432 495.375C639.21 495.182 638.898 494.992 638.497 494.806C638.096 494.62 637.577 494.426 636.939 494.226C636.23 493.997 635.557 493.739 634.92 493.452C634.29 493.166 633.731 492.833 633.244 492.453C632.764 492.067 632.385 491.619 632.105 491.111C631.833 490.602 631.697 490.011 631.697 489.338C631.697 488.686 631.84 488.096 632.127 487.566C632.413 487.029 632.814 486.57 633.33 486.191C633.846 485.804 634.454 485.507 635.156 485.299C635.865 485.091 636.642 484.988 637.487 484.988C638.64 484.988 639.646 485.195 640.506 485.611C641.365 486.026 642.031 486.595 642.504 487.319C642.984 488.042 643.224 488.869 643.224 489.8H640.022C640.022 489.342 639.926 488.941 639.732 488.597C639.546 488.246 639.26 487.97 638.873 487.77C638.493 487.569 638.014 487.469 637.434 487.469C636.875 487.469 636.41 487.555 636.037 487.727C635.665 487.892 635.385 488.117 635.199 488.404C635.013 488.683 634.92 488.998 634.92 489.349C634.92 489.614 634.984 489.854 635.113 490.069C635.249 490.283 635.45 490.484 635.715 490.67C635.98 490.856 636.306 491.032 636.692 491.197C637.079 491.361 637.527 491.522 638.035 491.68C638.887 491.938 639.636 492.228 640.28 492.55C640.932 492.872 641.476 493.234 641.913 493.635C642.35 494.036 642.679 494.491 642.901 494.999C643.123 495.508 643.234 496.084 643.234 496.729C643.234 497.409 643.102 498.018 642.837 498.555C642.572 499.092 642.189 499.547 641.688 499.919C641.186 500.292 640.588 500.574 639.894 500.768C639.199 500.961 638.422 501.058 637.562 501.058C636.789 501.058 636.026 500.958 635.274 500.757C634.522 500.549 633.839 500.238 633.223 499.823C632.614 499.407 632.127 498.877 631.762 498.233C631.396 497.588 631.214 496.825 631.214 495.945H634.447C634.447 496.432 634.522 496.843 634.673 497.18C634.823 497.517 635.035 497.789 635.307 497.996C635.586 498.204 635.915 498.354 636.295 498.448C636.682 498.541 637.104 498.587 637.562 498.587C638.121 498.587 638.579 498.508 638.938 498.351C639.303 498.193 639.571 497.975 639.743 497.696C639.922 497.416 640.012 497.101 640.012 496.75ZM657.48 498.329V500.843H649.606V498.329H657.48ZM650.648 485.202V500.843H647.426V485.202H650.648ZM671.823 498.329V500.843H663.498V498.329H671.823ZM664.551 485.202V500.843H661.328V485.202H664.551ZM670.738 491.573V494.022H663.498V491.573H670.738ZM671.812 485.202V487.727H663.498V485.202H671.812ZM686.198 498.329V500.843H677.873V498.329H686.198ZM678.926 485.202V500.843H675.703V485.202H678.926ZM685.113 491.573V494.022H677.873V491.573H685.113ZM686.188 485.202V487.727H677.873V485.202H686.188ZM696.169 495.268H692.184V492.754H696.169C696.785 492.754 697.286 492.654 697.673 492.453C698.06 492.246 698.342 491.959 698.521 491.594C698.701 491.229 698.79 490.817 698.79 490.359C698.79 489.893 698.701 489.46 698.521 489.059C698.342 488.658 698.06 488.336 697.673 488.092C697.286 487.849 696.785 487.727 696.169 487.727H693.301V500.843H690.078V485.202H696.169C697.394 485.202 698.443 485.424 699.316 485.868C700.197 486.305 700.87 486.91 701.336 487.684C701.801 488.457 702.034 489.342 702.034 490.337C702.034 491.347 701.801 492.221 701.336 492.958C700.87 493.696 700.197 494.265 699.316 494.666C698.443 495.067 697.394 495.268 696.169 495.268ZM724.231 498.329V500.843H715.906V498.329H724.231ZM716.959 485.202V500.843H713.736V485.202H716.959ZM723.146 491.573V494.022H715.906V491.573H723.146ZM724.221 485.202V487.727H715.906V485.202H724.221ZM731.334 485.202V500.843H728.111V485.202H731.334ZM737.564 491.884V494.398H730.453V491.884H737.564ZM738.316 485.202V487.727H730.453V485.202H738.316ZM745.408 485.202V500.843H742.186V485.202H745.408ZM751.639 491.884V494.398H744.527V491.884H751.639ZM752.391 485.202V487.727H744.527V485.202H752.391ZM759.687 485.202V500.843H756.475V485.202H759.687ZM773.771 495.655H776.983C776.919 496.707 776.629 497.642 776.113 498.458C775.605 499.275 774.892 499.912 773.976 500.37C773.066 500.829 771.97 501.058 770.688 501.058C769.686 501.058 768.787 500.886 767.992 500.542C767.197 500.191 766.517 499.69 765.951 499.038C765.393 498.387 764.966 497.599 764.673 496.675C764.379 495.751 764.232 494.716 764.232 493.571V492.486C764.232 491.34 764.383 490.305 764.684 489.381C764.992 488.45 765.428 487.659 765.994 487.007C766.567 486.355 767.251 485.854 768.046 485.503C768.841 485.152 769.729 484.977 770.71 484.977C772.013 484.977 773.113 485.213 774.008 485.686C774.91 486.158 775.608 486.81 776.103 487.641C776.604 488.472 776.905 489.417 777.005 490.477H773.782C773.746 489.847 773.621 489.313 773.406 488.876C773.191 488.432 772.866 488.099 772.429 487.877C771.999 487.648 771.426 487.533 770.71 487.533C770.173 487.533 769.704 487.634 769.303 487.834C768.902 488.035 768.565 488.339 768.293 488.747C768.021 489.156 767.817 489.671 767.681 490.294C767.552 490.91 767.487 491.633 767.487 492.464V493.571C767.487 494.38 767.548 495.092 767.67 495.708C767.792 496.317 767.978 496.833 768.229 497.255C768.486 497.67 768.816 497.986 769.217 498.2C769.625 498.408 770.116 498.512 770.688 498.512C771.362 498.512 771.917 498.405 772.354 498.19C772.79 497.975 773.123 497.656 773.353 497.234C773.589 496.811 773.729 496.285 773.771 495.655ZM787.459 487.877L783.205 500.843H779.778L785.59 485.202H787.771L787.459 487.877ZM790.993 500.843L786.729 487.877L786.385 485.202H788.587L794.431 500.843H790.993ZM790.8 495.021V497.545H782.539V495.021H790.8ZM806.754 495.655H809.966C809.901 496.707 809.611 497.642 809.096 498.458C808.587 499.275 807.875 499.912 806.958 500.37C806.049 500.829 804.953 501.058 803.671 501.058C802.668 501.058 801.77 500.886 800.975 500.542C800.18 500.191 799.499 499.69 798.934 499.038C798.375 498.387 797.949 497.599 797.655 496.675C797.362 495.751 797.215 494.716 797.215 493.571V492.486C797.215 491.34 797.365 490.305 797.666 489.381C797.974 488.45 798.411 487.659 798.977 487.007C799.549 486.355 800.233 485.854 801.028 485.503C801.823 485.152 802.711 484.977 803.692 484.977C804.996 484.977 806.095 485.213 806.99 485.686C807.893 486.158 808.591 486.81 809.085 487.641C809.586 488.472 809.887 489.417 809.987 490.477H806.765C806.729 489.847 806.604 489.313 806.389 488.876C806.174 488.432 805.848 488.099 805.411 487.877C804.981 487.648 804.409 487.533 803.692 487.533C803.155 487.533 802.686 487.634 802.285 487.834C801.884 488.035 801.548 488.339 801.275 488.747C801.003 489.156 800.799 489.671 800.663 490.294C800.534 490.91 800.47 491.633 800.47 492.464V493.571C800.47 494.38 800.531 495.092 800.652 495.708C800.774 496.317 800.96 496.833 801.211 497.255C801.469 497.67 801.798 497.986 802.199 498.2C802.607 498.408 803.098 498.512 803.671 498.512C804.344 498.512 804.899 498.405 805.336 498.19C805.773 497.975 806.106 497.656 806.335 497.234C806.571 496.811 806.711 496.285 806.754 495.655ZM816.23 485.202L819.496 492.335L822.762 485.202H826.274L821.129 495.15V500.843H817.863V495.15L812.707 485.202H816.23Z" fill="white"/>
<rect x="570" y="113" width="525" height="79" rx="39.5" fill="#E1AB3B"/>
<path d="M641.892 157.486V160H633.566V157.486H641.892ZM634.619 144.359V160H631.396V144.359H634.619ZM640.807 150.729V153.179H633.566V150.729H640.807ZM641.881 144.359V146.884H633.566V144.359H641.881ZM658.501 144.359V160H655.278L648.994 149.516V160H645.771V144.359H648.994L655.289 154.854V144.359H658.501ZM673.735 150.729V153.243H665.571V150.729H673.735ZM666.527 144.359V160H663.305V144.359H666.527ZM676.034 144.359V160H672.822V144.359H676.034ZM687.391 147.034L683.137 160H679.71L685.521 144.359H687.702L687.391 147.034ZM690.925 160L686.66 147.034L686.316 144.359H688.519L694.362 160H690.925ZM690.731 154.178V156.702H682.471V154.178H690.731ZM710.542 144.359V160H707.319L701.035 149.516V160H697.812V144.359H701.035L707.33 154.854V144.359H710.542ZM724.412 154.812H727.624C727.56 155.864 727.27 156.799 726.754 157.615C726.245 158.432 725.533 159.069 724.616 159.527C723.707 159.986 722.611 160.215 721.329 160.215C720.326 160.215 719.428 160.043 718.633 159.699C717.838 159.348 717.158 158.847 716.592 158.195C716.033 157.544 715.607 156.756 715.313 155.832C715.02 154.908 714.873 153.873 714.873 152.728V151.643C714.873 150.497 715.023 149.462 715.324 148.538C715.632 147.607 716.069 146.816 716.635 146.164C717.208 145.512 717.892 145.011 718.687 144.66C719.481 144.309 720.369 144.134 721.351 144.134C722.654 144.134 723.753 144.37 724.648 144.843C725.551 145.315 726.249 145.967 726.743 146.798C727.244 147.629 727.545 148.574 727.646 149.634H724.423C724.387 149.004 724.262 148.47 724.047 148.033C723.832 147.589 723.506 147.256 723.069 147.034C722.64 146.805 722.067 146.69 721.351 146.69C720.813 146.69 720.344 146.791 719.943 146.991C719.542 147.192 719.206 147.496 718.934 147.904C718.661 148.312 718.457 148.828 718.321 149.451C718.192 150.067 718.128 150.79 718.128 151.621V152.728C718.128 153.537 718.189 154.249 718.311 154.865C718.432 155.474 718.618 155.99 718.869 156.412C719.127 156.827 719.456 157.143 719.857 157.357C720.266 157.565 720.756 157.669 721.329 157.669C722.002 157.669 722.557 157.562 722.994 157.347C723.431 157.132 723.764 156.813 723.993 156.391C724.229 155.968 724.369 155.442 724.412 154.812ZM742.235 157.486V160H733.91V157.486H742.235ZM734.963 144.359V160H731.74V144.359H734.963ZM741.15 150.729V153.179H733.91V150.729H741.15ZM742.225 144.359V146.884H733.91V144.359H742.225ZM750.917 160H747.512L747.533 157.486H750.917C751.762 157.486 752.475 157.297 753.055 156.917C753.635 156.53 754.072 155.968 754.365 155.23C754.666 154.493 754.816 153.601 754.816 152.556V151.793C754.816 150.991 754.73 150.285 754.559 149.677C754.394 149.068 754.147 148.556 753.817 148.141C753.488 147.725 753.083 147.414 752.604 147.206C752.124 146.991 751.572 146.884 750.949 146.884H747.447V144.359H750.949C751.995 144.359 752.951 144.538 753.817 144.896C754.691 145.247 755.447 145.752 756.084 146.411C756.721 147.07 757.212 147.858 757.556 148.774C757.907 149.684 758.082 150.697 758.082 151.814V152.556C758.082 153.666 757.907 154.679 757.556 155.596C757.212 156.512 756.721 157.3 756.084 157.959C755.454 158.611 754.698 159.116 753.817 159.474C752.944 159.825 751.977 160 750.917 160ZM749.338 144.359V160H746.115V144.359H749.338ZM771.374 144.359H774.103L778.12 155.843L782.138 144.359H784.866L779.216 160H777.024L771.374 144.359ZM769.902 144.359H772.62L773.114 155.553V160H769.902V144.359ZM783.62 144.359H786.349V160H783.126V155.553L783.62 144.359ZM801.669 157.486V160H793.344V157.486H801.669ZM794.396 144.359V160H791.174V144.359H794.396ZM800.584 150.729V153.179H793.344V150.729H800.584ZM801.658 144.359V146.884H793.344V144.359H801.658ZM818.278 144.359V160H815.056L808.771 149.516V160H805.549V144.359H808.771L815.066 154.854V144.359H818.278ZM829.753 144.359V160H826.541V144.359H829.753ZM834.565 144.359V146.884H821.804V144.359H834.565ZM843.602 147.034L839.348 160H835.921L841.732 144.359H843.913L843.602 147.034ZM847.136 160L842.871 147.034L842.527 144.359H844.729L850.573 160H847.136ZM846.942 154.178V156.702H838.682V154.178H846.942ZM864.078 157.486V160H856.204V157.486H864.078ZM857.246 144.359V160H854.023V144.359H857.246ZM885.899 157.486V160H877.574V157.486H885.899ZM878.627 144.359V160H875.404V144.359H878.627ZM884.814 150.729V153.179H877.574V150.729H884.814ZM885.889 144.359V146.884H877.574V144.359H885.889ZM893.002 144.359V160H889.779V144.359H893.002ZM899.232 151.041V153.555H892.121V151.041H899.232ZM899.984 144.359V146.884H892.121V144.359H899.984ZM907.076 144.359V160H903.854V144.359H907.076ZM913.307 151.041V153.555H906.195V151.041H913.307ZM914.059 144.359V146.884H906.195V144.359H914.059ZM921.354 144.359V160H918.143V144.359H921.354ZM935.439 154.812H938.651C938.587 155.864 938.297 156.799 937.781 157.615C937.273 158.432 936.56 159.069 935.644 159.527C934.734 159.986 933.638 160.215 932.356 160.215C931.354 160.215 930.455 160.043 929.66 159.699C928.865 159.348 928.185 158.847 927.619 158.195C927.061 157.544 926.634 156.756 926.341 155.832C926.047 154.908 925.9 153.873 925.9 152.728V151.643C925.9 150.497 926.051 149.462 926.352 148.538C926.66 147.607 927.096 146.816 927.662 146.164C928.235 145.512 928.919 145.011 929.714 144.66C930.509 144.309 931.397 144.134 932.378 144.134C933.681 144.134 934.781 144.37 935.676 144.843C936.578 145.315 937.276 145.967 937.771 146.798C938.272 147.629 938.573 148.574 938.673 149.634H935.45C935.414 149.004 935.289 148.47 935.074 148.033C934.859 147.589 934.534 147.256 934.097 147.034C933.667 146.805 933.094 146.69 932.378 146.69C931.841 146.69 931.372 146.791 930.971 146.991C930.57 147.192 930.233 147.496 929.961 147.904C929.689 148.312 929.485 148.828 929.349 149.451C929.22 150.067 929.155 150.79 929.155 151.621V152.728C929.155 153.537 929.216 154.249 929.338 154.865C929.46 155.474 929.646 155.99 929.896 156.412C930.154 156.827 930.484 157.143 930.885 157.357C931.293 157.565 931.784 157.669 932.356 157.669C933.03 157.669 933.585 157.562 934.021 157.347C934.458 157.132 934.791 156.813 935.021 156.391C935.257 155.968 935.396 155.442 935.439 154.812ZM946.194 144.359V160H942.982V144.359H946.194ZM961.708 157.486V160H953.383V157.486H961.708ZM954.436 144.359V160H951.213V144.359H954.436ZM960.623 150.729V153.179H953.383V150.729H960.623ZM961.697 144.359V146.884H953.383V144.359H961.697ZM978.317 144.359V160H975.095L968.811 149.516V160H965.588V144.359H968.811L975.105 154.854V144.359H978.317ZM992.188 154.812H995.399C995.335 155.864 995.045 156.799 994.529 157.615C994.021 158.432 993.308 159.069 992.392 159.527C991.482 159.986 990.386 160.215 989.104 160.215C988.102 160.215 987.203 160.043 986.408 159.699C985.613 159.348 984.933 158.847 984.367 158.195C983.809 157.544 983.382 156.756 983.089 155.832C982.795 154.908 982.648 153.873 982.648 152.728V151.643C982.648 150.497 982.799 149.462 983.1 148.538C983.408 147.607 983.844 146.816 984.41 146.164C984.983 145.512 985.667 145.011 986.462 144.66C987.257 144.309 988.145 144.134 989.126 144.134C990.429 144.134 991.529 144.37 992.424 144.843C993.326 145.315 994.024 145.967 994.519 146.798C995.02 147.629 995.321 148.574 995.421 149.634H992.198C992.162 149.004 992.037 148.47 991.822 148.033C991.607 147.589 991.282 147.256 990.845 147.034C990.415 146.805 989.842 146.69 989.126 146.69C988.589 146.69 988.12 146.791 987.719 146.991C987.318 147.192 986.981 147.496 986.709 147.904C986.437 148.312 986.233 148.828 986.097 149.451C985.968 150.067 985.903 150.79 985.903 151.621V152.728C985.903 153.537 985.964 154.249 986.086 154.865C986.208 155.474 986.394 155.99 986.645 156.412C986.902 156.827 987.232 157.143 987.633 157.357C988.041 157.565 988.532 157.669 989.104 157.669C989.778 157.669 990.333 157.562 990.77 157.347C991.206 157.132 991.539 156.813 991.769 156.391C992.005 155.968 992.145 155.442 992.188 154.812ZM1001.66 144.359L1004.93 151.492L1008.2 144.359H1011.71L1006.56 154.307V160H1003.3V154.307L998.141 144.359H1001.66Z" fill="white"/>
<rect x="570" y="341" width="525" height="78" rx="39" fill="#E1AB3B"/>
<path d="M634.823 372.359V388H631.611V372.359H634.823ZM641.313 372.359H644.042L648.06 383.843L652.077 372.359H654.806L649.155 388H646.964L641.313 372.359ZM639.842 372.359H642.56L643.054 383.553V388H639.842V372.359ZM653.56 372.359H656.288V388H653.065V383.553L653.56 372.359ZM662.585 372.359H665.313L669.331 383.843L673.349 372.359H676.077L670.427 388H668.235L662.585 372.359ZM661.113 372.359H663.831L664.325 383.553V388H661.113V372.359ZM674.831 372.359H677.56V388H674.337V383.553L674.831 372.359ZM691.021 372.359H694.233V382.693C694.233 383.896 693.976 384.91 693.46 385.733C692.951 386.557 692.246 387.176 691.344 387.592C690.449 388.007 689.417 388.215 688.25 388.215C687.083 388.215 686.044 388.007 685.135 387.592C684.232 387.176 683.523 386.557 683.008 385.733C682.499 384.91 682.245 383.896 682.245 382.693V372.359H685.468V382.693C685.468 383.395 685.579 383.968 685.801 384.412C686.023 384.856 686.341 385.182 686.757 385.39C687.179 385.597 687.677 385.701 688.25 385.701C688.837 385.701 689.335 385.597 689.743 385.39C690.159 385.182 690.474 384.856 690.688 384.412C690.91 383.968 691.021 383.395 691.021 382.693V372.359ZM711.616 372.359V388H708.394L702.109 377.516V388H698.887V372.359H702.109L708.404 382.854V372.359H711.616ZM719.847 372.359V388H716.635V372.359H719.847ZM731.536 372.359V388H728.324V372.359H731.536ZM736.349 372.359V374.884H723.587V372.359H736.349ZM742.506 372.359L745.771 379.492L749.037 372.359H752.55L747.404 382.307V388H744.139V382.307L738.982 372.359H742.506ZM765.724 379.632L768.731 377.688C769.175 377.394 769.473 377.111 769.623 376.839C769.773 376.567 769.849 376.262 769.849 375.926C769.849 375.589 769.723 375.278 769.473 374.991C769.222 374.698 768.871 374.551 768.42 374.551C768.098 374.551 767.826 374.626 767.604 374.776C767.382 374.92 767.213 375.113 767.099 375.356C766.991 375.6 766.938 375.872 766.938 376.173C766.938 376.495 767.023 376.825 767.195 377.161C767.367 377.491 767.6 377.841 767.894 378.214C768.187 378.579 768.513 378.977 768.871 379.406L776.251 388H772.738L766.723 381.039C766.214 380.409 765.77 379.832 765.391 379.31C765.011 378.78 764.714 378.264 764.499 377.763C764.284 377.261 764.177 376.746 764.177 376.216C764.177 375.399 764.352 374.687 764.703 374.078C765.054 373.462 765.548 372.986 766.186 372.649C766.823 372.306 767.571 372.134 768.431 372.134C769.24 372.134 769.942 372.302 770.536 372.639C771.131 372.968 771.589 373.405 771.911 373.949C772.241 374.493 772.405 375.091 772.405 375.743C772.405 376.23 772.316 376.681 772.137 377.097C771.958 377.505 771.711 377.884 771.396 378.235C771.08 378.579 770.719 378.898 770.311 379.191L766.884 381.63C766.619 381.873 766.418 382.113 766.282 382.35C766.146 382.586 766.053 382.812 766.003 383.026C765.953 383.234 765.928 383.435 765.928 383.628C765.928 384.043 766.017 384.416 766.196 384.745C766.375 385.075 766.626 385.332 766.948 385.519C767.271 385.705 767.646 385.798 768.076 385.798C768.663 385.798 769.233 385.669 769.784 385.411C770.336 385.153 770.83 384.785 771.267 384.305C771.703 383.818 772.051 383.241 772.309 382.575C772.566 381.909 772.695 381.175 772.695 380.373H775.316C775.316 381.175 775.238 381.938 775.08 382.661C774.923 383.377 774.668 384.043 774.317 384.659C773.966 385.268 773.501 385.809 772.921 386.281C772.878 386.317 772.817 386.371 772.738 386.442C772.667 386.507 772.606 386.557 772.556 386.593C771.868 387.144 771.152 387.556 770.407 387.828C769.662 388.093 768.832 388.226 767.915 388.226C766.869 388.226 765.964 388.036 765.197 387.656C764.438 387.277 763.851 386.754 763.436 386.088C763.027 385.422 762.823 384.659 762.823 383.8C762.823 383.17 762.945 382.622 763.188 382.156C763.439 381.684 763.783 381.247 764.22 380.846C764.657 380.445 765.158 380.04 765.724 379.632ZM795.559 383.907C795.559 383.628 795.516 383.377 795.43 383.155C795.351 382.926 795.201 382.718 794.979 382.532C794.757 382.339 794.445 382.149 794.044 381.963C793.643 381.777 793.124 381.583 792.486 381.383C791.777 381.154 791.104 380.896 790.467 380.609C789.837 380.323 789.278 379.99 788.791 379.61C788.311 379.224 787.932 378.776 787.652 378.268C787.38 377.759 787.244 377.168 787.244 376.495C787.244 375.843 787.387 375.253 787.674 374.723C787.96 374.186 788.361 373.727 788.877 373.348C789.393 372.961 790.001 372.664 790.703 372.456C791.412 372.248 792.189 372.145 793.034 372.145C794.187 372.145 795.193 372.352 796.053 372.768C796.912 373.183 797.578 373.752 798.051 374.476C798.531 375.199 798.771 376.026 798.771 376.957H795.569C795.569 376.499 795.473 376.098 795.279 375.754C795.093 375.403 794.807 375.127 794.42 374.927C794.04 374.726 793.561 374.626 792.98 374.626C792.422 374.626 791.956 374.712 791.584 374.884C791.212 375.049 790.932 375.274 790.746 375.561C790.56 375.84 790.467 376.155 790.467 376.506C790.467 376.771 790.531 377.011 790.66 377.226C790.796 377.44 790.997 377.641 791.262 377.827C791.527 378.013 791.853 378.189 792.239 378.354C792.626 378.518 793.074 378.679 793.582 378.837C794.434 379.095 795.183 379.385 795.827 379.707C796.479 380.029 797.023 380.391 797.46 380.792C797.897 381.193 798.226 381.648 798.448 382.156C798.67 382.665 798.781 383.241 798.781 383.886C798.781 384.566 798.649 385.175 798.384 385.712C798.119 386.249 797.736 386.704 797.234 387.076C796.733 387.449 796.135 387.731 795.44 387.925C794.746 388.118 793.969 388.215 793.109 388.215C792.336 388.215 791.573 388.115 790.821 387.914C790.069 387.706 789.385 387.395 788.77 386.979C788.161 386.564 787.674 386.034 787.309 385.39C786.943 384.745 786.761 383.982 786.761 383.102H789.994C789.994 383.589 790.069 384 790.22 384.337C790.37 384.674 790.581 384.946 790.854 385.153C791.133 385.361 791.462 385.511 791.842 385.604C792.229 385.698 792.651 385.744 793.109 385.744C793.668 385.744 794.126 385.665 794.484 385.508C794.85 385.35 795.118 385.132 795.29 384.853C795.469 384.573 795.559 384.258 795.559 383.907ZM805.121 372.359L808.387 379.492L811.652 372.359H815.165L810.02 382.307V388H806.754V382.307L801.598 372.359H805.121ZM826.564 383.907C826.564 383.628 826.521 383.377 826.436 383.155C826.357 382.926 826.206 382.718 825.984 382.532C825.762 382.339 825.451 382.149 825.05 381.963C824.649 381.777 824.13 381.583 823.492 381.383C822.783 381.154 822.11 380.896 821.473 380.609C820.842 380.323 820.284 379.99 819.797 379.61C819.317 379.224 818.938 378.776 818.658 378.268C818.386 377.759 818.25 377.168 818.25 376.495C818.25 375.843 818.393 375.253 818.68 374.723C818.966 374.186 819.367 373.727 819.883 373.348C820.398 372.961 821.007 372.664 821.709 372.456C822.418 372.248 823.195 372.145 824.04 372.145C825.193 372.145 826.199 372.352 827.059 372.768C827.918 373.183 828.584 373.752 829.057 374.476C829.536 375.199 829.776 376.026 829.776 376.957H826.575C826.575 376.499 826.479 376.098 826.285 375.754C826.099 375.403 825.812 375.127 825.426 374.927C825.046 374.726 824.566 374.626 823.986 374.626C823.428 374.626 822.962 374.712 822.59 374.884C822.217 375.049 821.938 375.274 821.752 375.561C821.566 375.84 821.473 376.155 821.473 376.506C821.473 376.771 821.537 377.011 821.666 377.226C821.802 377.44 822.003 377.641 822.268 377.827C822.533 378.013 822.858 378.189 823.245 378.354C823.632 378.518 824.079 378.679 824.588 378.837C825.44 379.095 826.188 379.385 826.833 379.707C827.485 380.029 828.029 380.391 828.466 380.792C828.903 381.193 829.232 381.648 829.454 382.156C829.676 382.665 829.787 383.241 829.787 383.886C829.787 384.566 829.655 385.175 829.39 385.712C829.125 386.249 828.742 386.704 828.24 387.076C827.739 387.449 827.141 387.731 826.446 387.925C825.752 388.118 824.975 388.215 824.115 388.215C823.342 388.215 822.579 388.115 821.827 387.914C821.075 387.706 820.391 387.395 819.775 386.979C819.167 386.564 818.68 386.034 818.314 385.39C817.949 384.745 817.767 383.982 817.767 383.102H821C821 383.589 821.075 384 821.226 384.337C821.376 384.674 821.587 384.946 821.859 385.153C822.139 385.361 822.468 385.511 822.848 385.604C823.234 385.698 823.657 385.744 824.115 385.744C824.674 385.744 825.132 385.665 825.49 385.508C825.855 385.35 826.124 385.132 826.296 384.853C826.475 384.573 826.564 384.258 826.564 383.907ZM840.972 372.359V388H837.76V372.359H840.972ZM845.784 372.359V374.884H833.022V372.359H845.784ZM860.116 385.486V388H851.791V385.486H860.116ZM852.844 372.359V388H849.621V372.359H852.844ZM859.031 378.729V381.179H851.791V378.729H859.031ZM860.105 372.359V374.884H851.791V372.359H860.105ZM865.468 372.359H868.196L872.214 383.843L876.231 372.359H878.96L873.31 388H871.118L865.468 372.359ZM863.996 372.359H866.714L867.208 383.553V388H863.996V372.359ZM877.714 372.359H880.442V388H877.22V383.553L877.714 372.359ZM888.694 372.359V388H885.482V372.359H888.694ZM902.779 382.812H905.991C905.927 383.864 905.637 384.799 905.121 385.615C904.613 386.432 903.9 387.069 902.983 387.527C902.074 387.986 900.978 388.215 899.696 388.215C898.694 388.215 897.795 388.043 897 387.699C896.205 387.348 895.525 386.847 894.959 386.195C894.4 385.544 893.974 384.756 893.681 383.832C893.387 382.908 893.24 381.873 893.24 380.728V379.643C893.24 378.497 893.391 377.462 893.691 376.538C893.999 375.607 894.436 374.816 895.002 374.164C895.575 373.512 896.259 373.011 897.054 372.66C897.849 372.309 898.737 372.134 899.718 372.134C901.021 372.134 902.12 372.37 903.016 372.843C903.918 373.315 904.616 373.967 905.11 374.798C905.612 375.629 905.912 376.574 906.013 377.634H902.79C902.754 377.004 902.629 376.47 902.414 376.033C902.199 375.589 901.873 375.256 901.437 375.034C901.007 374.805 900.434 374.69 899.718 374.69C899.181 374.69 898.712 374.791 898.311 374.991C897.91 375.192 897.573 375.496 897.301 375.904C897.029 376.312 896.825 376.828 896.688 377.451C896.56 378.067 896.495 378.79 896.495 379.621V380.728C896.495 381.537 896.556 382.249 896.678 382.865C896.799 383.474 896.986 383.99 897.236 384.412C897.494 384.827 897.824 385.143 898.225 385.357C898.633 385.565 899.123 385.669 899.696 385.669C900.369 385.669 900.924 385.562 901.361 385.347C901.798 385.132 902.131 384.813 902.36 384.391C902.597 383.968 902.736 383.442 902.779 382.812ZM921.356 385.519L924.472 372.359H926.212L926.609 374.551L923.29 388H921.421L921.356 385.519ZM919.756 372.359L922.334 385.519L922.119 388H920.035L916.565 372.359H919.756ZM929.349 385.465L931.895 372.359H935.085L931.626 388H929.542L929.349 385.465ZM927.189 372.359L930.326 385.572L930.24 388H928.371L925.03 374.54L925.46 372.359H927.189ZM949.331 385.486V388H941.006V385.486H949.331ZM942.059 372.359V388H938.836V372.359H942.059ZM948.246 378.729V381.179H941.006V378.729H948.246ZM949.32 372.359V374.884H941.006V372.359H949.32ZM963.266 385.486V388H955.392V385.486H963.266ZM956.434 372.359V388H953.211V372.359H956.434ZM977.168 385.486V388H969.294V385.486H977.168ZM970.336 372.359V388H967.113V372.359H970.336ZM993.745 372.359V388H990.522L984.238 377.516V388H981.016V372.359H984.238L990.533 382.854V372.359H993.745ZM1009.04 385.486V388H1000.72V385.486H1009.04ZM1001.77 372.359V388H998.549V372.359H1001.77ZM1007.96 378.729V381.179H1000.72V378.729H1007.96ZM1009.03 372.359V374.884H1000.72V372.359H1009.03ZM1021.07 383.907C1021.07 383.628 1021.02 383.377 1020.94 383.155C1020.86 382.926 1020.71 382.718 1020.49 382.532C1020.26 382.339 1019.95 382.149 1019.55 381.963C1019.15 381.777 1018.63 381.583 1017.99 381.383C1017.29 381.154 1016.61 380.896 1015.97 380.609C1015.34 380.323 1014.79 379.99 1014.3 379.61C1013.82 379.224 1013.44 378.776 1013.16 378.268C1012.89 377.759 1012.75 377.168 1012.75 376.495C1012.75 375.843 1012.9 375.253 1013.18 374.723C1013.47 374.186 1013.87 373.727 1014.38 373.348C1014.9 372.961 1015.51 372.664 1016.21 372.456C1016.92 372.248 1017.7 372.145 1018.54 372.145C1019.69 372.145 1020.7 372.352 1021.56 372.768C1022.42 373.183 1023.09 373.752 1023.56 374.476C1024.04 375.199 1024.28 376.026 1024.28 376.957H1021.08C1021.08 376.499 1020.98 376.098 1020.79 375.754C1020.6 375.403 1020.31 375.127 1019.93 374.927C1019.55 374.726 1019.07 374.626 1018.49 374.626C1017.93 374.626 1017.46 374.712 1017.09 374.884C1016.72 375.049 1016.44 375.274 1016.25 375.561C1016.07 375.84 1015.97 376.155 1015.97 376.506C1015.97 376.771 1016.04 377.011 1016.17 377.226C1016.3 377.44 1016.5 377.641 1016.77 377.827C1017.03 378.013 1017.36 378.189 1017.75 378.354C1018.13 378.518 1018.58 378.679 1019.09 378.837C1019.94 379.095 1020.69 379.385 1021.33 379.707C1021.99 380.029 1022.53 380.391 1022.97 380.792C1023.4 381.193 1023.73 381.648 1023.96 382.156C1024.18 382.665 1024.29 383.241 1024.29 383.886C1024.29 384.566 1024.16 385.175 1023.89 385.712C1023.63 386.249 1023.24 386.704 1022.74 387.076C1022.24 387.449 1021.64 387.731 1020.95 387.925C1020.25 388.118 1019.48 388.215 1018.62 388.215C1017.84 388.215 1017.08 388.115 1016.33 387.914C1015.58 387.706 1014.89 387.395 1014.28 386.979C1013.67 386.564 1013.18 386.034 1012.82 385.39C1012.45 384.745 1012.27 383.982 1012.27 383.102H1015.5C1015.5 383.589 1015.58 384 1015.73 384.337C1015.88 384.674 1016.09 384.946 1016.36 385.153C1016.64 385.361 1016.97 385.511 1017.35 385.604C1017.74 385.698 1018.16 385.744 1018.62 385.744C1019.18 385.744 1019.63 385.665 1019.99 385.508C1020.36 385.35 1020.63 385.132 1020.8 384.853C1020.98 384.573 1021.07 384.258 1021.07 383.907ZM1036.62 383.907C1036.62 383.628 1036.58 383.377 1036.49 383.155C1036.42 382.926 1036.26 382.718 1036.04 382.532C1035.82 382.339 1035.51 382.149 1035.11 381.963C1034.71 381.777 1034.19 381.583 1033.55 381.383C1032.84 381.154 1032.17 380.896 1031.53 380.609C1030.9 380.323 1030.34 379.99 1029.86 379.61C1029.38 379.224 1029 378.776 1028.72 378.268C1028.44 377.759 1028.31 377.168 1028.31 376.495C1028.31 375.843 1028.45 375.253 1028.74 374.723C1029.02 374.186 1029.43 373.727 1029.94 373.348C1030.46 372.961 1031.07 372.664 1031.77 372.456C1032.48 372.248 1033.25 372.145 1034.1 372.145C1035.25 372.145 1036.26 372.352 1037.12 372.768C1037.98 373.183 1038.64 373.752 1039.12 374.476C1039.6 375.199 1039.83 376.026 1039.83 376.957H1036.63C1036.63 376.499 1036.54 376.098 1036.34 375.754C1036.16 375.403 1035.87 375.127 1035.48 374.927C1035.1 374.726 1034.62 374.626 1034.04 374.626C1033.49 374.626 1033.02 374.712 1032.65 374.884C1032.28 375.049 1032 375.274 1031.81 375.561C1031.62 375.84 1031.53 376.155 1031.53 376.506C1031.53 376.771 1031.6 377.011 1031.72 377.226C1031.86 377.44 1032.06 377.641 1032.33 377.827C1032.59 378.013 1032.92 378.189 1033.3 378.354C1033.69 378.518 1034.14 378.679 1034.65 378.837C1035.5 379.095 1036.25 379.385 1036.89 379.707C1037.54 380.029 1038.09 380.391 1038.52 380.792C1038.96 381.193 1039.29 381.648 1039.51 382.156C1039.73 382.665 1039.85 383.241 1039.85 383.886C1039.85 384.566 1039.71 385.175 1039.45 385.712C1039.18 386.249 1038.8 386.704 1038.3 387.076C1037.8 387.449 1037.2 387.731 1036.5 387.925C1035.81 388.118 1035.03 388.215 1034.17 388.215C1033.4 388.215 1032.64 388.115 1031.89 387.914C1031.13 387.706 1030.45 387.395 1029.83 386.979C1029.23 386.564 1028.74 386.034 1028.37 385.39C1028.01 384.745 1027.83 383.982 1027.83 383.102H1031.06C1031.06 383.589 1031.13 384 1031.28 384.337C1031.43 384.674 1031.65 384.946 1031.92 385.153C1032.2 385.361 1032.53 385.511 1032.91 385.604C1033.29 385.698 1033.72 385.744 1034.17 385.744C1034.73 385.744 1035.19 385.665 1035.55 385.508C1035.91 385.35 1036.18 385.132 1036.35 384.853C1036.53 384.573 1036.62 384.258 1036.62 383.907Z" fill="white"/>
<rect x="572" width="525" height="78" rx="39" fill="#E1AB3B"/>
<path d="M639.974 40.2144H635.957L635.935 38.0015H639.308C639.903 38.0015 640.39 37.9263 640.769 37.7759C641.149 37.6183 641.432 37.3927 641.618 37.0991C641.811 36.7983 641.908 36.4331 641.908 36.0034C641.908 35.5164 641.815 35.1226 641.629 34.8218C641.45 34.521 641.167 34.3026 640.78 34.1665C640.4 34.0304 639.91 33.9624 639.308 33.9624H637.074V47.0786H633.851V31.438H639.308C640.218 31.438 641.031 31.5239 641.747 31.6958C642.47 31.8677 643.082 32.1291 643.584 32.48C644.085 32.8309 644.468 33.2749 644.733 33.812C644.998 34.342 645.131 34.9722 645.131 35.7026C645.131 36.3472 644.984 36.9416 644.69 37.4858C644.404 38.0301 643.949 38.4741 643.326 38.8179C642.71 39.1616 641.904 39.3514 640.909 39.3872L639.974 40.2144ZM639.835 47.0786H635.076L636.333 44.5649H639.835C640.4 44.5649 640.862 44.4754 641.22 44.2964C641.579 44.1102 641.844 43.8595 642.015 43.5444C642.187 43.2293 642.273 42.8677 642.273 42.4595C642.273 42.0011 642.194 41.6037 642.037 41.2671C641.886 40.9305 641.643 40.6727 641.306 40.4937C640.97 40.3075 640.526 40.2144 639.974 40.2144H636.87L636.891 38.0015H640.759L641.5 38.8716C642.452 38.8573 643.219 39.0256 643.799 39.3765C644.386 39.7202 644.812 40.1678 645.077 40.7192C645.349 41.2707 645.485 41.8615 645.485 42.4917C645.485 43.4943 645.267 44.3394 644.83 45.0269C644.393 45.7072 643.752 46.2192 642.907 46.563C642.069 46.9067 641.045 47.0786 639.835 47.0786ZM660.397 44.5649V47.0786H652.072V44.5649H660.397ZM653.125 31.438V47.0786H649.902V31.438H653.125ZM659.312 37.8081V40.2573H652.072V37.8081H659.312ZM660.386 31.438V33.9624H652.072V31.438H660.386ZM671.485 31.438V47.0786H668.273V31.438H671.485ZM676.298 31.438V33.9624H663.536V31.438H676.298ZM687.3 31.438V47.0786H684.088V31.438H687.3ZM692.112 31.438V33.9624H679.35V31.438H692.112ZM706.444 44.5649V47.0786H698.119V44.5649H706.444ZM699.172 31.438V47.0786H695.949V31.438H699.172ZM705.359 37.8081V40.2573H698.119V37.8081H705.359ZM706.433 31.438V33.9624H698.119V31.438H706.433ZM710.324 31.438H716.157C717.353 31.438 718.381 31.617 719.24 31.9751C720.107 32.3332 720.773 32.8631 721.238 33.5649C721.704 34.2668 721.936 35.1297 721.936 36.1538C721.936 36.9917 721.793 37.7114 721.507 38.313C721.227 38.9074 720.83 39.4051 720.314 39.8062C719.806 40.2 719.208 40.5151 718.52 40.7515L717.5 41.2886H712.429L712.408 38.7749H716.178C716.744 38.7749 717.213 38.6746 717.586 38.4741C717.958 38.2736 718.237 37.9943 718.424 37.6362C718.617 37.2782 718.714 36.8628 718.714 36.3901C718.714 35.8888 718.621 35.4556 718.434 35.0903C718.248 34.7251 717.965 34.4458 717.586 34.2524C717.206 34.0591 716.73 33.9624 716.157 33.9624H713.547V47.0786H710.324V31.438ZM719.068 47.0786L715.502 40.1069L718.907 40.0854L722.516 46.9282V47.0786H719.068ZM735.368 31.438H738.096L742.114 42.9214L746.132 31.438H748.86L743.21 47.0786H741.018L735.368 31.438ZM733.896 31.438H736.614L737.108 42.6313V47.0786H733.896V31.438ZM747.614 31.438H750.343V47.0786H747.12V42.6313L747.614 31.438ZM765.663 44.5649V47.0786H757.338V44.5649H765.663ZM758.39 31.438V47.0786H755.168V31.438H758.39ZM764.578 37.8081V40.2573H757.338V37.8081H764.578ZM765.652 31.438V33.9624H757.338V31.438H765.652ZM776.751 31.438V47.0786H773.539V31.438H776.751ZM781.563 31.438V33.9624H768.802V31.438H781.563ZM790.599 34.1128L786.345 47.0786H782.919L788.73 31.438H790.911L790.599 34.1128ZM794.134 47.0786L789.869 34.1128L789.525 31.438H791.727L797.571 47.0786H794.134ZM793.94 41.2563V43.7808H785.679V41.2563H793.94ZM807.144 40.2144H803.127L803.105 38.0015H806.478C807.073 38.0015 807.56 37.9263 807.939 37.7759C808.319 37.6183 808.602 37.3927 808.788 37.0991C808.981 36.7983 809.078 36.4331 809.078 36.0034C809.078 35.5164 808.985 35.1226 808.799 34.8218C808.62 34.521 808.337 34.3026 807.95 34.1665C807.57 34.0304 807.08 33.9624 806.478 33.9624H804.244V47.0786H801.021V31.438H806.478C807.388 31.438 808.201 31.5239 808.917 31.6958C809.64 31.8677 810.252 32.1291 810.754 32.48C811.255 32.8309 811.638 33.2749 811.903 33.812C812.168 34.342 812.301 34.9722 812.301 35.7026C812.301 36.3472 812.154 36.9416 811.86 37.4858C811.574 38.0301 811.119 38.4741 810.496 38.8179C809.88 39.1616 809.074 39.3514 808.079 39.3872L807.144 40.2144ZM807.005 47.0786H802.246L803.503 44.5649H807.005C807.57 44.5649 808.032 44.4754 808.39 44.2964C808.748 44.1102 809.013 43.8595 809.185 43.5444C809.357 43.2293 809.443 42.8677 809.443 42.4595C809.443 42.0011 809.364 41.6037 809.207 41.2671C809.056 40.9305 808.813 40.6727 808.476 40.4937C808.14 40.3075 807.696 40.2144 807.144 40.2144H804.04L804.061 38.0015H807.928L808.67 38.8716C809.622 38.8573 810.388 39.0256 810.969 39.3765C811.556 39.7202 811.982 40.1678 812.247 40.7192C812.519 41.2707 812.655 41.8615 812.655 42.4917C812.655 43.4943 812.437 44.3394 812 45.0269C811.563 45.7072 810.922 46.2192 810.077 46.563C809.239 46.9067 808.215 47.0786 807.005 47.0786ZM829.92 38.8931V39.6343C829.92 40.8231 829.759 41.8901 829.436 42.8354C829.114 43.7808 828.659 44.5864 828.072 45.2524C827.485 45.9113 826.783 46.4162 825.967 46.7671C825.157 47.118 824.259 47.2935 823.27 47.2935C822.289 47.2935 821.39 47.118 820.574 46.7671C819.765 46.4162 819.063 45.9113 818.469 45.2524C817.874 44.5864 817.412 43.7808 817.083 42.8354C816.76 41.8901 816.599 40.8231 816.599 39.6343V38.8931C816.599 37.6971 816.76 36.63 817.083 35.6919C817.405 34.7466 817.86 33.9409 818.447 33.2749C819.041 32.6089 819.743 32.1004 820.552 31.7495C821.369 31.3986 822.268 31.2231 823.249 31.2231C824.237 31.2231 825.136 31.3986 825.945 31.7495C826.761 32.1004 827.463 32.6089 828.051 33.2749C828.645 33.9409 829.103 34.7466 829.426 35.6919C829.755 36.63 829.92 37.6971 829.92 38.8931ZM826.665 39.6343V38.8716C826.665 38.0409 826.59 37.3104 826.439 36.6802C826.289 36.05 826.067 35.52 825.773 35.0903C825.48 34.6606 825.122 34.3384 824.699 34.1235C824.276 33.9015 823.793 33.7905 823.249 33.7905C822.705 33.7905 822.221 33.9015 821.799 34.1235C821.383 34.3384 821.029 34.6606 820.735 35.0903C820.449 35.52 820.23 36.05 820.08 36.6802C819.929 37.3104 819.854 38.0409 819.854 38.8716V39.6343C819.854 40.4578 819.929 41.1883 820.08 41.8257C820.23 42.4559 820.452 42.9894 820.746 43.4263C821.039 43.856 821.398 44.1818 821.82 44.4038C822.243 44.6258 822.726 44.7368 823.27 44.7368C823.815 44.7368 824.298 44.6258 824.72 44.4038C825.143 44.1818 825.497 43.856 825.784 43.4263C826.07 42.9894 826.289 42.4559 826.439 41.8257C826.59 41.1883 826.665 40.4578 826.665 39.6343ZM844.295 44.5649V47.0786H836.421V44.5649H844.295ZM837.463 31.438V47.0786H834.24V31.438H837.463ZM851.569 31.438V47.0786H848.357V31.438H851.569ZM864.73 42.9858C864.73 42.7065 864.687 42.4559 864.601 42.2339C864.523 42.0047 864.372 41.797 864.15 41.6108C863.928 41.4175 863.617 41.2277 863.216 41.0415C862.815 40.8553 862.295 40.6619 861.658 40.4614C860.949 40.2323 860.276 39.9744 859.638 39.688C859.008 39.4015 858.45 39.0685 857.963 38.689C857.483 38.3022 857.103 37.8547 856.824 37.3462C856.552 36.8377 856.416 36.2469 856.416 35.5737C856.416 34.922 856.559 34.3312 856.845 33.8013C857.132 33.2642 857.533 32.8058 858.049 32.4263C858.564 32.0396 859.173 31.7424 859.875 31.5347C860.584 31.327 861.361 31.2231 862.206 31.2231C863.359 31.2231 864.365 31.4308 865.224 31.8462C866.084 32.2616 866.75 32.8309 867.222 33.5542C867.702 34.2775 867.942 35.1047 867.942 36.0356H864.741C864.741 35.5773 864.644 35.1763 864.451 34.8325C864.265 34.4816 863.978 34.2059 863.592 34.0054C863.212 33.8049 862.732 33.7046 862.152 33.7046C861.594 33.7046 861.128 33.7905 860.756 33.9624C860.383 34.1271 860.104 34.3527 859.918 34.6392C859.732 34.9185 859.638 35.2336 859.638 35.5845C859.638 35.8494 859.703 36.0894 859.832 36.3042C859.968 36.519 860.168 36.7196 860.433 36.9058C860.698 37.092 861.024 37.2674 861.411 37.4321C861.798 37.5968 862.245 37.758 862.754 37.9155C863.606 38.1733 864.354 38.4634 864.999 38.7856C865.65 39.1079 866.195 39.4696 866.632 39.8706C867.068 40.2716 867.398 40.7264 867.62 41.2349C867.842 41.7433 867.953 42.3198 867.953 42.9644C867.953 43.6447 867.82 44.2534 867.555 44.7905C867.29 45.3276 866.907 45.7824 866.406 46.1548C865.905 46.5272 865.307 46.8101 864.612 47.0034C863.917 47.1968 863.14 47.2935 862.281 47.2935C861.508 47.2935 860.745 47.1932 859.993 46.9927C859.241 46.785 858.557 46.4735 857.941 46.0581C857.332 45.6427 856.845 45.1128 856.48 44.4683C856.115 43.8237 855.932 43.061 855.932 42.1802H859.166C859.166 42.6672 859.241 43.0789 859.391 43.4155C859.542 43.7521 859.753 44.0243 860.025 44.2319C860.304 44.4396 860.634 44.59 861.013 44.6831C861.4 44.7762 861.823 44.8228 862.281 44.8228C862.84 44.8228 863.298 44.744 863.656 44.5864C864.021 44.4289 864.29 44.2104 864.462 43.9312C864.641 43.6519 864.73 43.3368 864.73 42.9858ZM873.616 31.438H876.344L880.362 42.9214L884.38 31.438H887.108L881.458 47.0786H879.266L873.616 31.438ZM872.144 31.438H874.862L875.356 42.6313V47.0786H872.144V31.438ZM885.862 31.438H888.591V47.0786H885.368V42.6313L885.862 31.438Z" fill="white"/>
<path d="M212.158 249.512L212.134 249.471C211.023 247.781 209.33 246.56 207.376 246.041C205.421 245.523 203.345 245.744 201.543 246.661L190.437 252.341C189.107 250.474 187.15 249.147 184.923 248.601C182.695 248.056 180.347 248.329 178.304 249.372L164.318 256.54C162.837 257.303 161.076 257.292 159.605 256.511L150.073 251.45C146.465 249.524 142.395 248.636 138.312 248.883C134.231 249.13 130.297 250.504 126.948 252.85L125.872 247.716C125.777 247.265 125.506 246.871 125.12 246.619C124.733 246.368 124.262 246.282 123.812 246.379L110.37 249.278C109.439 249.479 108.844 250.394 109.039 251.327L116.865 288.613C117.029 289.42 117.737 289.998 118.559 290C118.682 289.999 118.804 289.987 118.924 289.962L132.372 287.068C133.304 286.866 133.898 285.95 133.703 285.017L133.009 281.681L137.604 280.691C138.943 280.405 140.322 280.352 141.679 280.535L163.288 282.905C167.775 283.498 172.323 282.43 176.077 279.903L210.695 256.678C211.827 255.912 212.614 254.732 212.887 253.393C213.16 252.055 212.899 250.661 212.158 249.513L212.158 249.512ZM119.898 286.197L112.792 252.303L122.844 250.137L129.95 284.03L119.898 286.197ZM208.764 253.803L174.146 277.028H174.147C171.077 279.087 167.36 279.95 163.697 279.454L142.089 277.085C140.349 276.851 138.583 276.921 136.868 277.293L132.289 278.277L127.72 256.54L128.904 255.715C131.731 253.726 135.054 252.561 138.504 252.348C141.953 252.136 145.395 252.885 148.445 254.512L157.977 259.573C160.449 260.887 163.409 260.907 165.9 259.627L179.89 252.45C181.288 251.735 182.907 251.584 184.414 252.028C185.92 252.473 187.199 253.478 187.986 254.838C188.466 255.667 188.193 256.727 187.372 257.22L168.085 268.659C164.713 270.67 160.696 271.306 156.868 270.435L139.473 266.276L138.669 269.648L156.079 273.808C160.778 274.885 165.712 274.108 169.853 271.64L189.14 260.201C189.93 259.726 190.58 259.051 191.023 258.243C191.466 257.435 191.686 256.524 191.662 255.602L203.115 249.743C204.152 249.216 205.346 249.089 206.471 249.386C207.595 249.682 208.572 250.383 209.214 251.353L209.234 251.382H209.233C209.752 252.184 209.545 253.253 208.765 253.804L208.764 253.803Z" fill="white"/>
<path d="M116.83 254.967L120.222 254.255L120.934 257.644L117.541 258.356L116.83 254.967Z" fill="white"/>
<path d="M159.979 251.529C160.587 251.972 161.412 251.972 162.02 251.529C179.412 238.843 190.118 226.747 194.006 215.464H202.915H202.915C203.464 217.019 204.718 218.22 206.295 218.703C207.871 219.185 209.584 218.892 210.909 217.912C212.234 216.931 213.017 215.38 213.017 213.731C213.017 212.082 212.235 210.532 210.909 209.551C209.584 208.57 207.871 208.277 206.295 208.759C204.718 209.242 203.464 210.444 202.915 211.998H194.97C195.265 210.721 195.471 209.424 195.585 208.118C196.204 202.799 194.63 197.459 191.228 193.324C187.762 188.707 182.324 185.994 176.552 186C170.829 186.224 165.349 188.372 160.999 192.097C156.649 188.372 151.169 186.224 145.447 186C139.673 185.994 134.234 188.707 130.767 193.324C127.366 197.459 125.793 202.8 126.412 208.118C127.456 221.437 138.75 236.045 159.978 251.529L159.979 251.529ZM207.796 211.998C208.497 211.998 209.129 212.42 209.397 213.068C209.665 213.716 209.517 214.461 209.021 214.957C208.525 215.453 207.78 215.6 207.133 215.332C206.485 215.064 206.063 214.432 206.063 213.731C206.063 212.774 206.839 211.998 207.796 211.998ZM133.345 195.642C133.426 195.561 133.499 195.473 133.562 195.379C136.379 191.654 140.779 189.466 145.448 189.466C153.479 189.466 159.712 195.583 159.774 195.643C160.099 195.969 160.541 196.152 161.001 196.152C161.461 196.152 161.902 195.969 162.227 195.643C162.29 195.579 168.477 189.466 176.552 189.466C181.226 189.448 185.632 191.641 188.438 195.379C188.501 195.473 188.574 195.561 188.655 195.642C191.432 199.062 192.688 203.468 192.132 207.838C192.017 209.243 191.779 210.634 191.421 211.998H177.604L171.17 200.732C170.841 200.151 170.208 199.811 169.542 199.857C168.876 199.903 168.297 200.328 168.051 200.949L159.48 222.397L153.989 204.555C153.788 203.901 153.221 203.427 152.542 203.344C151.863 203.261 151.199 203.586 150.847 204.172L146.152 211.998H135.002V215.464H147.134C147.743 215.464 148.307 215.145 148.62 214.624L151.814 209.29L157.605 228.106V228.106C157.824 228.805 158.459 229.29 159.19 229.32H159.267C159.976 229.32 160.614 228.888 160.877 228.229L169.941 205.565L175.095 214.578V214.577C175.4 215.122 175.974 215.461 176.599 215.464H190.291C187.083 223.631 179.104 234.585 160.999 247.977C136.576 229.91 130.58 216.275 129.879 207.977C129.28 203.563 130.535 199.098 133.345 195.642L133.345 195.642Z" fill="white"/>
<path d="M109.003 211.998H122.869V215.464H109.003V211.998Z" fill="white"/>
<path d="M156 38V35.5C154.619 35.5 153.5 36.6193 153.5 38H156ZM158.5 103.625C158.5 102.244 157.381 101.125 156 101.125C154.619 101.125 153.5 102.244 153.5 103.625H158.5ZM153.5 84.875C153.5 86.2557 154.619 87.375 156 87.375C157.381 87.375 158.5 86.2557 158.5 84.875H153.5ZM158.5 66.125C158.5 64.7443 157.381 63.625 156 63.625C154.619 63.625 153.5 64.7443 153.5 66.125H158.5ZM153.5 47.375C153.5 48.7557 154.619 49.875 156 49.875C157.381 49.875 158.5 48.7557 158.5 47.375H153.5ZM167.556 40.5C168.936 40.5 170.056 39.3807 170.056 38C170.056 36.6193 168.936 35.5 167.556 35.5V40.5ZM190.667 35.5C189.286 35.5 188.167 36.6193 188.167 38C188.167 39.3807 189.286 40.5 190.667 40.5V35.5ZM213.778 40.5C215.158 40.5 216.278 39.3807 216.278 38C216.278 36.6193 215.158 35.5 213.778 35.5V40.5ZM236.889 35.5C235.508 35.5 234.389 36.6193 234.389 38C234.389 39.3807 235.508 40.5 236.889 40.5V35.5ZM260 40.5C261.381 40.5 262.5 39.3807 262.5 38C262.5 36.6193 261.381 35.5 260 35.5V40.5ZM283.111 35.5C281.73 35.5 280.611 36.6193 280.611 38C280.611 39.3807 281.73 40.5 283.111 40.5V35.5ZM306.222 40.5C307.603 40.5 308.722 39.3807 308.722 38C308.722 36.6193 307.603 35.5 306.222 35.5V40.5ZM329.333 35.5C327.953 35.5 326.833 36.6193 326.833 38C326.833 39.3807 327.953 40.5 329.333 40.5V35.5ZM352.444 40.5C353.825 40.5 354.944 39.3807 354.944 38C354.944 36.6193 353.825 35.5 352.444 35.5V40.5ZM375.556 35.5C374.175 35.5 373.056 36.6193 373.056 38C373.056 39.3807 374.175 40.5 375.556 40.5V35.5ZM398.667 40.5C400.047 40.5 401.167 39.3807 401.167 38C401.167 36.6193 400.047 35.5 398.667 35.5V40.5ZM421.778 35.5C420.397 35.5 419.278 36.6193 419.278 38C419.278 39.3807 420.397 40.5 421.778 40.5V35.5ZM444.889 40.5C446.27 40.5 447.389 39.3807 447.389 38C447.389 36.6193 446.27 35.5 444.889 35.5V40.5ZM468 35.5C466.619 35.5 465.5 36.6193 465.5 38C465.5 39.3807 466.619 40.5 468 40.5V35.5ZM491.111 40.5C492.492 40.5 493.611 39.3807 493.611 38C493.611 36.6193 492.492 35.5 491.111 35.5V40.5ZM514.222 35.5C512.842 35.5 511.722 36.6193 511.722 38C511.722 39.3807 512.842 40.5 514.222 40.5V35.5ZM537.333 40.5C538.714 40.5 539.833 39.3807 539.833 38C539.833 36.6193 538.714 35.5 537.333 35.5V40.5ZM560.444 35.5C559.064 35.5 557.944 36.6193 557.944 38C557.944 39.3807 559.064 40.5 560.444 40.5V35.5ZM158.5 113V103.625H153.5V113H158.5ZM158.5 84.875V66.125H153.5V84.875H158.5ZM158.5 47.375V38H153.5V47.375H158.5ZM156 40.5H167.556V35.5H156V40.5ZM190.667 40.5H213.778V35.5H190.667V40.5ZM236.889 40.5H260V35.5H236.889V40.5ZM283.111 40.5H306.222V35.5H283.111V40.5ZM329.333 40.5H352.444V35.5H329.333V40.5ZM375.556 40.5H398.667V35.5H375.556V40.5ZM421.778 40.5H444.889V35.5H421.778V40.5ZM468 40.5H491.111V35.5H468V40.5ZM514.222 40.5H537.333V35.5H514.222V40.5ZM560.444 40.5H572V35.5H560.444V40.5Z" fill="#E1AB3B"/>
<path d="M313.5 263.5C312.119 263.5 311 264.619 311 266C311 267.381 312.119 268.5 313.5 268.5V263.5ZM324.271 268.5C325.652 268.5 326.771 267.381 326.771 266C326.771 264.619 325.652 263.5 324.271 263.5V268.5ZM345.812 263.5C344.432 263.5 343.312 264.619 343.312 266C343.312 267.381 344.432 268.5 345.812 268.5V263.5ZM367.354 268.5C368.735 268.5 369.854 267.381 369.854 266C369.854 264.619 368.735 263.5 367.354 263.5V268.5ZM388.896 263.5C387.515 263.5 386.396 264.619 386.396 266C386.396 267.381 387.515 268.5 388.896 268.5V263.5ZM410.437 268.5C411.818 268.5 412.937 267.381 412.937 266C412.937 264.619 411.818 263.5 410.437 263.5V268.5ZM431.979 263.5C430.598 263.5 429.479 264.619 429.479 266C429.479 267.381 430.598 268.5 431.979 268.5V263.5ZM453.521 268.5C454.902 268.5 456.021 267.381 456.021 266C456.021 264.619 454.902 263.5 453.521 263.5V268.5ZM475.062 263.5C473.682 263.5 472.562 264.619 472.562 266C472.562 267.381 473.682 268.5 475.062 268.5V263.5ZM496.604 268.5C497.985 268.5 499.104 267.381 499.104 266C499.104 264.619 497.985 263.5 496.604 263.5V268.5ZM518.146 263.5C516.765 263.5 515.646 264.619 515.646 266C515.646 267.381 516.765 268.5 518.146 268.5V263.5ZM539.688 268.5C541.068 268.5 542.188 267.381 542.188 266C542.188 264.619 541.068 263.5 539.688 263.5V268.5ZM561.229 263.5C559.848 263.5 558.729 264.619 558.729 266C558.729 267.381 559.848 268.5 561.229 268.5V263.5ZM313.5 268.5H324.271V263.5H313.5V268.5ZM345.812 268.5H367.354V263.5H345.812V268.5ZM388.896 268.5H410.437V263.5H388.896V268.5ZM431.979 268.5H453.521V263.5H431.979V268.5ZM475.062 268.5H496.604V263.5H475.062V268.5ZM518.146 268.5H539.688V263.5H518.146V268.5ZM561.229 268.5H572V263.5H561.229V268.5Z" fill="#E1AB3B"/>
<path d="M156 493V495.5C154.619 495.5 153.5 494.381 153.5 493H156ZM158.5 428.25C158.5 429.631 157.381 430.75 156 430.75C154.619 430.75 153.5 429.631 153.5 428.25H158.5ZM153.5 446.75C153.5 445.369 154.619 444.25 156 444.25C157.381 444.25 158.5 445.369 158.5 446.75H153.5ZM158.5 465.25C158.5 466.631 157.381 467.75 156 467.75C154.619 467.75 153.5 466.631 153.5 465.25H158.5ZM153.5 483.75C153.5 482.369 154.619 481.25 156 481.25C157.381 481.25 158.5 482.369 158.5 483.75H153.5ZM167.556 490.5C168.936 490.5 170.056 491.619 170.056 493C170.056 494.381 168.936 495.5 167.556 495.5V490.5ZM190.667 495.5C189.286 495.5 188.167 494.381 188.167 493C188.167 491.619 189.286 490.5 190.667 490.5V495.5ZM213.778 490.5C215.158 490.5 216.278 491.619 216.278 493C216.278 494.381 215.158 495.5 213.778 495.5V490.5ZM236.889 495.5C235.508 495.5 234.389 494.381 234.389 493C234.389 491.619 235.508 490.5 236.889 490.5V495.5ZM260 490.5C261.381 490.5 262.5 491.619 262.5 493C262.5 494.381 261.381 495.5 260 495.5V490.5ZM283.111 495.5C281.73 495.5 280.611 494.381 280.611 493C280.611 491.619 281.73 490.5 283.111 490.5V495.5ZM306.222 490.5C307.603 490.5 308.722 491.619 308.722 493C308.722 494.381 307.603 495.5 306.222 495.5V490.5ZM329.333 495.5C327.953 495.5 326.833 494.381 326.833 493C326.833 491.619 327.953 490.5 329.333 490.5V495.5ZM352.444 490.5C353.825 490.5 354.944 491.619 354.944 493C354.944 494.381 353.825 495.5 352.444 495.5V490.5ZM375.556 495.5C374.175 495.5 373.056 494.381 373.056 493C373.056 491.619 374.175 490.5 375.556 490.5V495.5ZM398.667 490.5C400.047 490.5 401.167 491.619 401.167 493C401.167 494.381 400.047 495.5 398.667 495.5V490.5ZM421.778 495.5C420.397 495.5 419.278 494.381 419.278 493C419.278 491.619 420.397 490.5 421.778 490.5V495.5ZM444.889 490.5C446.27 490.5 447.389 491.619 447.389 493C447.389 494.381 446.27 495.5 444.889 495.5V490.5ZM468 495.5C466.619 495.5 465.5 494.381 465.5 493C465.5 491.619 466.619 490.5 468 490.5V495.5ZM491.111 490.5C492.492 490.5 493.611 491.619 493.611 493C493.611 494.381 492.492 495.5 491.111 495.5V490.5ZM514.222 495.5C512.842 495.5 511.722 494.381 511.722 493C511.722 491.619 512.842 490.5 514.222 490.5V495.5ZM537.333 490.5C538.714 490.5 539.833 491.619 539.833 493C539.833 494.381 538.714 495.5 537.333 495.5V490.5ZM560.444 495.5C559.064 495.5 557.944 494.381 557.944 493C557.944 491.619 559.064 490.5 560.444 490.5V495.5ZM158.5 419V428.25H153.5V419H158.5ZM158.5 446.75V465.25H153.5V446.75H158.5ZM158.5 483.75V493H153.5V483.75H158.5ZM156 490.5H167.556V495.5H156V490.5ZM190.667 490.5H213.778V495.5H190.667V490.5ZM236.889 490.5H260V495.5H236.889V490.5ZM283.111 490.5H306.222V495.5H283.111V490.5ZM329.333 490.5H352.444V495.5H329.333V490.5ZM375.556 490.5H398.667V495.5H375.556V490.5ZM421.778 490.5H444.889V495.5H421.778V490.5ZM468 490.5H491.111V495.5H468V490.5ZM514.222 490.5H537.333V495.5H514.222V490.5ZM560.444 490.5H572V495.5H560.444V490.5Z" fill="#E1AB3B"/>
<path d="M320.062 153V150.5C319.525 150.5 319.003 150.672 318.572 150.992L320.062 153ZM295.255 174.508C296.364 173.686 296.596 172.12 295.773 171.011C294.951 169.902 293.385 169.669 292.276 170.492L295.255 174.508ZM309.807 157.492C308.698 158.314 308.466 159.88 309.288 160.989C310.11 162.098 311.676 162.331 312.785 161.508L309.807 157.492ZM330.476 155.5C331.856 155.5 332.976 154.381 332.976 153C332.976 151.619 331.856 150.5 330.476 150.5V155.5ZM351.304 150.5C349.923 150.5 348.804 151.619 348.804 153C348.804 154.381 349.923 155.5 351.304 155.5V150.5ZM372.132 155.5C373.513 155.5 374.632 154.381 374.632 153C374.632 151.619 373.513 150.5 372.132 150.5V155.5ZM392.96 150.5C391.58 150.5 390.46 151.619 390.46 153C390.46 154.381 391.58 155.5 392.96 155.5V150.5ZM413.788 155.5C415.169 155.5 416.288 154.381 416.288 153C416.288 151.619 415.169 150.5 413.788 150.5V155.5ZM434.617 150.5C433.236 150.5 432.117 151.619 432.117 153C432.117 154.381 433.236 155.5 434.617 155.5V150.5ZM455.445 155.5C456.826 155.5 457.945 154.381 457.945 153C457.945 151.619 456.826 150.5 455.445 150.5V155.5ZM476.273 150.5C474.892 150.5 473.773 151.619 473.773 153C473.773 154.381 474.892 155.5 476.273 155.5V150.5ZM497.101 155.5C498.482 155.5 499.601 154.381 499.601 153C499.601 151.619 498.482 150.5 497.101 150.5V155.5ZM517.929 150.5C516.549 150.5 515.429 151.619 515.429 153C515.429 154.381 516.549 155.5 517.929 155.5V150.5ZM538.758 155.5C540.138 155.5 541.258 154.381 541.258 153C541.258 151.619 540.138 150.5 538.758 150.5V155.5ZM559.586 150.5C558.205 150.5 557.086 151.619 557.086 153C557.086 154.381 558.205 155.5 559.586 155.5V150.5ZM286.489 181.008L295.255 174.508L292.276 170.492L283.511 176.992L286.489 181.008ZM312.785 161.508L321.551 155.008L318.572 150.992L309.807 157.492L312.785 161.508ZM320.062 155.5H330.476V150.5H320.062V155.5ZM351.304 155.5H372.132V150.5H351.304V155.5ZM392.96 155.5H413.788V150.5H392.96V155.5ZM434.617 155.5H455.445V150.5H434.617V155.5ZM476.273 155.5H497.101V150.5H476.273V155.5ZM517.929 155.5H538.758V150.5H517.929V155.5ZM559.586 155.5H570V150.5H559.586V155.5Z" fill="#E1AB3B"/>
<path d="M320.062 380V382.5C319.525 382.5 319.003 382.328 318.572 382.008L320.062 380ZM295.255 358.492C296.364 359.314 296.596 360.88 295.773 361.989C294.951 363.098 293.385 363.331 292.276 362.508L295.255 358.492ZM309.807 375.508C308.698 374.686 308.466 373.12 309.288 372.011C310.11 370.902 311.676 370.669 312.785 371.492L309.807 375.508ZM330.476 377.5C331.856 377.5 332.976 378.619 332.976 380C332.976 381.381 331.856 382.5 330.476 382.5V377.5ZM351.304 382.5C349.923 382.5 348.804 381.381 348.804 380C348.804 378.619 349.923 377.5 351.304 377.5V382.5ZM372.132 377.5C373.513 377.5 374.632 378.619 374.632 380C374.632 381.381 373.513 382.5 372.132 382.5V377.5ZM392.96 382.5C391.58 382.5 390.46 381.381 390.46 380C390.46 378.619 391.58 377.5 392.96 377.5V382.5ZM413.788 377.5C415.169 377.5 416.288 378.619 416.288 380C416.288 381.381 415.169 382.5 413.788 382.5V377.5ZM434.617 382.5C433.236 382.5 432.117 381.381 432.117 380C432.117 378.619 433.236 377.5 434.617 377.5V382.5ZM455.445 377.5C456.826 377.5 457.945 378.619 457.945 380C457.945 381.381 456.826 382.5 455.445 382.5V377.5ZM476.273 382.5C474.892 382.5 473.773 381.381 473.773 380C473.773 378.619 474.892 377.5 476.273 377.5V382.5ZM497.101 377.5C498.482 377.5 499.601 378.619 499.601 380C499.601 381.381 498.482 382.5 497.101 382.5V377.5ZM517.929 382.5C516.549 382.5 515.429 381.381 515.429 380C515.429 378.619 516.549 377.5 517.929 377.5V382.5ZM538.758 377.5C540.138 377.5 541.258 378.619 541.258 380C541.258 381.381 540.138 382.5 538.758 382.5V377.5ZM559.586 382.5C558.205 382.5 557.086 381.381 557.086 380C557.086 378.619 558.205 377.5 559.586 377.5V382.5ZM286.489 351.992L295.255 358.492L292.276 362.508L283.511 356.008L286.489 351.992ZM312.785 371.492L321.551 377.992L318.572 382.008L309.807 375.508L312.785 371.492ZM320.062 377.5H330.476V382.5H320.062V377.5ZM351.304 377.5H372.132V382.5H351.304V377.5ZM392.96 377.5H413.788V382.5H392.96V377.5ZM434.617 377.5H455.445V382.5H434.617V377.5ZM476.273 377.5H497.101V382.5H476.273V377.5ZM517.929 377.5H538.758V382.5H517.929V377.5ZM559.586 377.5H570V382.5H559.586V377.5Z" fill="#E1AB3B"/>
</svg>
