<svg width="31" height="32" viewBox="0 0 31 32" fill="none" xmlns="http://www.w3.org/2000/svg">
<path d="M28.3289 16.3109C28.3289 15.1598 28.2389 14.3198 28.0441 13.4487H15.3792V18.6442H22.8132C22.6634 19.9354 21.854 21.8798 20.0554 23.1864L20.0302 23.3604L24.0346 26.58L24.312 26.6087C26.86 24.1665 28.3289 20.5731 28.3289 16.3109Z" fill="#4285F4"/>
<path d="M15.3783 30C19.0204 30 22.0779 28.7555 24.3112 26.6089L20.0545 23.1865C18.9155 24.011 17.3867 24.5865 15.3783 24.5865C11.8112 24.5865 8.78361 22.1444 7.70437 18.7688L7.54618 18.7827L3.38233 22.1272L3.32788 22.2843C5.54609 26.8576 10.1025 30 15.3783 30Z" fill="#34A853"/>
<path d="M7.70509 18.7689C7.42032 17.8978 7.25552 16.9644 7.25552 16C7.25552 15.0355 7.42032 14.1022 7.69011 13.2311L7.68257 13.0455L3.46653 9.64737L3.32859 9.71547C2.41436 11.6133 1.88977 13.7444 1.88977 16C1.88977 18.2555 2.41436 20.3866 3.32859 22.2844L7.70509 18.7689Z" fill="#FBBC05"/>
<path d="M15.3784 7.4133C17.9113 7.4133 19.6199 8.54885 20.5942 9.4978L24.4012 5.64C22.0631 3.38445 19.0204 2 15.3784 2C10.1025 2 5.5461 5.1422 3.32788 9.71549L7.68941 13.2311C8.78364 9.85555 11.8112 7.4133 15.3784 7.4133Z" fill="#EB4335"/>
</svg>
