<svg width="24" height="24" viewBox="0 0 24 24" fill="none" xmlns="http://www.w3.org/2000/svg">
<g clip-path="url(#clip0_537_5187)">
<path d="M12.3233 22C6.80171 21.9945 2.32958 17.5149 2.33325 11.9933C2.33694 6.47179 6.81504 1.99816 12.3366 2C17.8581 2.00184 22.3333 6.47845 22.3333 12C22.3299 17.5254 17.8486 22.0022 12.3233 22ZM4.33325 12.172C4.38057 16.5732 7.97436 20.1095 12.3758 20.086C16.7772 20.0622 20.3328 16.4875 20.3328 12.086C20.3328 7.6845 16.7772 4.10977 12.3758 4.08599C7.97436 4.06245 4.38057 7.59876 4.33325 12V12.172ZM13.3333 17H11.3333V15H13.3333V17ZM13.3333 13H11.3333V7H13.3333V13Z" fill="white"/>
</g>
<defs>
<clipPath id="clip0_537_5187">
<rect width="24" height="24" fill="white"/>
</clipPath>
</defs>
</svg>
