<svg width="17" height="17" viewBox="0 0 17 17" fill="none" xmlns="http://www.w3.org/2000/svg">
<path d="M3.54167 2.125C2.75896 2.125 2.125 2.75896 2.125 3.54167V13.4583C2.125 14.241 2.75896 14.875 3.54167 14.875H13.4583C14.241 14.875 14.875 14.241 14.875 13.4583V3.54167C14.875 2.75896 14.241 2.125 13.4583 2.125H3.54167ZM3.54167 3.54167H13.4583V13.4583H3.54167V3.54167ZM5.51034 4.47412C4.90329 4.47412 4.53914 4.83903 4.53914 5.32495C4.53914 5.81087 4.90334 6.1744 5.44946 6.1744C6.0565 6.1744 6.42065 5.81087 6.42065 5.32495C6.42065 4.83903 6.05646 4.47412 5.51034 4.47412ZM4.58756 7.08333V12.0417H6.375V7.08333H4.58756ZM7.84977 7.08333V12.0417H9.63721V9.33146C9.63721 8.52467 10.2128 8.40869 10.3857 8.40869C10.5585 8.40869 11.0207 8.58204 11.0207 9.33146V12.0417H12.75V9.33146C12.75 7.77525 12.0585 7.08333 11.1936 7.08333C10.3287 7.08333 9.86741 7.37131 9.63721 7.77506V7.08333H7.84977Z" fill="white"/>
</svg>
